# Blender 4.5.3 LTS
# www.blender.org
mtllib projector_screen.mtl
o projector_screen
v 0.000000 1.585000 1.120000
v 0.000000 1.645000 1.120000
v 0.000000 1.585000 1.080000
v 0.000000 1.645000 1.080000
v 0.010000 1.600000 1.110000
v 0.010000 1.630000 1.110000
v 0.010000 1.600000 1.090000
v 0.010000 1.630000 1.090000
v 0.000000 1.585000 -1.080000
v 0.000000 1.645000 -1.080000
v 0.000000 1.585000 -1.120000
v 0.000000 1.645000 -1.120000
v 0.010000 1.600000 -1.090000
v 0.010000 1.630000 -1.090000
v 0.010000 1.600000 -1.110000
v 0.010000 1.630000 -1.110000
v 0.010000 1.645000 1.080000
v 0.010000 1.585000 1.080000
v 0.010000 1.585000 1.120000
v 0.010000 1.645000 1.120000
v 0.010000 1.645000 -1.120000
v 0.010000 1.585000 -1.120000
v 0.010000 1.585000 -1.080000
v 0.010000 1.645000 -1.080000
v 0.090000 1.630000 1.090000
v 0.090000 1.600000 1.090000
v 0.090000 1.600000 1.110000
v 0.090000 1.630000 1.110000
v 0.090000 1.630000 -1.110000
v 0.090000 1.600000 -1.110000
v 0.090000 1.600000 -1.090000
v 0.090000 1.630000 -1.090000
v 0.110000 1.630000 1.090000
v 0.110000 1.600000 1.090000
v 0.110000 1.600000 1.110000
v 0.110000 1.630000 1.110000
v 0.110000 1.630000 -1.110000
v 0.110000 1.600000 -1.110000
v 0.110000 1.600000 -1.090000
v 0.110000 1.630000 -1.090000
v 0.090000 1.640000 1.090000
v 0.090000 1.640000 1.110000
v 0.090000 1.640000 -1.110000
v 0.090000 1.640000 -1.090000
v 0.110000 1.635000 1.090000
v 0.110000 1.635000 1.110000
v 0.110000 1.635000 -1.110000
v 0.110000 1.635000 -1.090000
v 0.090000 1.590000 1.090000
v 0.090000 1.590000 1.110000
v 0.090000 1.590000 -1.110000
v 0.090000 1.590000 -1.090000
v 0.110000 1.595000 1.090000
v 0.110000 1.595000 1.110000
v 0.110000 1.595000 -1.110000
v 0.110000 1.595000 -1.090000
v 0.090000 1.630000 1.130000
v 0.090000 1.600000 1.130000
v 0.110000 1.630000 1.130000
v 0.110000 1.600000 1.130000
v 0.090000 1.640000 1.130000
v 0.110000 1.635000 1.130000
v 0.090000 1.590000 1.130000
v 0.110000 1.595000 1.130000
v 0.090000 1.630000 -1.130000
v 0.090000 1.600000 -1.130000
v 0.110000 1.630000 -1.130000
v 0.110000 1.600000 -1.130000
v 0.090000 1.640000 -1.130000
v 0.110000 1.635000 -1.130000
v 0.110000 1.595000 -1.130000
v 0.090000 1.590000 -1.130000
v 0.090000 1.560000 -0.950000
v 0.090000 0.040000 -0.950000
v 0.090000 1.560000 0.950000
v 0.090000 0.040000 0.950000
v 0.085000 1.600000 -1.000000
v 0.085000 0.000000 -1.000000
v 0.085000 1.600000 1.000000
v 0.085000 0.000000 1.000000
v 0.090000 1.600000 -1.000000
v 0.090000 0.000000 -1.000000
v 0.090000 1.600000 1.000000
v 0.090000 0.000000 1.000000
v 0.087500 1.560000 -0.950000
v 0.087500 0.040000 -0.950000
v 0.087500 1.560000 0.950000
v 0.087500 0.040000 0.950000
v 0.090000 1.580000 -0.975000
v 0.090000 0.020000 -0.975000
v 0.090000 0.020000 0.975000
v 0.090000 1.580000 0.975000
v 0.090000 0.000000 -1.000000
v 0.090000 0.000000 1.000000
v 0.090000 0.020000 -1.000000
v 0.090000 0.020000 1.000000
v 0.090000 0.000000 -0.975000
v 0.090000 0.000000 0.975000
v 0.110000 0.020000 -1.000000
v 0.110000 0.000000 -1.000000
v 0.110000 0.020000 1.000000
v 0.110000 0.000000 1.000000
v 0.110000 0.000000 -1.000000
v 0.110000 0.020000 0.975000
v 0.110000 0.020000 -0.975000
v 0.110000 0.000000 -0.975000
v 0.110000 0.000000 0.975000
v 0.110000 0.000000 1.000000
vn -1.0000 -0.0000 -0.0000
vn -0.0000 -0.0000 -1.0000
vn -0.0000 -0.0000 1.0000
vn -0.0000 -1.0000 -0.0000
vn -0.0000 1.0000 -0.0000
vn 1.0000 -0.0000 -0.0000
vn 0.2425 0.9701 -0.0000
vn 0.2425 -0.9701 -0.0000
vt 0.491126 0.676298
vt 0.473492 0.676298
vt 0.473492 0.658664
vt 0.491126 0.658664
vt 0.491126 0.697599
vt 0.473492 0.697599
vt 0.473492 0.679964
vt 0.491126 0.679964
vt 0.482309 0.142907
vt 0.473492 0.142907
vt 0.473492 0.001833
vt 0.482309 0.001833
vt 0.491126 0.718899
vt 0.473492 0.718899
vt 0.473492 0.701265
vt 0.491126 0.701265
vt 0.473492 0.829069
vt 0.491124 0.829069
vt 0.491124 0.846704
vt 0.473492 0.846704
vt 0.473492 0.850370
vt 0.491124 0.850370
vt 0.491124 0.868004
vt 0.473492 0.868004
vt 0.491126 0.804102
vt 0.473492 0.804102
vt 0.473492 0.786468
vt 0.491126 0.786468
vt 0.491126 0.740200
vt 0.473492 0.740200
vt 0.473492 0.722566
vt 0.491126 0.722566
vt 0.358131 0.001833
vt 0.358131 0.010650
vt 0.217078 0.010650
vt 0.217078 0.001833
vt 0.491126 0.761501
vt 0.473492 0.761501
vt 0.473492 0.743867
vt 0.491126 0.743867
vt 0.473492 0.871671
vt 0.491124 0.871671
vt 0.491124 0.889305
vt 0.473492 0.889305
vt 0.473492 0.892971
vt 0.491124 0.892971
vt 0.491124 0.910606
vt 0.473492 0.910606
vt 0.477901 0.778393
vt 0.486718 0.778393
vt 0.491126 0.782801
vt 0.473492 0.782801
vt 0.486718 0.769576
vt 0.491126 0.765167
vt 0.477901 0.769576
vt 0.473492 0.765167
vt 0.477901 0.820994
vt 0.486718 0.820994
vt 0.491126 0.825403
vt 0.473492 0.825403
vt 0.486718 0.812177
vt 0.491126 0.807769
vt 0.477901 0.812177
vt 0.473492 0.807769
vt 0.142886 0.980533
vt 0.142886 0.971716
vt 0.178149 0.971716
vt 0.178149 0.980533
vt 0.458069 0.989350
vt 0.459539 0.989350
vt 0.459539 0.998167
vt 0.458069 0.998167
vt 0.358131 0.971715
vt 0.358131 0.980532
vt 0.217078 0.980532
vt 0.217078 0.971715
vt 0.482309 0.287647
vt 0.473492 0.287647
vt 0.473492 0.146573
vt 0.482309 0.146573
vt 0.473492 0.291314
vt 0.482309 0.291314
vt 0.482309 0.432387
vt 0.473492 0.432387
vt 0.001833 0.010650
vt 0.001833 0.001833
vt 0.142886 0.001833
vt 0.142886 0.010650
vt 0.473492 0.436054
vt 0.482309 0.436054
vt 0.482309 0.577127
vt 0.473492 0.577127
vt 0.001833 0.980533
vt 0.001833 0.971716
vt 0.459539 0.980532
vt 0.468356 0.980532
vt 0.468356 0.989350
vt 0.459539 0.010650
vt 0.468356 0.010650
vt 0.468356 0.019467
vt 0.459539 0.019467
vt 0.181815 0.010650
vt 0.181815 0.001833
vt 0.459539 0.001833
vt 0.468356 0.001833
vt 0.181815 0.980532
vt 0.181815 0.971715
vt 0.178149 0.010650
vt 0.178149 0.001833
vt 0.451464 0.980532
vt 0.442647 0.980532
vt 0.442647 0.019467
vt 0.451464 0.019467
vt 0.454403 0.980532
vt 0.454403 0.989350
vt 0.451464 0.989350
vt 0.454403 0.019467
vt 0.451464 0.010650
vt 0.454403 0.010650
vt 0.469825 0.010650
vt 0.469825 0.019467
vt 0.469826 0.980532
vt 0.469826 0.989350
vt 0.400752 0.980532
vt 0.400752 0.019467
vt 0.436041 0.019467
vt 0.436041 0.980532
vt 0.436041 0.989350
vt 0.400752 0.989350
vt 0.468356 0.998167
vt 0.400752 0.010650
vt 0.436041 0.010650
vt 0.400752 0.001833
vt 0.436041 0.001833
vt 0.442647 0.010650
vt 0.439708 0.019467
vt 0.439708 0.010650
vt 0.439708 0.980532
vt 0.458069 0.019467
vt 0.458069 0.010650
vt 0.458069 0.980532
vt 0.442647 0.989350
vt 0.439708 0.989350
vt 0.397086 0.010650
vt 0.397086 0.019468
vt 0.361797 0.019468
vt 0.361797 0.010650
vt 0.397086 0.980533
vt 0.361797 0.980533
vt 0.397086 0.989350
vt 0.361797 0.989350
vt 0.436041 0.998167
vt 0.400752 0.998167
vt 0.458069 0.001833
vt 0.485248 0.616062
vt 0.476431 0.616062
vt 0.476431 0.580794
vt 0.485248 0.580794
vt 0.486718 0.580794
vt 0.488187 0.616062
vt 0.473492 0.616062
vt 0.474962 0.580794
vt 0.397086 0.998167
vt 0.361797 0.998167
vt 0.439708 0.001833
vt 0.442647 0.001833
vt 0.469826 0.998167
vt 0.451464 0.001833
vt 0.454403 0.001833
vt 0.476431 0.619729
vt 0.485248 0.619729
vt 0.485248 0.654997
vt 0.476431 0.654997
vt 0.488187 0.619729
vt 0.486718 0.654997
vt 0.474962 0.654997
vt 0.473492 0.619729
vt 0.442647 0.998167
vt 0.439708 0.998167
vt 0.454403 0.998167
vt 0.451464 0.998167
vt 0.361797 0.001833
vt 0.397086 0.001833
vt 0.469825 0.001833
vt 0.952447 0.776611
vt 0.944702 0.776611
vt 0.944702 0.002093
vt 0.952447 0.002093
vt 0.932770 0.415169
vt 0.932770 0.410005
vt 0.932770 0.002093
vt 0.940515 0.002093
vt 0.940515 0.415169
vt 0.415169 0.776611
vt 0.002093 0.776611
vt 0.002093 0.002093
vt 0.415169 0.002093
vt 0.964379 0.776611
vt 0.956634 0.776611
vt 0.956634 0.002093
vt 0.964379 0.002093
vt 0.977916 0.737885
vt 0.977916 0.002093
vt 0.981788 0.002093
vt 0.981788 0.737885
vt 0.901789 0.832431
vt 0.901789 0.419356
vt 0.909534 0.419356
vt 0.909534 0.827268
vt 0.909534 0.832431
vt 0.424519 0.766929
vt 0.827268 0.766929
vt 0.827268 0.776611
vt 0.419356 0.776611
vt 0.827268 0.011775
vt 0.424519 0.011775
vt 0.419356 0.002093
vt 0.827268 0.002093
vt 0.533284 0.999271
vt 0.000729 0.999271
vt 0.000729 0.000729
vt 0.533284 0.000729
vt 0.994034 0.394515
vt 0.994034 0.002093
vt 0.997907 0.002093
vt 0.997907 0.394515
vt 0.989847 0.002093
vt 0.989847 0.737885
vt 0.985975 0.737885
vt 0.985975 0.002093
vt 0.997907 0.398702
vt 0.997907 0.791124
vt 0.994034 0.791124
vt 0.994034 0.398702
vt 0.822104 0.757248
vt 0.822104 0.021456
vt 0.429683 0.021456
vt 0.429683 0.757248
vt 0.831454 0.776611
vt 0.831454 0.766929
vt 0.862435 0.766929
vt 0.862435 0.776611
vt 0.897602 0.011775
vt 0.897602 0.766929
vt 0.866622 0.766929
vt 0.866622 0.011775
vt 0.940515 0.827268
vt 0.940515 0.832431
vt 0.973729 0.776611
vt 0.968565 0.776611
vt 0.968565 0.766929
vt 0.973729 0.766929
vt 0.968565 0.011775
vt 0.973729 0.011775
vt 0.968565 0.002093
vt 0.973729 0.002093
vt 0.002093 0.780797
vt 0.006280 0.780797
vt 0.831454 0.011775
vt 0.862435 0.011775
vt 0.901789 0.415169
vt 0.901789 0.410005
vt 0.897602 0.776611
vt 0.866622 0.776611
vt 0.897602 0.002093
vt 0.866622 0.002093
vt 0.831454 0.002093
vt 0.862435 0.002093
s 0
usemtl white_plastic
f 1/1/1 2/2/1 4/3/1 3/4/1
f 3/5/2 4/6/2 17/7/2 18/8/2
f 15/9/2 16/10/2 29/11/2 30/12/2
f 19/13/3 20/14/3 2/15/3 1/16/3
f 3/17/4 18/18/4 19/19/4 1/20/4
f 17/21/5 4/22/5 2/23/5 20/24/5
f 9/25/1 10/26/1 12/27/1 11/28/1
f 11/29/2 12/30/2 21/31/2 22/32/2
f 16/33/5 14/34/5 32/35/5 29/36/5
f 23/37/3 24/38/3 10/39/3 9/40/3
f 11/41/4 22/42/4 23/43/4 9/44/4
f 21/45/5 12/46/5 10/47/5 24/48/5
f 8/49/6 7/50/6 18/51/6 17/52/6
f 7/50/6 5/53/6 19/54/6 18/51/6
f 6/55/6 8/49/6 17/52/6 20/56/6
f 5/53/6 6/55/6 20/56/6 19/54/6
f 16/57/6 15/58/6 22/59/6 21/60/6
f 15/58/6 13/61/6 23/62/6 22/59/6
f 14/63/6 16/57/6 21/60/6 24/64/6
f 13/61/6 14/63/6 24/64/6 23/62/6
f 27/65/4 26/66/4 34/67/4 35/68/4
f 54/69/6 35/70/6 60/71/6 64/72/6
f 8/73/5 6/74/5 28/75/5 25/76/5
f 7/77/2 8/78/2 25/79/2 26/80/2
f 14/81/3 13/82/3 31/83/3 32/84/3
f 13/85/4 15/86/4 30/87/4 31/88/4
f 6/89/3 5/90/3 27/91/3 28/92/3
f 5/93/4 7/94/4 26/66/4 27/65/4
f 34/95/6 33/96/6 36/97/6 35/70/6
f 38/98/6 37/99/6 40/100/6 39/101/6
f 29/36/5 32/35/5 40/102/5 37/103/5
f 37/99/6 38/98/6 68/104/6 67/105/6
f 25/76/5 28/75/5 36/106/5 33/107/5
f 39/101/6 40/100/6 33/96/6 34/95/6
f 31/88/4 39/108/4 34/67/4 26/66/4
f 31/88/4 30/87/4 38/109/4 39/108/4
f 40/102/5 32/35/5 25/76/5 33/107/5
f 32/110/1 31/111/1 26/112/1 25/113/1
f 32/110/1 44/114/1 43/115/1 29/116/1
f 32/110/1 25/113/1 41/117/1 44/114/1
f 28/118/1 42/119/1 41/117/1 25/113/1
f 37/99/6 47/120/6 48/121/6 40/100/6
f 33/96/6 45/122/6 46/123/6 36/97/6
f 40/100/6 48/121/6 45/122/6 33/96/6
f 45/124/7 48/125/7 44/126/7 41/127/7
f 42/128/7 46/129/7 45/124/7 41/127/7
f 35/70/6 36/97/6 59/130/6 60/71/6
f 44/126/7 48/125/7 47/131/7 43/132/7
f 47/131/7 70/133/7 69/134/7 43/132/7
f 27/135/1 26/112/1 49/136/1 50/137/1
f 26/112/1 31/111/1 52/138/1 49/136/1
f 39/101/6 56/139/6 55/140/6 38/98/6
f 34/95/6 35/70/6 54/69/6 53/141/6
f 34/95/6 53/141/6 56/139/6 39/101/6
f 30/142/1 51/143/1 52/138/1 31/111/1
f 55/144/8 56/145/8 52/146/8 51/147/8
f 56/145/8 53/148/8 49/149/8 52/146/8
f 53/148/8 54/150/8 50/151/8 49/149/8
f 42/128/7 61/152/7 62/153/7 46/129/7
f 55/140/6 71/154/6 68/104/6 38/98/6
f 57/155/3 58/156/3 60/157/3 59/158/3
f 62/159/3 61/160/3 57/155/3 59/158/3
f 58/156/3 63/161/3 64/162/3 60/157/3
f 50/151/8 54/150/8 64/163/8 63/164/8
f 27/135/1 50/137/1 63/165/1 58/166/1
f 46/123/6 62/167/6 59/130/6 36/97/6
f 28/118/1 27/135/1 58/166/1 57/168/1
f 28/118/1 57/168/1 61/169/1 42/119/1
f 66/170/2 65/171/2 67/172/2 68/173/2
f 67/172/2 65/171/2 69/174/2 70/175/2
f 71/176/2 72/177/2 66/170/2 68/173/2
f 30/142/1 66/178/1 72/179/1 51/143/1
f 43/115/1 69/180/1 65/181/1 29/116/1
f 30/142/1 29/116/1 65/181/1 66/178/1
f 51/147/8 72/182/8 71/183/8 55/144/8
f 37/99/6 67/105/6 70/184/6 47/120/6
usemtl black_plastic
f 81/185/5 77/186/5 79/187/5 83/188/5
f 84/189/3 96/190/3 83/191/3 79/192/3 80/193/3
f 80/194/1 79/195/1 77/196/1 78/197/1
f 78/198/4 82/199/4 84/200/4 80/201/4
f 73/202/4 75/203/4 87/204/4 85/205/4
f 78/206/2 77/207/2 81/208/2 95/209/2 82/210/2
f 89/211/6 90/212/6 95/213/6 81/214/6
f 91/215/6 92/216/6 83/217/6 96/218/6
f 92/216/6 89/211/6 81/214/6 83/217/6
f 74/223/3 73/224/3 85/225/3 86/226/3
f 76/227/5 74/228/5 86/229/5 88/230/5
f 75/231/2 76/232/2 88/233/2 87/234/2
f 74/235/6 76/236/6 91/215/6 90/212/6
f 75/237/6 73/238/6 89/211/6 92/216/6
f 76/236/6 75/237/6 92/216/6 91/215/6
f 73/238/6 74/235/6 90/212/6 89/211/6
f 95/239/5 90/240/5 105/241/5 99/242/5
f 98/243/4 97/244/4 106/245/4 107/246/4
f 82/210/2 95/209/2 99/247/2 100/248/2
f 100/249/6 99/250/6 105/251/6 106/252/6 103/249/6
f 106/252/6 105/251/6 104/253/6 107/254/6
f 101/255/6 102/256/6 108/256/6 107/254/6 104/253/6
f 84/257/5 94/257/5 108/257/5 102/257/5
f 93/258/5 82/258/5 100/258/5 103/258/5
f 90/240/5 91/259/5 104/260/5 105/241/5
f 96/190/3 84/189/3 102/261/3 101/262/3
f 97/244/4 93/263/4 103/264/4 106/245/4
f 94/265/4 98/243/4 107/246/4 108/266/4
f 91/259/5 96/267/5 101/268/5 104/260/5
usemtl white_cloth_screen
f 86/219/6 85/220/6 87/221/6 88/222/6
