# Blender 4.5.3 LTS
# www.blender.org
mtllib green_marker.mtl
o green_marker
v 0.000000 0.000000 -0.006614
v 0.000000 0.079945 -0.006614
v 0.003307 0.000000 -0.005728
v 0.003307 0.079945 -0.005728
v 0.005728 0.000000 -0.003307
v 0.005728 0.079945 -0.003307
v 0.006614 0.000000 0.000000
v 0.006614 0.079945 0.000000
v 0.005728 0.000000 0.003307
v 0.005728 0.079945 0.003307
v 0.003307 0.000000 0.005728
v 0.003307 0.079945 0.005728
v 0.000000 0.000000 0.006614
v 0.000000 0.079945 0.006614
v -0.003307 0.000000 0.005728
v -0.003307 0.079945 0.005728
v -0.005728 0.000000 0.003307
v -0.005728 0.079945 0.003307
v -0.006614 0.000000 0.000000
v -0.006614 0.079945 0.000000
v -0.005728 0.000000 -0.003307
v -0.005728 0.079945 -0.003307
v -0.003307 0.000000 -0.005728
v -0.003307 0.079945 -0.005728
v 0.000000 0.080451 -0.005033
v 0.002516 0.080451 -0.004358
v 0.004358 0.080451 -0.002516
v 0.005033 0.080451 0.000000
v 0.004358 0.080451 0.002516
v 0.002516 0.080451 0.004358
v 0.000000 0.080451 0.005033
v -0.002516 0.080451 0.004358
v -0.004358 0.080451 0.002516
v -0.005033 0.080451 0.000000
v -0.004358 0.080451 -0.002516
v -0.002516 0.080451 -0.004358
v 0.000000 0.084968 -0.005033
v 0.002516 0.084968 -0.004358
v 0.004358 0.084968 -0.002516
v 0.005033 0.084968 0.000000
v 0.004358 0.084968 0.002516
v 0.002516 0.084968 0.004358
v 0.000000 0.084968 0.005033
v -0.002516 0.084968 0.004358
v -0.004358 0.084968 0.002516
v -0.005033 0.084968 0.000000
v -0.004358 0.084968 -0.002516
v -0.002516 0.084968 -0.004358
v 0.000000 0.085221 -0.004078
v 0.002039 0.085221 -0.003532
v 0.003532 0.085221 -0.002039
v 0.004078 0.085221 0.000000
v 0.003532 0.085221 0.002039
v 0.002039 0.085221 0.003532
v 0.000000 0.085221 0.004078
v -0.002039 0.085221 0.003532
v -0.003532 0.085221 0.002039
v -0.004078 0.085221 0.000000
v -0.003532 0.085221 -0.002039
v -0.002039 0.085221 -0.003532
v 0.000000 0.087461 -0.004078
v 0.002039 0.087461 -0.003532
v 0.003532 0.087461 -0.002039
v 0.004078 0.087461 0.000000
v 0.003532 0.087461 0.002039
v 0.002039 0.087461 0.003532
v 0.000000 0.087461 0.004078
v -0.002039 0.087461 0.003532
v -0.003532 0.087461 0.002039
v -0.004078 0.087461 0.000000
v -0.003532 0.087461 -0.002039
v -0.002039 0.087461 -0.003532
v 0.000000 0.089592 -0.002889
v 0.001444 0.089592 -0.002502
v 0.002502 0.089592 -0.001444
v 0.002889 0.089592 0.000000
v 0.002502 0.089592 0.001444
v 0.001444 0.089592 0.002502
v 0.000000 0.089592 0.002889
v -0.001444 0.089592 0.002502
v -0.002502 0.089592 0.001444
v -0.002889 0.089592 0.000000
v -0.002502 0.089592 -0.001444
v -0.001444 0.089592 -0.002502
v 0.000000 0.093495 -0.002889
v 0.001444 0.093495 -0.002502
v 0.002502 0.093495 -0.001444
v 0.002889 0.093495 0.000000
v 0.002502 0.093495 0.001444
v 0.001444 0.093495 0.002502
v 0.000000 0.093495 0.002889
v -0.001444 0.093495 0.002502
v -0.002502 0.093495 0.001444
v -0.002889 0.093495 0.000000
v -0.002502 0.093495 -0.001444
v -0.001444 0.093495 -0.002502
v 0.000000 0.094976 -0.001883
v 0.000941 0.094976 -0.001630
v 0.001630 0.094976 -0.000941
v 0.001883 0.094976 0.000000
v 0.001630 0.094976 0.000941
v 0.000941 0.094976 0.001630
v 0.000000 0.094976 0.001883
v -0.000941 0.094976 0.001630
v -0.001630 0.094976 0.000941
v -0.001883 0.094976 0.000000
v -0.001630 0.094976 -0.000941
v -0.000941 0.094976 -0.001630
v -0.000000 0.097517 -0.001883
v 0.000941 0.097517 -0.001630
v 0.001630 0.097517 -0.000941
v 0.001883 0.097517 0.000000
v 0.001630 0.097517 0.000941
v 0.000941 0.097517 0.001630
v -0.000000 0.097517 0.001883
v -0.000941 0.097517 0.001630
v -0.001630 0.097517 0.000941
v -0.001883 0.097517 0.000000
v -0.001630 0.097517 -0.000941
v -0.000941 0.097517 -0.001630
v -0.000000 0.100000 -0.000202
v 0.000101 0.100000 -0.000175
v 0.000175 0.100000 -0.000101
v 0.000202 0.100000 0.000000
v 0.000175 0.100000 0.000101
v 0.000101 0.100000 0.000175
v -0.000000 0.100000 0.000202
v -0.000101 0.100000 0.000175
v -0.000175 0.100000 0.000101
v -0.000202 0.100000 0.000000
v -0.000175 0.100000 -0.000101
v -0.000101 0.100000 -0.000175
vn -0.0000 -0.0000 -1.0000
vn 0.5000 -0.0000 -0.8660
vn 0.8660 -0.0000 -0.5000
vn 1.0000 -0.0000 -0.0000
vn 0.8660 -0.0000 0.5000
vn 0.5000 -0.0000 0.8660
vn -0.0000 -0.0000 1.0000
vn -0.5000 -0.0000 0.8660
vn -0.8660 -0.0000 0.5000
vn -1.0000 -0.0000 -0.0000
vn -0.8660 -0.0000 -0.5000
vn 0.1523 0.9525 0.2638
vn 0.2638 0.9525 0.1523
vn -0.5000 -0.0000 -0.8660
vn -0.0000 -1.0000 -0.0000
vn 0.3046 0.9525 -0.0000
vn -0.0000 0.9525 -0.3046
vn -0.1523 0.9525 -0.2638
vn 0.1523 0.9525 -0.2638
vn 0.2638 0.9525 -0.1523
vn -0.2638 0.9525 -0.1523
vn -0.3046 0.9525 -0.0000
vn -0.2638 0.9525 0.1523
vn -0.1523 0.9525 0.2638
vn -0.0000 0.9525 0.3046
vn -0.0000 0.9667 0.2560
vn 0.1280 0.9667 0.2217
vn -0.8403 0.2421 0.4851
vn -0.9703 0.2421 -0.0000
vn 0.2560 0.9667 -0.0000
vn 0.2217 0.9667 -0.1280
vn -0.2217 0.9667 -0.1280
vn -0.2560 0.9667 -0.0000
vn -0.1280 0.9667 0.2217
vn 0.2217 0.9667 0.1280
vn -0.1280 0.9667 -0.2217
vn 0.1280 0.9667 -0.2217
vn -0.0000 0.9667 -0.2560
vn -0.2217 0.9667 0.1280
vn 0.8403 0.2421 -0.4851
vn 0.4851 0.2421 -0.8403
vn 0.4825 0.2624 -0.8357
vn 0.8357 0.2624 -0.4825
vn 0.4851 0.2421 0.8403
vn -0.0000 0.2421 0.9703
vn 0.9703 0.2421 -0.0000
vn -0.8403 0.2421 -0.4851
vn -0.4851 0.2421 0.8403
vn 0.8403 0.2421 0.4851
vn -0.4851 0.2421 -0.8403
vn -0.0000 0.2421 -0.9703
vn -0.0000 0.2624 -0.9650
vn -0.4825 0.2624 -0.8357
vn -0.4798 0.2812 -0.8311
vn -0.0000 0.2812 -0.9597
vn -0.8357 0.2624 0.4825
vn -0.9650 0.2624 -0.0000
vn 0.4825 0.2624 0.8357
vn -0.0000 0.2624 0.9650
vn 0.9650 0.2624 -0.0000
vn -0.8357 0.2624 -0.4825
vn -0.4825 0.2624 0.8357
vn 0.8357 0.2624 0.4825
vn 0.4798 0.2812 0.8311
vn 0.8311 0.2812 0.4798
vn 0.8238 0.3085 0.4756
vn 0.4756 0.3085 0.8238
vn 0.4798 0.2812 -0.8311
vn 0.8311 0.2812 -0.4798
vn -0.8311 0.2812 0.4798
vn -0.9597 0.2812 -0.0000
vn -0.0000 0.2812 0.9597
vn 0.9597 0.2812 -0.0000
vn -0.8311 0.2812 -0.4798
vn -0.4798 0.2812 0.8311
vn 0.8238 0.3085 -0.4756
vn 0.4756 0.3085 -0.8238
vn 0.4799 0.2804 -0.8313
vn 0.8313 0.2804 -0.4799
vn -0.4756 0.3085 -0.8238
vn -0.0000 0.3085 -0.9512
vn -0.8238 0.3085 0.4756
vn -0.9512 0.3085 -0.0000
vn -0.0000 0.3085 0.9512
vn 0.9512 0.3085 -0.0000
vn -0.8238 0.3085 -0.4756
vn -0.4756 0.3085 0.8238
vn -0.0000 0.2804 -0.9599
vn -0.4799 0.2804 -0.8313
vn -0.4141 0.5605 -0.7172
vn -0.0000 0.5605 -0.8281
vn -0.8313 0.2804 0.4799
vn -0.9599 0.2804 -0.0000
vn 0.4799 0.2804 0.8313
vn -0.0000 0.2804 0.9599
vn 0.9599 0.2804 -0.0000
vn -0.8313 0.2804 -0.4799
vn -0.4799 0.2804 0.8313
vn 0.8313 0.2804 0.4799
vn -0.0000 1.0000 -0.0000
vn 0.4141 0.5605 -0.7172
vn 0.7172 0.5605 -0.4141
vn -0.7172 0.5605 0.4141
vn -0.8281 0.5605 -0.0000
vn 0.4141 0.5605 0.7172
vn -0.0000 0.5605 0.8281
vn 0.8281 0.5605 -0.0000
vn -0.7172 0.5605 -0.4141
vn -0.4141 0.5605 0.7172
vn 0.7172 0.5605 0.4141
vt 0.160931 0.997450
vt 0.160931 0.003244
vt 0.203532 0.003244
vt 0.203532 0.997450
vt 0.240425 0.002550
vt 0.240425 0.996756
vt 0.245524 0.996756
vt 0.245524 0.002550
vt 0.282418 0.003244
vt 0.282418 0.997450
vt 0.325019 0.003244
vt 0.325019 0.997450
vt 0.361913 0.002550
vt 0.361913 0.996756
vt 0.002550 0.996756
vt 0.002550 0.002550
vt 0.039443 0.003244
vt 0.039443 0.997450
vt 0.082044 0.003244
vt 0.082044 0.997450
vt 0.118938 0.002550
vt 0.118938 0.996756
vt 0.367012 0.996756
vt 0.367012 0.002550
vt 0.403905 0.003244
vt 0.403905 0.997450
vt 0.446506 0.003244
vt 0.446506 0.997450
vt 0.647488 0.103345
vt 0.626188 0.140238
vt 0.612273 0.126324
vt 0.628481 0.098252
vt 0.483400 0.002550
vt 0.483400 0.996756
vt 0.124037 0.996756
vt 0.124037 0.002550
vt 0.488499 0.267433
vt 0.488499 0.224832
vt 0.509800 0.187939
vt 0.546693 0.166638
vt 0.589294 0.166638
vt 0.626188 0.187939
vt 0.647488 0.224832
vt 0.647488 0.267433
vt 0.626188 0.304327
vt 0.589294 0.325627
vt 0.546693 0.325627
vt 0.509800 0.304327
vt 0.652588 0.411495
vt 0.653116 0.383423
vt 0.709282 0.383423
vt 0.708754 0.411495
vt 0.589294 0.161539
vt 0.584201 0.142531
vt 0.488499 0.103345
vt 0.488499 0.060744
vt 0.507507 0.065837
vt 0.507507 0.098252
vt 0.509800 0.140238
vt 0.523714 0.126324
vt 0.546693 0.161539
vt 0.551786 0.142531
vt 0.509800 0.023850
vt 0.523714 0.037765
vt 0.546693 0.002550
vt 0.551786 0.021557
vt 0.589294 0.002550
vt 0.584201 0.021557
vt 0.626188 0.023850
vt 0.612273 0.037765
vt 0.647488 0.060744
vt 0.628481 0.065837
vt 0.593266 0.346934
vt 0.609473 0.375006
vt 0.597996 0.378081
vt 0.584864 0.355335
vt 0.709282 0.631226
vt 0.708754 0.659298
vt 0.652588 0.659298
vt 0.653116 0.631226
vt 0.709282 0.692470
vt 0.709282 0.724884
vt 0.653116 0.724884
vt 0.653116 0.692470
vt 0.652588 0.443910
vt 0.708754 0.443910
vt 0.709282 0.598811
vt 0.653116 0.598811
vt 0.708754 0.664398
vt 0.652588 0.664398
vt 0.652588 0.537568
vt 0.652588 0.505153
vt 0.708754 0.505153
vt 0.708754 0.537568
vt 0.653116 0.471982
vt 0.709282 0.471982
vt 0.708754 0.570739
vt 0.652588 0.570739
vt 0.653116 0.477081
vt 0.709282 0.477081
vt 0.653116 0.565640
vt 0.709282 0.565640
vt 0.708754 0.752957
vt 0.652588 0.752957
vt 0.675333 0.187887
vt 0.652588 0.187459
vt 0.652588 0.159600
vt 0.675333 0.160029
vt 0.593266 0.435493
vt 0.565194 0.451700
vt 0.562118 0.440224
vt 0.584864 0.427091
vt 0.488499 0.375006
vt 0.504707 0.346934
vt 0.513108 0.355335
vt 0.499976 0.378081
vt 0.565194 0.330726
vt 0.562118 0.342203
vt 0.609473 0.407421
vt 0.597996 0.404346
vt 0.488499 0.407421
vt 0.499976 0.404346
vt 0.532779 0.451700
vt 0.504707 0.435493
vt 0.513108 0.427091
vt 0.535854 0.440224
vt 0.532779 0.330726
vt 0.535854 0.342203
vt 0.560255 0.613850
vt 0.537510 0.614278
vt 0.533681 0.587302
vt 0.549795 0.586999
vt 0.675333 0.378324
vt 0.652588 0.377896
vt 0.652588 0.350037
vt 0.675333 0.350465
vt 0.511245 0.832573
vt 0.488499 0.832145
vt 0.488499 0.804287
vt 0.511245 0.804715
vt 0.701598 0.187887
vt 0.701598 0.160029
vt 0.701598 0.378324
vt 0.701598 0.350465
vt 0.537510 0.832573
vt 0.537510 0.804715
vt 0.724344 0.187459
vt 0.724344 0.159600
vt 0.537510 0.642137
vt 0.511245 0.642137
vt 0.511245 0.614278
vt 0.724344 0.377896
vt 0.724344 0.350037
vt 0.560255 0.832145
vt 0.560255 0.804287
vt 0.488499 0.641709
vt 0.488499 0.613850
vt 0.560255 0.641709
vt 0.515074 0.587302
vt 0.498960 0.586999
vt 0.498960 0.538471
vt 0.515074 0.538775
vt 0.663048 0.132749
vt 0.679162 0.133052
vt 0.663048 0.323186
vt 0.679162 0.323489
vt 0.498960 0.777436
vt 0.515074 0.777739
vt 0.697769 0.133052
vt 0.697769 0.323489
vt 0.533681 0.777739
vt 0.713883 0.132749
vt 0.713883 0.323186
vt 0.549795 0.777436
vt 0.549795 0.728908
vt 0.533681 0.729211
vt 0.530440 0.710395
vt 0.540941 0.710197
vt 0.533681 0.538775
vt 0.549795 0.538471
vt 0.663048 0.084222
vt 0.679162 0.084525
vt 0.663048 0.274658
vt 0.679162 0.274962
vt 0.498960 0.728908
vt 0.515074 0.729211
vt 0.697769 0.084525
vt 0.697769 0.274962
vt 0.713883 0.084222
vt 0.713883 0.274658
vt 0.540941 0.519760
vt 0.530440 0.519958
vt 0.530440 0.488358
vt 0.540941 0.488160
vt 0.507814 0.519760
vt 0.518315 0.519958
vt 0.671902 0.065511
vt 0.682403 0.065708
vt 0.671902 0.255947
vt 0.682403 0.256145
vt 0.507814 0.710197
vt 0.518315 0.710395
vt 0.694528 0.065708
vt 0.694528 0.256145
vt 0.705029 0.065511
vt 0.705029 0.255947
vt 0.518315 0.488358
vt 0.507814 0.488160
vt 0.522600 0.456799
vt 0.523727 0.456821
vt 0.671902 0.033910
vt 0.682403 0.034108
vt 0.671902 0.224347
vt 0.682403 0.224544
vt 0.507814 0.678597
vt 0.518315 0.678794
vt 0.694528 0.034108
vt 0.694528 0.224544
vt 0.530440 0.678794
vt 0.705029 0.033910
vt 0.705029 0.224347
vt 0.540941 0.678597
vt 0.654365 0.762911
vt 0.653238 0.762260
vt 0.652588 0.761134
vt 0.652588 0.759833
vt 0.653238 0.758706
vt 0.654365 0.758056
vt 0.655666 0.758056
vt 0.656792 0.758706
vt 0.657443 0.759833
vt 0.657443 0.761134
vt 0.656792 0.762260
vt 0.655666 0.762911
vt 0.525028 0.456821
vt 0.526154 0.456799
vt 0.686689 0.002550
vt 0.687815 0.002571
vt 0.686689 0.192986
vt 0.687815 0.193008
vt 0.522600 0.647236
vt 0.523727 0.647257
vt 0.689116 0.002571
vt 0.689116 0.193008
vt 0.525028 0.647257
vt 0.690243 0.002550
vt 0.690243 0.192986
vt 0.526154 0.647236
s 1
usemtl marker
f 1/1/1 2/2/1 4/3/2 3/4/2
f 3/4/2 4/3/2 6/5/3 5/6/3
f 5/7/3 6/8/3 8/9/4 7/10/4
f 7/10/4 8/9/4 10/11/5 9/12/5
f 9/12/5 10/11/5 12/13/6 11/14/6
f 11/15/6 12/16/6 14/17/7 13/18/7
f 13/18/7 14/17/7 16/19/8 15/20/8
f 15/20/8 16/19/8 18/21/9 17/22/9
f 17/23/9 18/24/9 20/25/10 19/26/10
f 19/26/10 20/25/10 22/27/11 21/28/11
f 12/29/12 10/30/13 29/31/13 30/32/12
f 21/28/11 22/27/11 24/33/14 23/34/14
f 23/35/14 24/36/14 2/2/1 1/1/1
f 1/37/15 3/38/15 5/39/15 7/40/15 9/41/15 11/42/15 13/43/15 15/44/15 17/45/15 19/46/15 21/47/15 23/48/15
f 31/49/7 30/50/6 42/51/6 43/52/7
f 10/30/13 8/53/16 28/54/16 29/31/13
f 2/55/17 24/56/18 36/57/18 25/58/17
f 4/59/19 2/55/17 25/58/17 26/60/19
f 8/53/16 6/61/20 27/62/20 28/54/16
f 24/56/18 22/63/21 35/64/21 36/57/18
f 6/61/20 4/59/19 26/60/19 27/62/20
f 22/63/21 20/65/22 34/66/22 35/64/21
f 20/65/22 18/67/23 33/68/23 34/66/22
f 18/67/23 16/69/24 32/70/24 33/68/23
f 16/69/24 14/71/25 31/72/25 32/70/24
f 14/71/25 12/29/12 30/32/12 31/72/25
f 43/73/26 42/74/27 54/75/27 55/76/26
f 28/77/4 27/78/3 39/79/3 40/80/4
f 35/81/11 34/82/10 46/83/10 47/84/11
f 32/85/8 31/49/7 43/52/7 44/86/8
f 29/87/5 28/77/4 40/80/4 41/88/5
f 36/89/14 35/81/11 47/84/11 48/90/14
f 26/91/2 25/92/1 37/93/1 38/94/2
f 33/95/9 32/85/8 44/86/8 45/96/9
f 30/97/6 29/87/5 41/88/5 42/98/6
f 25/92/1 36/99/14 48/100/14 37/93/1
f 27/101/3 26/91/2 38/94/2 39/102/3
f 34/82/10 33/103/9 45/104/9 46/83/10
f 58/105/10 57/106/9 69/107/28 70/108/29
f 40/109/30 39/110/31 51/111/31 52/112/30
f 47/113/32 46/114/33 58/115/33 59/116/32
f 44/117/34 43/73/26 55/76/26 56/118/34
f 41/119/35 40/109/30 52/112/30 53/120/35
f 48/121/36 47/113/32 59/116/32 60/122/36
f 38/123/37 37/124/38 49/125/38 50/126/37
f 45/127/39 44/117/34 56/118/34 57/128/39
f 42/74/27 41/119/35 53/120/35 54/75/27
f 37/124/38 48/121/36 60/122/36 49/125/38
f 39/110/31 38/123/37 50/126/37 51/111/31
f 46/114/33 45/127/39 57/128/39 58/115/33
f 63/129/40 62/130/41 74/131/42 75/132/43
f 55/133/7 54/134/6 66/135/44 67/136/45
f 52/137/4 51/138/3 63/139/40 64/140/46
f 59/141/11 58/105/10 70/108/29 71/142/47
f 56/143/8 55/133/7 67/136/45 68/144/48
f 53/145/5 52/137/4 64/140/46 65/146/49
f 60/147/14 59/141/11 71/142/47 72/148/50
f 50/149/2 49/150/1 61/151/51 62/130/41
f 57/152/9 56/143/8 68/144/48 69/153/28
f 54/154/6 53/145/5 65/146/49 66/155/44
f 49/150/1 60/156/14 72/157/50 61/151/51
f 51/158/3 50/149/2 62/130/41 63/129/40
f 73/159/52 84/160/53 96/161/54 85/162/55
f 70/108/29 69/107/28 81/163/56 82/164/57
f 67/136/45 66/135/44 78/165/58 79/166/59
f 64/140/46 63/139/40 75/167/43 76/168/60
f 71/142/47 70/108/29 82/164/57 83/169/61
f 68/144/48 67/136/45 79/166/59 80/170/62
f 65/146/49 64/140/46 76/168/60 77/171/63
f 72/148/50 71/142/47 83/169/61 84/172/53
f 62/130/41 61/151/51 73/159/52 74/131/42
f 69/153/28 68/144/48 80/170/62 81/173/56
f 66/155/44 65/146/49 77/171/63 78/174/58
f 61/151/51 72/157/50 84/160/53 73/159/52
f 90/175/64 89/176/65 101/177/66 102/178/67
f 75/132/43 74/131/42 86/179/68 87/180/69
f 82/164/57 81/163/56 93/181/70 94/182/71
f 79/166/59 78/165/58 90/183/64 91/184/72
f 76/168/60 75/167/43 87/185/69 88/186/73
f 83/169/61 82/164/57 94/182/71 95/187/74
f 80/170/62 79/166/59 91/184/72 92/188/75
f 77/171/63 76/168/60 88/186/73 89/176/65
f 84/172/53 83/169/61 95/187/74 96/189/54
f 74/131/42 73/159/52 85/162/55 86/179/68
f 81/173/56 80/170/62 92/188/75 93/190/70
f 78/174/58 77/171/63 89/176/65 90/175/64
f 85/162/55 96/161/54 108/195/80 97/196/81
f 87/180/69 86/179/68 98/192/77 99/191/76
f 94/182/71 93/181/70 105/197/82 106/198/83
f 91/184/72 90/183/64 102/199/67 103/200/84
f 88/186/73 87/185/69 99/201/76 100/202/85
f 95/187/74 94/182/71 106/198/83 107/203/86
f 92/188/75 91/184/72 103/200/84 104/204/87
f 89/176/65 88/186/73 100/202/85 101/177/66
f 96/189/54 95/187/74 107/203/86 108/205/80
f 86/179/68 85/162/55 97/196/81 98/192/77
f 93/190/70 92/188/75 104/204/87 105/206/82
usemtl green_color
f 99/191/76 98/192/77 110/193/78 111/194/79
f 109/207/88 120/208/89 132/209/90 121/210/91
f 106/198/83 105/197/82 117/211/92 118/212/93
f 103/200/84 102/199/67 114/213/94 115/214/95
f 100/202/85 99/201/76 111/215/79 112/216/96
f 107/203/86 106/198/83 118/212/93 119/217/97
f 104/204/87 103/200/84 115/214/95 116/218/98
f 101/177/66 100/202/85 112/216/96 113/219/99
f 108/205/80 107/203/86 119/217/97 120/220/89
f 98/192/77 97/196/81 109/207/88 110/193/78
f 105/206/82 104/204/87 116/218/98 117/221/92
f 102/178/67 101/177/66 113/219/99 114/222/94
f 97/196/81 108/195/80 120/208/89 109/207/88
f 122/223/100 121/224/100 132/225/100 131/226/100 130/227/100 129/228/100 128/229/100 127/230/100 126/231/100 125/232/100 124/233/100 123/234/100
f 111/194/79 110/193/78 122/235/101 123/236/102
f 118/212/93 117/211/92 129/237/103 130/238/104
f 115/214/95 114/213/94 126/239/105 127/240/106
f 112/216/96 111/215/79 123/241/102 124/242/107
f 119/217/97 118/212/93 130/238/104 131/243/108
f 116/218/98 115/214/95 127/240/106 128/244/109
f 113/219/99 112/216/96 124/242/107 125/245/110
f 120/220/89 119/217/97 131/243/108 132/246/90
f 110/193/78 109/207/88 121/210/91 122/235/101
f 117/221/92 116/218/98 128/244/109 129/247/103
f 114/222/94 113/219/99 125/245/110 126/248/105
