# Blender 4.5.3 LTS
# www.blender.org
mtllib adhesive_tape.mtl
o adhesive_tape
v -0.001631 0.000000 -0.022534
v -0.001631 0.025000 -0.022534
v 0.009487 0.000000 -0.019555
v 0.009487 0.025000 -0.019555
v 0.017626 0.000000 -0.011416
v 0.017626 0.025000 -0.011416
v 0.020605 0.000000 -0.000298
v 0.020605 0.025000 -0.000298
v 0.017626 0.000000 0.010820
v 0.017626 0.025000 0.010820
v 0.009487 0.000000 0.018958
v 0.009487 0.025000 0.018958
v -0.001631 0.000000 0.021937
v -0.001631 0.025000 0.021937
v -0.012748 0.000000 0.018958
v -0.012748 0.025000 0.018958
v -0.020887 0.000000 0.010820
v -0.020887 0.025000 0.010820
v -0.023866 0.000000 -0.000298
v -0.023866 0.025000 -0.000298
v -0.020887 0.000000 -0.011416
v -0.020887 0.025000 -0.011416
v -0.012748 0.000000 -0.019555
v -0.012748 0.025000 -0.019555
v -0.001631 0.000000 -0.030298
v 0.013369 0.000000 -0.026279
v 0.013369 0.025000 -0.026279
v -0.001631 0.025000 -0.030298
v 0.024350 0.000000 -0.015298
v 0.024350 0.025000 -0.015298
v 0.028369 0.000000 -0.000298
v 0.028369 0.025000 -0.000298
v 0.024350 0.000000 0.014702
v 0.024350 0.025000 0.014702
v 0.013369 0.000000 0.025683
v 0.013369 0.025000 0.025683
v -0.001631 0.000000 0.029702
v -0.001631 0.025000 0.029702
v -0.016631 0.000000 0.025683
v -0.016631 0.025000 0.025683
v -0.027611 0.000000 0.014702
v -0.027611 0.025000 0.014702
v -0.031631 0.000000 -0.000298
v -0.031631 0.025000 -0.000298
v -0.027611 0.000000 -0.015298
v -0.027611 0.025000 -0.015298
v -0.016631 0.000000 -0.026279
v -0.016631 0.025000 -0.026279
v 0.019566 0.025000 0.003578
v 0.019566 0.000000 0.003578
v 0.026968 0.025000 0.004932
v 0.026968 0.000000 0.004932
vn -0.0000 -0.0000 -1.0000
vn 0.5000 -0.0000 -0.8660
vn 0.8660 -0.0000 -0.5000
vn 1.0000 -0.0000 -0.0000
vn -0.8660 -0.0000 -0.5000
vn -0.9659 -0.0000 -0.2588
vn 0.8660 -0.0000 0.5000
vn 0.5000 -0.0000 0.8660
vn -0.0000 -0.0000 1.0000
vn -0.5000 -0.0000 0.8660
vn -0.8660 -0.0000 0.5000
vn -1.0000 -0.0000 -0.0000
vn -0.5000 -0.0000 -0.8660
vn -0.0000 -1.0000 -0.0000
vn -0.0000 1.0000 -0.0000
vn 0.9659 -0.0000 0.2588
vt 0.401146 0.332836
vt 0.401146 0.002789
vt 0.486569 0.002789
vt 0.486569 0.332836
vt 0.560547 0.002789
vt 0.560547 0.332836
vt 0.923233 0.668462
vt 0.923233 0.338414
vt 0.997211 0.338414
vt 0.997211 0.668462
vt 0.859913 0.002789
vt 0.901150 0.002789
vt 0.901150 0.332836
vt 0.859913 0.332836
vt 0.236980 0.981595
vt 0.236980 0.651548
vt 0.310958 0.651548
vt 0.310958 0.981595
vt 0.327168 0.668462
vt 0.327168 0.338414
vt 0.401146 0.338414
vt 0.401146 0.668462
vt 0.486569 0.338414
vt 0.486569 0.668462
vt 0.560547 0.338414
vt 0.560547 0.668462
vt 0.566125 0.332836
vt 0.566125 0.002789
vt 0.640103 0.002789
vt 0.640103 0.332836
vt 0.725526 0.002789
vt 0.725526 0.332836
vt 0.002789 0.651548
vt 0.057620 0.651548
vt 0.057620 0.981595
vt 0.002789 0.981595
vt 0.799504 0.002789
vt 0.799504 0.332836
vt 0.327168 0.332836
vt 0.327168 0.002789
vt 0.684270 0.338414
vt 0.739101 0.338414
vt 0.739101 0.668462
vt 0.684270 0.668462
vt 0.044045 0.130533
vt 0.044045 0.193846
vt 0.002789 0.204901
vt 0.002789 0.119478
vt 0.044045 0.518226
vt 0.075702 0.573057
vt 0.045500 0.603258
vt 0.002789 0.529280
vt 0.075702 0.075702
vt 0.045500 0.045500
vt 0.130533 0.604714
vt 0.119478 0.645970
vt 0.130533 0.044045
vt 0.119478 0.002789
vt 0.193846 0.604714
vt 0.204901 0.645970
vt 0.181343 0.981595
vt 0.181343 0.651548
vt 0.152609 0.044045
vt 0.149264 0.002789
vt 0.248678 0.075702
vt 0.193846 0.044045
vt 0.204901 0.002789
vt 0.278879 0.045500
vt 0.248678 0.573057
vt 0.280334 0.518226
vt 0.321590 0.529280
vt 0.278879 0.603258
vt 0.280334 0.130533
vt 0.321590 0.119478
vt 0.280334 0.454912
vt 0.321590 0.443858
vt 0.280334 0.193846
vt 0.321590 0.204901
vt 0.248678 0.400081
vt 0.278879 0.369880
vt 0.248678 0.248678
vt 0.278879 0.278879
vt 0.193846 0.368424
vt 0.204901 0.327168
vt 0.193846 0.280334
vt 0.204901 0.321590
vt 0.130533 0.368424
vt 0.119478 0.327168
vt 0.130533 0.280334
vt 0.119478 0.321590
vt 0.075702 0.400081
vt 0.045500 0.369880
vt 0.075702 0.248678
vt 0.045500 0.278879
vt 0.044045 0.454912
vt 0.002789 0.443858
vt 0.120934 0.651548
vt 0.120934 0.981595
vt 0.175765 0.651548
vt 0.175765 0.981595
vt 0.744679 0.338414
vt 0.799510 0.338414
vt 0.799510 0.668462
vt 0.744679 0.668462
vt 0.862824 0.338414
vt 0.862824 0.668462
vt 0.917655 0.338414
vt 0.917655 0.668462
vt 0.805082 0.002789
vt 0.805082 0.332836
vt 0.212965 0.593675
vt 0.230696 0.631077
vt 0.923227 0.002789
vt 0.978058 0.002789
vt 0.978058 0.332836
vt 0.923227 0.332836
vt 0.566125 0.338414
vt 0.620956 0.338414
vt 0.620956 0.668462
vt 0.566125 0.668462
vt 0.000300 0.999700
vt 0.000300 0.000300
vt 0.090492 0.000300
vt 0.090492 0.999700
s 1
usemtl tape
f 25/1/1 28/2/1 27/3/2 26/4/2
f 26/4/2 27/3/2 30/5/3 29/6/3
f 29/7/3 30/8/3 32/9/4 31/10/4
f 10/11/5 49/12/6 50/13/6 9/14/5
f 33/15/7 34/16/7 36/17/8 35/18/8
f 35/19/8 36/20/8 38/21/9 37/22/9
f 37/22/9 38/21/9 40/23/10 39/24/10
f 39/24/10 40/23/10 42/25/11 41/26/11
f 41/27/11 42/28/11 44/29/12 43/30/12
f 43/30/12 44/29/12 46/31/5 45/32/5
f 24/33/8 22/34/7 21/35/7 23/36/8
f 45/32/5 46/31/5 48/37/13 47/38/13
f 47/39/13 48/40/13 28/2/1 25/1/1
f 2/41/9 24/42/8 23/43/8 1/44/9
f 3/45/14 1/46/14 25/47/14 26/48/14
f 2/49/15 4/50/15 27/51/15 28/52/15
f 5/53/14 3/45/14 26/48/14 29/54/14
f 4/50/15 6/55/15 30/56/15 27/51/15
f 7/57/14 5/53/14 29/54/14 31/58/14
f 6/55/15 8/59/15 32/60/15 30/56/15
f 52/61/16 51/62/16 34/16/7 33/15/7
f 50/63/14 7/57/14 31/58/14 52/64/14
f 11/65/14 9/66/14 33/67/14 35/68/14
f 10/69/15 12/70/15 36/71/15 34/72/15
f 13/73/14 11/65/14 35/68/14 37/74/14
f 12/70/15 14/75/15 38/76/15 36/71/15
f 15/77/14 13/73/14 37/74/14 39/78/14
f 14/75/15 16/79/15 40/80/15 38/76/15
f 17/81/14 15/77/14 39/78/14 41/82/14
f 16/79/15 18/83/15 42/84/15 40/80/15
f 19/85/14 17/81/14 41/82/14 43/86/14
f 18/83/15 20/87/15 44/88/15 42/84/15
f 21/89/14 19/85/14 43/86/14 45/90/14
f 20/87/15 22/91/15 46/92/15 44/88/15
f 23/93/14 21/89/14 45/90/14 47/94/14
f 22/91/15 24/95/15 48/96/15 46/92/15
f 1/46/14 23/93/14 47/94/14 25/47/14
f 24/95/15 2/49/15 28/52/15 48/96/15
f 22/34/7 20/97/4 19/98/4 21/35/7
f 20/97/4 18/99/3 17/100/3 19/98/4
f 18/101/3 16/102/2 15/103/2 17/104/3
f 16/102/2 14/105/1 13/106/1 15/103/2
f 14/105/1 12/107/13 11/108/13 13/106/1
f 12/109/13 10/11/5 9/14/5 11/110/13
f 49/111/15 10/69/15 34/72/15 51/112/15
f 8/113/12 6/114/11 5/115/11 7/116/12
f 6/117/11 4/118/10 3/119/10 5/120/11
f 4/118/10 2/41/9 1/44/9 3/119/10
f 9/66/14 50/63/14 52/64/14 33/67/14
f 8/59/15 49/111/15 51/112/15 32/60/15
f 49/12/6 8/113/12 7/116/12 50/13/6
usemtl begin_of_tape
f 31/121/4 32/122/4 51/123/16 52/124/16
