# Blender 4.5.3 LTS
# www.blender.org
mtllib mouse_pad.mtl
o mouse_pad
v 0.100000 0.001500 -0.080000
v 0.080000 0.001500 -0.100000
v 0.099021 0.001500 -0.086180
v 0.096180 0.001500 -0.091756
v 0.091756 0.001500 -0.096180
v 0.086180 0.001500 -0.099021
v 0.080000 0.000000 -0.100000
v 0.100000 0.000000 -0.080000
v 0.086180 0.000000 -0.099021
v 0.091756 0.000000 -0.096180
v 0.096180 0.000000 -0.091756
v 0.099021 0.000000 -0.086180
v 0.080000 0.001500 0.100000
v 0.100000 0.001500 0.080000
v 0.086180 0.001500 0.099021
v 0.091756 0.001500 0.096180
v 0.096180 0.001500 0.091756
v 0.099021 0.001500 0.086180
v 0.100000 0.000000 0.080000
v 0.080000 0.000000 0.100000
v 0.099021 0.000000 0.086180
v 0.096180 0.000000 0.091756
v 0.091756 0.000000 0.096180
v 0.086180 0.000000 0.099021
v -0.080000 0.001500 -0.100000
v -0.100000 0.001500 -0.080000
v -0.086180 0.001500 -0.099021
v -0.091756 0.001500 -0.096180
v -0.096180 0.001500 -0.091756
v -0.099021 0.001500 -0.086180
v -0.100000 0.000000 -0.080000
v -0.080000 0.000000 -0.100000
v -0.099021 0.000000 -0.086180
v -0.096180 0.000000 -0.091756
v -0.091756 0.000000 -0.096180
v -0.086180 0.000000 -0.099021
v -0.100000 0.001500 0.080000
v -0.080000 0.001500 0.100000
v -0.099021 0.001500 0.086180
v -0.096180 0.001500 0.091756
v -0.091756 0.001500 0.096180
v -0.086180 0.001500 0.099021
v -0.080000 0.000000 0.100000
v -0.100000 0.000000 0.080000
v -0.086180 0.000000 0.099021
v -0.091756 0.000000 0.096180
v -0.096180 0.000000 0.091756
v -0.099021 0.000000 0.086180
vn 0.9969 -0.0000 -0.0785
vn 0.9511 -0.0000 -0.3090
vn 0.8090 -0.0000 -0.5878
vn 0.5878 -0.0000 -0.8090
vn 0.3090 -0.0000 -0.9511
vn 0.0785 -0.0000 -0.9969
vn -0.0785 -0.0000 0.9969
vn -0.3090 -0.0000 0.9511
vn -0.5878 -0.0000 0.8090
vn -0.8090 -0.0000 0.5878
vn -0.9511 -0.0000 0.3090
vn -0.9969 -0.0000 0.0785
vn 0.0785 -0.0000 0.9969
vn 0.3090 -0.0000 0.9511
vn 0.5878 -0.0000 0.8090
vn 0.8090 -0.0000 0.5878
vn 0.9511 -0.0000 0.3090
vn 0.9969 -0.0000 0.0785
vn -0.0785 -0.0000 -0.9969
vn -0.3090 -0.0000 -0.9511
vn -0.5878 -0.0000 -0.8090
vn -0.8090 -0.0000 -0.5878
vn -0.9511 -0.0000 -0.3090
vn -0.9969 -0.0000 -0.0785
vn -0.0000 1.0000 -0.0000
vn -0.0000 -1.0000 -0.0000
vt 0.501133 0.282694
vt 0.504866 0.282694
vt 0.504866 0.295292
vt 0.501133 0.295292
vt 0.504866 0.310103
vt 0.501133 0.310103
vt 0.504866 0.325675
vt 0.501133 0.325675
vt 0.504866 0.340486
vt 0.501133 0.340486
vt 0.504866 0.353084
vt 0.501133 0.353084
vt 0.510864 0.425740
vt 0.507132 0.425740
vt 0.507132 0.413142
vt 0.510864 0.413142
vt 0.507132 0.398331
vt 0.510864 0.398331
vt 0.507132 0.382759
vt 0.510864 0.382759
vt 0.507132 0.367948
vt 0.510864 0.367948
vt 0.507132 0.355350
vt 0.510864 0.355350
vt 0.501133 0.918472
vt 0.504866 0.918472
vt 0.504866 0.931070
vt 0.501133 0.931070
vt 0.504866 0.945881
vt 0.501133 0.945881
vt 0.504866 0.961453
vt 0.501133 0.961453
vt 0.504866 0.976264
vt 0.501133 0.976264
vt 0.504866 0.988862
vt 0.501133 0.988862
vt 0.507132 0.001133
vt 0.510864 0.001133
vt 0.510864 0.013731
vt 0.507132 0.013731
vt 0.510864 0.028542
vt 0.507132 0.028542
vt 0.510864 0.044114
vt 0.507132 0.044114
vt 0.510864 0.058925
vt 0.507132 0.058925
vt 0.510864 0.071523
vt 0.507132 0.071523
vt 0.504866 0.634645
vt 0.501133 0.634645
vt 0.501133 0.001133
vt 0.504866 0.001133
vt 0.449094 0.001133
vt 0.464475 0.003569
vt 0.478350 0.010639
vt 0.489361 0.021650
vt 0.496431 0.035525
vt 0.498867 0.050906
vt 0.498867 0.449094
vt 0.496431 0.464475
vt 0.489361 0.478350
vt 0.478350 0.489361
vt 0.464475 0.496431
vt 0.449094 0.498867
vt 0.050906 0.498867
vt 0.035525 0.496431
vt 0.021650 0.489361
vt 0.010639 0.478350
vt 0.003569 0.464475
vt 0.001133 0.449094
vt 0.001133 0.050906
vt 0.003569 0.035525
vt 0.010639 0.021650
vt 0.021650 0.010639
vt 0.035525 0.003569
vt 0.050906 0.001133
vt 0.449094 0.501133
vt 0.464475 0.503569
vt 0.478350 0.510639
vt 0.489361 0.521650
vt 0.496431 0.535526
vt 0.498867 0.550906
vt 0.498867 0.949094
vt 0.496431 0.964475
vt 0.489361 0.978350
vt 0.478350 0.989361
vt 0.464475 0.996431
vt 0.449094 0.998867
vt 0.050906 0.998867
vt 0.035525 0.996431
vt 0.021650 0.989361
vt 0.010639 0.978350
vt 0.003569 0.964475
vt 0.001133 0.949094
vt 0.001133 0.550906
vt 0.003569 0.535525
vt 0.010639 0.521650
vt 0.021650 0.510639
vt 0.035525 0.503569
vt 0.050906 0.501133
vt 0.501133 0.636911
vt 0.504866 0.636911
vt 0.510864 0.353084
vt 0.507131 0.353084
s 1
usemtl grey_cloth
f 1/1/1 8/2/1 12/3/2 3/4/2
f 3/4/2 12/3/2 11/5/3 4/6/3
f 4/6/3 11/5/3 10/7/4 5/8/4
f 5/8/4 10/7/4 9/9/5 6/10/5
f 6/10/5 9/9/5 7/11/6 2/12/6
f 43/13/7 38/14/7 42/15/8 45/16/8
f 45/16/8 42/15/8 41/17/9 46/18/9
f 46/18/9 41/17/9 40/19/10 47/20/10
f 47/20/10 40/19/10 39/21/11 48/22/11
f 48/22/11 39/21/11 37/23/12 44/24/12
f 13/25/13 20/26/13 24/27/14 15/28/14
f 15/28/14 24/27/14 23/29/15 16/30/15
f 16/30/15 23/29/15 22/31/16 17/32/16
f 17/32/16 22/31/16 21/33/17 18/34/17
f 18/34/17 21/33/17 19/35/18 14/36/18
f 25/37/19 32/38/19 36/39/20 27/40/20
f 27/40/20 36/39/20 35/41/21 28/42/21
f 28/42/21 35/41/21 34/43/22 29/44/22
f 29/44/22 34/43/22 33/45/23 30/46/23
f 30/46/23 33/45/23 31/47/24 26/48/24
f 32/49/19 25/50/19 2/12/6 7/11/6
f 8/2/1 1/1/1 14/51/18 19/52/18
f 1/53/25 3/54/25 4/55/25 5/56/25 6/57/25 2/58/25 25/59/25 27/60/25 28/61/25 29/62/25 30/63/25 26/64/25 37/65/25 39/66/25 40/67/25 41/68/25 42/69/25 38/70/25 13/71/25 15/72/25 16/73/25 17/74/25 18/75/25 14/76/25
f 31/77/26 33/78/26 34/79/26 35/80/26 36/81/26 32/82/26 7/83/26 9/84/26 10/85/26 11/86/26 12/87/26 8/88/26 19/89/26 21/90/26 22/91/26 23/92/26 24/93/26 20/94/26 43/95/26 45/96/26 46/97/26 47/98/26 48/99/26 44/100/26
f 20/26/13 13/25/13 38/101/7 43/102/7
f 44/103/12 37/104/12 26/48/24 31/47/24
