# Blender 4.5.3 LTS
# www.blender.org
mtllib whiteboard.mtl
o whiteboard
v 0.056250 0.123750 -1.125000
v 0.056250 0.011250 -1.125000
v -0.056250 0.123750 -1.125000
v -0.056250 0.011250 -1.125000
v -0.056250 0.011250 0.000000
v 0.056250 0.123750 0.000000
v -0.056250 0.123750 0.000000
v 0.056250 0.011250 0.000000
v 0.067500 -0.000000 -1.125000
v -0.067500 -0.000000 -1.125000
v 0.045000 0.135000 -1.147129
v -0.045000 0.135000 -1.147129
v 0.067500 -0.000000 -1.257785
v -0.067500 -0.000000 -1.257785
v 0.045000 0.135000 -1.235654
v -0.045000 0.135000 -1.235654
v 0.442500 0.135000 -1.124998
v 0.442500 -0.000000 -1.125000
v 0.442500 0.135000 -1.257785
v 0.442500 -0.000000 -1.257785
v -0.442500 0.135000 -1.124998
v -0.442500 -0.000000 -1.125000
v -0.442500 0.135000 -1.257785
v -0.442500 -0.000000 -1.257785
v -0.067500 0.135000 -1.124998
v 0.067500 0.135000 -1.124998
v -0.067500 0.135000 -1.257785
v 0.067500 0.135000 -1.257785
v -0.045000 1.485000 -1.147129
v 0.045000 1.485000 -1.147129
v -0.045000 1.485000 -1.235654
v 0.045000 1.485000 -1.235654
v 0.025313 0.784688 -1.147129
v 0.025313 0.835312 -1.147129
v -0.025313 0.835312 -1.147129
v -0.025313 0.784688 -1.147129
v -0.045000 0.855000 -1.235654
v -0.045000 0.765000 -1.235654
v 0.045000 0.855000 -1.235654
v 0.045000 0.765000 -1.235654
v 0.056250 0.123750 1.125000
v 0.056250 0.011250 1.125000
v -0.056250 0.123750 1.125000
v -0.056250 0.011250 1.125000
v 0.067500 -0.000000 1.125000
v -0.067500 -0.000000 1.125000
v 0.045000 0.135000 1.147129
v -0.045000 0.135000 1.147129
v 0.067500 -0.000000 1.257785
v -0.067500 -0.000000 1.257785
v 0.045000 0.135000 1.235654
v -0.045000 0.135000 1.235654
v 0.442500 0.135000 1.124998
v 0.442500 -0.000000 1.125000
v 0.442500 0.135000 1.257785
v 0.442500 -0.000000 1.257785
v -0.442500 0.135000 1.124998
v -0.442500 -0.000000 1.125000
v -0.442500 0.135000 1.257785
v -0.442500 -0.000000 1.257785
v -0.067500 0.135000 1.124998
v 0.067500 0.135000 1.124998
v -0.067500 0.135000 1.257785
v 0.067500 0.135000 1.257785
v -0.045000 1.485000 1.147129
v 0.045000 1.485000 1.147129
v -0.045000 1.485000 1.235654
v 0.045000 1.485000 1.235654
v 0.025313 0.784688 1.147129
v 0.025313 0.835312 1.147129
v -0.025313 0.835312 1.147129
v -0.025313 0.784688 1.147129
v -0.045000 0.855000 1.235654
v -0.045000 0.765000 1.235654
v 0.045000 0.855000 1.235654
v 0.045000 0.765000 1.235654
v 0.045000 0.765000 -1.147129
v 0.045000 0.855000 -1.147129
v -0.045000 0.855000 -1.147129
v -0.045000 0.765000 -1.147129
v 0.045000 0.765000 1.147129
v 0.045000 0.855000 1.147129
v -0.045000 0.855000 1.147129
v -0.045000 0.765000 1.147129
v 0.000000 1.177500 -1.147132
v 0.000000 1.177500 -1.049632
v 0.005303 1.175303 -1.147132
v 0.005303 1.175303 -1.049632
v 0.007500 1.170000 -1.147132
v 0.007500 1.170000 -1.049632
v 0.005303 1.164697 -1.147132
v 0.005303 1.164697 -1.049632
v 0.000000 1.162500 -1.147132
v 0.000000 1.162500 -1.049632
v -0.005303 1.164697 -1.147132
v -0.005303 1.164697 -1.049632
v -0.007500 1.170000 -1.147132
v -0.007500 1.170000 -1.049632
v -0.005303 1.175303 -1.147132
v -0.005303 1.175303 -1.049632
v 0.000000 1.177500 1.147132
v 0.000000 1.177500 1.049632
v 0.005303 1.175303 1.147132
v 0.005303 1.175303 1.049632
v 0.007500 1.170000 1.147132
v 0.007500 1.170000 1.049632
v 0.005303 1.164697 1.147132
v 0.005303 1.164697 1.049632
v 0.000000 1.162500 1.147132
v 0.000000 1.162500 1.049632
v -0.005303 1.164697 1.147132
v -0.005303 1.164697 1.049632
v -0.007500 1.170000 1.147132
v -0.007500 1.170000 1.049632
v -0.005303 1.175303 1.147132
v -0.005303 1.175303 1.049632
vn -1.0000 -0.0000 -0.0000
vn -0.0001 -0.0000 1.0000
vn 1.0000 -0.0000 -0.0000
vn -0.0000 -1.0000 -0.0000
vn -0.0000 1.0000 -0.0000
vn -0.0000 -0.0002 1.0000
vn 0.0001 -0.0000 1.0000
vn -0.0000 -0.0000 1.0000
vn -0.0000 -0.0000 -1.0000
vn -0.0001 -0.0000 -1.0000
vn -0.0000 -0.0002 -1.0000
vn 0.0001 -0.0000 -1.0000
vn 0.7071 0.7071 -0.0000
vn 0.7071 -0.7071 -0.0000
vn -0.7071 -0.7071 -0.0000
vn -0.7071 0.7071 -0.0000
vt 0.051950 0.490434
vt 0.004115 0.490434
vt 0.004115 0.004115
vt 0.051950 0.004115
vt 0.724156 0.216182
vt 0.771991 0.216182
vt 0.776774 0.220965
vt 0.719372 0.220965
vt 0.108014 0.976753
vt 0.060179 0.976753
vt 0.060179 0.490434
vt 0.108014 0.490434
vt 0.164078 0.976753
vt 0.116244 0.976753
vt 0.116244 0.490434
vt 0.164078 0.490434
vt 0.220143 0.976753
vt 0.172308 0.976753
vt 0.172308 0.490434
vt 0.220143 0.490434
vt 0.347393 0.803211
vt 0.347393 0.745810
vt 0.404794 0.745810
vt 0.404794 0.803211
vt 0.724156 0.168347
vt 0.719372 0.163564
vt 0.771991 0.168347
vt 0.776774 0.163564
vt 0.776774 0.605494
vt 0.719372 0.605494
vt 0.719372 0.548093
vt 0.776774 0.548093
vt 0.571651 0.271989
vt 0.533383 0.271989
vt 0.533383 0.004115
vt 0.571651 0.004115
vt 0.908037 0.163564
vt 0.850635 0.163564
vt 0.850635 0.004115
vt 0.908037 0.004115
vt 0.850635 0.220965
vt 0.908037 0.220965
vt 0.908037 0.380414
vt 0.850635 0.380414
vt 0.536056 0.586361
vt 0.536055 0.643762
vt 0.478654 0.643762
vt 0.478654 0.586361
vt 0.776774 0.380414
vt 0.719372 0.380414
vt 0.404794 0.962660
vt 0.347393 0.962660
vt 0.719372 0.388644
vt 0.776774 0.388644
vt 0.544286 0.643762
vt 0.544285 0.586361
vt 0.601687 0.586361
vt 0.601687 0.643762
vt 0.719372 0.004115
vt 0.776774 0.004115
vt 0.347393 0.586361
vt 0.404794 0.586361
vt 0.776774 0.764943
vt 0.719372 0.764943
vt 0.860202 0.173131
vt 0.860202 0.211398
vt 0.898470 0.211398
vt 0.898470 0.173131
vt 0.544285 0.651992
vt 0.582553 0.651992
vt 0.582553 0.690260
vt 0.544285 0.690260
vt 0.385661 0.271989
vt 0.347393 0.271989
vt 0.347393 0.004115
vt 0.385661 0.004115
vt 0.618148 0.271989
vt 0.579880 0.271989
vt 0.579880 0.004115
vt 0.618148 0.004115
vt 0.432158 0.271989
vt 0.393891 0.271989
vt 0.393891 0.004115
vt 0.432158 0.004115
vt 0.432158 0.578131
vt 0.393891 0.578131
vt 0.393891 0.310257
vt 0.432158 0.310257
vt 0.618148 0.578131
vt 0.579880 0.578131
vt 0.579880 0.310257
vt 0.618148 0.310257
vt 0.385661 0.578131
vt 0.347393 0.578131
vt 0.347393 0.310257
vt 0.385661 0.310257
vt 0.571651 0.578131
vt 0.533383 0.578131
vt 0.533383 0.310257
vt 0.571651 0.310257
vt 0.249898 0.995885
vt 0.228372 0.995885
vt 0.228372 0.004115
vt 0.249898 0.004115
vt 0.051949 0.976753
vt 0.004115 0.976753
vt 0.789787 0.168347
vt 0.785004 0.163564
vt 0.842405 0.163564
vt 0.837622 0.168347
vt 0.108014 0.004115
vt 0.060179 0.004115
vt 0.164078 0.004115
vt 0.116244 0.004115
vt 0.220143 0.004115
vt 0.172308 0.004115
vt 0.470424 0.803211
vt 0.413024 0.803211
vt 0.413024 0.745809
vt 0.470424 0.745809
vt 0.789787 0.216182
vt 0.785004 0.220965
vt 0.837622 0.216182
vt 0.842405 0.220965
vt 0.842405 0.548093
vt 0.842405 0.605494
vt 0.785004 0.605494
vt 0.785004 0.548093
vt 0.626378 0.271989
vt 0.626378 0.004115
vt 0.664645 0.004115
vt 0.664645 0.271989
vt 0.850635 0.548093
vt 0.850635 0.388644
vt 0.908037 0.388644
vt 0.908037 0.548093
vt 0.908037 0.605494
vt 0.908037 0.764943
vt 0.850635 0.764943
vt 0.850635 0.605494
vt 0.609917 0.586361
vt 0.667318 0.586361
vt 0.667318 0.643762
vt 0.609917 0.643762
vt 0.785004 0.004115
vt 0.842405 0.004115
vt 0.470424 0.962660
vt 0.413024 0.962660
vt 0.842405 0.764943
vt 0.785004 0.764943
vt 0.536055 0.709393
vt 0.478654 0.709393
vt 0.478654 0.651992
vt 0.536056 0.651992
vt 0.842405 0.380414
vt 0.785004 0.380414
vt 0.413024 0.586361
vt 0.470424 0.586361
vt 0.785004 0.388644
vt 0.842405 0.388644
vt 0.898470 0.557660
vt 0.898470 0.595927
vt 0.860202 0.595927
vt 0.860202 0.557660
vt 0.590783 0.690260
vt 0.590783 0.651992
vt 0.629050 0.651992
vt 0.629050 0.690260
vt 0.440388 0.271989
vt 0.440388 0.004115
vt 0.478656 0.004115
vt 0.478656 0.271989
vt 0.672875 0.271989
vt 0.672875 0.004115
vt 0.711143 0.004115
vt 0.711143 0.271989
vt 0.486886 0.271989
vt 0.486886 0.004115
vt 0.525153 0.004115
vt 0.525153 0.271989
vt 0.486886 0.578131
vt 0.486886 0.310257
vt 0.525153 0.310257
vt 0.525153 0.578131
vt 0.672875 0.578131
vt 0.672875 0.310257
vt 0.711143 0.310257
vt 0.711143 0.578131
vt 0.440388 0.578131
vt 0.440388 0.310257
vt 0.478656 0.310257
vt 0.478656 0.578131
vt 0.626378 0.578131
vt 0.626378 0.310257
vt 0.664645 0.310257
vt 0.664645 0.578131
vt 0.287883 0.004115
vt 0.309408 0.004115
vt 0.309408 0.995885
vt 0.287883 0.995885
vt 0.541754 0.280360
vt 0.541754 0.301886
vt 0.563280 0.301886
vt 0.563280 0.280360
vt 0.656274 0.301886
vt 0.656274 0.280360
vt 0.634749 0.280360
vt 0.634749 0.301886
vt 0.317638 0.004115
vt 0.339164 0.004115
vt 0.339164 0.995885
vt 0.317638 0.995885
vt 0.258128 0.004115
vt 0.279653 0.004115
vt 0.279653 0.995885
vt 0.258128 0.995885
vt 0.000000 0.000000
s 0
usemtl grey_metal
f 5/1/1 7/2/1 3/3/1 4/4/1
f 1/5/2 2/6/2 9/7/2 26/8/2
f 2/9/3 1/10/3 6/11/3 8/12/3
f 4/13/4 2/14/4 8/15/4 5/16/4
f 1/17/5 3/18/5 7/19/5 6/20/5
f 9/21/4 10/22/4 14/23/4 13/24/4
f 3/25/6 1/5/6 26/8/6 25/26/6
f 4/27/7 3/25/7 25/26/7 10/28/7
f 2/6/8 4/27/8 10/28/8 9/7/8
f 14/29/9 27/30/9 28/31/9 13/32/9
f 79/33/8 78/34/8 30/35/8 29/36/8
f 28/37/5 26/38/5 17/39/5 19/40/5
f 25/41/5 27/42/5 23/43/5 21/44/5
f 17/45/3 18/46/3 20/47/3 19/48/3
f 26/8/8 9/7/8 18/49/8 17/50/8
f 9/21/4 13/24/4 20/51/4 18/52/4
f 13/32/9 28/31/9 19/53/9 20/54/9
f 22/55/1 21/56/1 23/57/1 24/58/1
f 10/28/8 25/26/8 21/59/8 22/60/8
f 14/23/4 10/22/4 22/61/4 24/62/4
f 27/30/9 14/29/9 24/63/9 23/64/9
f 11/65/5 12/66/5 25/41/5 26/38/5
f 16/67/5 15/68/5 28/37/5 27/42/5
f 15/68/5 11/65/5 26/38/5 28/37/5
f 12/66/5 16/67/5 27/42/5 25/41/5
f 29/69/5 30/70/5 32/71/5 31/72/5
f 37/73/1 79/74/1 29/75/1 31/76/1
f 39/77/9 37/78/9 31/79/9 32/80/9
f 78/81/3 39/82/3 32/83/3 30/84/3
f 11/85/3 15/86/3 40/87/3 77/88/3
f 77/88/3 40/87/3 39/82/3 78/81/3
f 15/89/9 16/90/9 38/91/9 40/92/9
f 40/92/9 38/91/9 37/78/9 39/77/9
f 16/93/1 12/94/1 80/95/1 38/96/1
f 38/96/1 80/95/1 79/74/1 37/73/1
f 12/97/8 11/98/8 77/99/8 80/100/8
f 72/101/1 71/102/1 35/103/1 36/104/1
f 5/1/1 44/105/1 43/106/1 7/2/1
f 41/107/10 62/108/10 45/109/10 42/110/10
f 42/111/3 8/12/3 6/11/3 41/112/3
f 44/113/4 5/16/4 8/15/4 42/114/4
f 41/115/5 6/20/5 7/19/5 43/116/5
f 45/117/4 49/118/4 50/119/4 46/120/4
f 43/121/11 61/122/11 62/108/11 41/107/11
f 44/123/12 46/124/12 61/122/12 43/121/12
f 42/110/9 45/109/9 46/124/9 44/123/9
f 50/125/8 49/126/8 64/127/8 63/128/8
f 83/129/9 65/130/9 66/131/9 82/132/9
f 64/133/5 55/134/5 53/135/5 62/136/5
f 61/137/5 57/138/5 59/139/5 63/140/5
f 53/141/3 55/142/3 56/143/3 54/144/3
f 62/108/9 53/145/9 54/146/9 45/109/9
f 45/117/4 54/147/4 56/148/4 49/118/4
f 49/126/8 56/149/8 55/150/8 64/127/8
f 58/151/1 60/152/1 59/153/1 57/154/1
f 46/124/9 58/155/9 57/156/9 61/122/9
f 50/119/4 60/157/4 58/158/4 46/120/4
f 63/128/8 59/159/8 60/160/8 50/125/8
f 47/161/5 62/136/5 61/137/5 48/162/5
f 52/163/5 63/140/5 64/133/5 51/164/5
f 51/164/5 64/133/5 62/136/5 47/161/5
f 48/162/5 61/137/5 63/140/5 52/163/5
f 65/165/5 67/166/5 68/167/5 66/168/5
f 73/169/1 67/170/1 65/171/1 83/172/1
f 75/173/8 68/174/8 67/175/8 73/176/8
f 82/177/3 66/178/3 68/179/3 75/180/3
f 47/181/3 81/182/3 76/183/3 51/184/3
f 81/182/3 82/177/3 75/180/3 76/183/3
f 51/185/8 76/186/8 74/187/8 52/188/8
f 76/186/8 75/173/8 73/176/8 74/187/8
f 52/189/1 74/190/1 84/191/1 48/192/1
f 74/190/1 73/169/1 83/172/1 84/191/1
f 48/193/9 84/194/9 81/195/9 47/196/9
f 69/197/4 72/198/4 36/199/4 33/200/4
f 34/201/8 33/202/8 77/99/8 78/34/8
f 36/203/8 35/204/8 79/33/8 80/100/8
f 33/202/8 36/203/8 80/100/8 77/99/8
f 35/204/8 34/201/8 78/34/8 79/33/8
f 69/205/9 70/206/9 82/132/9 81/195/9
f 71/207/9 72/208/9 84/194/9 83/129/9
f 72/208/9 69/205/9 81/195/9 84/194/9
f 70/206/9 71/207/9 83/129/9 82/132/9
f 71/209/5 70/210/5 34/211/5 35/212/5
f 70/213/3 69/214/3 33/215/3 34/216/3
s 1
f 85/217/5 86/217/5 88/217/13 87/217/13
f 87/217/13 88/217/13 90/217/3 89/217/3
f 89/217/3 90/217/3 92/217/14 91/217/14
f 91/217/14 92/217/14 94/217/4 93/217/4
f 93/217/4 94/217/4 96/217/15 95/217/15
f 95/217/15 96/217/15 98/217/1 97/217/1
f 88/217/8 86/217/8 100/217/8 98/217/8 96/217/8 94/217/8 92/217/8 90/217/8
f 97/217/1 98/217/1 100/217/16 99/217/16
f 99/217/16 100/217/16 86/217/5 85/217/5
f 85/217/9 87/217/9 89/217/9 91/217/9 93/217/9 95/217/9 97/217/9 99/217/9
f 101/217/5 103/217/13 104/217/13 102/217/5
f 103/217/13 105/217/3 106/217/3 104/217/13
f 105/217/3 107/217/14 108/217/14 106/217/3
f 107/217/14 109/217/4 110/217/4 108/217/14
f 109/217/4 111/217/15 112/217/15 110/217/4
f 111/217/15 113/217/1 114/217/1 112/217/15
f 104/217/9 106/217/9 108/217/9 110/217/9 112/217/9 114/217/9 116/217/9 102/217/9
f 113/217/1 115/217/16 116/217/16 114/217/1
f 115/217/16 101/217/5 102/217/5 116/217/16
f 101/217/8 115/217/8 113/217/8 111/217/8 109/217/8 107/217/8 105/217/8 103/217/8
o board
v 0.070467 0.423233 1.050000
v -0.092833 1.914318 1.050000
v 0.070467 0.423233 -1.050000
v -0.092833 1.914318 -1.050000
v 0.091200 0.440593 1.029000
v -0.068834 1.901856 1.029000
v 0.091200 0.440593 -1.029000
v -0.068834 1.901856 -1.029000
v -0.070467 1.916767 -1.050000
v 0.092833 0.425683 -1.050000
v 0.092833 0.425683 1.050000
v -0.070467 1.916767 1.050000
v -0.083745 1.900223 -1.029000
v 0.076289 0.438960 -1.029000
v 0.076289 0.438960 1.029000
v -0.083745 1.900223 1.029000
vn -0.9941 -0.1089 -0.0000
vn -0.0000 -0.0000 -1.0000
vn -0.0000 -0.0000 1.0000
vn 0.1089 -0.9941 -0.0000
vn -0.1089 0.9941 -0.0000
vn 0.9941 0.1089 -0.0000
vt 0.296206 0.296206
vt 0.002710 0.296206
vt 0.002710 0.002710
vt 0.296206 0.002710
vt 0.296206 0.595122
vt 0.002710 0.595122
vt 0.002710 0.301626
vt 0.296206 0.301626
vt 0.796206 0.002710
vt 0.796206 0.290336
vt 0.600542 0.290336
vt 0.600542 0.002710
vt 0.595122 0.296206
vt 0.301626 0.296206
vt 0.301626 0.002710
vt 0.595122 0.002710
vt 0.595122 0.301626
vt 0.595122 0.595122
vt 0.301626 0.595122
vt 0.301626 0.301626
vt 0.296206 0.600542
vt 0.296206 0.894038
vt 0.002710 0.894038
vt 0.002710 0.600542
vt 0.304561 0.891103
vt 0.592187 0.891103
vt 0.595122 0.894038
vt 0.301626 0.894038
vt 0.592187 0.603477
vt 0.595122 0.600542
vt 0.304561 0.603477
vt 0.301626 0.600542
vt 0.999002 0.999002
vt 0.000998 0.999002
vt 0.000998 0.000998
vt 0.999002 0.000998
vt 0.796206 0.295756
vt 0.796206 0.583382
vt 0.600542 0.583382
vt 0.600542 0.295756
vt 0.600542 0.876428
vt 0.600542 0.588802
vt 0.796206 0.588802
vt 0.796206 0.876428
vt 0.801626 0.290336
vt 0.801626 0.002710
vt 0.997290 0.002710
vt 0.997290 0.290336
s 0
usemtl grey_metal
f 117/218/17 118/219/17 120/220/17 119/221/17
f 119/222/18 120/223/18 125/224/18 126/225/18
f 122/226/18 121/227/18 131/228/18 132/229/18
f 127/230/19 128/231/19 118/232/19 117/233/19
f 119/234/20 126/235/20 127/236/20 117/237/20
f 125/238/21 120/239/21 118/240/21 128/241/21
f 124/242/22 123/243/22 126/244/22 125/245/22
f 123/243/22 121/246/22 127/247/22 126/244/22
f 122/248/22 124/242/22 125/245/22 128/249/22
f 121/246/22 122/248/22 128/249/22 127/247/22
f 121/254/21 123/255/21 130/256/21 131/257/21
f 124/258/20 122/259/20 132/260/20 129/261/20
f 123/262/19 124/263/19 129/264/19 130/265/19
usemtl white_board
f 130/250/22 129/251/22 132/252/22 131/253/22
