# Blender 4.5.3 LTS
# www.blender.org
mtllib trashcan.mtl
o trashcan
v -0.150932 0.450000 -0.184000
v -0.184000 0.450000 -0.150932
v -0.163586 0.450000 -0.181483
v -0.174314 0.450000 -0.174314
v -0.181483 0.450000 -0.163586
v 0.150932 0.450000 -0.184000
v 0.184000 0.450000 -0.150932
v 0.163586 0.450000 -0.181483
v 0.174314 0.450000 -0.174314
v 0.181483 0.450000 -0.163586
v -0.184000 0.450000 0.150932
v -0.150932 0.450000 0.184000
v -0.181483 0.450000 0.163586
v -0.174314 0.450000 0.174314
v -0.163586 0.450000 0.181483
v 0.184000 0.450000 0.150932
v 0.150932 0.450000 0.184000
v 0.181483 0.450000 0.163586
v 0.174314 0.450000 0.174314
v 0.163586 0.450000 0.181483
v 0.166334 0.450000 -0.200000
v 0.200000 0.450000 -0.166334
v 0.179217 0.450000 -0.197437
v 0.190139 0.450000 -0.190139
v 0.197437 0.450000 -0.179217
v 0.200000 0.450000 0.166334
v 0.166334 0.450000 0.200000
v 0.197437 0.450000 0.179217
v 0.190139 0.450000 0.190139
v 0.179217 0.450000 0.197437
v -0.200000 0.450000 -0.166334
v -0.166334 0.450000 -0.200000
v -0.197437 0.450000 -0.179217
v -0.190139 0.450000 -0.190139
v -0.179217 0.450000 -0.197437
v -0.166334 0.450000 0.200000
v -0.200000 0.450000 0.166334
v -0.179217 0.450000 0.197437
v -0.190139 0.450000 0.190139
v -0.197437 0.450000 0.179217
v 0.128800 0.022500 -0.095838
v 0.095838 0.022500 -0.128800
v 0.126291 0.022500 -0.108452
v 0.119146 0.022500 -0.119146
v 0.108452 0.022500 -0.126291
v 0.095838 0.022500 0.128800
v 0.128800 0.022500 0.095838
v 0.108452 0.022500 0.126291
v 0.119146 0.022500 0.119146
v 0.126291 0.022500 0.108452
v -0.095838 0.022500 -0.128800
v -0.128800 0.022500 -0.095838
v -0.108452 0.022500 -0.126291
v -0.119146 0.022500 -0.119146
v -0.126291 0.022500 -0.108452
v -0.128800 0.022500 0.095838
v -0.095838 0.022500 0.128800
v -0.126291 0.022500 0.108452
v -0.119146 0.022500 0.119146
v -0.108452 0.022500 0.126291
v 0.200000 0.463500 -0.166015
v 0.166015 0.463500 -0.200000
v 0.197413 0.463500 -0.179021
v 0.190046 0.463500 -0.190046
v 0.179021 0.463500 -0.197413
v 0.200000 0.463500 0.166015
v 0.166015 0.463500 0.200000
v 0.197413 0.463500 0.179021
v 0.190046 0.463500 0.190046
v 0.179021 0.463500 0.197413
v -0.166015 0.463500 -0.200000
v -0.200000 0.463500 -0.166015
v -0.179021 0.463500 -0.197413
v -0.190046 0.463500 -0.190046
v -0.197413 0.463500 -0.179021
v -0.166015 0.463500 0.200000
v -0.200000 0.463500 0.166015
v -0.179021 0.463500 0.197413
v -0.190046 0.463500 0.190046
v -0.197413 0.463500 0.179021
v 0.184000 0.463500 -0.150597
v 0.150597 0.463500 -0.184000
v 0.181457 0.463500 -0.163380
v 0.174216 0.463500 -0.174216
v 0.163380 0.463500 -0.181457
v 0.150597 0.463500 0.184000
v 0.184000 0.463500 0.150597
v 0.163380 0.463500 0.181457
v 0.174216 0.463500 0.174216
v 0.181457 0.463500 0.163380
v -0.184000 0.463500 -0.150597
v -0.150597 0.463500 -0.184000
v -0.181457 0.463500 -0.163380
v -0.174216 0.463500 -0.174216
v -0.163380 0.463500 -0.181457
v -0.150597 0.463500 0.184000
v -0.184000 0.463500 0.150597
v -0.163380 0.463500 0.181457
v -0.174216 0.463500 0.174216
v -0.181457 0.463500 0.163380
v 0.211050 0.450000 -0.177222
v 0.177222 0.450000 -0.211050
v 0.208475 0.450000 -0.190167
v 0.201142 0.450000 -0.201142
v 0.190167 0.450000 -0.208475
v 0.177222 0.450000 0.211050
v 0.211050 0.450000 0.177222
v 0.190167 0.450000 0.208475
v 0.201142 0.450000 0.201142
v 0.208475 0.450000 0.190167
v -0.211050 0.450000 -0.177222
v -0.177222 0.450000 -0.211050
v -0.208475 0.450000 -0.190167
v -0.201142 0.450000 -0.201142
v -0.190167 0.450000 -0.208475
v -0.177222 0.450000 0.211050
v -0.211050 0.450000 0.177222
v -0.190167 0.450000 0.208475
v -0.201142 0.450000 0.201142
v -0.208475 0.450000 0.190167
v -0.211050 0.463500 -0.177160
v -0.177160 0.463500 -0.211050
v -0.208470 0.463500 -0.190129
v -0.201124 0.463500 -0.201124
v -0.190129 0.463500 -0.208470
v -0.211050 0.463500 0.177160
v -0.177160 0.463500 0.211050
v -0.208470 0.463500 0.190129
v -0.201124 0.463500 0.201124
v -0.190129 0.463500 0.208470
v 0.177160 0.463500 -0.211050
v 0.211050 0.463500 -0.177160
v 0.190129 0.463500 -0.208470
v 0.201124 0.463500 -0.201124
v 0.208470 0.463500 -0.190129
v 0.177160 0.463500 0.211050
v 0.211050 0.463500 0.177160
v 0.190129 0.463500 0.208470
v 0.201124 0.463500 0.201124
v 0.208470 0.463500 0.190129
v -0.130000 0.000000 -0.105477
v -0.141475 0.011064 -0.107934
v -0.133939 0.000842 -0.105966
v -0.137503 0.003241 -0.106605
v -0.140149 0.006830 -0.107296
v -0.105477 0.000000 -0.130000
v -0.107934 0.011064 -0.141475
v -0.105966 0.000842 -0.133939
v -0.106605 0.003241 -0.137503
v -0.107296 0.006830 -0.140149
v -0.128027 0.000000 -0.115395
v -0.138922 0.011061 -0.120770
v -0.131744 0.000842 -0.117000
v -0.135120 0.003240 -0.118585
v -0.137640 0.006828 -0.119909
v -0.122967 0.000000 -0.122967
v -0.131651 0.011060 -0.131651
v -0.125839 0.000842 -0.125839
v -0.128497 0.003239 -0.128497
v -0.130538 0.006827 -0.130538
v -0.115395 0.000000 -0.128027
v -0.120770 0.011061 -0.138922
v -0.117000 0.000842 -0.131744
v -0.118585 0.003240 -0.135120
v -0.119909 0.006828 -0.137640
v 0.105477 0.000000 -0.130000
v 0.107934 0.011064 -0.141475
v 0.105966 0.000842 -0.133939
v 0.106605 0.003241 -0.137503
v 0.107296 0.006830 -0.140149
v 0.130000 0.000000 -0.105477
v 0.141475 0.011064 -0.107934
v 0.133939 0.000842 -0.105966
v 0.137503 0.003241 -0.106605
v 0.140149 0.006830 -0.107296
v 0.115395 0.000000 -0.128027
v 0.120770 0.011061 -0.138922
v 0.117000 0.000842 -0.131744
v 0.118585 0.003240 -0.135120
v 0.119909 0.006828 -0.137640
v 0.122967 0.000000 -0.122967
v 0.131651 0.011060 -0.131651
v 0.125839 0.000842 -0.125839
v 0.128497 0.003239 -0.128497
v 0.130538 0.006827 -0.130538
v 0.128027 0.000000 -0.115395
v 0.138922 0.011061 -0.120770
v 0.131744 0.000842 -0.117000
v 0.135120 0.003240 -0.118585
v 0.137640 0.006828 -0.119909
v -0.105477 0.000000 0.130000
v -0.107934 0.011064 0.141475
v -0.105966 0.000842 0.133939
v -0.106605 0.003241 0.137503
v -0.107296 0.006830 0.140149
v -0.130000 0.000000 0.105477
v -0.141475 0.011064 0.107934
v -0.133939 0.000842 0.105966
v -0.137503 0.003241 0.106605
v -0.140149 0.006830 0.107296
v -0.115395 0.000000 0.128027
v -0.120770 0.011061 0.138922
v -0.117000 0.000842 0.131744
v -0.118585 0.003240 0.135120
v -0.119909 0.006828 0.137640
v -0.122967 0.000000 0.122967
v -0.131651 0.011060 0.131651
v -0.125839 0.000842 0.125839
v -0.128497 0.003239 0.128497
v -0.130538 0.006827 0.130538
v -0.128027 0.000000 0.115395
v -0.138922 0.011061 0.120770
v -0.131744 0.000842 0.117000
v -0.135120 0.003240 0.118585
v -0.137640 0.006828 0.119909
v 0.130000 0.000000 0.105477
v 0.141475 0.011064 0.107934
v 0.133939 0.000842 0.105966
v 0.137503 0.003241 0.106605
v 0.140149 0.006830 0.107296
v 0.105477 0.000000 0.130000
v 0.107934 0.011064 0.141475
v 0.105966 0.000842 0.133939
v 0.106605 0.003241 0.137503
v 0.107296 0.006830 0.140149
v 0.128027 0.000000 0.115395
v 0.138922 0.011061 0.120770
v 0.131744 0.000842 0.117000
v 0.135120 0.003240 0.118585
v 0.137640 0.006828 0.119909
v 0.122967 0.000000 0.122967
v 0.131651 0.011060 0.131651
v 0.125839 0.000842 0.125839
v 0.128497 0.003239 0.128497
v 0.130538 0.006827 0.130538
v 0.115395 0.000000 0.128027
v 0.120770 0.011061 0.138922
v 0.117000 0.000842 0.131744
v 0.118585 0.003240 0.135120
v 0.119909 0.006828 0.137640
vn -0.0000 1.0000 -0.0000
vn -0.0965 -0.0024 0.9953
vn -0.1020 0.0689 0.9924
vn -0.3860 0.0791 0.9191
vn -0.3811 -0.0076 0.9245
vn -0.7046 0.0840 0.7046
vn -0.7071 -0.0103 0.7071
vn -0.9191 0.0791 0.3860
vn -0.9245 -0.0076 0.3811
vn -0.9924 0.0689 0.1020
vn -0.9953 -0.0024 0.0965
vn -0.1020 0.0689 -0.9924
vn -0.0965 -0.0024 -0.9953
vn -0.3811 -0.0076 -0.9245
vn -0.3860 0.0791 -0.9191
vn -0.7071 -0.0103 -0.7071
vn -0.7046 0.0840 -0.7046
vn -0.9245 -0.0076 -0.3811
vn -0.9191 0.0791 -0.3860
vn -0.9953 -0.0024 -0.0965
vn -0.9924 0.0689 -0.1020
vn -0.0900 0.1389 0.9862
vn -0.3694 0.1657 0.9144
vn -0.6956 0.1795 0.6956
vn -0.9144 0.1657 0.3694
vn -0.9862 0.1389 0.0900
vn -0.0900 0.1389 -0.9862
vn -0.3694 0.1657 -0.9144
vn -0.6956 0.1795 -0.6956
vn -0.9144 0.1657 -0.3694
vn -0.9862 0.1389 -0.0900
vn 0.1020 0.0689 -0.9924
vn 0.0900 0.1389 -0.9862
vn 0.3694 0.1657 -0.9144
vn 0.3860 0.0791 -0.9191
vn 0.6956 0.1795 -0.6956
vn 0.7046 0.0840 -0.7046
vn 0.9144 0.1657 -0.3694
vn 0.9191 0.0791 -0.3860
vn 0.9862 0.1389 -0.0900
vn 0.9924 0.0689 -0.1020
vn 0.0900 0.1389 0.9862
vn 0.1020 0.0689 0.9924
vn 0.3860 0.0791 0.9191
vn 0.3694 0.1657 0.9144
vn 0.7046 0.0840 0.7046
vn 0.6956 0.1795 0.6956
vn 0.9191 0.0791 0.3860
vn 0.9144 0.1657 0.3694
vn 0.9924 0.0689 0.1020
vn 0.9862 0.1389 0.0900
vn -0.0000 -1.0000 -0.0000
vn 0.0965 -0.0024 0.9953
vn 0.3811 -0.0076 0.9245
vn 0.7071 -0.0103 0.7071
vn 0.9245 -0.0076 0.3811
vn 0.9953 -0.0024 0.0965
vn 0.0965 -0.0024 -0.9953
vn 0.3811 -0.0076 -0.9245
vn 0.7071 -0.0103 -0.7071
vn 0.9245 -0.0076 -0.3811
vn 0.9953 -0.0024 -0.0965
vn -0.0977 0.0005 -0.9952
vn -0.0983 0.0005 -0.9952
vn -0.3830 0.0014 -0.9238
vn -0.3824 0.0014 -0.9240
vn -0.7071 0.0019 -0.7071
vn -0.9238 0.0014 -0.3830
vn -0.9240 0.0014 -0.3824
vn -0.9952 0.0005 -0.0983
vn -0.9952 0.0005 -0.0977
vn -0.0983 0.0005 0.9952
vn -0.0977 0.0005 0.9952
vn -0.3824 0.0014 0.9240
vn -0.3830 0.0014 0.9238
vn -0.7071 0.0019 0.7071
vn -0.9240 0.0014 0.3824
vn -0.9238 0.0014 0.3830
vn -0.9952 0.0005 0.0977
vn -0.9952 0.0005 0.0983
vn 0.0983 0.0005 -0.9952
vn 0.0977 0.0005 -0.9952
vn 0.3824 0.0014 -0.9240
vn 0.3830 0.0014 -0.9238
vn 0.7071 0.0019 -0.7071
vn 0.9240 0.0014 -0.3824
vn 0.9238 0.0014 -0.3830
vn 0.9952 0.0005 -0.0977
vn 0.9952 0.0005 -0.0983
vn 0.0977 0.0005 0.9952
vn 0.0983 0.0005 0.9952
vn 0.3830 0.0014 0.9238
vn 0.3824 0.0014 0.9240
vn 0.7071 0.0019 0.7071
vn 0.9238 0.0014 0.3830
vn 0.9240 0.0014 0.3824
vn 0.9952 0.0005 0.0983
vn 0.9952 0.0005 0.0977
vn -0.0107 -0.9938 -0.1103
vn -0.0438 -0.9934 -0.1063
vn -0.1508 -0.9174 -0.3683
vn -0.0378 -0.9177 -0.3955
vn -0.2592 -0.7303 -0.6321
vn -0.0662 -0.7222 -0.6885
vn -0.3345 -0.4762 -0.8133
vn -0.0857 -0.4577 -0.8849
vn -0.3694 -0.2524 -0.8944
vn -0.0949 -0.2268 -0.9693
vn -0.0811 -0.9934 -0.0811
vn -0.2797 -0.9184 -0.2797
vn -0.4795 -0.7349 -0.4795
vn -0.6181 -0.4857 -0.6181
vn -0.6818 -0.2651 -0.6818
vn -0.1063 -0.9934 -0.0438
vn -0.3683 -0.9174 -0.1508
vn -0.6321 -0.7303 -0.2592
vn -0.8133 -0.4762 -0.3345
vn -0.8944 -0.2524 -0.3694
vn -0.1103 -0.9938 -0.0107
vn -0.3955 -0.9177 -0.0378
vn -0.6885 -0.7222 -0.0662
vn -0.8849 -0.4577 -0.0857
vn -0.9693 -0.2268 -0.0949
vn 0.1063 -0.9934 0.0438
vn 0.1103 -0.9938 0.0107
vn 0.3955 -0.9177 0.0378
vn 0.3683 -0.9174 0.1508
vn 0.6885 -0.7222 0.0662
vn 0.6321 -0.7303 0.2592
vn 0.8849 -0.4577 0.0857
vn 0.8133 -0.4762 0.3345
vn 0.9693 -0.2268 0.0949
vn 0.8944 -0.2524 0.3694
vn 0.0811 -0.9934 0.0811
vn 0.2797 -0.9184 0.2797
vn 0.4795 -0.7349 0.4795
vn 0.6181 -0.4857 0.6181
vn 0.6818 -0.2651 0.6818
vn 0.0438 -0.9934 0.1063
vn 0.1508 -0.9174 0.3683
vn 0.2592 -0.7303 0.6321
vn 0.3345 -0.4762 0.8133
vn 0.3694 -0.2524 0.8944
vn 0.0107 -0.9938 0.1103
vn 0.0378 -0.9177 0.3955
vn 0.0662 -0.7222 0.6885
vn 0.0857 -0.4577 0.8849
vn 0.0949 -0.2268 0.9693
vn 0.1103 -0.9938 -0.0107
vn 0.1063 -0.9934 -0.0438
vn 0.3683 -0.9174 -0.1508
vn 0.3955 -0.9177 -0.0378
vn 0.6321 -0.7303 -0.2592
vn 0.6885 -0.7222 -0.0662
vn 0.8133 -0.4762 -0.3345
vn 0.8849 -0.4577 -0.0857
vn 0.8944 -0.2524 -0.3694
vn 0.9693 -0.2268 -0.0949
vn 0.0811 -0.9934 -0.0811
vn 0.2797 -0.9184 -0.2797
vn 0.4795 -0.7349 -0.4795
vn 0.6181 -0.4857 -0.6181
vn 0.6818 -0.2651 -0.6818
vn 0.0438 -0.9934 -0.1063
vn 0.1508 -0.9174 -0.3683
vn 0.2592 -0.7303 -0.6321
vn 0.3345 -0.4762 -0.8133
vn 0.3694 -0.2524 -0.8944
vn 0.0107 -0.9938 -0.1103
vn 0.0378 -0.9177 -0.3955
vn 0.0661 -0.7222 -0.6885
vn 0.0857 -0.4577 -0.8849
vn 0.0949 -0.2268 -0.9693
vn -0.1103 -0.9938 0.0107
vn -0.1063 -0.9934 0.0438
vn -0.3683 -0.9174 0.1508
vn -0.3955 -0.9177 0.0378
vn -0.6321 -0.7303 0.2592
vn -0.6885 -0.7222 0.0662
vn -0.8133 -0.4762 0.3345
vn -0.8849 -0.4577 0.0857
vn -0.8944 -0.2524 0.3694
vn -0.9693 -0.2268 0.0949
vn -0.0811 -0.9934 0.0811
vn -0.2797 -0.9184 0.2797
vn -0.4795 -0.7349 0.4795
vn -0.6181 -0.4857 0.6181
vn -0.6818 -0.2651 0.6818
vn -0.0438 -0.9934 0.1063
vn -0.1508 -0.9174 0.3683
vn -0.2592 -0.7303 0.6321
vn -0.3345 -0.4762 0.8133
vn -0.3694 -0.2524 0.8944
vn -0.0107 -0.9938 0.1103
vn -0.0378 -0.9177 0.3955
vn -0.0661 -0.7222 0.6885
vn -0.0857 -0.4577 0.8849
vn -0.0949 -0.2268 0.9693
vn -0.9068 -0.1721 -0.3847
vn -0.9839 -0.1450 -0.1041
vn -0.9839 -0.1450 0.1041
vn -0.1041 -0.1450 -0.9839
vn 0.1041 -0.1450 -0.9839
vn -0.3847 -0.1721 -0.9068
vn -0.6949 -0.1852 -0.6949
vn 0.3847 -0.1721 -0.9068
vn 0.9839 -0.1450 -0.1041
vn 0.9839 -0.1450 0.1041
vn 0.9068 -0.1721 -0.3847
vn 0.6949 -0.1852 -0.6949
vn -0.3847 -0.1721 0.9068
vn -0.1041 -0.1450 0.9839
vn 0.1041 -0.1450 0.9839
vn -0.9068 -0.1721 0.3847
vn -0.6949 -0.1852 0.6949
vn 0.9068 -0.1721 0.3847
vn 0.3847 -0.1721 0.9068
vn 0.6949 -0.1852 0.6949
vt 0.407404 0.415795
vt 0.404179 0.404990
vt 0.407943 0.402461
vt 0.411157 0.413272
vt 0.411133 0.395257
vt 0.414339 0.406089
vt 0.413265 0.384476
vt 0.416465 0.395338
vt 0.414014 0.371760
vt 0.417211 0.382656
vt 0.404179 0.013865
vt 0.407404 0.003060
vt 0.411157 0.005582
vt 0.407943 0.016394
vt 0.414339 0.012766
vt 0.411133 0.023598
vt 0.416465 0.023517
vt 0.413265 0.034378
vt 0.417211 0.036198
vt 0.414014 0.047095
vt 0.285415 0.739617
vt 0.288878 0.739945
vt 0.288825 0.752319
vt 0.285361 0.752116
vt 0.288673 0.762809
vt 0.285208 0.762713
vt 0.661623 0.381117
vt 0.665089 0.381021
vt 0.665240 0.391512
vt 0.661776 0.391714
vt 0.665293 0.403886
vt 0.661830 0.404213
vt 0.665837 0.025924
vt 0.662385 0.026251
vt 0.662304 0.013752
vt 0.665756 0.013550
vt 0.662072 0.003156
vt 0.665527 0.003060
vt 0.665089 0.721916
vt 0.661623 0.721820
vt 0.661776 0.711223
vt 0.665240 0.711425
vt 0.661830 0.698724
vt 0.665293 0.699051
vt 0.397384 0.686073
vt 0.397331 0.698407
vt 0.397180 0.708864
vt 0.773596 0.434966
vt 0.773747 0.445423
vt 0.773800 0.457757
vt 0.773363 0.079795
vt 0.773283 0.067461
vt 0.773055 0.057005
vt 0.773596 0.667971
vt 0.773747 0.657514
vt 0.773800 0.645180
vt 0.665837 0.321090
vt 0.773363 0.267218
vt 0.773283 0.279553
vt 0.665756 0.333464
vt 0.773055 0.290009
vt 0.665527 0.343954
vt 0.172303 0.421914
vt 0.280941 0.475859
vt 0.281081 0.486316
vt 0.172442 0.432405
vt 0.281130 0.498650
vt 0.172492 0.444779
vt 0.397384 0.498650
vt 0.288878 0.444779
vt 0.288825 0.432405
vt 0.397331 0.486316
vt 0.288673 0.421914
vt 0.397180 0.475859
vt 0.280941 0.708864
vt 0.172303 0.762809
vt 0.172442 0.752319
vt 0.281081 0.698407
vt 0.172492 0.739945
vt 0.281130 0.686073
vt 0.298260 0.371760
vt 0.302890 0.356683
vt 0.303626 0.369182
vt 0.299009 0.384476
vt 0.305722 0.379779
vt 0.301141 0.395257
vt 0.308858 0.386859
vt 0.304331 0.402461
vt 0.312557 0.389345
vt 0.308095 0.404990
vt 0.409383 0.356683
vt 0.408648 0.369182
vt 0.406552 0.379779
vt 0.403416 0.386859
vt 0.399717 0.389345
vt 0.308095 0.013865
vt 0.312557 0.029510
vt 0.308858 0.031996
vt 0.304331 0.016394
vt 0.305722 0.039076
vt 0.301141 0.023598
vt 0.303626 0.049672
vt 0.299009 0.034378
vt 0.302890 0.062172
vt 0.298260 0.047095
vt 0.399717 0.029510
vt 0.403416 0.031996
vt 0.406552 0.039076
vt 0.408648 0.049673
vt 0.409384 0.062172
vt 0.290985 0.036137
vt 0.287787 0.046784
vt 0.287045 0.034186
vt 0.290239 0.023479
vt 0.284933 0.023506
vt 0.288117 0.012748
vt 0.281773 0.016370
vt 0.284941 0.005578
vt 0.278044 0.013865
vt 0.281195 0.003060
vt 0.172034 0.046784
vt 0.168836 0.036137
vt 0.169581 0.023479
vt 0.172775 0.034186
vt 0.171703 0.012748
vt 0.174887 0.023506
vt 0.174879 0.005578
vt 0.178048 0.016370
vt 0.178625 0.003060
vt 0.181776 0.013865
vt 0.285415 0.445106
vt 0.285361 0.432607
vt 0.285208 0.422010
vt 0.168836 0.762713
vt 0.168977 0.752116
vt 0.169027 0.739617
vt 0.662385 0.320762
vt 0.662304 0.333262
vt 0.662072 0.343858
vt 0.168836 0.422010
vt 0.168977 0.432607
vt 0.169027 0.445106
vt 0.401463 0.791823
vt 0.404914 0.791884
vt 0.404996 0.804542
vt 0.401545 0.804504
vt 0.405231 0.815273
vt 0.401780 0.815255
vt 0.409519 0.421932
vt 0.412982 0.421914
vt 0.412827 0.432646
vt 0.409363 0.432683
vt 0.412772 0.445304
vt 0.409309 0.445365
vt 0.781341 0.351946
vt 0.777878 0.352007
vt 0.777932 0.339326
vt 0.781396 0.339288
vt 0.778087 0.328575
vt 0.781550 0.328557
vt 0.412982 0.815273
vt 0.409519 0.815255
vt 0.409363 0.804504
vt 0.412827 0.804542
vt 0.409309 0.791823
vt 0.412772 0.791884
vt 0.404914 0.445304
vt 0.401463 0.445365
vt 0.401545 0.432683
vt 0.404996 0.432646
vt 0.401780 0.421932
vt 0.405231 0.421914
vt 0.789287 0.721916
vt 0.785822 0.721898
vt 0.785679 0.711147
vt 0.789144 0.711185
vt 0.785629 0.698465
vt 0.789093 0.698526
vt 0.777878 0.698465
vt 0.781341 0.698526
vt 0.781395 0.711184
vt 0.777932 0.711147
vt 0.781550 0.721916
vt 0.778087 0.721898
vt 0.785822 0.328575
vt 0.789287 0.328557
vt 0.789144 0.339288
vt 0.785679 0.339326
vt 0.789093 0.351946
vt 0.785629 0.352007
vt 0.295063 0.382656
vt 0.295809 0.395338
vt 0.297935 0.406089
vt 0.301117 0.413272
vt 0.304870 0.415795
vt 0.287787 0.372071
vt 0.290985 0.382717
vt 0.290239 0.395375
vt 0.287045 0.384669
vt 0.288117 0.406107
vt 0.284933 0.395348
vt 0.284941 0.413277
vt 0.281773 0.402484
vt 0.281195 0.415795
vt 0.278044 0.404990
vt 0.168836 0.382717
vt 0.172034 0.372071
vt 0.172775 0.384669
vt 0.169581 0.395375
vt 0.174887 0.395348
vt 0.171703 0.406107
vt 0.178048 0.402484
vt 0.174879 0.413277
vt 0.181776 0.404990
vt 0.178625 0.415795
vt 0.295063 0.036198
vt 0.295809 0.023517
vt 0.297935 0.012766
vt 0.301117 0.005582
vt 0.304870 0.003060
vt 0.819829 0.947689
vt 0.819103 0.960023
vt 0.817035 0.970480
vt 0.813940 0.977467
vt 0.810290 0.979920
vt 0.754822 0.979920
vt 0.751172 0.977467
vt 0.748077 0.970480
vt 0.746010 0.960023
vt 0.745284 0.947689
vt 0.745284 0.760266
vt 0.746010 0.747932
vt 0.748077 0.737475
vt 0.751172 0.730489
vt 0.754822 0.728035
vt 0.810290 0.728035
vt 0.813940 0.730489
vt 0.817035 0.737475
vt 0.819103 0.747932
vt 0.819829 0.760266
vt 0.663795 0.965625
vt 0.664365 0.975322
vt 0.663290 0.976892
vt 0.662655 0.966103
vt 0.662313 0.978442
vt 0.661623 0.966728
vt 0.537504 0.293221
vt 0.537580 0.304935
vt 0.536582 0.306229
vt 0.536502 0.293896
vt 0.535459 0.307071
vt 0.535377 0.294521
vt 0.665830 0.982727
vt 0.664999 0.985534
vt 0.664229 0.988134
vt 0.537792 0.314627
vt 0.536810 0.316623
vt 0.535692 0.317711
vt 0.668021 0.987675
vt 0.667556 0.991309
vt 0.667098 0.994610
vt 0.657994 0.063335
vt 0.657854 0.073027
vt 0.656880 0.071732
vt 0.657031 0.061339
vt 0.655767 0.070891
vt 0.655921 0.060251
vt 0.670891 0.989604
vt 0.670749 0.993455
vt 0.670565 0.996940
vt 0.657804 0.084741
vt 0.656827 0.084065
vt 0.655713 0.083441
vt 0.734808 0.737301
vt 0.731938 0.735372
vt 0.732079 0.731520
vt 0.735272 0.733666
vt 0.732264 0.728035
vt 0.735731 0.730365
vt 0.657416 0.450988
vt 0.657369 0.462703
vt 0.656396 0.462027
vt 0.656446 0.449694
vt 0.655284 0.461403
vt 0.655334 0.448852
vt 0.736999 0.742248
vt 0.737830 0.739441
vt 0.738599 0.736841
vt 0.657545 0.441296
vt 0.656584 0.439301
vt 0.655477 0.438212
vt 0.738463 0.749653
vt 0.739539 0.748083
vt 0.740516 0.746533
vt 0.537273 0.682897
vt 0.537413 0.692589
vt 0.536450 0.694584
vt 0.536299 0.684191
vt 0.535340 0.695672
vt 0.535186 0.685033
vt 0.739034 0.759350
vt 0.740174 0.758872
vt 0.741205 0.758248
vt 0.537223 0.671182
vt 0.536246 0.671858
vt 0.535132 0.672482
vt 0.670891 0.735372
vt 0.668021 0.737301
vt 0.667556 0.733666
vt 0.670749 0.731520
vt 0.667098 0.730365
vt 0.670565 0.728035
vt 0.657369 0.671182
vt 0.657416 0.682897
vt 0.656446 0.684191
vt 0.656396 0.671858
vt 0.655334 0.685033
vt 0.655284 0.672482
vt 0.665830 0.742248
vt 0.664999 0.739441
vt 0.664229 0.736841
vt 0.657545 0.692589
vt 0.656584 0.694584
vt 0.655476 0.695672
vt 0.664365 0.749653
vt 0.663290 0.748083
vt 0.662313 0.746533
vt 0.537792 0.063335
vt 0.537580 0.073027
vt 0.536582 0.071732
vt 0.536810 0.061339
vt 0.535459 0.070891
vt 0.535692 0.060251
vt 0.663795 0.759350
vt 0.662655 0.758872
vt 0.661623 0.758248
vt 0.537504 0.084741
vt 0.536502 0.084065
vt 0.535377 0.083441
vt 0.731938 0.989603
vt 0.734808 0.987675
vt 0.735272 0.991309
vt 0.732079 0.993455
vt 0.735731 0.994610
vt 0.732264 0.996940
vt 0.657804 0.293221
vt 0.657854 0.304935
vt 0.656880 0.306229
vt 0.656827 0.293896
vt 0.655767 0.307071
vt 0.655713 0.294521
vt 0.736999 0.982727
vt 0.737830 0.985534
vt 0.738599 0.988134
vt 0.657994 0.314627
vt 0.657031 0.316623
vt 0.655921 0.317711
vt 0.738463 0.975322
vt 0.739539 0.976892
vt 0.740516 0.978442
vt 0.537413 0.441296
vt 0.537273 0.450988
vt 0.536299 0.449694
vt 0.536450 0.439301
vt 0.535186 0.448852
vt 0.535340 0.438213
vt 0.739034 0.965625
vt 0.740174 0.966103
vt 0.741206 0.966728
vt 0.537223 0.462703
vt 0.536246 0.462027
vt 0.535132 0.461403
vt 0.541925 0.013740
vt 0.541870 0.026337
vt 0.541870 0.351624
vt 0.421289 0.351624
vt 0.421289 0.026337
vt 0.421371 0.364222
vt 0.542079 0.003060
vt 0.421605 0.374902
vt 0.421371 0.013740
vt 0.768747 0.009459
vt 0.913970 0.990541
vt 0.086721 0.990541
vt 0.231944 0.009459
vt 0.541491 0.729586
vt 0.541541 0.742184
vt 0.421605 0.003060
vt 0.541684 0.752863
vt 0.421344 0.391701
vt 0.421289 0.404299
vt 0.421289 0.729586
vt 0.541925 0.364222
vt 0.421498 0.381021
vt 0.542079 0.374902
vt 0.541491 0.404299
vt 0.541541 0.391701
vt 0.421344 0.742184
vt 0.541684 0.381021
vt 0.421498 0.752863
s 1
usemtl white_plastic
f 137/1/1 66/2/1 68/3/1 140/4/1
f 140/4/1 68/3/1 69/5/1 139/6/1
f 139/6/1 69/5/1 70/7/1 138/8/1
f 138/8/1 70/7/1 67/9/1 136/10/1
f 77/11/1 126/12/1 128/13/1 80/14/1
f 80/14/1 128/13/1 129/15/1 79/16/1
f 79/16/1 129/15/1 130/17/1 78/18/1
f 78/18/1 130/17/1 127/19/1 76/20/1
f 82/21/2 6/22/3 8/23/4 85/24/5
f 85/24/5 8/23/4 9/25/6 84/26/7
f 84/27/7 9/28/6 10/29/8 83/30/9
f 83/30/9 10/29/8 7/31/10 81/32/11
f 17/33/12 86/34/13 88/35/14 20/36/15
f 20/36/15 88/35/14 89/37/16 19/38/17
f 19/39/17 89/40/16 90/41/18 18/42/19
f 18/42/19 90/41/18 87/43/20 16/44/21
f 6/22/3 42/45/22 45/46/23 8/23/4
f 8/23/4 45/46/23 44/47/24 9/25/6
f 9/28/6 44/48/24 43/49/25 10/29/8
f 10/29/8 43/49/25 41/50/26 7/31/10
f 46/51/27 17/33/12 20/36/15 48/52/28
f 48/52/28 20/36/15 19/38/17 49/53/29
f 49/54/29 19/39/17 18/42/19 50/55/30
f 50/55/30 18/42/19 16/44/21 47/56/31
f 12/57/32 57/58/33 60/59/34 15/60/35
f 15/60/35 60/59/34 59/61/36 14/62/37
f 14/63/37 59/64/36 58/65/38 13/66/39
f 13/66/39 58/65/38 56/67/40 11/68/41
f 51/69/42 1/70/43 3/71/44 53/72/45
f 53/72/45 3/71/44 4/73/46 54/74/47
f 54/75/47 4/76/46 5/77/48 55/78/49
f 55/78/49 5/77/48 2/79/50 52/80/51
f 62/81/1 82/82/1 85/83/1 65/84/1
f 65/84/1 85/83/1 84/85/1 64/86/1
f 64/86/1 84/85/1 83/87/1 63/88/1
f 63/88/1 83/87/1 81/89/1 61/90/1
f 86/91/1 67/9/1 70/7/1 88/92/1
f 88/92/1 70/7/1 69/5/1 89/93/1
f 89/93/1 69/5/1 68/3/1 90/94/1
f 90/94/1 68/3/1 66/2/1 87/95/1
f 72/96/1 91/97/1 93/98/1 75/99/1
f 75/99/1 93/98/1 94/100/1 74/101/1
f 74/101/1 94/100/1 95/102/1 73/103/1
f 73/103/1 95/102/1 92/104/1 71/105/1
f 97/106/1 77/11/1 80/14/1 100/107/1
f 100/107/1 80/14/1 79/16/1 99/108/1
f 99/108/1 79/16/1 78/18/1 98/109/1
f 98/109/1 78/18/1 76/20/1 96/110/1
f 112/111/52 32/112/52 35/113/52 115/114/52
f 115/114/52 35/113/52 34/115/52 114/116/52
f 114/116/52 34/115/52 33/117/52 113/118/52
f 113/118/52 33/117/52 31/119/52 111/120/52
f 36/121/52 116/122/52 118/123/52 38/124/52
f 38/124/52 118/123/52 119/125/52 39/126/52
f 39/126/52 119/125/52 120/127/52 40/128/52
f 40/128/52 120/127/52 117/129/52 37/130/52
f 1/70/43 92/131/53 95/132/54 3/71/44
f 3/71/44 95/132/54 94/133/55 4/73/46
f 4/76/46 94/134/55 93/135/56 5/77/48
f 5/77/48 93/135/56 91/136/57 2/79/50
f 96/137/58 12/57/32 15/60/35 98/138/59
f 98/138/59 15/60/35 14/62/37 99/139/60
f 99/140/60 14/63/37 13/66/39 100/141/61
f 100/141/61 13/66/39 11/68/41 97/142/62
f 122/143/63 112/144/64 115/145/65 125/146/66
f 125/146/66 115/145/65 114/147/67 124/148/67
f 124/149/67 114/150/67 113/151/68 123/152/69
f 123/152/69 113/151/68 111/153/70 121/154/71
f 116/155/72 127/156/73 130/157/74 118/158/75
f 118/158/75 130/157/74 129/159/76 119/160/76
f 119/161/76 129/162/76 128/163/77 120/164/78
f 120/164/78 128/163/77 126/165/79 117/166/80
f 102/167/81 131/168/82 133/169/83 105/170/84
f 105/170/84 133/169/83 134/171/85 104/172/85
f 104/173/85 134/174/85 135/175/86 103/176/87
f 103/176/87 135/175/86 132/177/88 101/178/89
f 136/179/90 106/180/91 108/181/92 138/182/93
f 138/182/93 108/181/92 109/183/94 139/184/94
f 139/185/94 109/186/94 110/187/95 140/188/96
f 140/188/96 110/187/95 107/189/97 137/190/98
f 131/191/1 62/81/1 65/84/1 133/192/1
f 133/192/1 65/84/1 64/86/1 134/193/1
f 134/193/1 64/86/1 63/88/1 135/194/1
f 135/194/1 63/88/1 61/90/1 132/195/1
f 21/196/52 102/197/52 105/198/52 23/199/52
f 23/199/52 105/198/52 104/200/52 24/201/52
f 24/201/52 104/200/52 103/202/52 25/203/52
f 25/203/52 103/202/52 101/204/52 22/205/52
f 106/206/52 27/207/52 30/208/52 108/209/52
f 108/209/52 30/208/52 29/210/52 109/211/52
f 109/211/52 29/210/52 28/212/52 110/213/52
f 110/213/52 28/212/52 26/214/52 107/215/52
f 71/105/1 122/216/1 125/217/1 73/103/1
f 73/103/1 125/217/1 124/218/1 74/101/1
f 74/101/1 124/218/1 123/219/1 75/99/1
f 75/99/1 123/219/1 121/220/1 72/96/1
f 1/70/43 6/22/3 82/21/2 92/131/53
f 2/79/50 11/68/41 56/67/40 52/80/51
f 6/22/3 1/70/43 51/69/42 42/45/22
f 11/68/41 2/79/50 91/136/57 97/142/62
f 7/31/10 16/44/21 87/43/20 81/32/11
f 16/44/21 7/31/10 41/50/26 47/56/31
f 17/33/12 12/57/32 96/137/58 86/34/13
f 12/57/32 17/33/12 46/51/27 57/58/33
f 21/196/52 32/112/52 112/111/52 102/197/52
f 26/214/52 22/205/52 101/204/52 107/215/52
f 36/121/52 27/207/52 106/206/52 116/122/52
f 31/119/52 37/130/52 117/129/52 111/120/52
f 51/221/1 53/222/1 54/223/1 55/224/1 52/225/1 56/226/1 58/227/1 59/228/1 60/229/1 57/230/1 46/231/1 48/232/1 49/233/1 50/234/1 47/235/1 41/236/1 43/237/1 44/238/1 45/239/1 42/240/1
f 81/89/1 87/95/1 66/2/1 61/90/1
f 71/105/1 62/81/1 131/191/1 122/216/1
f 61/90/1 66/2/1 137/1/1 132/195/1
f 92/104/1 82/82/1 62/81/1 71/105/1
f 67/9/1 76/20/1 127/19/1 136/10/1
f 86/91/1 96/110/1 76/20/1 67/9/1
f 97/106/1 91/97/1 72/96/1 77/11/1
f 77/11/1 72/96/1 121/220/1 126/12/1
f 107/189/97 101/178/89 132/177/88 137/190/98
f 102/167/81 112/144/64 122/143/63 131/168/82
f 116/155/72 106/180/91 136/179/90 127/156/73
f 111/153/70 117/166/80 126/165/79 121/154/71
f 146/241/99 161/242/100 163/243/101 148/244/102
f 148/244/102 163/243/101 164/245/103 149/246/104
f 149/247/104 164/248/103 165/249/105 150/250/106
f 150/250/106 165/249/105 162/251/107 147/252/108
f 161/242/100 156/253/109 158/254/110 163/243/101
f 163/243/101 158/254/110 159/255/111 164/245/103
f 164/248/103 159/256/111 160/257/112 165/249/105
f 165/249/105 160/257/112 157/258/113 162/251/107
f 156/253/109 151/259/114 153/260/115 158/254/110
f 158/254/110 153/260/115 154/261/116 159/255/111
f 159/262/111 154/263/116 155/264/117 160/265/112
f 160/265/112 155/264/117 152/266/118 157/267/113
f 151/259/114 141/268/119 143/269/120 153/260/115
f 153/260/115 143/269/120 144/270/121 154/261/116
f 154/263/116 144/271/121 145/272/122 155/264/117
f 155/264/117 145/272/122 142/273/123 152/266/118
f 226/274/124 216/275/125 218/276/126 228/277/127
f 228/277/127 218/276/126 219/278/128 229/279/129
f 229/280/129 219/281/128 220/282/130 230/283/131
f 230/283/131 220/282/130 217/284/132 227/285/133
f 231/286/134 226/274/124 228/277/127 233/287/135
f 233/287/135 228/277/127 229/279/129 234/288/136
f 234/289/136 229/280/129 230/283/131 235/290/137
f 235/290/137 230/283/131 227/285/133 232/291/138
f 236/292/139 231/286/134 233/287/135 238/293/140
f 238/293/140 233/287/135 234/288/136 239/294/141
f 239/295/141 234/296/136 235/297/137 240/298/142
f 240/298/142 235/297/137 232/299/138 237/300/143
f 221/301/144 236/292/139 238/293/140 223/302/145
f 223/302/145 238/293/140 239/294/141 224/303/146
f 224/304/146 239/295/141 240/298/142 225/305/147
f 225/305/147 240/298/142 237/300/143 222/306/148
f 171/307/149 186/308/150 188/309/151 173/310/152
f 173/310/152 188/309/151 189/311/153 174/312/154
f 174/313/154 189/314/153 190/315/155 175/316/156
f 175/316/156 190/315/155 187/317/157 172/318/158
f 186/308/150 181/319/159 183/320/160 188/309/151
f 188/309/151 183/320/160 184/321/161 189/311/153
f 189/314/153 184/322/161 185/323/162 190/315/155
f 190/315/155 185/323/162 182/324/163 187/317/157
f 181/319/159 176/325/164 178/326/165 183/320/160
f 183/320/160 178/326/165 179/327/166 184/321/161
f 184/328/161 179/329/166 180/330/167 185/331/162
f 185/331/162 180/330/167 177/332/168 182/333/163
f 176/325/164 166/334/169 168/335/170 178/326/165
f 178/326/165 168/335/170 169/336/171 179/327/166
f 179/329/166 169/337/171 170/338/172 180/330/167
f 180/330/167 170/338/172 167/339/173 177/332/168
f 196/340/174 211/341/175 213/342/176 198/343/177
f 198/343/177 213/342/176 214/344/178 199/345/179
f 199/346/179 214/347/178 215/348/180 200/349/181
f 200/349/181 215/348/180 212/350/182 197/351/183
f 211/341/175 206/352/184 208/353/185 213/342/176
f 213/342/176 208/353/185 209/354/186 214/344/178
f 214/347/178 209/355/186 210/356/187 215/348/180
f 215/348/180 210/356/187 207/357/188 212/350/182
f 206/352/184 201/358/189 203/359/190 208/353/185
f 208/353/185 203/359/190 204/360/191 209/354/186
f 209/361/186 204/362/191 205/363/192 210/364/187
f 210/364/187 205/363/192 202/365/193 207/366/188
f 201/358/189 191/367/194 193/368/195 203/359/190
f 203/359/190 193/368/195 194/369/196 204/360/191
f 204/362/191 194/370/196 195/371/197 205/363/192
f 205/363/192 195/371/197 192/372/198 202/365/193
f 141/268/119 196/340/174 198/343/177 143/269/120
f 143/269/120 198/343/177 199/345/179 144/270/121
f 144/271/121 199/346/179 200/349/181 145/272/122
f 145/272/122 200/349/181 197/351/183 142/273/123
f 166/334/169 146/241/99 148/244/102 168/335/170
f 168/335/170 148/244/102 149/246/104 169/336/171
f 169/337/171 149/247/104 150/250/106 170/338/172
f 170/338/172 150/250/106 147/252/108 167/339/173
f 222/306/148 192/372/198 195/371/197 225/305/147
f 225/305/147 195/371/197 194/370/196 224/304/146
f 224/303/146 194/369/196 193/368/195 223/302/145
f 223/302/145 193/368/195 191/367/194 221/301/144
f 172/318/158 217/284/132 220/282/130 175/316/156
f 175/316/156 220/282/130 219/281/128 174/313/154
f 174/312/154 219/278/128 218/276/126 173/310/152
f 173/310/152 218/276/126 216/275/125 171/307/149
f 191/367/194 201/358/189 206/352/184 211/341/175 196/340/174 141/268/119 151/259/114 156/253/109 161/242/100 146/241/99 166/334/169 176/325/164 181/319/159 186/308/150 171/307/149 216/275/125 226/274/124 231/286/134 236/292/139 221/301/144
f 33/373/199 152/266/118 142/273/123 31/374/200
f 197/351/183 37/375/201 31/374/200 142/273/123
f 147/252/108 32/376/202 21/377/203 167/339/173
f 32/376/202 147/252/108 162/251/107 35/378/204
f 34/379/205 157/267/113 152/266/118 33/373/199
f 35/378/204 162/251/107 157/258/113 34/380/205
f 23/381/206 177/332/168 167/339/173 21/377/203
f 22/386/207 172/318/158 187/317/157 25/387/209
f 24/388/210 182/333/163 177/332/168 23/381/206
f 25/387/209 187/317/157 182/324/163 24/389/210
f 38/390/211 202/365/193 192/372/198 36/391/212
f 222/306/148 27/392/213 36/391/212 192/372/198
f 37/375/201 197/351/183 212/350/182 40/393/214
f 39/394/215 207/366/188 202/365/193 38/390/211
f 40/393/214 212/350/182 207/357/188 39/395/215
f 217/284/132 26/396/208 28/397/216 227/285/133
f 237/300/143 30/398/217 27/392/213 222/306/148
f 227/285/133 28/397/216 29/399/218 232/291/138
f 232/299/138 29/400/218 30/398/217 237/300/143
usemtl recycle
f 172/382/158 22/383/207 26/384/208 217/385/132
