# Blender 4.5.3 LTS
# www.blender.org
mtllib red_desk_lamp.mtl
o red_desk_lamp
v -0.000000 0.051993 -0.007497
v -0.000000 0.371332 -0.007497
v 0.003749 0.051993 -0.006493
v 0.003749 0.371332 -0.006493
v 0.006493 0.051993 -0.003749
v 0.006493 0.371332 -0.003749
v 0.007497 0.051993 0.000000
v 0.007497 0.371332 0.000000
v 0.006493 0.051993 0.003749
v 0.006493 0.371332 0.003749
v 0.003749 0.051993 0.006493
v 0.003749 0.371332 0.006493
v -0.000000 0.051993 0.007497
v -0.000000 0.371332 0.007497
v -0.003749 0.051993 0.006493
v -0.003749 0.371332 0.006493
v -0.006493 0.051993 0.003749
v -0.006493 0.371332 0.003749
v -0.007497 0.051993 0.000000
v -0.007497 0.371332 0.000000
v -0.006493 0.051993 -0.003749
v -0.006493 0.371332 -0.003749
v -0.003749 0.051993 -0.006493
v -0.003749 0.371332 -0.006493
v -0.000000 0.051993 -0.008415
v 0.004208 0.051993 -0.007288
v 0.007288 0.051993 -0.004208
v 0.008415 0.051993 0.000000
v 0.007288 0.051993 0.004208
v 0.004208 0.051993 0.007288
v -0.000000 0.051993 0.008415
v -0.004208 0.051993 0.007288
v -0.007288 0.051993 0.004208
v -0.008415 0.051993 0.000000
v -0.007288 0.051993 -0.004208
v -0.004208 0.051993 -0.007288
v -0.000000 0.048344 -0.008415
v 0.004208 0.048344 -0.007288
v 0.007288 0.048344 -0.004208
v 0.008415 0.048344 0.000000
v 0.007288 0.048344 0.004208
v 0.004208 0.048344 0.007288
v -0.000000 0.048344 0.008415
v -0.004208 0.048344 0.007288
v -0.007288 0.048344 0.004208
v -0.008415 0.048344 0.000000
v -0.007288 0.048344 -0.004208
v -0.004208 0.048344 -0.007288
v -0.000000 0.048344 -0.009189
v 0.004595 0.048344 -0.007958
v 0.007958 0.048344 -0.004595
v 0.009189 0.048344 0.000000
v 0.007958 0.048344 0.004595
v 0.004595 0.048344 0.007958
v -0.000000 0.048344 0.009189
v -0.004595 0.048344 0.007958
v -0.007958 0.048344 0.004595
v -0.009189 0.048344 0.000000
v -0.007958 0.048344 -0.004595
v -0.004595 0.048344 -0.007958
v -0.000000 0.025618 -0.033488
v 0.016744 0.025618 -0.029001
v 0.029001 0.025618 -0.016744
v 0.033488 0.025618 0.000000
v 0.029001 0.025618 0.016744
v 0.016744 0.025618 0.029001
v -0.000000 0.025618 0.033488
v -0.016744 0.025618 0.029001
v -0.029001 0.025618 0.016744
v -0.033488 0.025618 0.000000
v -0.029001 0.025618 -0.016744
v -0.016744 0.025618 -0.029001
v 0.007463 0.040251 0.012927
v 0.010960 0.033711 0.018983
v 0.018983 0.033711 0.010960
v 0.012927 0.040251 0.007463
v -0.000000 0.040251 -0.014927
v -0.000000 0.033711 -0.021920
v -0.010960 0.033711 -0.018983
v -0.007463 0.040251 -0.012927
v 0.012927 0.040251 -0.007463
v 0.018983 0.033711 -0.010960
v 0.010960 0.033711 -0.018983
v 0.007463 0.040251 -0.012927
v -0.014927 0.040251 0.000000
v -0.021920 0.033711 0.000000
v -0.018983 0.033711 0.010960
v -0.012927 0.040251 0.007463
v -0.000000 0.040251 0.014927
v -0.000000 0.033711 0.021920
v 0.014927 0.040251 0.000000
v 0.021920 0.033711 0.000000
v -0.012927 0.040251 -0.007463
v -0.018983 0.033711 -0.010960
v -0.007463 0.040251 0.012927
v -0.010960 0.033711 0.018983
v -0.000000 0.015428 -0.056103
v 0.028052 0.015428 -0.048587
v 0.048587 0.015428 -0.028052
v 0.056103 0.015428 0.000000
v 0.048587 0.015428 0.028052
v 0.028052 0.015428 0.048587
v -0.000000 0.015428 0.056103
v -0.028052 0.015428 0.048587
v -0.048587 0.015428 0.028052
v -0.056103 0.015428 0.000000
v -0.048587 0.015428 -0.028052
v -0.028052 0.015428 -0.048587
v -0.000000 0.020523 0.048272
v 0.024136 0.020523 0.041805
v 0.048272 0.020523 0.000000
v 0.041805 0.020523 -0.024136
v -0.041805 0.020523 -0.024136
v -0.048272 0.020523 0.000000
v -0.024136 0.020523 0.041805
v 0.041805 0.020523 0.024136
v -0.024136 0.020523 -0.041805
v 0.024136 0.020523 -0.041805
v -0.000000 0.020523 -0.048272
v -0.041805 0.020523 0.024136
v -0.000000 0.000000 -0.056103
v 0.028052 0.000000 -0.048587
v 0.048587 0.000000 -0.028052
v 0.056103 0.000000 0.000000
v 0.048587 0.000000 0.028052
v 0.028052 0.000000 0.048587
v -0.000000 0.000000 0.056103
v -0.028052 0.000000 0.048587
v -0.048587 0.000000 0.028052
v -0.056103 0.000000 0.000000
v -0.048587 0.000000 -0.028052
v -0.028052 0.000000 -0.048587
v -0.000000 0.371332 -0.008655
v 0.004327 0.371332 -0.007495
v 0.007495 0.371332 -0.004327
v 0.008655 0.371332 0.000000
v 0.007495 0.371332 0.004327
v 0.004327 0.371332 0.007495
v -0.000000 0.371332 0.008655
v -0.004328 0.371332 0.007495
v -0.007495 0.371332 0.004327
v -0.008655 0.371332 0.000000
v -0.007495 0.371332 -0.004327
v -0.004328 0.371332 -0.007495
v -0.000000 0.381030 -0.008655
v 0.004327 0.381030 -0.007495
v 0.007495 0.381030 -0.004327
v 0.008655 0.381030 0.000000
v 0.007495 0.381030 0.004327
v 0.004327 0.381030 0.007495
v -0.000000 0.381030 0.008655
v -0.004328 0.381030 0.007495
v -0.007495 0.381030 0.004327
v -0.008655 0.381030 0.000000
v -0.007495 0.381030 -0.004327
v -0.004328 0.381030 -0.007495
v -0.000000 0.381030 -0.006483
v 0.003241 0.381030 -0.005614
v 0.005614 0.381030 -0.003241
v 0.006483 0.381030 0.000000
v 0.005614 0.381030 0.003241
v 0.003241 0.381030 0.005614
v -0.000000 0.381030 0.006483
v -0.003241 0.381030 0.005614
v -0.005614 0.381030 0.003241
v -0.006483 0.381030 0.000000
v -0.005614 0.381030 -0.003241
v -0.003241 0.381030 -0.005614
v -0.000000 0.391424 -0.006483
v 0.003241 0.391424 -0.005614
v 0.005614 0.391424 -0.003241
v 0.006483 0.391424 0.000000
v 0.005614 0.391424 0.003241
v 0.003241 0.391424 0.005614
v -0.000000 0.391424 0.006483
v -0.003241 0.391424 0.005614
v -0.005614 0.391424 0.003241
v -0.006483 0.391424 0.000000
v -0.005614 0.391424 -0.003241
v -0.003241 0.391424 -0.005614
v -0.003241 0.389865 -0.005614
v -0.000000 0.389865 -0.006483
v 0.003241 0.389865 -0.005614
v 0.005614 0.389865 -0.003241
v -0.005614 0.389865 0.003241
v -0.006483 0.389865 0.000000
v 0.003241 0.389865 0.005614
v -0.000000 0.389865 0.006483
v 0.006483 0.389865 0.000000
v -0.005614 0.389865 -0.003241
v -0.003241 0.389865 0.005614
v 0.005614 0.389865 0.003241
v -0.008463 0.407320 -0.017455
v 0.008463 0.407320 -0.017455
v -0.008463 0.398593 -0.015116
v 0.008463 0.398593 -0.015116
v -0.008463 0.392204 -0.008727
v 0.008463 0.392204 -0.008727
v -0.008463 0.389865 0.000000
v 0.008463 0.389865 0.000000
v -0.008463 0.392204 0.008727
v 0.008463 0.392204 0.008727
v -0.008463 0.398593 0.015116
v 0.008463 0.398593 0.015116
v -0.008463 0.407320 0.017455
v 0.008463 0.407320 0.017455
v -0.008463 0.416047 0.015116
v 0.008463 0.416047 0.015116
v -0.008463 0.422436 0.008727
v 0.008463 0.422436 0.008727
v -0.008463 0.424775 0.000000
v 0.008463 0.424775 0.000000
v -0.008463 0.422436 -0.008727
v 0.008463 0.422436 -0.008727
v -0.008463 0.416047 -0.015116
v 0.008463 0.416047 -0.015116
v -0.008463 0.488962 0.112749
v 0.008463 0.488962 0.112749
v -0.008463 0.484750 0.120742
v 0.008463 0.484750 0.120742
v -0.008463 0.485099 0.129771
v 0.008463 0.485099 0.129771
v -0.008463 0.489916 0.137415
v 0.008463 0.489916 0.137415
v -0.008463 0.497909 0.141627
v 0.008463 0.497909 0.141627
v -0.008463 0.506937 0.141278
v 0.008463 0.506937 0.141278
v -0.008463 0.514582 0.136461
v 0.008463 0.514582 0.136461
v -0.008463 0.518794 0.128468
v 0.008463 0.518794 0.128468
v -0.008463 0.518445 0.119440
v 0.008463 0.518445 0.119440
v -0.008463 0.513628 0.111795
v 0.008463 0.513628 0.111795
v -0.008463 0.505635 0.107583
v 0.008463 0.505635 0.107583
v -0.008463 0.496606 0.107932
v 0.008463 0.496606 0.107932
v -0.000000 0.421462 0.006766
v 0.003749 0.420670 0.007384
v 0.006493 0.418506 0.009071
v 0.007497 0.415549 0.011376
v 0.006493 0.412593 0.013681
v 0.003749 0.410429 0.015369
v -0.000000 0.409637 0.015987
v -0.003749 0.410429 0.015369
v -0.006493 0.412593 0.013681
v -0.007497 0.415549 0.011376
v -0.006493 0.418506 0.009071
v -0.003749 0.420670 0.007384
v -0.000000 0.501453 0.109349
v 0.003749 0.500661 0.109966
v 0.006493 0.498497 0.111654
v 0.007497 0.495541 0.113959
v 0.006493 0.492585 0.116264
v 0.003749 0.490421 0.117952
v -0.000000 0.489629 0.118569
v -0.003749 0.490421 0.117952
v -0.006493 0.492585 0.116264
v -0.007497 0.495541 0.113959
v -0.006493 0.498497 0.111654
v -0.003749 0.500661 0.109966
v -0.000000 0.376965 0.191756
v -0.000000 0.427202 0.164341
v 0.022991 0.381486 0.195941
v 0.013867 0.429929 0.166865
v 0.039821 0.393838 0.207373
v 0.024019 0.437380 0.173761
v 0.045981 0.410710 0.222990
v 0.027735 0.447557 0.183180
v 0.039821 0.427583 0.238607
v 0.024019 0.457734 0.192600
v 0.022991 0.439935 0.250039
v 0.013867 0.465184 0.199496
v -0.000000 0.444456 0.254224
v -0.000000 0.467911 0.202020
v -0.022991 0.439935 0.250039
v -0.013867 0.465184 0.199496
v -0.039821 0.427583 0.238607
v -0.024019 0.457734 0.192600
v -0.045981 0.410710 0.222990
v -0.027735 0.447557 0.183180
v -0.039821 0.393838 0.207373
v -0.024019 0.437380 0.173761
v -0.022991 0.381486 0.195941
v -0.013867 0.429929 0.166865
v -0.000000 0.385643 0.181146
v -0.000000 0.396732 0.172931
v -0.000000 0.410865 0.167535
v 0.018778 0.414558 0.170952
v 0.022131 0.401084 0.176959
v 0.023410 0.390246 0.185407
v 0.032524 0.424646 0.180290
v 0.038332 0.412973 0.187964
v 0.040547 0.402823 0.197048
v 0.037555 0.438427 0.193045
v 0.044262 0.429215 0.202997
v 0.046820 0.420004 0.212949
v 0.032524 0.452208 0.205800
v 0.038332 0.445457 0.218030
v 0.040547 0.437184 0.228851
v 0.018778 0.462296 0.215137
v 0.022131 0.457347 0.229035
v 0.023410 0.449761 0.240492
v -0.000000 0.465988 0.218555
v -0.000000 0.461699 0.233063
v -0.000000 0.454364 0.244752
v -0.018778 0.462296 0.215137
v -0.022131 0.457347 0.229035
v -0.023410 0.449761 0.240492
v -0.032524 0.452208 0.205800
v -0.038332 0.445457 0.218030
v -0.040547 0.437184 0.228851
v -0.037555 0.438427 0.193045
v -0.044262 0.429215 0.202997
v -0.046820 0.420004 0.212949
v -0.032524 0.424646 0.180290
v -0.038332 0.412973 0.187964
v -0.040547 0.402823 0.197048
v -0.018778 0.414558 0.170952
v -0.022131 0.401084 0.176959
v -0.023410 0.390246 0.185407
v -0.000000 0.375123 0.190051
v 0.024246 0.379891 0.194464
v 0.041995 0.392917 0.206521
v 0.048492 0.410710 0.222990
v 0.041995 0.428504 0.239459
v 0.024246 0.441530 0.251516
v -0.000000 0.446298 0.255929
v -0.024246 0.441530 0.251516
v -0.041995 0.428504 0.239459
v -0.048492 0.410710 0.222990
v -0.041995 0.392917 0.206521
v -0.024246 0.379891 0.194464
v -0.000000 0.478116 0.140361
v 0.003329 0.478770 0.140967
v 0.005767 0.480559 0.142622
v 0.006659 0.483003 0.144884
v 0.005767 0.485446 0.147145
v 0.003329 0.487235 0.148801
v -0.000000 0.487890 0.149407
v -0.003329 0.487235 0.148801
v -0.005767 0.485446 0.147145
v -0.006659 0.483003 0.144884
v -0.005767 0.480559 0.142622
v -0.003329 0.478770 0.140967
v -0.011896 0.474494 0.184411
v -0.008727 0.482281 0.167917
v -0.015116 0.477592 0.163577
v -0.020605 0.468103 0.178496
v -0.000000 0.476833 0.186576
v -0.000000 0.483997 0.169505
v 0.011896 0.474494 0.184411
v 0.008727 0.482281 0.167917
v 0.020605 0.468103 0.178496
v 0.015116 0.477592 0.163577
v 0.023792 0.459372 0.170415
v 0.017454 0.471187 0.157649
v -0.011896 0.444250 0.156419
v -0.008727 0.460094 0.147382
v -0.000000 0.458378 0.145793
v -0.000000 0.441911 0.154253
v 0.020605 0.450641 0.162334
v 0.015116 0.464783 0.151721
v -0.020605 0.450641 0.162334
v -0.015116 0.464783 0.151721
v 0.011896 0.444250 0.156419
v 0.008727 0.460094 0.147382
v -0.023792 0.459372 0.170415
v -0.017454 0.471187 0.157649
v 0.004969 0.476687 0.139038
v -0.000000 0.475709 0.138133
v 0.008606 0.479356 0.141509
v 0.009938 0.483003 0.144884
v 0.008606 0.486649 0.148259
v 0.004969 0.489319 0.150730
v -0.000000 0.490296 0.151634
v -0.004969 0.489319 0.150730
v -0.008606 0.486649 0.148259
v -0.009938 0.483003 0.144884
v -0.008606 0.479356 0.141509
v -0.004969 0.476687 0.139038
v 0.003329 0.486903 0.132180
v 0.000000 0.486249 0.131574
v 0.005767 0.488692 0.133835
v 0.006659 0.491135 0.136097
v 0.005767 0.493579 0.138358
v 0.003329 0.495368 0.140014
v 0.000000 0.496022 0.140620
v -0.003329 0.495368 0.140014
v -0.005767 0.493579 0.138358
v -0.006659 0.491135 0.136097
v -0.005767 0.488692 0.133835
v -0.003329 0.486903 0.132180
v -0.000000 0.485029 0.132892
v 0.003329 0.485683 0.133498
v -0.003329 0.494148 0.141332
v -0.005767 0.492359 0.139676
v 0.005767 0.492359 0.139676
v 0.003329 0.494148 0.141332
v -0.003329 0.485683 0.133498
v 0.005767 0.487472 0.135153
v -0.006659 0.489916 0.137415
v -0.000000 0.494802 0.141938
v 0.006659 0.489916 0.137415
v -0.005767 0.487472 0.135153
v -0.000000 0.429775 0.184389
v -0.000000 0.397998 0.180151
v -0.000000 0.424387 0.180634
v -0.000000 0.417858 0.178167
v -0.000000 0.410828 0.177229
v -0.000000 0.403985 0.177913
v 0.019214 0.401777 0.183648
v 0.006114 0.430977 0.185502
v 0.017777 0.407481 0.181148
v 0.015498 0.413876 0.180050
v 0.012600 0.420336 0.180460
v 0.009367 0.426229 0.182339
v 0.033280 0.412100 0.193202
v 0.010591 0.434262 0.188542
v 0.030791 0.417032 0.189988
v 0.026844 0.422203 0.187757
v 0.021825 0.427106 0.186726
v 0.016224 0.431261 0.186997
v 0.038429 0.426201 0.206254
v 0.012229 0.438750 0.192696
v 0.035555 0.430079 0.202064
v 0.030997 0.433577 0.198284
v 0.025201 0.436353 0.195285
v 0.018734 0.438136 0.193359
v 0.033280 0.440302 0.219305
v 0.010591 0.443237 0.196849
v 0.030791 0.443125 0.214140
v 0.026844 0.444951 0.208812
v 0.021825 0.445601 0.203844
v 0.016224 0.445010 0.199722
v 0.019214 0.450625 0.228860
v 0.006114 0.446522 0.199889
v 0.017777 0.452676 0.222980
v 0.015498 0.453278 0.216519
v 0.012600 0.452370 0.210110
v 0.009367 0.450042 0.204380
v -0.000000 0.454403 0.232357
v -0.000000 0.447725 0.201002
v -0.000000 0.456172 0.226215
v -0.000000 0.456325 0.219340
v -0.000000 0.454848 0.212403
v -0.000000 0.451884 0.206084
v -0.019214 0.450625 0.228860
v -0.006115 0.446522 0.199889
v -0.017777 0.452676 0.222980
v -0.015499 0.453278 0.216519
v -0.012600 0.452370 0.210110
v -0.009367 0.450042 0.204380
v -0.033280 0.440302 0.219305
v -0.010591 0.443237 0.196849
v -0.030792 0.443125 0.214140
v -0.026844 0.444951 0.208812
v -0.021825 0.445601 0.203844
v -0.016224 0.445010 0.199722
v -0.038429 0.426201 0.206254
v -0.012229 0.438750 0.192696
v -0.035555 0.430079 0.202064
v -0.030997 0.433577 0.198284
v -0.025201 0.436353 0.195285
v -0.018734 0.438136 0.193359
v -0.033280 0.412100 0.193202
v -0.010591 0.434262 0.188542
v -0.030791 0.417032 0.189988
v -0.026844 0.422203 0.187757
v -0.021825 0.427106 0.186726
v -0.016224 0.431261 0.186997
v -0.019214 0.401777 0.183648
v -0.006115 0.430977 0.185502
v -0.017777 0.407481 0.181148
v -0.015499 0.413876 0.180050
v -0.012600 0.420336 0.180460
v -0.009367 0.426229 0.182339
vn -0.0000 -1.0000 -0.0000
vn -0.0000 1.0000 -0.0000
vn -0.5000 -0.0000 -0.8660
vn -0.0000 -0.0000 -1.0000
vn 0.2576 0.8570 0.4462
vn 0.4462 0.8570 0.2576
vn 0.5000 -0.0000 -0.8660
vn 0.8660 -0.0000 -0.5000
vn -0.8660 -0.0000 0.5000
vn -1.0000 -0.0000 -0.0000
vn 0.5000 -0.0000 0.8660
vn -0.0000 -0.0000 1.0000
vn 1.0000 -0.0000 -0.0000
vn -0.8660 -0.0000 -0.5000
vn -0.5000 -0.0000 0.8660
vn 0.8660 -0.0000 0.5000
vn 0.5391 0.7826 0.3113
vn 0.3113 0.7826 0.5391
vn 0.2176 0.9003 0.3769
vn 0.3769 0.9003 0.2176
vn -0.0000 0.8570 -0.5152
vn -0.2576 0.8570 -0.4462
vn 0.4462 0.8570 -0.2576
vn 0.2576 0.8570 -0.4462
vn -0.5152 0.8570 -0.0000
vn -0.4462 0.8570 0.2576
vn -0.0000 0.8570 0.5152
vn 0.5152 0.8570 -0.0000
vn -0.4462 0.8570 -0.2576
vn -0.2576 0.8570 0.4462
vn 0.2275 0.8905 0.3940
vn -0.0000 0.8905 0.4550
vn -0.0000 0.8382 0.5454
vn 0.2727 0.8382 0.4723
vn -0.3113 0.7826 -0.5391
vn -0.0000 0.7826 -0.6225
vn -0.0000 0.9003 -0.4352
vn -0.2176 0.9003 -0.3769
vn 0.3113 0.7826 -0.5391
vn 0.5391 0.7826 -0.3113
vn 0.3769 0.9003 -0.2176
vn 0.2176 0.9003 -0.3769
vn -0.5391 0.7826 0.3113
vn -0.6225 0.7826 -0.0000
vn -0.4352 0.9003 -0.0000
vn -0.3769 0.9003 0.2176
vn -0.0000 0.7826 0.6225
vn -0.0000 0.9003 0.4352
vn 0.6225 0.7826 -0.0000
vn 0.4352 0.9003 -0.0000
vn -0.5391 0.7826 -0.3113
vn -0.3769 0.9003 -0.2176
vn -0.3113 0.7826 0.5391
vn -0.2176 0.9003 0.3769
vn -0.6459 0.6661 0.3729
vn -0.3729 0.6661 0.6459
vn 0.3729 0.6661 -0.6459
vn -0.0000 0.6661 -0.7459
vn -0.3729 0.6661 -0.6459
vn -0.6459 0.6661 -0.3729
vn 0.6459 0.6661 0.3729
vn 0.7459 0.6661 -0.0000
vn -0.0000 0.6661 0.7459
vn -0.7459 0.6661 -0.0000
vn 0.6459 0.6661 -0.3729
vn 0.3729 0.6661 0.6459
vn 0.3940 0.8905 -0.2275
vn 0.4550 0.8905 -0.0000
vn 0.5454 0.8382 -0.0000
vn 0.4723 0.8382 -0.2727
vn -0.4550 0.8905 -0.0000
vn -0.3940 0.8905 -0.2275
vn -0.4723 0.8382 -0.2727
vn -0.5454 0.8382 -0.0000
vn -0.2275 0.8905 0.3940
vn -0.2727 0.8382 0.4723
vn 0.3940 0.8905 0.2275
vn 0.4723 0.8382 0.2727
vn -0.2275 0.8905 -0.3940
vn -0.2727 0.8382 -0.4723
vn -0.0000 0.8905 -0.4550
vn 0.2275 0.8905 -0.3940
vn 0.2727 0.8382 -0.4723
vn -0.0000 0.8382 -0.5454
vn -0.3940 0.8905 0.2275
vn -0.4723 0.8382 0.2727
vn -0.1937 -0.0000 -0.9811
vn -0.4917 0.1818 -0.8516
vn -0.4483 0.3659 -0.8156
vn -0.0000 0.3893 -0.9211
vn 0.7881 -0.0000 -0.6156
vn 0.4917 0.1818 -0.8516
vn 0.4482 0.3659 -0.8156
vn 0.8091 0.2791 -0.5171
vn -0.9987 -0.0000 0.0500
vn -0.9131 0.0310 0.4067
vn -0.8760 -0.2127 0.4329
vn -0.9947 0.0771 -0.0675
vn -0.0000 0.2208 0.9753
vn 0.3214 -0.0157 0.9468
vn 0.4870 -0.3919 0.7805
vn -0.0000 -0.4410 0.8975
vn 0.9987 -0.0000 -0.0500
vn 0.9947 0.0771 -0.0675
vn -0.9272 -0.0000 -0.3746
vn -0.8091 0.2791 -0.5172
vn -0.4767 0.1951 0.8571
vn -0.4871 -0.3919 0.7805
vn 0.8454 0.1044 0.5238
vn 0.8760 -0.2127 0.4330
vn -0.0000 -0.5000 -0.8660
vn -0.0000 -0.8660 -0.5000
vn -0.0000 -0.8660 0.5000
vn -0.0000 -0.5000 0.8660
vn -0.0000 0.5000 0.8660
vn -0.0000 0.8660 0.5000
vn -0.0000 0.8660 -0.5000
vn -0.0000 0.5000 -0.8660
vn -0.0000 -0.7339 -0.6793
vn -0.0000 -0.9752 -0.2213
vn -0.0000 -0.9552 0.2959
vn -0.0000 -0.6793 0.7339
vn -0.0000 -0.2213 0.9752
vn -0.0000 0.2959 0.9552
vn -0.0000 0.7339 0.6793
vn -0.0000 0.9752 0.2213
vn -0.0000 0.9552 -0.2959
vn -0.0000 0.6793 -0.7339
vn -0.0000 0.2213 -0.9752
vn -0.0000 -0.2959 -0.9552
vn -0.8660 0.3943 -0.3075
vn -0.5000 0.6829 -0.5325
vn -0.8660 -0.3943 0.3075
vn -0.5000 -0.6829 0.5325
vn -0.0000 -0.7886 0.6149
vn 0.5000 -0.6829 0.5325
vn 0.8660 -0.3943 0.3075
vn 0.8660 0.3943 -0.3075
vn 0.5000 0.6829 -0.5325
vn -0.0000 0.7886 -0.6149
vn -0.0000 -0.2822 -0.9593
vn -0.0000 -0.3733 -0.9277
vn 0.4521 -0.2844 -0.8454
vn 0.4294 -0.1978 -0.8812
vn 0.7830 -0.0416 -0.6206
vn 0.7437 0.0329 -0.6677
vn 0.9041 0.2902 -0.3136
vn 0.8588 0.3480 -0.3760
vn 0.7830 0.6220 -0.0065
vn 0.7437 0.6631 -0.0843
vn 0.4521 0.8649 0.2183
vn 0.4294 0.8938 0.1292
vn -0.0000 0.9538 0.3006
vn -0.0000 0.9783 0.2073
vn -0.4521 0.8649 0.2183
vn -0.4294 0.8938 0.1292
vn -0.7830 0.6220 -0.0065
vn -0.7437 0.6631 -0.0843
vn -0.9041 0.2902 -0.3136
vn -0.8588 0.3480 -0.3760
vn -0.8052 0.5912 0.0457
vn -0.4649 0.8410 0.2769
vn -0.4792 0.8463 0.2328
vn -0.8136 0.5812 -0.0182
vn -0.7830 -0.0416 -0.6206
vn -0.7437 0.0329 -0.6677
vn -0.4521 -0.2844 -0.8454
vn -0.4294 -0.1978 -0.8812
vn -0.4963 -0.5485 -0.6729
vn -0.4941 -0.5245 -0.6934
vn -0.0000 -0.6216 -0.7833
vn -0.0000 -0.6461 -0.7633
vn -0.4753 -0.3930 -0.7872
vn -0.0000 -0.4865 -0.8737
vn -0.8596 -0.2818 -0.4261
vn -0.8559 -0.2590 -0.4476
vn -0.8232 -0.1377 -0.5509
vn -0.9926 0.0824 -0.0890
vn -0.9883 0.1037 -0.1120
vn -0.9505 0.2111 -0.2280
vn -0.8596 0.4466 0.2481
vn -0.8559 0.4663 0.2237
vn -0.8232 0.5598 0.0948
vn -0.4963 0.7133 0.4949
vn -0.4941 0.7318 0.4694
vn -0.4753 0.8152 0.3311
vn -0.0000 0.8109 0.5852
vn -0.0000 0.8289 0.5593
vn -0.0000 0.9086 0.4176
vn 0.4963 0.7133 0.4949
vn 0.4941 0.7318 0.4694
vn 0.4753 0.8152 0.3311
vn 0.8596 0.4466 0.2481
vn 0.8559 0.4663 0.2237
vn 0.8232 0.5598 0.0948
vn 0.9926 0.0824 -0.0890
vn 0.9883 0.1037 -0.1120
vn 0.9505 0.2111 -0.2280
vn 0.8596 -0.2818 -0.4261
vn 0.8559 -0.2590 -0.4476
vn 0.8232 -0.1377 -0.5509
vn 0.4963 -0.5485 -0.6729
vn 0.4941 -0.5245 -0.6934
vn 0.4753 -0.3930 -0.7872
vn 0.5000 -0.6356 -0.5883
vn -0.0000 0.9324 0.3615
vn -0.0000 0.9431 0.3324
vn 0.4649 0.8410 0.2769
vn 0.4792 0.8463 0.2328
vn 0.8052 0.5912 0.0457
vn 0.8136 0.5812 -0.0182
vn 0.9298 0.2500 -0.2701
vn 0.9180 0.2694 -0.2911
vn -0.0000 -0.4324 -0.9017
vn -0.4649 -0.3410 -0.8171
vn -0.4792 -0.2974 -0.8258
vn -0.0000 -0.4043 -0.9146
vn 0.8052 -0.0912 -0.5859
vn 0.8136 -0.0267 -0.5809
vn -0.8052 -0.0912 -0.5859
vn -0.8136 -0.0267 -0.5809
vn 0.4649 -0.3410 -0.8171
vn 0.4792 -0.2974 -0.8258
vn -0.9298 0.2500 -0.2701
vn -0.9180 0.2694 -0.2911
vn -0.8315 0.5422 0.1210
vn -0.9601 0.1898 -0.2051
vn -0.0000 -0.5148 -0.8573
vn 0.4801 -0.4204 -0.7699
vn -0.8315 -0.1625 -0.5312
vn 0.8315 -0.1625 -0.5312
vn -0.4801 -0.4204 -0.7699
vn 0.9601 0.1898 -0.2051
vn 0.8315 0.5422 0.1210
vn 0.4801 0.8001 0.3597
vn -0.0000 0.8945 0.4471
vn -0.4801 0.8001 0.3597
vn -0.8660 0.3670 0.3396
vn -0.5000 0.6356 0.5883
vn 0.5000 0.6356 0.5883
vn 0.8660 0.3669 0.3396
vn 0.8660 0.3670 0.3396
vn -0.5000 -0.6356 -0.5883
vn 0.8660 -0.3669 -0.3396
vn -0.8660 -0.3669 -0.3396
vn -0.8660 0.3669 0.3396
vn -0.0000 0.4219 0.9067
vn -0.4627 0.3309 0.8224
vn -0.4172 0.1559 0.8953
vn -0.0000 0.2380 0.9713
vn -0.3387 -0.0691 0.9383
vn -0.0000 -0.0025 1.0000
vn -0.2468 -0.2770 0.9286
vn -0.0000 -0.2285 0.9735
vn -0.1389 -0.4760 0.8684
vn -0.0000 -0.4487 0.8937
vn -0.0402 -0.6259 0.7788
vn -0.0000 -0.6180 0.7861
vn -0.8015 0.0823 0.5923
vn -0.7226 -0.0682 0.6879
vn -0.5867 -0.2511 0.7699
vn -0.4275 -0.4096 0.8059
vn -0.2406 -0.5506 0.7994
vn -0.0697 -0.6475 0.7588
vn -0.9255 -0.2573 0.2780
vn -0.8344 -0.3744 0.4045
vn -0.6774 -0.4997 0.5398
vn -0.4936 -0.5907 0.6383
vn -0.2778 -0.6525 0.7050
vn -0.0804 -0.6771 0.7315
vn -0.8015 -0.5969 -0.0363
vn -0.7226 -0.6806 0.1211
vn -0.5867 -0.7482 0.3098
vn -0.4275 -0.7719 0.4706
vn -0.2406 -0.7545 0.6107
vn -0.0697 -0.7066 0.7042
vn -0.4627 -0.8455 -0.2664
vn -0.4172 -0.9047 -0.0863
vn -0.3387 -0.9302 0.1413
vn -0.2468 -0.9045 0.3479
vn -0.1389 -0.8291 0.5416
vn -0.0402 -0.7282 0.6842
vn -0.0000 -0.9365 -0.3506
vn -0.0000 -0.9867 -0.1623
vn -0.0000 -0.9968 0.0797
vn -0.0000 -0.9530 0.3030
vn -0.0000 -0.8564 0.5163
vn -0.0000 -0.7361 0.6769
vn 0.4627 -0.8455 -0.2664
vn 0.4172 -0.9047 -0.0863
vn 0.3387 -0.9302 0.1413
vn 0.2468 -0.9045 0.3479
vn 0.1389 -0.8291 0.5416
vn 0.0402 -0.7282 0.6842
vn 0.8015 -0.5969 -0.0363
vn 0.7226 -0.6806 0.1211
vn 0.5867 -0.7482 0.3098
vn 0.4275 -0.7719 0.4706
vn 0.2406 -0.7545 0.6107
vn 0.0697 -0.7066 0.7042
vn 0.9255 -0.2573 0.2780
vn 0.8344 -0.3744 0.4045
vn 0.6774 -0.4997 0.5398
vn 0.4936 -0.5907 0.6383
vn 0.2778 -0.6525 0.7050
vn 0.0804 -0.6771 0.7315
vn 0.8015 0.0823 0.5923
vn 0.7226 -0.0682 0.6879
vn 0.5867 -0.2511 0.7699
vn 0.4275 -0.4096 0.8059
vn 0.2406 -0.5506 0.7994
vn 0.0697 -0.6476 0.7588
vn 0.4627 0.3309 0.8224
vn 0.4172 0.1559 0.8953
vn 0.3387 -0.0691 0.9383
vn 0.2468 -0.2770 0.9286
vn 0.1389 -0.4760 0.8684
vn 0.0402 -0.6259 0.7788
vn -0.0000 0.4831 0.8756
vn -0.4569 0.4021 0.7934
vn 0.4569 0.4021 0.7934
vn -0.7977 0.1767 0.5766
vn -0.9493 -0.2136 0.2307
vn -0.7977 -0.5885 -0.1317
vn -0.4569 -0.8221 -0.3396
vn -0.0000 -0.9102 -0.4141
vn 0.4569 -0.8221 -0.3396
vn 0.7977 -0.5885 -0.1317
vn 0.9493 -0.2136 0.2307
vn 0.7977 0.1767 0.5766
vt 0.654599 0.805798
vt 0.663742 0.800519
vt 0.665969 0.802746
vt 0.655414 0.808841
vt 0.653955 0.820002
vt 0.643404 0.819998
vt 0.642758 0.817586
vt 0.654601 0.817590
vt 0.562563 0.784623
vt 0.563344 0.794576
vt 0.553458 0.794771
vt 0.552677 0.784818
vt 0.663093 0.854132
vt 0.668369 0.844990
vt 0.670780 0.845638
vt 0.664858 0.855899
vt 0.663093 0.825285
vt 0.664858 0.823520
vt 0.653955 0.859408
vt 0.654601 0.861821
vt 0.643404 0.859404
vt 0.642758 0.861816
vt 0.634266 0.854121
vt 0.632501 0.855886
vt 0.628990 0.844975
vt 0.626580 0.845620
vt 0.628990 0.834416
vt 0.626580 0.833769
vt 0.634266 0.825274
vt 0.632501 0.823507
vt 0.668369 0.834431
vt 0.670780 0.833786
vt 0.457790 0.173007
vt 0.468049 0.167081
vt 0.469537 0.168570
vt 0.458334 0.175041
vt 0.563630 0.806411
vt 0.563344 0.816956
vt 0.553458 0.817152
vt 0.553744 0.806606
vt 0.361477 0.843698
vt 0.361832 0.833121
vt 0.371743 0.833154
vt 0.371389 0.843731
vt 0.767364 0.840605
vt 0.767290 0.830420
vt 0.777219 0.830422
vt 0.777293 0.840607
vt 0.562563 0.823386
vt 0.552677 0.823582
vt 0.361832 0.821287
vt 0.371743 0.821320
vt 0.784809 0.269286
vt 0.785544 0.280985
vt 0.775903 0.281237
vt 0.775169 0.269538
vt 0.767290 0.862798
vt 0.767364 0.852456
vt 0.777293 0.852458
vt 0.777219 0.862800
vt 0.361477 0.811368
vt 0.371389 0.811401
vt 0.784809 0.292053
vt 0.775169 0.292305
vt 0.468805 0.208906
vt 0.495528 0.193471
vt 0.518603 0.215952
vt 0.477777 0.239534
vt 0.435705 0.134702
vt 0.429780 0.144966
vt 0.427747 0.144421
vt 0.434218 0.133213
vt 0.429775 0.156817
vt 0.435692 0.167081
vt 0.434204 0.168570
vt 0.427742 0.157362
vt 0.468062 0.134702
vt 0.457808 0.128777
vt 0.458353 0.126743
vt 0.469551 0.133213
vt 0.473975 0.156817
vt 0.476007 0.157362
vt 0.445947 0.173007
vt 0.445401 0.175041
vt 0.445964 0.128777
vt 0.445420 0.126743
vt 0.473980 0.144966
vt 0.476012 0.144421
vt 0.547546 0.244537
vt 0.581538 0.185662
vt 0.602633 0.191318
vt 0.563127 0.259745
vt 0.411278 0.109131
vt 0.395843 0.135866
vt 0.366310 0.127946
vt 0.389891 0.087102
vt 0.395831 0.166736
vt 0.411245 0.193471
vt 0.389840 0.215952
vt 0.366291 0.175108
vt 0.495561 0.109131
vt 0.468851 0.093695
vt 0.477847 0.063521
vt 0.518653 0.087102
vt 0.510963 0.166736
vt 0.542184 0.175108
vt 0.437956 0.208906
vt 0.430647 0.239534
vt 0.438001 0.093695
vt 0.430716 0.063521
vt 0.510975 0.135866
vt 0.542203 0.127946
vt 0.371743 0.780825
vt 0.370941 0.792911
vt 0.352798 0.802623
vt 0.354101 0.782990
vt 0.491926 0.140607
vt 0.481429 0.122401
vt 0.321573 0.863165
vt 0.321573 0.850238
vt 0.342125 0.847018
vt 0.342125 0.868017
vt 0.413524 0.140607
vt 0.413516 0.161629
vt 0.301340 0.784631
vt 0.300953 0.773800
vt 0.323592 0.762238
vt 0.324221 0.779832
vt 0.442233 0.111890
vt 0.424035 0.122401
vt 0.679525 0.864122
vt 0.679605 0.852829
vt 0.701811 0.856673
vt 0.701680 0.875017
vt 0.442202 0.190346
vt 0.463209 0.190346
vt 0.370941 0.768050
vt 0.352798 0.762238
vt 0.491918 0.161629
vt 0.301340 0.797553
vt 0.324221 0.800823
vt 0.343084 0.773954
vt 0.343084 0.804778
vt 0.424013 0.179835
vt 0.679605 0.839888
vt 0.679525 0.828766
vt 0.701680 0.817586
vt 0.701811 0.835651
vt 0.481407 0.179835
vt 0.300953 0.809103
vt 0.323592 0.819585
vt 0.463240 0.111890
vt 0.322162 0.838733
vt 0.343083 0.828330
vt 0.322162 0.874051
vt 0.343083 0.885701
vt 0.299210 0.453279
vt 0.297305 0.523583
vt 0.255511 0.524409
vt 0.257417 0.454104
vt 0.361938 0.244537
vt 0.420760 0.278529
vt 0.415772 0.299252
vt 0.347407 0.259745
vt 0.488797 0.024810
vt 0.420860 0.024810
vt 0.415888 0.004373
vt 0.494847 0.004373
vt 0.581564 0.117678
vt 0.602664 0.112306
vt 0.488697 0.278529
vt 0.494731 0.299252
vt 0.362011 0.058802
vt 0.347492 0.043879
vt 0.328019 0.117678
vt 0.327992 0.185662
vt 0.307955 0.191318
vt 0.307986 0.112306
vt 0.547619 0.058802
vt 0.563212 0.043879
vt 0.004373 0.191314
vt 0.004373 0.112299
vt 0.043873 0.043873
vt 0.112291 0.004373
vt 0.191292 0.004381
vt 0.259709 0.043896
vt 0.299210 0.112330
vt 0.299210 0.191345
vt 0.259709 0.259771
vt 0.191292 0.299271
vt 0.112291 0.299263
vt 0.043873 0.259748
vt 0.232673 0.834757
vt 0.235036 0.764238
vt 0.276936 0.764378
vt 0.274573 0.834897
vt 0.019408 0.687114
vt 0.018916 0.619214
vt 0.060888 0.619221
vt 0.061381 0.687121
vt 0.292100 0.566452
vt 0.250307 0.567277
vt 0.235036 0.685344
vt 0.276936 0.685483
vt 0.771581 0.668822
vt 0.776476 0.746820
vt 0.735721 0.747885
vt 0.730826 0.669886
vt 0.018916 0.835073
vt 0.019408 0.766124
vt 0.061381 0.766131
vt 0.060888 0.835080
vt 0.232673 0.619214
vt 0.274573 0.619353
vt 0.297305 0.374376
vt 0.255511 0.375201
vt 0.771581 0.820611
vt 0.730826 0.821675
vt 0.292100 0.308017
vt 0.250307 0.308842
vt 0.312827 0.850791
vt 0.312463 0.861670
vt 0.286123 0.861582
vt 0.286487 0.850703
vt 0.663745 0.771670
vt 0.654603 0.766391
vt 0.655418 0.763348
vt 0.665972 0.769443
vt 0.644046 0.766391
vt 0.643231 0.763348
vt 0.634902 0.771670
vt 0.632676 0.769443
vt 0.629623 0.780815
vt 0.626581 0.780000
vt 0.629622 0.791374
vt 0.626580 0.792189
vt 0.634899 0.800519
vt 0.632672 0.802746
vt 0.644042 0.805798
vt 0.643226 0.808841
vt 0.669022 0.791374
vt 0.669023 0.780815
vt 0.672065 0.780000
vt 0.672064 0.792189
vt 0.578465 0.824027
vt 0.572375 0.813474
vt 0.578080 0.811942
vt 0.582641 0.819847
vt 0.598760 0.838868
vt 0.598836 0.849342
vt 0.572451 0.849338
vt 0.572375 0.838863
vt 0.730826 0.870281
vt 0.731759 0.863685
vt 0.758037 0.863685
vt 0.757103 0.870281
vt 0.312827 0.838620
vt 0.286487 0.838532
vt 0.728785 0.296490
vt 0.716737 0.296930
vt 0.716737 0.271301
vt 0.728785 0.270861
vt 0.598836 0.861531
vt 0.598760 0.872168
vt 0.572375 0.872163
vt 0.572451 0.861527
vt 0.312463 0.828418
vt 0.286123 0.828330
vt 0.732267 0.852847
vt 0.732214 0.840671
vt 0.758491 0.840671
vt 0.758545 0.852847
vt 0.740145 0.297542
vt 0.740145 0.271913
vt 0.731613 0.830420
vt 0.757891 0.830420
vt 0.615674 0.291161
vt 0.616124 0.298839
vt 0.611899 0.298839
vt 0.611449 0.291161
vt 0.601195 0.784623
vt 0.611744 0.790713
vt 0.607568 0.794894
vt 0.599667 0.790332
vt 0.617834 0.813456
vt 0.611744 0.824014
vt 0.607568 0.819837
vt 0.612130 0.811929
vt 0.589014 0.830118
vt 0.590543 0.824409
vt 0.589014 0.784627
vt 0.590543 0.790335
vt 0.617834 0.801267
vt 0.612130 0.802799
vt 0.601195 0.830113
vt 0.599667 0.824405
vt 0.578465 0.790726
vt 0.582641 0.794903
vt 0.572375 0.801285
vt 0.578080 0.802812
vt 0.616014 0.273923
vt 0.615634 0.282041
vt 0.611409 0.282041
vt 0.611790 0.273923
vt 0.657547 0.273546
vt 0.649398 0.273300
vt 0.649398 0.269066
vt 0.657547 0.269312
vt 0.707992 0.273445
vt 0.700146 0.273504
vt 0.700146 0.269262
vt 0.707992 0.269204
vt 0.616713 0.268983
vt 0.612489 0.268983
vt 0.666663 0.273516
vt 0.666663 0.269281
vt 0.757915 0.273406
vt 0.748890 0.273736
vt 0.748890 0.269616
vt 0.757915 0.269286
vt 0.691016 0.273505
vt 0.683049 0.273449
vt 0.683049 0.269208
vt 0.691016 0.269263
vt 0.674304 0.273217
vt 0.674304 0.268983
vt 0.766424 0.274194
vt 0.766424 0.270074
vt 0.836671 0.004419
vt 0.836671 0.869681
vt 0.827791 0.870202
vt 0.827791 0.004939
vt 0.937460 0.004373
vt 0.937460 0.871694
vt 0.928624 0.872039
vt 0.928624 0.004718
vt 0.918081 0.872074
vt 0.918081 0.004753
vt 0.908657 0.871790
vt 0.908657 0.004469
vt 0.966483 0.005284
vt 0.966483 0.849188
vt 0.956643 0.848277
vt 0.956643 0.004373
vt 0.946206 0.848659
vt 0.946206 0.004754
vt 0.899911 0.004373
vt 0.899911 0.873177
vt 0.890837 0.873244
vt 0.890837 0.004440
vt 0.880279 0.873246
vt 0.880279 0.004442
vt 0.871065 0.873182
vt 0.871065 0.004377
vt 0.862320 0.005621
vt 0.862320 0.870884
vt 0.856606 0.870075
vt 0.856606 0.004813
vt 0.847218 0.869635
vt 0.847218 0.004373
vt 0.700146 0.297541
vt 0.691016 0.297542
vt 0.766424 0.297542
vt 0.757915 0.296754
vt 0.639573 0.282041
vt 0.639613 0.291161
vt 0.674304 0.297213
vt 0.666663 0.297512
vt 0.683049 0.297486
vt 0.748890 0.297084
vt 0.657547 0.297542
vt 0.640652 0.268983
vt 0.639953 0.273923
vt 0.707992 0.297482
vt 0.649398 0.297296
vt 0.640063 0.298839
vt 0.833866 0.417519
vt 0.997133 0.417518
vt 0.997133 0.502193
vt 0.833866 0.502193
vt 0.997133 0.565199
vt 0.833866 0.565199
vt 0.328131 0.896197
vt 0.164864 0.896197
vt 0.164864 0.812545
vt 0.328131 0.812545
vt 0.164864 0.727871
vt 0.328131 0.727871
vt 0.164864 0.664865
vt 0.328131 0.664865
vt 0.997133 0.321384
vt 0.833866 0.321384
vt 0.833866 0.237732
vt 0.997133 0.237732
vt 0.833866 0.153058
vt 0.997133 0.153058
vt 0.833866 0.090052
vt 0.997133 0.090052
vt 0.833866 0.577680
vt 0.997133 0.577680
vt 0.997133 0.661333
vt 0.833866 0.661333
vt 0.997133 0.746006
vt 0.833866 0.746006
vt 0.377442 0.046445
vt 0.452920 0.002867
vt 0.540075 0.002867
vt 0.615553 0.046444
vt 0.659130 0.121922
vt 0.659130 0.209076
vt 0.615554 0.284554
vt 0.540076 0.328132
vt 0.452921 0.328132
vt 0.377443 0.284555
vt 0.333866 0.209077
vt 0.333866 0.121923
vt 0.997133 0.809013
vt 0.833866 0.809013
vt 0.833866 0.333866
vt 0.997133 0.333866
vt 0.540075 0.659131
vt 0.452921 0.659131
vt 0.377443 0.615554
vt 0.333866 0.540076
vt 0.333866 0.452922
vt 0.377442 0.377444
vt 0.452920 0.333866
vt 0.540075 0.333866
vt 0.615552 0.377443
vt 0.659130 0.452921
vt 0.659130 0.540075
vt 0.615553 0.615553
vt 0.828132 0.328132
vt 0.664864 0.328132
vt 0.664864 0.251966
vt 0.828132 0.251966
vt 0.664864 0.164823
vt 0.828132 0.164823
vt 0.664864 0.090052
vt 0.828132 0.090052
vt 0.497133 0.902944
vt 0.333865 0.902944
vt 0.333865 0.826779
vt 0.497133 0.826779
vt 0.333865 0.739635
vt 0.497133 0.739635
vt 0.333865 0.664865
vt 0.497133 0.664865
vt 0.664864 0.333866
vt 0.828132 0.333866
vt 0.828132 0.410032
vt 0.664864 0.410032
vt 0.828132 0.497175
vt 0.664864 0.497175
vt 0.828132 0.571946
vt 0.664864 0.571946
vt 0.664864 0.577680
vt 0.828132 0.577680
vt 0.828132 0.653846
vt 0.664864 0.653846
vt 0.046445 0.284555
vt 0.002867 0.209077
vt 0.002868 0.121922
vt 0.046445 0.046444
vt 0.121923 0.002867
vt 0.209077 0.002867
vt 0.284555 0.046445
vt 0.328132 0.121923
vt 0.328132 0.209077
vt 0.284555 0.284555
vt 0.209077 0.328132
vt 0.121923 0.328132
vt 0.828132 0.740989
vt 0.664864 0.740989
vt 0.828132 0.815760
vt 0.664864 0.815760
vt 0.046443 0.615553
vt 0.002866 0.540075
vt 0.002866 0.452921
vt 0.046443 0.377443
vt 0.121921 0.333866
vt 0.209076 0.333866
vt 0.284553 0.377443
vt 0.328131 0.452921
vt 0.328131 0.540075
vt 0.284554 0.615553
vt 0.209076 0.659130
vt 0.121922 0.659130
vt 0.767824 0.659324
vt 0.767824 0.308130
vt 0.776476 0.308883
vt 0.776476 0.660076
vt 0.757305 0.659210
vt 0.757305 0.308017
vt 0.747736 0.659765
vt 0.747736 0.308572
vt 0.802944 0.912456
vt 0.802944 0.617982
vt 0.813044 0.616271
vt 0.813044 0.910746
vt 0.792657 0.911135
vt 0.792657 0.616661
vt 0.710650 0.936471
vt 0.710650 0.652970
vt 0.720850 0.651333
vt 0.720850 0.934834
vt 0.802828 0.607526
vt 0.802828 0.313763
vt 0.813044 0.312271
vt 0.813044 0.606035
vt 0.792645 0.605969
vt 0.792645 0.312205
vt 0.785222 0.601780
vt 0.785221 0.308017
vt 0.380488 0.972758
vt 0.380488 0.762238
vt 0.390721 0.764333
vt 0.390721 0.974853
vt 0.985428 0.004373
vt 0.985428 0.274629
vt 0.975228 0.276394
vt 0.975228 0.006137
vt 0.995627 0.006137
vt 0.995627 0.276394
vt 0.051972 0.509623
vt 0.046611 0.464846
vt 0.084097 0.454725
vt 0.102731 0.495919
vt 0.114900 0.433501
vt 0.144442 0.467180
vt 0.130768 0.406862
vt 0.165928 0.431108
vt 0.569660 0.434705
vt 0.604492 0.418161
vt 0.605271 0.444663
vt 0.570715 0.470591
vt 0.624752 0.471222
vt 0.597093 0.506554
vt 0.657715 0.490721
vt 0.641728 0.532957
vt 0.695328 0.497935
vt 0.692659 0.542726
vt 0.727512 0.490931
vt 0.736239 0.533243
vt 0.371904 0.493465
vt 0.388700 0.453937
vt 0.425176 0.457705
vt 0.421296 0.498568
vt 0.733546 0.406555
vt 0.713292 0.410963
vt 0.720539 0.362932
vt 0.732071 0.360422
vt 0.463727 0.457705
vt 0.473498 0.498568
vt 0.494023 0.453937
vt 0.514521 0.493465
vt 0.017127 0.604010
vt 0.009960 0.574129
vt 0.067565 0.580364
vt 0.076788 0.610469
vt 0.004373 0.542955
vt 0.058830 0.548850
vt 0.005767 0.504622
vt 0.482192 0.613048
vt 0.481493 0.575675
vt 0.532636 0.569313
vt 0.535161 0.606459
vt 0.479800 0.538173
vt 0.528149 0.532159
vt 0.414789 0.613048
vt 0.416414 0.575675
vt 0.418276 0.538173
vt 0.351014 0.606459
vt 0.354838 0.569313
vt 0.360064 0.532159
vt 0.307955 0.595047
vt 0.313263 0.558294
vt 0.320760 0.521743
vt 0.687628 0.581793
vt 0.738991 0.570616
vt 0.605007 0.629975
vt 0.616071 0.600743
vt 0.679566 0.612921
vt 0.670769 0.642588
vt 0.627602 0.570279
vt 0.547374 0.595883
vt 0.560426 0.567827
vt 0.574996 0.539161
vt 0.381805 0.688561
vt 0.351957 0.687196
vt 0.360566 0.622730
vt 0.390721 0.621793
vt 0.323608 0.685716
vt 0.331746 0.624772
vt 0.543906 0.496776
vt 0.390721 0.753493
vt 0.360566 0.749889
vt 0.331746 0.744985
vt 0.307858 0.733938
vt 0.300953 0.683650
vt 0.196184 0.555666
vt 0.182845 0.527451
vt 0.209632 0.482480
vt 0.223928 0.509089
vt 0.167813 0.498827
vt 0.193136 0.456313
vt 0.142328 0.592773
vt 0.130845 0.563279
vt 0.118653 0.532698
vt 0.012488 0.461152
vt 0.616782 0.162774
vt 0.643155 0.219347
vt 0.639222 0.224098
vt 0.611409 0.164437
vt 0.616782 0.098037
vt 0.611409 0.096166
vt 0.643155 0.042482
vt 0.639222 0.037578
vt 0.688835 0.010995
vt 0.687395 0.004373
vt 0.741581 0.012013
vt 0.743021 0.005446
vt 0.787261 0.045263
vt 0.791194 0.040512
vt 0.813634 0.101836
vt 0.819007 0.100173
vt 0.813634 0.166574
vt 0.819007 0.168444
vt 0.787261 0.222128
vt 0.791194 0.227032
vt 0.741581 0.253615
vt 0.743021 0.260238
vt 0.688835 0.252597
vt 0.687395 0.259164
vt 0.690094 0.769342
vt 0.680810 0.768500
vt 0.680810 0.764722
vt 0.690094 0.765563
vt 0.689622 0.406423
vt 0.707061 0.360347
vt 0.668877 0.394152
vt 0.695250 0.353360
vt 0.656618 0.377438
vt 0.688270 0.343844
vt 0.668039 0.681883
vt 0.644668 0.685092
vt 0.657229 0.653161
vt 0.670536 0.651333
vt 0.025887 0.377088
vt 0.004413 0.374763
vt 0.004373 0.327469
vt 0.016599 0.328793
vt 0.078848 0.340598
vt 0.068862 0.357362
vt 0.041068 0.317562
vt 0.046754 0.308016
vt 0.474317 0.357245
vt 0.455252 0.359616
vt 0.448375 0.309367
vt 0.459231 0.308017
vt 0.049477 0.370719
vt 0.030031 0.325167
vt 0.430991 0.359616
vt 0.434562 0.309367
vt 0.408036 0.357245
vt 0.421492 0.308017
vt 0.396458 0.406035
vt 0.427749 0.409268
vt 0.035707 0.423194
vt 0.067864 0.414512
vt 0.460820 0.409268
vt 0.094289 0.396305
vt 0.486810 0.406035
vt 0.107901 0.373452
vt 0.006434 0.420025
vt 0.663718 0.749503
vt 0.626580 0.754603
vt 0.633850 0.718424
vt 0.665709 0.714049
vt 0.701905 0.754603
vt 0.698469 0.718424
vt 0.644641 0.433825
vt 0.627929 0.411041
vt 0.672919 0.450552
vt 0.705185 0.456741
vt 0.732794 0.450733
vt 0.717446 0.332912
vt 0.708415 0.331180
vt 0.706020 0.324907
vt 0.719497 0.327492
vt 0.700688 0.332861
vt 0.694488 0.327416
vt 0.696335 0.337506
vt 0.687991 0.334348
vt 0.696522 0.343869
vt 0.701199 0.350245
vt 0.709113 0.354927
vt 0.718143 0.356659
vt 0.725871 0.354977
vt 0.730224 0.350333
vt 0.738568 0.353491
vt 0.730037 0.343970
vt 0.738289 0.343995
vt 0.725360 0.337593
vt 0.731308 0.334478
vt 0.717182 0.308017
vt 0.726213 0.309749
vt 0.734127 0.314430
vt 0.738804 0.320807
vt 0.738991 0.327170
vt 0.734638 0.331814
vt 0.726911 0.333496
vt 0.717880 0.331764
vt 0.709966 0.327082
vt 0.705289 0.320706
vt 0.705102 0.314343
vt 0.709455 0.309698
vt 0.256266 0.582198
vt 0.250306 0.580819
vt 0.250306 0.576022
vt 0.256266 0.577401
vt 0.223928 0.846124
vt 0.214722 0.845222
vt 0.214722 0.841000
vt 0.223928 0.841902
vt 0.794289 0.290904
vt 0.803348 0.289219
vt 0.803348 0.292736
vt 0.794289 0.294421
vt 0.698798 0.767126
vt 0.698798 0.763348
vt 0.265048 0.582825
vt 0.265048 0.578028
vt 0.716565 0.335238
vt 0.708651 0.330557
vt 0.205854 0.846758
vt 0.199699 0.850322
vt 0.199700 0.846100
vt 0.205854 0.842536
vt 0.274299 0.582532
vt 0.274299 0.577735
vt 0.725596 0.336970
vt 0.281540 0.581397
vt 0.281541 0.576600
vt 0.281541 0.608580
vt 0.274299 0.609715
vt 0.214722 0.869146
vt 0.205854 0.870682
vt 0.265048 0.610009
vt 0.199699 0.874246
vt 0.256266 0.609382
vt 0.698798 0.788536
vt 0.690094 0.790751
vt 0.794289 0.270971
vt 0.803348 0.269286
vt 0.223928 0.870048
vt 0.250307 0.608003
vt 0.680810 0.789910
vt 0.690991 0.203680
vt 0.668950 0.156400
vt 0.684113 0.154153
vt 0.704506 0.197897
vt 0.702000 0.150823
vt 0.719778 0.188960
vt 0.720859 0.146737
vt 0.735313 0.177743
vt 0.738844 0.142294
vt 0.749589 0.165343
vt 0.754195 0.137930
vt 0.761210 0.152975
vt 0.668950 0.102296
vt 0.684113 0.104095
vt 0.702000 0.107183
vt 0.720859 0.111257
vt 0.738844 0.115919
vt 0.754195 0.120712
vt 0.690991 0.055867
vt 0.704506 0.061137
vt 0.719778 0.069732
vt 0.735313 0.080809
vt 0.749589 0.093285
vt 0.761209 0.105937
vt 0.604084 0.712126
vt 0.601404 0.658779
vt 0.615355 0.661758
vt 0.617834 0.711116
vt 0.739828 0.036790
vt 0.750572 0.048506
vt 0.760348 0.063552
vt 0.768200 0.080456
vt 0.773358 0.097563
vt 0.113757 0.646182
vt 0.146872 0.678951
vt 0.131973 0.685698
vt 0.101334 0.655380
vt 0.115861 0.695002
vt 0.089150 0.668571
vt 0.100112 0.705951
vt 0.078396 0.684462
vt 0.086269 0.717475
vt 0.070126 0.701500
vt 0.789690 0.080871
vt 0.787386 0.097834
vt 0.165991 0.728570
vt 0.149662 0.731607
vt 0.131282 0.735026
vt 0.112650 0.738491
vt 0.095589 0.741664
vt 0.081770 0.744234
vt 0.075686 0.728444
vt 0.165991 0.781746
vt 0.149662 0.780806
vt 0.131282 0.777918
vt 0.112650 0.773363
vt 0.095589 0.767587
vt 0.081770 0.761156
vt 0.146872 0.824229
vt 0.131973 0.820113
vt 0.115861 0.812185
vt 0.100112 0.801223
vt 0.086269 0.788297
vt 0.075686 0.774676
vt 0.444848 0.638210
vt 0.464153 0.674425
vt 0.447326 0.678208
vt 0.429465 0.644701
vt 0.429809 0.684530
vt 0.414238 0.655318
vt 0.413318 0.692773
vt 0.400658 0.669024
vt 0.078396 0.814605
vt 0.070126 0.798246
vt 0.819046 0.143842
vt 0.808301 0.166476
vt 0.799535 0.153715
vt 0.806549 0.138940
vt 0.471219 0.725883
vt 0.453863 0.725818
vt 0.435508 0.726037
vt 0.417951 0.726518
vt 0.402911 0.727215
vt 0.399466 0.702129
vt 0.789690 0.179305
vt 0.787386 0.162089
vt 0.464153 0.778794
vt 0.447326 0.774773
vt 0.429809 0.768716
vt 0.413318 0.761217
vt 0.399466 0.753009
vt 0.768200 0.178890
vt 0.773358 0.161819
vt 0.444849 0.818983
vt 0.429465 0.811956
vt 0.414238 0.801132
vt 0.750572 0.211375
vt 0.760348 0.195966
vt 0.799535 0.106677
vt 0.806549 0.121723
vt 0.526706 0.790009
vt 0.503608 0.838095
vt 0.543906 0.775877
vt 0.547113 0.715167
vt 0.601404 0.762865
vt 0.543906 0.651334
vt 0.161428 0.619214
vt 0.201051 0.658422
vt 0.223928 0.717795
vt 0.223928 0.781422
vt 0.201051 0.832255
vt 0.503608 0.621793
vt 0.526706 0.665126
vt 0.535161 0.726698
s 1
usemtl red_plastic
f 6/1/1 4/2/1 134/3/1 135/4/1
f 5/5/2 7/6/2 28/7/2 27/8/2
f 36/9/3 25/10/4 37/11/4 48/12/3
f 21/13/2 23/14/2 36/15/2 35/16/2
f 3/17/2 5/5/2 27/8/2 26/18/2
f 19/19/2 21/13/2 35/16/2 34/20/2
f 17/21/2 19/19/2 34/20/2 33/22/2
f 15/23/2 17/21/2 33/22/2 32/24/2
f 13/25/2 15/23/2 32/24/2 31/26/2
f 11/27/2 13/25/2 31/26/2 30/28/2
f 9/29/2 11/27/2 30/28/2 29/30/2
f 7/6/2 9/29/2 29/30/2 28/7/2
f 23/14/2 1/31/2 25/32/2 36/15/2
f 1/31/2 3/17/2 26/18/2 25/32/2
f 41/33/2 42/34/2 54/35/5 53/36/6
f 26/37/7 27/38/8 39/39/8 38/40/7
f 33/41/9 34/42/10 46/43/10 45/44/9
f 30/45/11 31/46/12 43/47/12 42/48/11
f 27/38/8 28/49/13 40/50/13 39/39/8
f 34/42/10 35/51/14 47/52/14 46/43/10
f 31/53/12 32/54/15 44/55/15 43/56/12
f 28/57/13 29/58/16 41/59/16 40/60/13
f 35/51/14 36/61/3 48/62/3 47/52/14
f 25/10/4 26/37/7 38/40/7 37/11/4
f 32/54/15 33/63/9 45/64/9 44/55/15
f 29/58/16 30/45/11 42/48/11 41/59/16
f 75/65/17 74/66/18 66/67/19 65/68/20
f 48/69/2 37/70/2 49/71/21 60/72/22
f 38/73/2 39/74/2 51/75/23 50/76/24
f 45/77/2 46/78/2 58/79/25 57/80/26
f 42/34/2 43/81/2 55/82/27 54/35/5
f 39/74/2 40/83/2 52/84/28 51/75/23
f 46/78/2 47/85/2 59/86/29 58/79/25
f 43/81/2 44/87/2 56/88/30 55/82/27
f 40/83/2 41/33/2 53/36/6 52/84/28
f 47/85/2 48/69/2 60/72/22 59/86/29
f 37/70/2 38/73/2 50/76/24 49/71/21
f 44/87/2 45/77/2 57/80/26 56/88/30
f 110/89/31 109/90/32 103/91/33 102/92/34
f 79/93/35 78/94/36 61/95/37 72/96/38
f 83/97/39 82/98/40 63/99/41 62/100/42
f 87/101/43 86/102/44 70/103/45 69/104/46
f 74/66/18 90/105/47 67/106/48 66/67/19
f 82/98/40 92/107/49 64/108/50 63/99/41
f 86/102/44 94/109/51 71/110/52 70/103/45
f 90/105/47 96/111/53 68/112/54 67/106/48
f 92/107/49 75/65/17 65/68/20 64/108/50
f 94/109/51 79/93/35 72/96/38 71/110/52
f 78/94/36 83/97/39 62/100/42 61/95/37
f 96/111/53 87/101/43 69/104/46 68/112/54
f 56/113/30 57/114/26 88/115/55 95/116/56
f 95/117/56 88/118/55 87/101/43 96/111/53
f 49/119/21 50/120/24 84/121/57 77/122/58
f 77/123/58 84/124/57 83/97/39 78/94/36
f 59/125/29 60/126/22 80/127/59 93/128/60
f 93/129/60 80/130/59 79/93/35 94/109/51
f 52/131/28 53/132/6 76/133/61 91/134/62
f 91/135/62 76/136/61 75/65/17 92/107/49
f 55/137/27 56/113/30 95/116/56 89/138/63
f 89/139/63 95/117/56 96/111/53 90/105/47
f 58/140/25 59/125/29 93/128/60 85/141/64
f 85/141/64 93/128/60 94/142/51 86/143/44
f 51/75/23 52/84/28 91/135/62 81/144/65
f 81/144/65 91/135/62 92/107/49 82/98/40
f 54/145/5 55/146/27 89/147/63 73/148/66
f 73/149/66 89/139/63 90/105/47 74/66/18
f 57/150/26 58/140/25 85/141/64 88/151/55
f 88/118/55 85/152/64 86/102/44 87/101/43
f 50/120/24 51/153/23 81/154/65 84/121/57
f 84/124/57 81/144/65 82/98/40 83/97/39
f 60/155/22 49/119/21 77/122/58 80/156/59
f 80/130/59 77/123/58 78/94/36 79/93/35
f 53/132/6 54/145/5 73/148/66 76/133/61
f 76/136/61 73/149/66 74/66/18 75/65/17
f 98/157/7 99/158/8 123/159/8 122/160/7
f 112/161/67 111/162/68 100/163/69 99/164/70
f 114/165/71 113/166/72 107/167/73 106/168/74
f 109/90/32 115/169/75 104/170/76 103/91/33
f 111/162/68 116/171/77 101/172/78 100/163/69
f 113/166/72 117/173/79 108/174/80 107/167/73
f 119/175/81 118/176/82 98/177/83 97/178/84
f 115/169/75 120/179/85 105/180/86 104/170/76
f 116/171/77 110/89/31 102/92/34 101/172/78
f 117/173/79 119/175/81 97/178/84 108/174/80
f 118/176/82 112/161/67 99/164/70 98/177/83
f 120/179/85 114/165/71 106/168/74 105/180/86
f 69/104/46 70/103/45 114/165/71 120/179/85
f 62/100/42 63/99/41 112/161/67 118/176/82
f 72/96/38 61/95/37 119/175/81 117/173/79
f 65/68/20 66/67/19 110/89/31 116/171/77
f 68/112/54 69/104/46 120/179/85 115/169/75
f 61/95/37 62/100/42 118/176/82 119/175/81
f 71/110/52 72/96/38 117/173/79 113/166/72
f 64/108/50 65/68/20 116/171/77 111/162/68
f 67/106/48 68/112/54 115/169/75 109/90/32
f 70/103/45 71/110/52 113/166/72 114/165/71
f 63/99/41 64/108/50 111/162/68 112/161/67
f 66/67/19 67/106/48 109/90/32 110/89/31
f 121/181/1 122/182/1 123/183/1 124/184/1 125/185/1 126/186/1 127/187/1 128/188/1 129/189/1 130/190/1 131/191/1 132/192/1
f 105/193/9 106/194/10 130/195/10 129/196/9
f 102/197/11 103/198/12 127/199/12 126/200/11
f 99/158/8 100/201/13 124/202/13 123/159/8
f 106/194/10 107/203/14 131/204/14 130/195/10
f 103/205/12 104/206/15 128/207/15 127/208/12
f 100/209/13 101/210/16 125/211/16 124/212/13
f 107/203/14 108/213/3 132/214/3 131/204/14
f 97/215/4 98/157/7 122/160/7 121/216/4
f 104/206/15 105/217/9 129/218/9 128/207/15
f 101/210/16 102/197/11 126/200/11 125/211/16
f 108/219/3 97/215/4 121/216/4 132/220/3
f 142/221/10 141/222/9 153/223/9 154/224/10
f 22/225/1 20/226/1 142/227/1 143/228/1
f 20/226/1 18/229/1 141/230/1 142/227/1
f 18/229/1 16/231/1 140/232/1 141/230/1
f 16/231/1 14/233/1 139/234/1 140/232/1
f 14/233/1 12/235/1 138/236/1 139/234/1
f 12/235/1 10/237/1 137/238/1 138/236/1
f 10/237/1 8/239/1 136/240/1 137/238/1
f 2/241/1 24/242/1 144/243/1 133/244/1
f 4/2/1 2/241/1 133/244/1 134/3/1
f 8/239/1 6/1/1 135/4/1 136/240/1
f 24/242/1 22/225/1 143/228/1 144/243/1
f 147/245/2 146/246/2 158/247/2 159/248/2
f 139/249/12 138/250/11 150/251/11 151/252/12
f 136/253/13 135/254/8 147/255/8 148/256/13
f 143/257/14 142/221/10 154/224/10 155/258/14
f 140/259/15 139/260/12 151/261/12 152/262/15
f 137/263/16 136/264/13 148/265/13 149/266/16
f 144/267/3 143/257/14 155/258/14 156/268/3
f 134/269/7 133/270/4 145/271/4 146/272/7
f 141/273/9 140/259/15 152/262/15 153/274/9
f 138/250/11 137/263/16 149/266/16 150/251/11
f 133/270/4 144/275/3 156/276/3 145/271/4
f 135/254/8 134/269/7 146/272/7 147/255/8
f 182/277/87 181/278/88 180/279/89 169/280/90
f 154/281/2 153/282/2 165/283/2 166/284/2
f 151/285/2 150/286/2 162/287/2 163/288/2
f 148/289/2 147/245/2 159/248/2 160/290/2
f 155/291/2 154/281/2 166/284/2 167/292/2
f 152/293/2 151/285/2 163/288/2 164/294/2
f 149/295/2 148/289/2 160/290/2 161/296/2
f 156/297/2 155/291/2 167/292/2 168/298/2
f 146/246/2 145/299/2 157/300/2 158/247/2
f 153/282/2 152/293/2 164/294/2 165/283/2
f 150/286/2 149/295/2 161/296/2 162/287/2
f 145/299/2 156/297/2 168/298/2 157/300/2
f 184/301/91 183/302/92 170/303/93 171/304/94
f 186/305/95 185/306/96 177/307/97 178/308/98
f 188/309/99 187/310/100 174/311/101 175/312/102
f 189/313/103 184/301/91 171/304/94 172/314/104
f 190/315/105 186/305/95 178/308/98 179/316/106
f 191/317/107 188/318/99 175/319/102 176/320/108
f 192/321/109 189/322/103 172/323/104 173/324/110
f 181/325/88 190/315/105 179/316/106 180/326/89
f 183/302/92 182/277/87 169/280/90 170/303/93
f 185/327/96 191/317/107 176/320/108 177/328/97
f 187/310/100 192/321/109 173/324/110 174/311/101
f 2/329/4 1/330/4 23/331/3 24/332/3
f 24/333/3 23/334/3 21/335/14 22/336/14
f 22/336/14 21/335/14 19/337/10 20/338/10
f 20/338/10 19/337/10 17/339/9 18/340/9
f 18/341/9 17/342/9 15/343/15 16/344/15
f 16/344/15 15/343/15 13/345/12 14/346/12
f 14/347/12 13/348/12 11/349/11 12/350/11
f 12/350/11 11/349/11 9/351/16 10/352/16
f 10/352/16 9/351/16 7/353/13 8/354/13
f 8/355/13 7/356/13 5/357/8 6/358/8
f 6/358/8 5/357/8 3/359/7 4/360/7
f 4/360/7 3/359/7 1/330/4 2/329/4
f 162/361/11 161/362/16 192/321/109 187/310/100
f 165/363/9 164/364/15 191/317/107 185/327/96
f 158/365/7 157/366/4 182/277/87 183/302/92
f 168/367/3 167/368/14 190/315/105 181/325/88
f 161/362/16 160/369/13 189/322/103 192/321/109
f 164/364/15 163/370/12 188/318/99 191/317/107
f 167/368/14 166/371/10 186/305/95 190/315/105
f 160/372/13 159/373/8 184/301/91 189/313/103
f 163/374/12 162/361/11 187/310/100 188/309/99
f 166/371/10 165/375/9 185/306/96 186/305/95
f 159/373/8 158/365/7 183/302/92 184/301/91
f 157/366/4 168/376/3 181/278/88 182/277/87
f 251/489/131 263/490/131 264/491/132 252/492/132
f 250/493/10 262/494/10 263/490/131 251/489/131
f 249/495/133 261/496/133 262/494/10 250/493/10
f 248/497/134 260/498/134 261/499/133 249/500/133
f 247/501/135 259/502/135 260/498/134 248/497/134
f 246/503/136 258/504/136 259/505/135 247/506/135
f 245/507/137 257/508/137 258/509/136 246/510/136
f 244/511/13 256/512/13 257/508/137 245/507/137
f 243/513/138 255/514/138 256/512/13 244/511/13
f 242/515/139 254/516/139 255/517/138 243/518/138
f 241/519/140 253/520/140 254/521/139 242/522/139
f 252/523/132 264/524/132 253/520/140 241/519/140
f 291/525/141 266/526/142 268/527/143 292/528/144
f 292/528/144 268/527/143 270/529/145 295/530/146
f 295/530/146 270/529/145 272/531/147 298/532/148
f 298/533/148 272/534/147 274/535/149 301/536/150
f 301/536/150 274/535/149 276/537/151 304/538/152
f 304/538/152 276/537/151 278/539/153 307/540/154
f 307/540/154 278/539/153 280/541/155 310/542/156
f 310/542/156 280/541/155 282/543/157 313/544/158
f 313/545/158 282/546/157 284/547/159 316/548/160
f 351/549/161 350/550/162 380/551/163 381/552/164
f 316/548/160 284/547/159 286/553/165 319/554/166
f 319/554/166 286/553/165 288/555/167 322/556/168
f 336/557/169 324/558/170 289/559/171 325/560/172
f 324/558/170 323/561/173 290/562/174 289/559/171
f 323/561/173 322/563/168 291/525/141 290/562/174
f 335/564/175 321/565/176 324/566/170 336/567/169
f 321/565/176 320/568/177 323/569/173 324/566/170
f 320/568/177 319/554/166 322/556/168 323/569/173
f 334/570/178 318/571/179 321/565/176 335/564/175
f 318/571/179 317/572/180 320/568/177 321/565/176
f 317/572/180 316/548/160 319/554/166 320/568/177
f 333/573/181 315/574/182 318/571/179 334/570/178
f 315/574/182 314/575/183 317/572/180 318/571/179
f 314/575/183 313/545/158 316/548/160 317/572/180
f 332/576/184 312/577/185 315/574/182 333/573/181
f 312/577/185 311/578/186 314/575/183 315/574/182
f 311/579/186 310/542/156 313/544/158 314/580/183
f 331/581/187 309/582/188 312/583/185 332/584/184
f 309/582/188 308/585/189 311/579/186 312/583/185
f 308/585/189 307/540/154 310/542/156 311/579/186
f 330/586/190 306/587/191 309/582/188 331/581/187
f 306/587/191 305/588/192 308/585/189 309/582/188
f 305/588/192 304/538/152 307/540/154 308/585/189
f 329/589/193 303/590/194 306/591/191 330/592/190
f 303/590/194 302/593/195 305/594/192 306/591/191
f 302/595/195 301/536/150 304/538/152 305/588/192
f 328/596/196 300/597/197 303/590/194 329/589/193
f 300/597/197 299/598/198 302/593/195 303/590/194
f 299/598/198 298/599/148 301/600/150 302/593/195
f 327/601/199 297/602/200 300/603/197 328/604/196
f 297/602/200 296/605/201 299/606/198 300/603/197
f 296/605/201 295/530/146 298/532/148 299/606/198
f 326/607/202 294/608/203 297/602/200 327/601/199
f 294/608/203 293/609/204 296/605/201 297/602/200
f 293/609/204 292/528/144 295/530/146 296/605/201
f 325/560/172 289/559/171 294/608/203 326/607/202
f 289/559/171 290/562/174 293/609/204 294/608/203
f 290/562/174 291/525/141 292/528/144 293/609/204
f 322/563/168 288/610/167 266/526/142 291/525/141
f 267/611/122 265/612/122 325/613/122 326/614/122
f 269/615/122 267/611/122 326/614/122 327/616/122
f 271/617/122 269/615/122 327/616/122 328/618/122
f 273/619/122 271/617/122 328/618/122 329/620/122
f 275/621/122 273/619/122 329/620/122 330/622/122
f 277/623/122 275/621/122 330/622/122 331/624/122
f 279/625/122 277/623/122 331/624/122 332/626/122
f 281/627/122 279/625/122 332/626/122 333/628/122
f 283/629/122 281/627/122 333/628/122 334/630/122
f 285/631/122 283/629/122 334/630/122 335/632/122
f 287/633/122 285/631/122 335/632/122 336/634/122
f 265/612/122 287/633/122 336/634/122 325/613/122
f 398/635/205 397/636/119 386/637/119 385/638/205
f 350/550/162 354/639/206 379/640/207 380/551/163
f 354/639/206 356/641/208 378/642/209 379/640/207
f 356/641/208 358/643/210 377/644/211 378/642/209
f 358/645/210 360/646/212 376/647/213 377/648/211
f 363/649/214 362/650/215 384/651/216 374/652/217
f 360/653/212 366/654/218 375/655/219 376/656/213
f 362/657/215 368/658/220 383/659/221 384/660/216
f 366/654/218 370/661/222 373/662/223 375/655/219
f 368/658/220 372/663/224 382/664/225 383/659/221
f 370/661/222 363/649/214 374/652/217 373/662/223
f 372/663/224 351/665/161 381/666/164 382/664/225
f 284/547/159 282/546/157 352/667/226 371/668/227
f 371/668/227 352/667/226 351/665/161 372/663/224
f 268/527/143 266/526/142 364/669/228 369/670/229
f 369/670/229 364/669/228 363/649/214 370/661/222
f 286/553/165 284/547/159 371/668/227 367/671/230
f 367/671/230 371/668/227 372/663/224 368/658/220
f 270/529/145 268/527/143 369/670/229 365/672/231
f 365/672/231 369/670/229 370/661/222 366/654/218
f 288/555/167 286/553/165 367/671/230 361/673/232
f 361/673/232 367/671/230 368/658/220 362/657/215
f 272/531/147 270/529/145 365/672/231 359/674/233
f 359/674/233 365/672/231 366/654/218 360/653/212
f 266/526/142 288/610/167 361/675/232 364/669/228
f 364/669/228 361/675/232 362/650/215 363/649/214
f 274/676/149 272/677/147 359/678/233 357/679/234
f 357/679/234 359/678/233 360/646/212 358/645/210
f 276/680/151 274/676/149 357/679/234 355/681/235
f 355/682/235 357/683/234 358/643/210 356/641/208
f 278/539/153 276/537/151 355/682/235 353/684/236
f 353/684/236 355/682/235 356/641/208 354/639/206
f 280/541/155 278/539/153 353/684/236 349/685/237
f 349/685/237 353/684/236 354/639/206 350/550/162
f 282/543/157 280/541/155 349/685/237 352/686/226
f 352/686/226 349/685/237 350/550/162 351/549/161
f 337/687/128 338/688/128 373/689/128 374/690/128
f 338/688/128 339/691/128 375/692/128 373/689/128
f 339/691/128 340/693/128 376/694/128 375/692/128
f 340/693/128 341/695/128 377/644/128 376/694/128
f 341/695/128 342/696/128 378/642/128 377/644/128
f 342/696/128 343/697/128 379/640/128 378/642/128
f 343/697/128 344/698/128 380/551/128 379/640/128
f 344/698/128 345/699/128 381/552/128 380/551/128
f 345/699/128 346/700/128 382/701/128 381/552/128
f 346/700/128 347/702/128 383/703/128 382/701/128
f 347/702/128 348/704/128 384/705/128 383/703/128
f 348/704/128 337/687/128 374/690/128 384/705/128
f 385/706/128 386/707/128 396/708/128 395/709/128 394/710/128 393/711/128 392/712/128 391/713/128 390/714/128 389/715/128 388/716/128 387/717/128
f 400/718/238 399/719/239 392/720/239 393/721/238
f 402/722/240 401/723/241 389/724/242 390/725/240
f 397/726/119 403/727/243 396/728/243 386/729/119
f 404/730/244 398/635/205 385/638/205 387/731/244
f 405/732/10 400/718/238 393/721/238 394/733/10
f 406/734/125 402/735/240 390/714/240 391/713/125
f 407/736/13 404/737/244 387/738/244 388/739/13
f 408/740/245 405/732/10 394/733/10 395/741/245
f 399/742/239 406/734/125 391/713/125 392/712/239
f 401/723/241 407/736/13 388/739/13 389/724/242
f 403/743/243 408/740/245 395/741/245 396/744/243
f 348/745/243 347/746/245 408/740/245 403/743/243
f 341/747/241 340/748/13 407/736/13 401/723/241
f 344/698/239 343/697/125 406/734/125 399/742/239
f 347/746/245 346/749/10 405/732/10 408/740/245
f 340/748/13 339/750/244 404/737/244 407/736/13
f 343/697/125 342/696/240 402/735/240 406/734/125
f 346/749/10 345/751/246 400/718/238 405/732/10
f 339/752/244 338/753/205 398/635/205 404/730/244
f 337/754/119 348/755/243 403/727/243 397/726/119
f 342/756/240 341/747/241 401/723/241 402/722/240
f 345/751/246 344/757/239 399/719/239 400/718/238
f 338/753/205 337/758/119 397/636/119 398/635/205
f 410/759/247 415/760/248 417/761/249 414/762/250
f 414/762/250 417/761/249 418/763/251 413/764/252
f 413/764/252 418/763/251 419/765/253 412/766/254
f 412/766/254 419/765/253 420/767/255 411/768/256
f 411/768/256 420/767/255 416/769/257 409/770/258
f 415/760/248 421/771/259 423/772/260 417/761/249
f 417/761/249 423/772/260 424/773/261 418/763/251
f 418/763/251 424/773/261 425/774/262 419/765/253
f 419/765/253 425/774/262 426/775/263 420/767/255
f 420/767/255 426/775/263 422/776/264 416/769/257
f 421/771/259 427/777/265 429/778/266 423/772/260
f 423/772/260 429/778/266 430/779/267 424/773/261
f 424/773/261 430/779/267 431/780/268 425/774/262
f 425/774/262 431/780/268 432/781/269 426/775/263
f 426/775/263 432/781/269 428/782/270 422/776/264
f 427/783/265 433/784/271 435/785/272 429/786/266
f 429/778/266 435/787/272 436/788/273 430/779/267
f 430/779/267 436/788/273 437/789/274 431/780/268
f 431/780/268 437/789/274 438/790/275 432/781/269
f 432/781/269 438/790/275 434/791/276 428/782/270
f 433/792/271 439/793/277 441/794/278 435/795/272
f 435/795/272 441/794/278 442/796/279 436/797/273
f 436/797/273 442/796/279 443/798/280 437/799/274
f 437/799/274 443/798/280 444/800/281 438/801/275
f 438/790/275 444/802/281 440/803/282 434/791/276
f 439/793/277 445/804/283 447/805/284 441/794/278
f 441/794/278 447/805/284 448/806/285 442/796/279
f 442/796/279 448/806/285 449/807/286 443/798/280
f 443/798/280 449/807/286 450/808/287 444/800/281
f 444/800/281 450/808/287 446/809/288 440/810/282
f 445/804/283 451/811/289 453/812/290 447/805/284
f 447/805/284 453/812/290 454/813/291 448/806/285
f 448/806/285 454/813/291 455/814/292 449/807/286
f 449/807/286 455/814/292 456/815/293 450/808/287
f 450/808/287 456/815/293 452/816/294 446/809/288
f 451/811/289 457/817/295 459/818/296 453/812/290
f 453/812/290 459/818/296 460/819/297 454/813/291
f 454/813/291 460/819/297 461/820/298 455/814/292
f 455/814/292 461/820/298 462/821/299 456/815/293
f 456/815/293 462/821/299 458/822/300 452/816/294
f 457/823/295 463/824/301 465/825/302 459/826/296
f 459/826/296 465/825/302 466/827/303 460/828/297
f 460/828/297 466/827/303 467/829/304 461/830/298
f 461/820/298 467/831/304 468/832/305 462/821/299
f 462/833/299 468/834/305 464/835/306 458/836/300
f 463/824/301 469/837/307 471/838/308 465/825/302
f 465/825/302 471/838/308 472/839/309 466/827/303
f 466/827/303 472/839/309 473/840/310 467/829/304
f 467/829/304 473/840/310 474/841/311 468/842/305
f 468/834/305 474/843/311 470/844/312 464/835/306
f 469/837/307 475/845/313 477/846/314 471/838/308
f 471/838/308 477/846/314 478/847/315 472/839/309
f 472/839/309 478/847/315 479/848/316 473/840/310
f 473/840/310 479/848/316 480/849/317 474/841/311
f 474/843/311 480/850/317 476/851/318 470/844/312
f 475/845/313 410/852/247 414/853/250 477/846/314
f 477/846/314 414/853/250 413/854/252 478/847/315
f 478/855/315 413/764/252 412/766/254 479/856/316
f 479/856/316 412/766/254 411/768/256 480/850/317
f 480/850/317 411/768/256 409/770/258 476/851/318
f 265/612/319 267/611/320 415/760/248 410/759/247
f 409/770/258 416/769/257 422/776/264 428/782/270 434/791/276 440/803/282 446/857/288 452/858/294 458/836/300 464/835/306 470/844/312 476/851/318
f 287/859/321 265/860/319 410/852/247 475/845/313
f 267/611/320 269/615/322 421/771/259 415/760/248
f 269/861/322 271/862/323 427/783/265 421/863/259
f 271/862/323 273/864/324 433/784/271 427/783/265
f 273/865/324 275/866/325 439/793/277 433/792/271
f 275/866/325 277/867/326 445/804/283 439/793/277
f 277/867/326 279/868/327 451/811/289 445/804/283
f 279/868/327 281/869/328 457/817/295 451/811/289
f 281/870/328 283/871/329 463/824/301 457/823/295
f 283/871/329 285/872/330 469/837/307 463/824/301
f 285/872/330 287/859/321 475/845/313 469/837/307
usemtl white_plastic
f 193/377/4 194/378/4 196/379/111 195/380/111
f 195/380/111 196/379/111 198/381/112 197/382/112
f 197/383/112 198/384/112 200/385/1 199/386/1
f 199/386/1 200/385/1 202/387/113 201/388/113
f 201/388/113 202/387/113 204/389/114 203/390/114
f 203/391/114 204/392/114 206/393/12 205/394/12
f 205/394/12 206/393/12 208/395/115 207/396/115
f 207/396/115 208/395/115 210/397/116 209/398/116
f 209/399/116 210/400/116 212/401/2 211/402/2
f 211/402/2 212/401/2 214/403/117 213/404/117
f 196/405/13 194/406/13 216/407/13 214/408/13 212/409/13 210/410/13 208/411/13 206/412/13 204/413/13 202/414/13 200/415/13 198/416/13
f 213/404/117 214/403/117 216/417/118 215/418/118
f 215/419/118 216/420/118 194/378/4 193/377/4
f 193/421/10 195/422/10 197/423/10 199/424/10 201/425/10 203/426/10 205/427/10 207/428/10 209/429/10 211/430/10 213/431/10 215/432/10
f 217/433/119 218/434/119 220/435/120 219/436/120
f 219/436/120 220/435/120 222/437/121 221/438/121
f 221/438/121 222/437/121 224/439/122 223/440/122
f 223/441/122 224/442/122 226/443/123 225/444/123
f 225/444/123 226/443/123 228/445/124 227/446/124
f 227/446/124 228/445/124 230/447/125 229/448/125
f 229/449/125 230/450/125 232/451/126 231/452/126
f 231/452/126 232/451/126 234/453/127 233/454/127
f 233/454/127 234/453/127 236/455/128 235/456/128
f 235/457/128 236/458/128 238/459/129 237/460/129
f 220/461/13 218/462/13 240/463/13 238/464/13 236/465/13 234/466/13 232/467/13 230/468/13 228/469/13 226/470/13 224/471/13 222/472/13
f 237/460/129 238/459/129 240/473/130 239/474/130
f 239/474/130 240/473/130 218/475/119 217/476/119
f 217/477/10 219/478/10 221/479/10 223/480/10 225/481/10 227/482/10 229/483/10 231/484/10 233/485/10 235/486/10 237/487/10 239/488/10
