# Blender 4.5.3 LTS
# www.blender.org
mtllib storage_shelf.mtl
o storage_shelf
v 0.200000 2.000000 -0.800000
v 0.200000 0.000000 -0.800000
v 0.200000 2.000000 0.800000
v 0.200000 0.000000 0.800000
v -0.200000 2.000000 -0.800000
v -0.200000 0.000000 -0.800000
v -0.200000 2.000000 0.800000
v -0.200000 0.000000 0.800000
v 0.200000 1.500000 -0.800000
v 0.200000 1.000000 -0.800000
v 0.200000 0.500000 -0.800000
v -0.200000 0.500000 0.800000
v -0.200000 1.000000 0.800000
v -0.200000 1.500000 0.800000
v 0.200000 1.500000 0.800000
v 0.200000 1.000000 0.800000
v 0.200000 0.500000 0.800000
v -0.200000 1.500000 -0.800000
v -0.200000 1.000000 -0.800000
v -0.200000 0.500000 -0.800000
v 0.200000 1.530000 -0.776000
v 0.200000 1.970000 -0.776000
v 0.200000 1.970000 0.776000
v 0.200000 1.530000 0.776000
v 0.200000 0.030000 -0.776000
v 0.200000 0.470000 -0.776000
v 0.200000 0.470000 0.776000
v 0.200000 0.030000 0.776000
v 0.200000 0.530000 -0.776000
v 0.200000 0.970000 -0.776000
v 0.200000 0.970000 0.776000
v 0.200000 0.530000 0.776000
v 0.200000 1.030000 -0.776000
v 0.200000 1.470000 -0.776000
v 0.200000 1.470000 0.776000
v 0.200000 1.030000 0.776000
v -0.150000 1.970000 -0.776000
v -0.150000 1.530000 -0.776000
v -0.150000 1.530000 0.776000
v -0.150000 1.970000 0.776000
v -0.150000 0.470000 -0.776000
v -0.150000 0.030000 -0.776000
v -0.150000 0.030000 0.776000
v -0.150000 0.470000 0.776000
v -0.150000 0.970000 -0.776000
v -0.150000 0.530000 -0.776000
v -0.150000 0.530000 0.776000
v -0.150000 0.970000 0.776000
v -0.150000 1.470000 -0.776000
v -0.150000 1.030000 -0.776000
v -0.150000 1.030000 0.776000
v -0.150000 1.470000 0.776000
vn -0.0000 1.0000 -0.0000
vn -0.0000 -0.0000 1.0000
vn -1.0000 -0.0000 -0.0000
vn -0.0000 -1.0000 -0.0000
vn -0.0000 -0.0000 -1.0000
vn 1.0000 -0.0000 -0.0000
vt 0.237894 0.004373
vt 0.237894 0.237894
vt 0.004373 0.237894
vt 0.004373 0.004373
vt 0.305021 0.237894
vt 0.246641 0.237894
vt 0.246641 0.004373
vt 0.305021 0.004373
vt 0.305021 0.480161
vt 0.246641 0.480161
vt 0.246641 0.246641
vt 0.305021 0.246641
vt 0.237894 0.246641
vt 0.237894 0.480161
vt 0.004373 0.480161
vt 0.004373 0.246641
vt 0.693238 0.246641
vt 0.693238 0.473155
vt 0.488908 0.473155
vt 0.488908 0.246641
vt 0.547288 0.237894
vt 0.488908 0.237894
vt 0.488908 0.004373
vt 0.547288 0.004373
vt 0.722428 0.237894
vt 0.664048 0.237894
vt 0.664048 0.004373
vt 0.722428 0.004373
vt 0.605668 0.237894
vt 0.605668 0.004373
vt 0.055748 0.935505
vt 0.004373 0.935505
vt 0.004373 0.731175
vt 0.055748 0.731175
vt 0.966436 0.450971
vt 0.915062 0.450971
vt 0.915062 0.246641
vt 0.966436 0.246641
vt 0.064495 0.731175
vt 0.115869 0.731175
vt 0.115869 0.935505
vt 0.064495 0.935505
vt 0.480161 0.480161
vt 0.421781 0.480161
vt 0.421781 0.246641
vt 0.480161 0.246641
vt 0.363401 0.480161
vt 0.363401 0.246641
vt 0.480161 0.237894
vt 0.421781 0.237894
vt 0.421781 0.004373
vt 0.480161 0.004373
vt 0.363401 0.237894
vt 0.363401 0.004373
vt 0.062753 0.722428
vt 0.004373 0.722428
vt 0.007876 0.718925
vt 0.059251 0.718925
vt 0.004373 0.488908
vt 0.007876 0.492411
vt 0.062753 0.488908
vt 0.059251 0.492411
vt 0.237894 0.722428
vt 0.179514 0.722428
vt 0.183017 0.718925
vt 0.234391 0.718925
vt 0.179514 0.488908
vt 0.183017 0.492411
vt 0.237894 0.488908
vt 0.234391 0.492411
vt 0.121134 0.722428
vt 0.124636 0.718925
vt 0.176011 0.718925
vt 0.121134 0.488908
vt 0.124636 0.492411
vt 0.176011 0.492411
vt 0.066256 0.718925
vt 0.117631 0.718925
vt 0.066256 0.492411
vt 0.117631 0.492411
vt 0.298015 0.950684
vt 0.246641 0.950684
vt 0.246641 0.724169
vt 0.298015 0.724169
vt 0.418258 0.950684
vt 0.366883 0.950684
vt 0.366883 0.724169
vt 0.418258 0.724169
vt 0.478379 0.950684
vt 0.427004 0.950684
vt 0.427004 0.724169
vt 0.478379 0.724169
vt 0.358136 0.950684
vt 0.306762 0.950684
vt 0.306762 0.724169
vt 0.358136 0.724169
vt 0.966436 0.664048
vt 0.915062 0.664048
vt 0.915062 0.459718
vt 0.966436 0.459718
vt 0.693238 0.481902
vt 0.693238 0.708417
vt 0.488908 0.708417
vt 0.488908 0.481902
vt 0.175990 0.935505
vt 0.124616 0.935505
vt 0.124616 0.731175
vt 0.175990 0.731175
vt 0.246641 0.715423
vt 0.246641 0.488908
vt 0.450971 0.488908
vt 0.450971 0.715423
vt 0.906315 0.246641
vt 0.906315 0.473155
vt 0.701985 0.473155
vt 0.701985 0.246641
vt 0.701985 0.708417
vt 0.701985 0.481902
vt 0.906315 0.481902
vt 0.906315 0.708417
vt 0.935505 0.004373
vt 0.935505 0.230888
vt 0.731175 0.230888
vt 0.731175 0.004373
vt 0.915062 0.672795
vt 0.966437 0.672795
vt 0.966437 0.877125
vt 0.915062 0.877125
vt 0.488908 0.943678
vt 0.488908 0.717164
vt 0.693238 0.717164
vt 0.693238 0.943678
vt 0.944252 0.004373
vt 0.995627 0.004373
vt 0.995627 0.208704
vt 0.944252 0.208704
vt 0.701985 0.943678
vt 0.701985 0.717164
vt 0.906315 0.717164
vt 0.906315 0.943678
vt 0.184737 0.731175
vt 0.236112 0.731175
vt 0.236112 0.935505
vt 0.184737 0.935505
s 0
usemtl pale_wood
f 1/1/1 5/2/1 7/3/1 3/4/1
f 15/5/2 3/6/2 7/7/2 14/8/2
f 14/9/3 7/10/3 5/11/3 18/12/3
f 6/13/4 2/14/4 4/15/4 8/16/4
f 24/17/1 21/18/1 38/19/1 39/20/1
f 18/21/5 5/22/5 1/23/5 9/24/5
f 6/25/5 20/26/5 11/27/5 2/28/5
f 20/26/5 19/29/5 10/30/5 11/27/5
f 19/29/5 18/21/5 9/24/5 10/30/5
f 25/31/2 26/32/2 41/33/2 42/34/2
f 21/35/2 22/36/2 37/37/2 38/38/2
f 35/39/5 36/40/5 51/41/5 52/42/5
f 8/43/3 12/44/3 20/45/3 6/46/3
f 12/44/3 13/47/3 19/48/3 20/45/3
f 13/47/3 14/9/3 18/12/3 19/48/3
f 4/49/2 17/50/2 12/51/2 8/52/2
f 17/50/2 16/53/2 13/54/2 12/51/2
f 16/53/2 15/5/2 14/8/2 13/54/2
f 9/55/6 1/56/6 22/57/6 21/58/6
f 1/56/6 3/59/6 23/60/6 22/57/6
f 3/59/6 15/61/6 24/62/6 23/60/6
f 15/61/6 9/55/6 21/58/6 24/62/6
f 2/63/6 11/64/6 26/65/6 25/66/6
f 11/64/6 17/67/6 27/68/6 26/65/6
f 17/67/6 4/69/6 28/70/6 27/68/6
f 4/69/6 2/63/6 25/66/6 28/70/6
f 11/64/6 10/71/6 30/72/6 29/73/6
f 10/71/6 16/74/6 31/75/6 30/72/6
f 16/74/6 17/67/6 32/76/6 31/75/6
f 17/67/6 11/64/6 29/73/6 32/76/6
f 10/71/6 9/55/6 34/77/6 33/78/6
f 9/55/6 15/61/6 35/79/6 34/77/6
f 15/61/6 16/74/6 36/80/6 35/79/6
f 16/74/6 10/71/6 33/78/6 36/80/6
f 38/81/6 37/82/6 40/83/6 39/84/6
f 42/85/6 41/86/6 44/87/6 43/88/6
f 46/89/6 45/90/6 48/91/6 47/92/6
f 50/93/6 49/94/6 52/95/6 51/96/6
f 29/97/2 30/98/2 45/99/2 46/100/2
f 28/101/1 25/102/1 42/103/1 43/104/1
f 33/105/2 34/106/2 49/107/2 50/108/2
f 22/109/4 23/110/4 40/111/4 37/112/4
f 32/113/1 29/114/1 46/115/1 47/116/1
f 26/117/4 27/118/4 44/119/4 41/120/4
f 36/121/1 33/122/1 50/123/1 51/124/1
f 23/125/5 24/126/5 39/127/5 40/128/5
f 30/129/4 31/130/4 48/131/4 45/132/4
f 27/133/5 28/134/5 43/135/5 44/136/5
f 34/137/4 35/138/4 52/139/4 49/140/4
f 31/141/5 32/142/5 47/143/5 48/144/5
