# Blender 4.5.3 LTS
# www.blender.org
mtllib round_table.mtl
o round_table
v 0.180000 0.765000 -1.080000
v 0.180000 0.765000 1.080000
v -0.180000 0.765000 -1.080000
v -0.180000 0.765000 1.080000
v 0.180000 0.747000 1.080000
v -0.180000 0.747000 1.080000
v 0.180000 0.747000 -1.080000
v -0.180000 0.747000 -1.080000
v 0.450000 0.675000 -1.800000
v 0.900000 0.675000 -0.900000
v 0.566469 0.675000 -1.769333
v 0.675000 0.675000 -1.679423
v 0.768198 0.675000 -1.536396
v 0.839711 0.675000 -1.350000
v 0.884667 0.675000 -1.132937
v 0.900000 0.675000 0.900000
v 0.450000 0.675000 1.800000
v 0.884667 0.675000 1.132937
v 0.839711 0.675000 1.350000
v 0.768198 0.675000 1.536396
v 0.675000 0.675000 1.679423
v 0.566469 0.675000 1.769333
v -0.900000 0.675000 -0.900000
v -0.450000 0.675000 -1.800000
v -0.884667 0.675000 -1.132937
v -0.839711 0.675000 -1.350000
v -0.768198 0.675000 -1.536396
v -0.675000 0.675000 -1.679423
v -0.566469 0.675000 -1.769333
v -0.450000 0.675000 1.800000
v -0.900000 0.675000 0.900000
v -0.566469 0.675000 1.769333
v -0.675000 0.675000 1.679423
v -0.768198 0.675000 1.536396
v -0.839711 0.675000 1.350000
v -0.884667 0.675000 1.132937
v 0.450000 0.765000 1.800000
v 0.900000 0.765000 0.900000
v 0.497508 0.765000 1.397508
v 0.566469 0.765000 1.769333
v 0.675000 0.765000 1.679423
v 0.768198 0.765000 1.536396
v 0.839711 0.765000 1.350000
v 0.884667 0.765000 1.132937
v -0.900000 0.765000 0.900000
v -0.450000 0.765000 1.800000
v -0.497508 0.765000 1.397508
v -0.884667 0.765000 1.132937
v -0.839711 0.765000 1.350000
v -0.768198 0.765000 1.536396
v -0.675000 0.765000 1.679423
v -0.566469 0.765000 1.769333
v 0.900000 0.765000 -0.900000
v 0.450000 0.765000 -1.800000
v 0.497508 0.765000 -1.397508
v 0.884667 0.765000 -1.132937
v 0.839711 0.765000 -1.350000
v 0.768198 0.765000 -1.536396
v 0.675000 0.765000 -1.679423
v 0.566469 0.765000 -1.769333
v -0.450000 0.765000 -1.800000
v -0.900000 0.765000 -0.900000
v -0.497508 0.765000 -1.397508
v -0.566469 0.765000 -1.769333
v -0.675000 0.765000 -1.679423
v -0.768198 0.765000 -1.536396
v -0.839711 0.765000 -1.350000
v -0.884667 0.765000 -1.132937
v -0.420000 0.000000 -1.206000
v -0.420000 0.675000 -1.206000
v -0.420000 0.000000 -1.242000
v -0.420000 0.675000 -1.242000
v -0.463925 0.000000 -1.211274
v -0.463925 0.675000 -1.211274
v -0.457981 0.000000 -1.246561
v -0.457981 0.675000 -1.246561
v -0.506109 0.000000 -1.226889
v -0.506109 0.675000 -1.226889
v -0.494456 0.000000 -1.260062
v -0.494456 0.675000 -1.260062
v -0.544877 0.000000 -1.252223
v -0.544877 0.675000 -1.252223
v -0.527978 0.000000 -1.281968
v -0.527978 0.675000 -1.281968
v -0.578694 0.000000 -1.286274
v -0.578694 0.675000 -1.286274
v -0.557218 0.000000 -1.311411
v -0.557218 0.675000 -1.311411
v -0.606218 0.000000 -1.327690
v -0.606218 0.675000 -1.327690
v -0.581017 0.000000 -1.347222
v -0.581017 0.675000 -1.347222
v -0.626357 0.000000 -1.374830
v -0.626357 0.675000 -1.374830
v -0.598431 0.000000 -1.387982
v -0.598431 0.675000 -1.387982
v -0.638313 0.000000 -1.425824
v -0.638313 0.675000 -1.425824
v -0.608769 0.000000 -1.432075
v -0.608769 0.675000 -1.432075
v 0.420000 0.000000 -1.206000
v 0.420000 0.675000 -1.206000
v 0.420000 0.000000 -1.242000
v 0.420000 0.675000 -1.242000
v 0.463925 0.000000 -1.211274
v 0.463925 0.675000 -1.211274
v 0.457981 0.000000 -1.246561
v 0.457981 0.675000 -1.246561
v 0.506109 0.000000 -1.226889
v 0.506109 0.675000 -1.226889
v 0.494456 0.000000 -1.260062
v 0.494456 0.675000 -1.260062
v 0.544877 0.000000 -1.252223
v 0.544877 0.675000 -1.252223
v 0.527978 0.000000 -1.281968
v 0.527978 0.675000 -1.281968
v 0.578694 0.000000 -1.286274
v 0.578694 0.675000 -1.286274
v 0.557218 0.000000 -1.311411
v 0.557218 0.675000 -1.311411
v 0.606218 0.000000 -1.327690
v 0.606218 0.675000 -1.327690
v 0.581017 0.000000 -1.347222
v 0.581017 0.675000 -1.347222
v 0.626357 0.000000 -1.374830
v 0.626357 0.675000 -1.374830
v 0.598431 0.000000 -1.387982
v 0.598431 0.675000 -1.387982
v 0.638313 0.000000 -1.425824
v 0.638313 0.675000 -1.425824
v 0.608769 0.000000 -1.432075
v 0.608769 0.675000 -1.432075
v -0.420000 0.000000 1.206000
v -0.420000 0.675000 1.206000
v -0.420000 0.000000 1.242000
v -0.420000 0.675000 1.242000
v -0.463925 0.000000 1.211274
v -0.463925 0.675000 1.211274
v -0.457981 0.000000 1.246561
v -0.457981 0.675000 1.246561
v -0.506109 0.000000 1.226889
v -0.506109 0.675000 1.226889
v -0.494456 0.000000 1.260062
v -0.494456 0.675000 1.260062
v -0.544877 0.000000 1.252223
v -0.544877 0.675000 1.252223
v -0.527978 0.000000 1.281968
v -0.527978 0.675000 1.281968
v -0.578694 0.000000 1.286274
v -0.578694 0.675000 1.286274
v -0.557218 0.000000 1.311411
v -0.557218 0.675000 1.311411
v -0.606218 0.000000 1.327690
v -0.606218 0.675000 1.327690
v -0.581017 0.000000 1.347222
v -0.581017 0.675000 1.347222
v -0.626357 0.000000 1.374830
v -0.626357 0.675000 1.374830
v -0.598431 0.000000 1.387982
v -0.598431 0.675000 1.387982
v -0.638313 0.000000 1.425824
v -0.638313 0.675000 1.425824
v -0.608769 0.000000 1.432075
v -0.608769 0.675000 1.432075
v 0.420000 0.000000 1.206000
v 0.420000 0.675000 1.206000
v 0.420000 0.000000 1.242000
v 0.420000 0.675000 1.242000
v 0.463925 0.000000 1.211274
v 0.463925 0.675000 1.211274
v 0.457981 0.000000 1.246561
v 0.457981 0.675000 1.246561
v 0.506109 0.000000 1.226889
v 0.506109 0.675000 1.226889
v 0.494456 0.000000 1.260062
v 0.494456 0.675000 1.260062
v 0.544877 0.000000 1.252223
v 0.544877 0.675000 1.252223
v 0.527978 0.000000 1.281968
v 0.527978 0.675000 1.281968
v 0.578694 0.000000 1.286274
v 0.578694 0.675000 1.286274
v 0.557218 0.000000 1.311411
v 0.557218 0.675000 1.311411
v 0.606218 0.000000 1.327690
v 0.606218 0.675000 1.327690
v 0.581017 0.000000 1.347222
v 0.581017 0.675000 1.347222
v 0.626357 0.000000 1.374830
v 0.626357 0.675000 1.374830
v 0.598431 0.000000 1.387982
v 0.598431 0.675000 1.387982
v 0.638313 0.000000 1.425824
v 0.638313 0.675000 1.425824
v 0.608769 0.000000 1.432075
v 0.608769 0.675000 1.432075
vn 1.0000 -0.0000 -0.0000
vn -0.0000 1.0000 -0.0000
vn -0.0000 -0.0000 -1.0000
vn -0.0000 -0.0000 1.0000
vn -1.0000 -0.0000 -0.0000
vn 0.9995 -0.0000 -0.0329
vn 0.9909 -0.0000 -0.1346
vn 0.9596 -0.0000 -0.2814
vn 0.8907 -0.0000 -0.4546
vn 0.7464 -0.0000 -0.6656
vn 0.4570 -0.0000 -0.8895
vn 0.1284 -0.0000 -0.9917
vn -0.1284 -0.0000 0.9917
vn -0.4570 -0.0000 0.8895
vn -0.7464 -0.0000 0.6656
vn -0.8907 -0.0000 0.4546
vn -0.9596 -0.0000 0.2814
vn -0.9909 -0.0000 0.1346
vn -0.9995 -0.0000 0.0329
vn 0.1284 -0.0000 0.9917
vn 0.4570 -0.0000 0.8895
vn 0.7464 -0.0000 0.6656
vn 0.8907 -0.0000 0.4546
vn 0.9596 -0.0000 0.2814
vn 0.9909 -0.0000 0.1346
vn 0.9995 -0.0000 0.0329
vn -0.1284 -0.0000 -0.9917
vn -0.4570 -0.0000 -0.8895
vn -0.7464 -0.0000 -0.6656
vn -0.8907 -0.0000 -0.4546
vn -0.9596 -0.0000 -0.2814
vn -0.9909 -0.0000 -0.1346
vn -0.9995 -0.0000 -0.0329
vn -0.0000 -1.0000 -0.0000
vn 0.1192 -0.0000 -0.9929
vn 0.2348 -0.0000 -0.9720
vn -0.1192 -0.0000 0.9929
vn -0.2348 -0.0000 0.9720
vn 0.4499 -0.0000 -0.8931
vn -0.4499 -0.0000 0.8931
vn 0.6318 -0.0000 -0.7752
vn 0.7749 -0.0000 -0.6321
vn -0.6318 -0.0000 0.7752
vn -0.7749 -0.0000 0.6321
vn 0.8799 -0.0000 -0.4752
vn -0.8799 -0.0000 0.4752
vn 0.9502 -0.0000 -0.3117
vn 0.9736 -0.0000 -0.2283
vn -0.9502 -0.0000 0.3117
vn -0.8441 -0.0000 -0.5362
vn -0.2070 -0.0000 -0.9783
vn -0.1192 -0.0000 -0.9929
vn -0.2348 -0.0000 -0.9720
vn 0.1192 -0.0000 0.9929
vn 0.2348 -0.0000 0.9720
vn -0.4499 -0.0000 -0.8931
vn 0.4499 -0.0000 0.8931
vn -0.6318 -0.0000 -0.7752
vn -0.7749 -0.0000 -0.6321
vn 0.6318 -0.0000 0.7752
vn 0.7749 -0.0000 0.6321
vn -0.8799 -0.0000 -0.4752
vn 0.8799 -0.0000 0.4752
vn -0.9502 -0.0000 -0.3117
vn -0.9736 -0.0000 -0.2283
vn 0.9502 -0.0000 0.3117
vn 0.8441 -0.0000 -0.5362
vn 0.2070 -0.0000 -0.9783
vn 0.9736 -0.0000 0.2283
vn -0.8441 -0.0000 0.5362
vn -0.2070 -0.0000 0.9783
vn -0.9736 -0.0000 0.2283
vn 0.8441 -0.0000 0.5362
vn 0.2070 -0.0000 0.9783
vt 0.618964 0.167734
vt 0.618964 0.088196
vt 0.645477 0.088196
vt 0.645477 0.167734
vt 0.645477 0.082424
vt 0.618964 0.082424
vt 0.618964 0.002886
vt 0.645477 0.002886
vt 0.618965 0.684491
vt 0.618965 0.657978
vt 0.645477 0.657978
vt 0.645477 0.684491
vt 0.618964 0.716775
vt 0.618965 0.690262
vt 0.645477 0.690262
vt 0.645477 0.716775
vt 0.618964 0.253044
vt 0.618964 0.173505
vt 0.645477 0.173505
vt 0.645477 0.253044
vt 0.375715 0.036027
vt 0.376844 0.027449
vt 0.390536 0.032528
vt 0.380155 0.019456
vt 0.385422 0.012593
vt 0.392285 0.007326
vt 0.400278 0.004015
vt 0.408856 0.002886
vt 0.408856 0.135450
vt 0.400278 0.134320
vt 0.390536 0.105807
vt 0.392285 0.131010
vt 0.385422 0.125743
vt 0.380155 0.118879
vt 0.376844 0.110886
vt 0.375715 0.102309
vt 0.475138 0.002886
vt 0.483715 0.004015
vt 0.493458 0.032528
vt 0.491708 0.007326
vt 0.498572 0.012593
vt 0.503839 0.019456
vt 0.507150 0.027449
vt 0.508279 0.036027
vt 0.508279 0.102309
vt 0.507150 0.110886
vt 0.493458 0.105807
vt 0.503839 0.118879
vt 0.498572 0.125743
vt 0.491708 0.131010
vt 0.483715 0.134320
vt 0.475138 0.135450
vt 0.399149 0.279556
vt 0.399149 0.412120
vt 0.390572 0.412120
vt 0.390572 0.279556
vt 0.382579 0.412120
vt 0.382579 0.279556
vt 0.375715 0.412120
vt 0.375715 0.279556
vt 0.488865 0.417892
vt 0.488865 0.550456
vt 0.482002 0.550456
vt 0.482002 0.417892
vt 0.474009 0.550456
vt 0.474009 0.417892
vt 0.465431 0.550456
vt 0.465431 0.417892
vt 0.465431 0.688791
vt 0.465431 0.556227
vt 0.474009 0.556227
vt 0.474009 0.688791
vt 0.482002 0.556227
vt 0.482002 0.688791
vt 0.488865 0.556227
vt 0.488865 0.688791
vt 0.375715 0.827126
vt 0.375715 0.694562
vt 0.382579 0.694562
vt 0.382579 0.827126
vt 0.390572 0.694562
vt 0.390572 0.827126
vt 0.399149 0.694562
vt 0.399149 0.827126
vt 0.399149 0.556227
vt 0.399149 0.688791
vt 0.390572 0.688791
vt 0.390572 0.556227
vt 0.382579 0.688791
vt 0.382579 0.556227
vt 0.375715 0.688791
vt 0.375715 0.556227
vt 0.488865 0.279556
vt 0.488865 0.412120
vt 0.482002 0.412120
vt 0.482002 0.279556
vt 0.474009 0.412120
vt 0.474009 0.279556
vt 0.465431 0.412120
vt 0.465431 0.279556
vt 0.399149 0.417892
vt 0.399149 0.550456
vt 0.390572 0.550456
vt 0.390572 0.417892
vt 0.382579 0.550456
vt 0.382579 0.417892
vt 0.375715 0.550456
vt 0.375715 0.417892
vt 0.488865 0.694562
vt 0.488865 0.827126
vt 0.482002 0.827126
vt 0.482002 0.694562
vt 0.474009 0.827126
vt 0.474009 0.694562
vt 0.465431 0.827126
vt 0.465431 0.694562
vt 0.475138 0.141221
vt 0.483715 0.142350
vt 0.491708 0.145661
vt 0.498572 0.150928
vt 0.503839 0.157792
vt 0.507150 0.165785
vt 0.508279 0.174362
vt 0.508279 0.240644
vt 0.507150 0.249221
vt 0.503839 0.257214
vt 0.498572 0.264078
vt 0.491708 0.269345
vt 0.483715 0.272656
vt 0.475138 0.273785
vt 0.408856 0.273785
vt 0.400278 0.272656
vt 0.392285 0.269345
vt 0.385422 0.264078
vt 0.380155 0.257214
vt 0.376844 0.249221
vt 0.375715 0.240644
vt 0.375715 0.174362
vt 0.376844 0.165785
vt 0.380155 0.157792
vt 0.385422 0.150928
vt 0.392285 0.145661
vt 0.400278 0.142350
vt 0.408856 0.141221
vt 0.402228 0.055911
vt 0.402228 0.082424
vt 0.481766 0.082424
vt 0.481766 0.055911
vt 0.620290 0.274893
vt 0.618964 0.274893
vt 0.619159 0.271658
vt 0.620458 0.272096
vt 0.266734 0.997114
vt 0.204871 0.997114
vt 0.204871 0.002886
vt 0.266734 0.002886
vt 0.620290 0.336756
vt 0.618964 0.336756
vt 0.078463 0.997114
vt 0.016600 0.997114
vt 0.016600 0.002886
vt 0.078463 0.002886
vt 0.619159 0.439782
vt 0.620458 0.439344
vt 0.620955 0.442031
vt 0.619734 0.442889
vt 0.202073 0.997114
vt 0.202073 0.002886
vt 0.081698 0.002886
vt 0.081698 0.997114
vt 0.618964 0.436547
vt 0.620290 0.436547
vt 0.621762 0.444499
vt 0.620667 0.445744
vt 0.619734 0.268552
vt 0.620955 0.269410
vt 0.199387 0.997114
vt 0.199387 0.002886
vt 0.084805 0.002886
vt 0.084805 0.997114
vt 0.196918 0.002886
vt 0.196918 0.997114
vt 0.194765 0.997114
vt 0.194765 0.002886
vt 0.620667 0.265697
vt 0.621762 0.266941
vt 0.087660 0.002886
vt 0.087660 0.997114
vt 0.621920 0.448234
vt 0.622846 0.446653
vt 0.624165 0.448405
vt 0.623446 0.450261
vt 0.090150 0.002886
vt 0.090150 0.997114
vt 0.621920 0.263206
vt 0.622846 0.264788
vt 0.624165 0.263035
vt 0.623446 0.261179
vt 0.625181 0.259696
vt 0.625666 0.261753
vt 0.193012 0.997114
vt 0.193012 0.002886
vt 0.092177 0.002886
vt 0.092177 0.997114
vt 0.553214 0.002886
vt 0.553214 0.997114
vt 0.551591 0.997114
vt 0.551591 0.002886
vt 0.554715 0.002886
vt 0.554715 0.997114
vt 0.514050 0.997114
vt 0.514050 0.002886
vt 0.515786 0.002886
vt 0.515786 0.997114
vt 0.625666 0.449688
vt 0.625181 0.451745
vt 0.587175 0.997114
vt 0.587175 0.002886
vt 0.589351 0.002886
vt 0.589351 0.997114
vt 0.517664 0.002886
vt 0.517664 0.997114
vt 0.627289 0.450449
vt 0.627059 0.452625
vt 0.627059 0.258815
vt 0.627289 0.260991
vt 0.620458 0.339554
vt 0.619159 0.339991
vt 0.619159 0.371449
vt 0.619734 0.368342
vt 0.620955 0.369201
vt 0.620458 0.371887
vt 0.269531 0.002886
vt 0.269531 0.997114
vt 0.013365 0.997114
vt 0.013365 0.002886
vt 0.618964 0.374684
vt 0.620290 0.374684
vt 0.620667 0.365487
vt 0.621762 0.366732
vt 0.620955 0.342240
vt 0.619734 0.343098
vt 0.272217 0.002886
vt 0.272217 0.997114
vt 0.010258 0.997114
vt 0.010258 0.002886
vt 0.274686 0.002886
vt 0.276839 0.002886
vt 0.276839 0.997114
vt 0.274686 0.997114
vt 0.621762 0.344709
vt 0.620667 0.345953
vt 0.007403 0.997114
vt 0.007403 0.002886
vt 0.621920 0.362997
vt 0.623446 0.360970
vt 0.624165 0.362826
vt 0.622846 0.364578
vt 0.004913 0.997114
vt 0.004913 0.002886
vt 0.622846 0.346862
vt 0.621920 0.348444
vt 0.624165 0.348615
vt 0.625666 0.349897
vt 0.625181 0.351954
vt 0.623446 0.350471
vt 0.278592 0.002886
vt 0.278592 0.997114
vt 0.002886 0.997114
vt 0.002886 0.002886
vt 0.561988 0.002886
vt 0.563611 0.002886
vt 0.563611 0.997114
vt 0.561988 0.997114
vt 0.560487 0.002886
vt 0.560487 0.997114
vt 0.527049 0.997114
vt 0.525313 0.997114
vt 0.525313 0.002886
vt 0.527049 0.002886
vt 0.625181 0.359487
vt 0.625666 0.361543
vt 0.597298 0.997114
vt 0.595122 0.997114
vt 0.595122 0.002886
vt 0.597298 0.002886
vt 0.523435 0.997114
vt 0.523435 0.002886
vt 0.627059 0.358606
vt 0.627289 0.360782
vt 0.627289 0.350659
vt 0.627059 0.352834
vt 0.625964 0.474475
vt 0.625796 0.471677
vt 0.627095 0.471240
vt 0.627289 0.474475
vt 0.296222 0.997114
vt 0.296222 0.002886
vt 0.358085 0.002886
vt 0.358085 0.997114
vt 0.625964 0.536338
vt 0.627289 0.536338
vt 0.111663 0.997114
vt 0.111663 0.002886
vt 0.173526 0.002886
vt 0.173526 0.997114
vt 0.627095 0.639363
vt 0.626520 0.642470
vt 0.625299 0.641612
vt 0.625796 0.638926
vt 0.360882 0.002886
vt 0.360882 0.997114
vt 0.108428 0.997114
vt 0.108428 0.002886
vt 0.627289 0.636128
vt 0.625964 0.636128
vt 0.625587 0.645325
vt 0.624492 0.644081
vt 0.625299 0.468991
vt 0.626520 0.468133
vt 0.363568 0.002886
vt 0.363568 0.997114
vt 0.105322 0.997114
vt 0.105322 0.002886
vt 0.366037 0.002886
vt 0.368191 0.002886
vt 0.368191 0.997114
vt 0.366037 0.997114
vt 0.624492 0.466522
vt 0.625587 0.465278
vt 0.102467 0.997114
vt 0.102467 0.002886
vt 0.624333 0.647816
vt 0.622808 0.649843
vt 0.622089 0.647987
vt 0.623408 0.646234
vt 0.099976 0.997114
vt 0.099976 0.002886
vt 0.623408 0.464369
vt 0.624333 0.462787
vt 0.622089 0.462616
vt 0.620588 0.461334
vt 0.621072 0.459277
vt 0.622808 0.460760
vt 0.369943 0.002886
vt 0.369943 0.997114
vt 0.097949 0.997114
vt 0.097949 0.002886
vt 0.570884 0.002886
vt 0.572507 0.002886
vt 0.572507 0.997114
vt 0.570884 0.997114
vt 0.569383 0.002886
vt 0.569383 0.997114
vt 0.536434 0.997114
vt 0.534698 0.997114
vt 0.534698 0.002886
vt 0.536434 0.002886
vt 0.621072 0.651326
vt 0.620588 0.649269
vt 0.605246 0.997114
vt 0.603070 0.997114
vt 0.603070 0.002886
vt 0.605246 0.002886
vt 0.532821 0.997114
vt 0.532821 0.002886
vt 0.619195 0.652206
vt 0.618964 0.650031
vt 0.618964 0.460572
vt 0.619195 0.458397
vt 0.627095 0.539573
vt 0.625796 0.539135
vt 0.627095 0.571030
vt 0.625796 0.571468
vt 0.625299 0.568782
vt 0.626520 0.567924
vt 0.293425 0.997114
vt 0.293425 0.002886
vt 0.176761 0.002886
vt 0.176761 0.997114
vt 0.627289 0.574265
vt 0.625964 0.574265
vt 0.624492 0.566313
vt 0.625587 0.565068
vt 0.626520 0.542679
vt 0.625299 0.541821
vt 0.290739 0.997114
vt 0.290739 0.002886
vt 0.179868 0.002886
vt 0.179868 0.997114
vt 0.288270 0.002886
vt 0.288270 0.997114
vt 0.286116 0.997114
vt 0.286116 0.002886
vt 0.625587 0.545535
vt 0.624492 0.544290
vt 0.182723 0.002886
vt 0.182723 0.997114
vt 0.624333 0.562578
vt 0.623408 0.564160
vt 0.622089 0.562407
vt 0.622808 0.560551
vt 0.185214 0.002886
vt 0.185214 0.997114
vt 0.624333 0.548025
vt 0.623408 0.546443
vt 0.622089 0.548196
vt 0.622808 0.550052
vt 0.621072 0.551535
vt 0.620588 0.549479
vt 0.284364 0.997114
vt 0.284364 0.002886
vt 0.187241 0.002886
vt 0.187241 0.997114
vt 0.579903 0.002886
vt 0.579903 0.997114
vt 0.578279 0.997114
vt 0.578279 0.002886
vt 0.581403 0.002886
vt 0.581403 0.997114
vt 0.542206 0.997114
vt 0.542206 0.002886
vt 0.543941 0.002886
vt 0.543941 0.997114
vt 0.620588 0.561125
vt 0.621072 0.559068
vt 0.611017 0.997114
vt 0.611017 0.002886
vt 0.613193 0.002886
vt 0.613193 0.997114
vt 0.545819 0.002886
vt 0.545819 0.997114
vt 0.618964 0.560363
vt 0.619195 0.558187
vt 0.619195 0.552416
vt 0.618964 0.550240
s 1
usemtl wood
f 3/1/1 4/2/1 6/3/1 8/4/1
f 7/5/2 8/6/2 6/7/2 5/8/2
f 4/9/3 2/10/3 5/11/3 6/12/3
f 1/13/4 3/14/4 8/15/4 7/16/4
f 2/17/5 1/18/5 7/19/5 5/20/5
f 37/21/2 40/22/2 39/23/2
f 40/22/2 41/24/2 39/23/2
f 41/24/2 42/25/2 39/23/2
f 42/25/2 43/26/2 39/23/2
f 43/26/2 44/27/2 39/23/2
f 44/27/2 38/28/2 39/23/2
f 45/29/2 48/30/2 47/31/2
f 48/30/2 49/32/2 47/31/2
f 49/32/2 50/33/2 47/31/2
f 50/33/2 51/34/2 47/31/2
f 51/34/2 52/35/2 47/31/2
f 52/35/2 46/36/2 47/31/2
f 53/37/2 56/38/2 55/39/2
f 56/38/2 57/40/2 55/39/2
f 57/40/2 58/41/2 55/39/2
f 58/41/2 59/42/2 55/39/2
f 59/42/2 60/43/2 55/39/2
f 60/43/2 54/44/2 55/39/2
f 61/45/2 64/46/2 63/47/2
f 64/46/2 65/48/2 63/47/2
f 65/48/2 66/49/2 63/47/2
f 66/49/2 67/50/2 63/47/2
f 67/50/2 68/51/2 63/47/2
f 68/51/2 62/52/2 63/47/2
f 53/53/6 10/54/6 15/55/7 56/56/7
f 56/56/7 15/55/7 14/57/8 57/58/8
f 57/58/8 14/57/8 13/59/9 58/60/9
f 58/61/9 13/62/9 12/63/10 59/64/10
f 59/64/10 12/63/10 11/65/11 60/66/11
f 60/66/11 11/65/11 9/67/12 54/68/12
f 30/69/13 46/70/13 52/71/14 32/72/14
f 32/72/14 52/71/14 51/73/15 33/74/15
f 33/74/15 51/73/15 50/75/16 34/76/16
f 34/77/16 50/78/16 49/79/17 35/80/17
f 35/80/17 49/79/17 48/81/18 36/82/18
f 36/82/18 48/81/18 45/83/19 31/84/19
f 37/85/20 17/86/20 22/87/21 40/88/21
f 40/88/21 22/87/21 21/89/22 41/90/22
f 41/90/22 21/89/22 20/91/23 42/92/23
f 42/93/23 20/94/23 19/95/24 43/96/24
f 43/96/24 19/95/24 18/97/25 44/98/25
f 44/98/25 18/97/25 16/99/26 38/100/26
f 61/101/27 24/102/27 29/103/28 64/104/28
f 64/104/28 29/103/28 28/105/29 65/106/29
f 65/106/29 28/105/29 27/107/30 66/108/30
f 66/109/30 27/110/30 26/111/31 67/112/31
f 67/112/31 26/111/31 25/113/32 68/114/32
f 68/114/32 25/113/32 23/115/33 62/116/33
f 24/102/27 61/101/27 54/68/12 9/67/12
f 10/54/6 53/53/6 38/100/26 16/99/26
f 23/117/34 25/118/34 26/119/34 27/120/34 28/121/34 29/122/34 24/123/34 9/124/34 11/125/34 12/126/34 13/127/34 14/128/34 15/129/34 10/130/34 16/131/34 18/132/34 19/133/34 20/134/34 21/135/34 22/136/34 17/137/34 30/138/34 32/139/34 33/140/34 34/141/34 35/142/34 36/143/34 31/144/34
f 17/86/20 37/85/20 46/70/13 30/69/13
f 31/84/19 45/83/19 62/116/33 23/115/33
f 2/145/2 39/23/2 38/28/2
f 4/146/2 47/31/2 46/36/2
f 3/147/2 63/47/2 62/52/2
f 1/148/2 55/39/2 54/44/2
f 55/39/2 1/148/2 53/37/2
f 1/148/2 2/145/2 38/28/2 53/37/2
f 47/31/2 4/146/2 45/29/2
f 2/145/2 4/146/2 46/36/2 37/21/2
f 39/23/2 2/145/2 37/21/2
f 4/146/2 3/147/2 62/52/2 45/29/2
f 63/47/2 3/147/2 61/45/2
f 3/147/2 1/148/2 54/44/2 61/45/2
f 71/149/34 69/150/34 73/151/34 75/152/34
f 103/153/3 71/154/3 72/155/3 104/156/3
f 103/157/34 101/158/34 69/150/34 71/149/34
f 69/159/4 101/160/4 102/161/4 70/162/4
f 74/163/2 76/164/2 80/165/2 78/166/2
f 72/155/35 71/154/35 75/167/36 76/168/36
f 69/159/37 70/162/37 74/169/38 73/170/38
f 70/171/2 72/172/2 76/164/2 74/163/2
f 78/166/2 80/165/2 84/173/2 82/174/2
f 75/152/34 73/151/34 77/175/34 79/176/34
f 76/168/36 75/167/36 79/177/39 80/178/39
f 73/170/38 74/169/38 78/179/40 77/180/40
f 84/181/41 83/182/41 87/183/42 88/184/42
f 79/176/34 77/175/34 81/185/34 83/186/34
f 80/178/39 79/177/39 83/182/41 84/181/41
f 77/180/40 78/179/40 82/187/43 81/188/43
f 86/189/2 88/190/2 92/191/2 90/192/2
f 81/188/43 82/187/43 86/193/44 85/194/44
f 82/174/2 84/173/2 88/190/2 86/189/2
f 83/186/34 81/185/34 85/195/34 87/196/34
f 91/197/34 89/198/34 93/199/34 95/200/34
f 87/196/34 85/195/34 89/198/34 91/197/34
f 88/184/42 87/183/42 91/201/45 92/202/45
f 85/194/44 86/193/44 90/203/46 89/204/46
f 96/205/47 95/206/47 99/207/48 100/208/48
f 92/209/45 91/210/45 95/206/47 96/205/47
f 89/211/46 90/212/46 94/213/49 93/214/49
f 90/192/2 92/191/2 96/215/2 94/216/2
f 97/217/50 98/218/50 100/219/51 99/220/51
f 93/214/49 94/213/49 98/221/50 97/222/50
f 94/216/2 96/215/2 100/223/2 98/224/2
f 95/200/34 93/199/34 97/225/34 99/226/34
f 103/157/34 107/227/34 105/228/34 101/158/34
f 106/229/2 110/230/2 112/231/2 108/232/2
f 104/156/52 108/233/53 107/234/53 103/153/52
f 101/160/54 105/235/55 106/236/55 102/161/54
f 102/237/2 106/229/2 108/232/2 104/238/2
f 110/230/2 114/239/2 116/240/2 112/231/2
f 107/227/34 111/241/34 109/242/34 105/228/34
f 108/233/53 112/243/56 111/244/56 107/234/53
f 105/235/55 109/245/57 110/246/57 106/236/55
f 116/247/58 120/248/59 119/249/59 115/250/58
f 111/241/34 115/251/34 113/252/34 109/242/34
f 112/243/56 116/247/58 115/250/58 111/244/56
f 109/245/57 113/253/60 114/254/60 110/246/57
f 118/255/2 122/256/2 124/257/2 120/258/2
f 113/253/60 117/259/61 118/260/61 114/254/60
f 114/239/2 118/255/2 120/258/2 116/240/2
f 115/251/34 119/261/34 117/262/34 113/252/34
f 123/263/34 127/264/34 125/265/34 121/266/34
f 119/261/34 123/263/34 121/266/34 117/262/34
f 120/248/59 124/267/62 123/268/62 119/249/59
f 117/259/61 121/269/63 122/270/63 118/260/61
f 128/271/64 132/272/65 131/273/65 127/274/64
f 124/275/62 128/271/64 127/274/64 123/276/62
f 121/277/63 125/278/66 126/279/66 122/280/63
f 122/256/2 126/281/2 128/282/2 124/257/2
f 129/283/67 131/284/68 132/285/68 130/286/67
f 125/278/66 129/287/67 130/288/67 126/279/66
f 126/281/2 130/289/2 132/290/2 128/282/2
f 127/264/34 131/291/34 129/292/34 125/265/34
f 70/171/2 102/237/2 104/238/2 72/172/2
f 135/293/34 139/294/34 137/295/34 133/296/34
f 167/297/4 168/298/4 136/299/4 135/300/4
f 167/301/34 135/293/34 133/296/34 165/302/34
f 133/303/3 134/304/3 166/305/3 165/306/3
f 138/307/2 142/308/2 144/309/2 140/310/2
f 136/299/54 140/311/55 139/312/55 135/300/54
f 133/303/52 137/313/53 138/314/53 134/304/52
f 134/315/2 138/307/2 140/310/2 136/316/2
f 142/308/2 146/317/2 148/318/2 144/309/2
f 139/294/34 143/319/34 141/320/34 137/295/34
f 140/311/55 144/321/57 143/322/57 139/312/55
f 137/313/53 141/323/56 142/324/56 138/314/53
f 148/325/60 152/326/61 151/327/61 147/328/60
f 143/319/34 147/329/34 145/330/34 141/320/34
f 144/321/57 148/325/60 147/328/60 143/322/57
f 141/323/56 145/331/58 146/332/58 142/324/56
f 150/333/2 154/334/2 156/335/2 152/336/2
f 145/331/58 149/337/59 150/338/59 146/332/58
f 146/317/2 150/333/2 152/336/2 148/318/2
f 147/329/34 151/339/34 149/340/34 145/330/34
f 155/341/34 159/342/34 157/343/34 153/344/34
f 151/339/34 155/341/34 153/344/34 149/340/34
f 152/326/61 156/345/63 155/346/63 151/327/61
f 149/337/59 153/347/62 154/348/62 150/338/59
f 160/349/66 164/350/69 163/351/69 159/352/66
f 156/353/63 160/349/66 159/352/66 155/354/63
f 153/355/62 157/356/64 158/357/64 154/358/62
f 154/334/2 158/359/2 160/360/2 156/335/2
f 161/361/70 163/362/71 164/363/71 162/364/70
f 157/356/64 161/365/70 162/366/70 158/357/64
f 158/359/2 162/367/2 164/368/2 160/360/2
f 159/342/34 163/369/34 161/370/34 157/343/34
f 167/301/34 165/302/34 169/371/34 171/372/34
f 170/373/2 172/374/2 176/375/2 174/376/2
f 168/298/37 167/297/37 171/377/38 172/378/38
f 165/306/35 166/305/35 170/379/36 169/380/36
f 166/381/2 168/382/2 172/374/2 170/373/2
f 174/376/2 176/375/2 180/383/2 178/384/2
f 171/372/34 169/371/34 173/385/34 175/386/34
f 172/378/38 171/377/38 175/387/40 176/388/40
f 169/380/36 170/379/36 174/389/39 173/390/39
f 180/391/43 179/392/43 183/393/44 184/394/44
f 175/386/34 173/385/34 177/395/34 179/396/34
f 176/388/40 175/387/40 179/392/43 180/391/43
f 173/390/39 174/389/39 178/397/41 177/398/41
f 182/399/2 184/400/2 188/401/2 186/402/2
f 177/398/41 178/397/41 182/403/42 181/404/42
f 178/384/2 180/383/2 184/400/2 182/399/2
f 179/396/34 177/395/34 181/405/34 183/406/34
f 187/407/34 185/408/34 189/409/34 191/410/34
f 183/406/34 181/405/34 185/408/34 187/407/34
f 184/394/44 183/393/44 187/411/46 188/412/46
f 181/404/42 182/403/42 186/413/45 185/414/45
f 192/415/49 191/416/49 195/417/72 196/418/72
f 188/419/46 187/420/46 191/416/49 192/415/49
f 185/421/45 186/422/45 190/423/47 189/424/47
f 186/402/2 188/401/2 192/425/2 190/426/2
f 193/427/73 194/428/73 196/429/74 195/430/74
f 189/424/47 190/423/47 194/431/73 193/432/73
f 190/426/2 192/425/2 196/433/2 194/434/2
f 191/410/34 189/409/34 193/435/34 195/436/34
f 134/315/2 136/316/2 168/382/2 166/381/2
