# Blender 4.5.3 LTS
# www.blender.org
mtllib monitor.mtl
o monitor
v 0.106250 0.000000 -0.225000
v 0.125000 0.000000 -0.191250
v 0.112044 0.000000 -0.223348
v 0.117271 0.000000 -0.218554
v 0.121419 0.000000 -0.211088
v 0.124082 0.000000 -0.201679
v 0.125000 0.000000 0.191250
v 0.106250 0.000000 0.225000
v 0.124082 0.000000 0.201679
v 0.121419 0.000000 0.211088
v 0.117271 0.000000 0.218554
v 0.112044 0.000000 0.223348
v -0.125000 0.000000 -0.191250
v -0.106250 0.000000 -0.225000
v -0.124082 0.000000 -0.201679
v -0.121419 0.000000 -0.211088
v -0.117271 0.000000 -0.218554
v -0.112044 0.000000 -0.223348
v -0.106250 0.000000 0.225000
v -0.125000 0.000000 0.191250
v -0.112044 0.000000 0.223348
v -0.117271 0.000000 0.218554
v -0.121419 0.000000 0.211088
v -0.124082 0.000000 0.201679
v 0.106250 0.015000 0.225000
v 0.125000 0.015000 0.191250
v 0.112044 0.015000 0.223348
v 0.117271 0.015000 0.218554
v 0.121419 0.015000 0.211088
v 0.124082 0.015000 0.201679
v -0.125000 0.015000 0.191250
v -0.106250 0.015000 0.225000
v -0.124082 0.015000 0.201679
v -0.121419 0.015000 0.211088
v -0.117271 0.015000 0.218554
v -0.112044 0.015000 0.223348
v 0.125000 0.015000 -0.191250
v 0.106250 0.015000 -0.225000
v 0.124082 0.015000 -0.201679
v 0.121419 0.015000 -0.211088
v 0.117271 0.015000 -0.218554
v 0.112044 0.015000 -0.223348
v -0.106250 0.015000 -0.225000
v -0.125000 0.015000 -0.191250
v -0.112044 0.015000 -0.223348
v -0.117271 0.015000 -0.218554
v -0.121419 0.015000 -0.211088
v -0.124082 0.015000 -0.201679
v -0.047065 0.015000 -0.020000
v -0.047065 0.281667 -0.024000
v -0.039412 0.015000 -0.018478
v -0.037881 0.281667 -0.022173
v -0.032923 0.015000 -0.014142
v -0.030095 0.281667 -0.016971
v -0.028588 0.015000 -0.007654
v -0.024892 0.281667 -0.009184
v -0.027065 0.015000 0.000000
v -0.023065 0.281667 0.000000
v -0.028588 0.015000 0.007654
v -0.024892 0.281667 0.009184
v -0.032923 0.015000 0.014142
v -0.030095 0.281667 0.016971
v -0.039412 0.015000 0.018478
v -0.037881 0.281667 0.022173
v -0.047065 0.015000 0.020000
v -0.047065 0.281667 0.024000
v -0.054719 0.015000 0.018478
v -0.056250 0.281667 0.022173
v -0.061208 0.015000 0.014142
v -0.064036 0.281667 0.016971
v -0.065543 0.015000 0.007654
v -0.069238 0.281667 0.009184
v -0.067065 0.015000 0.000000
v -0.071065 0.281667 0.000000
v -0.065543 0.015000 -0.007654
v -0.069238 0.281667 -0.009184
v -0.061208 0.015000 -0.014142
v -0.064036 0.281667 -0.016971
v -0.054719 0.015000 -0.018478
v -0.056250 0.281667 -0.022173
v -0.046271 0.288720 -0.024000
v -0.037317 0.286676 -0.022173
v -0.029726 0.284944 -0.016971
v -0.024654 0.283786 -0.009184
v -0.022872 0.283380 0.000000
v -0.024654 0.283786 0.009184
v -0.029726 0.284944 0.016971
v -0.037317 0.286676 0.022173
v -0.046271 0.288720 0.024000
v -0.055225 0.290764 0.022173
v -0.062816 0.292496 0.016971
v -0.067888 0.293654 0.009184
v -0.069669 0.294061 0.000000
v -0.067888 0.293654 -0.009184
v -0.062816 0.292496 -0.016971
v -0.055225 0.290764 -0.022173
v -0.043927 0.295419 -0.024000
v -0.035652 0.291434 -0.022173
v -0.028637 0.288056 -0.016971
v -0.023949 0.285799 -0.009184
v -0.022303 0.285006 0.000000
v -0.023949 0.285799 0.009184
v -0.028637 0.288056 0.016971
v -0.035652 0.291434 0.022173
v -0.043927 0.295419 0.024000
v -0.052201 0.299404 0.022173
v -0.059217 0.302783 0.016971
v -0.063904 0.305040 0.009184
v -0.065550 0.305833 0.000000
v -0.063904 0.305040 -0.009184
v -0.059217 0.302783 -0.016971
v -0.052201 0.299404 -0.022173
v -0.040150 0.301429 -0.024000
v -0.032970 0.295703 -0.022173
v -0.026882 0.290848 -0.016971
v -0.022815 0.287604 -0.009184
v -0.021387 0.286465 0.000000
v -0.022815 0.287604 0.009184
v -0.026882 0.290848 0.016971
v -0.032970 0.295703 0.022173
v -0.040150 0.301429 0.024000
v -0.047331 0.307155 0.022173
v -0.053419 0.312010 0.016971
v -0.057486 0.315254 0.009184
v -0.058914 0.316393 0.000000
v -0.057486 0.315254 -0.009184
v -0.053419 0.312010 -0.016971
v -0.047331 0.307155 -0.022173
v -0.035132 0.306448 -0.024000
v -0.029405 0.299267 -0.022173
v -0.024551 0.293179 -0.016971
v -0.021307 0.289112 -0.009184
v -0.020168 0.287684 0.000000
v -0.021307 0.289112 0.009184
v -0.024551 0.293179 0.016971
v -0.029405 0.299267 0.022173
v -0.035132 0.306448 0.024000
v -0.040858 0.313628 0.022173
v -0.045713 0.319716 0.016971
v -0.048957 0.323783 0.009184
v -0.050096 0.325212 0.000000
v -0.048957 0.323783 -0.009184
v -0.045713 0.319716 -0.016971
v -0.040858 0.313628 -0.022173
v -0.029122 0.310224 -0.024000
v -0.025137 0.301949 -0.022173
v -0.021759 0.294934 -0.016971
v -0.019502 0.290246 -0.009184
v -0.018709 0.288600 0.000000
v -0.019502 0.290246 0.009184
v -0.021759 0.294934 0.016971
v -0.025137 0.301949 0.022173
v -0.029122 0.310224 0.024000
v -0.033107 0.318499 0.022173
v -0.036485 0.325514 0.016971
v -0.038743 0.330201 0.009184
v -0.039535 0.331847 0.000000
v -0.038743 0.330201 -0.009184
v -0.036485 0.325514 -0.016971
v -0.033107 0.318499 -0.022173
v -0.022423 0.312568 -0.024000
v -0.020379 0.303614 -0.022173
v -0.018647 0.296023 -0.016971
v -0.017489 0.290951 -0.009184
v -0.017083 0.289170 0.000000
v -0.017489 0.290951 0.009184
v -0.018647 0.296023 0.016971
v -0.020379 0.303614 0.022173
v -0.022423 0.312568 0.024000
v -0.024467 0.321522 0.022173
v -0.026199 0.329113 0.016971
v -0.027357 0.334185 0.009184
v -0.027764 0.335966 0.000000
v -0.027357 0.334185 -0.009184
v -0.026199 0.329113 -0.016971
v -0.024467 0.321522 -0.022173
v -0.015370 0.313362 -0.024000
v -0.015370 0.304178 -0.022173
v -0.015370 0.296392 -0.016971
v -0.015370 0.291189 -0.009184
v -0.015370 0.289363 0.000000
v -0.015370 0.291189 0.009184
v -0.015370 0.296392 0.016971
v -0.015370 0.304178 0.022173
v -0.015370 0.313362 0.024000
v -0.015370 0.322547 0.022173
v -0.015370 0.330333 0.016971
v -0.015370 0.335536 0.009184
v -0.015370 0.337362 0.000000
v -0.015370 0.335536 -0.009184
v -0.015370 0.330333 -0.016971
v -0.015370 0.322547 -0.022173
v -0.012290 0.391244 -0.080000
v -0.001749 0.231591 -0.080000
v -0.012290 0.391244 0.080000
v -0.001749 0.231591 0.080000
v -0.022269 0.390585 -0.080000
v -0.011727 0.230933 -0.080000
v -0.022269 0.390585 0.080000
v -0.011727 0.230933 0.080000
v -0.022832 0.550896 0.360000
v -0.022832 0.550896 -0.360000
v 0.008793 0.071939 -0.360000
v 0.008793 0.071939 0.360000
v -0.012327 0.543572 0.352000
v -0.012327 0.543572 -0.352000
v 0.018244 0.080581 -0.352000
v 0.018244 0.080581 0.352000
v -0.012854 0.551555 0.360000
v -0.012854 0.551555 -0.360000
v 0.018771 0.072598 -0.360000
v 0.018771 0.072598 0.360000
v -0.017316 0.543243 0.352000
v -0.017316 0.543243 -0.352000
v 0.013255 0.080251 -0.352000
v 0.013255 0.080251 0.352000
vn 0.9990 -0.0000 -0.0439
vn 0.9835 -0.0000 -0.1808
vn 0.9243 -0.0000 -0.3816
vn 0.7852 -0.0000 -0.6193
vn 0.4881 -0.0000 -0.8728
vn 0.1384 -0.0000 -0.9904
vn -0.1384 -0.0000 0.9904
vn -0.4881 -0.0000 0.8728
vn -0.7852 -0.0000 0.6193
vn -0.9243 -0.0000 0.3816
vn -0.9835 -0.0000 0.1808
vn -0.9990 -0.0000 0.0439
vn 0.1384 -0.0000 0.9904
vn 0.4881 -0.0000 0.8728
vn 0.7852 -0.0000 0.6193
vn 0.9243 -0.0000 0.3816
vn 0.9835 -0.0000 0.1808
vn 0.9990 -0.0000 0.0439
vn -0.1384 -0.0000 -0.9904
vn -0.4881 -0.0000 -0.8728
vn -0.7852 -0.0000 -0.6193
vn -0.9243 -0.0000 -0.3816
vn -0.9835 -0.0000 -0.1808
vn -0.9990 -0.0000 -0.0439
vn -0.0000 -1.0000 -0.0000
vn -0.0000 1.0000 -0.0000
vn -0.0000 -0.0150 -0.9999
vn -0.0070 -0.0067 -1.0000
vn 0.3765 -0.0284 -0.9260
vn 0.3826 -0.0150 -0.9238
vn 0.7028 -0.0470 -0.7099
vn 0.7070 -0.0150 -0.7070
vn 0.9212 -0.0595 -0.3845
vn 0.9238 -0.0150 -0.3826
vn 0.9980 -0.0639 -0.0000
vn 0.9999 -0.0150 -0.0000
vn 0.9212 -0.0595 0.3845
vn 0.9238 -0.0150 0.3826
vn 0.7028 -0.0470 0.7099
vn 0.7070 -0.0150 0.7070
vn 0.3765 -0.0284 0.9260
vn 0.3826 -0.0150 0.9238
vn -0.0070 -0.0067 1.0000
vn -0.0000 -0.0150 0.9999
vn -0.3885 0.0147 0.9213
vn -0.3826 -0.0150 0.9238
vn -0.7101 0.0324 0.7033
vn -0.7070 -0.0150 0.7070
vn -0.9240 0.0441 0.3799
vn -0.9238 -0.0150 0.3826
vn -0.9988 0.0482 -0.0000
vn -0.9999 -0.0150 -0.0000
vn -0.9240 0.0441 -0.3799
vn -0.9238 -0.0150 -0.3826
vn -0.7101 0.0324 -0.7033
vn -0.7070 -0.0150 -0.7070
vn -0.3885 0.0147 -0.9213
vn -0.6960 0.1589 -0.7002
vn -0.3846 0.0878 -0.9189
vn -0.3826 -0.0150 -0.9238
vn -0.9027 0.2060 0.3779
vn -0.6960 0.1589 0.7002
vn -0.6432 0.3098 0.7002
vn -0.8342 0.4017 0.3779
vn 0.6825 -0.1558 -0.7141
vn 0.8987 -0.2051 -0.3877
vn 0.3614 -0.0825 0.9288
vn -0.0136 0.0031 0.9999
vn -0.0136 0.0031 -0.9999
vn 0.3614 -0.0825 -0.9288
vn -0.9749 0.2225 -0.0000
vn -0.9027 0.2060 -0.3779
vn 0.8987 -0.2051 0.3877
vn 0.6825 -0.1558 0.7141
vn 0.9749 -0.2225 -0.0000
vn -0.3846 0.0878 0.9189
vn 0.3340 -0.1608 -0.9288
vn -0.0125 0.0060 -0.9999
vn -0.0109 0.0087 -0.9999
vn 0.2898 -0.2311 -0.9288
vn 0.8305 -0.3999 -0.3877
vn 0.9010 -0.4339 -0.0000
vn -0.9010 0.4339 -0.0000
vn 0.8305 -0.4000 0.3877
vn -0.8342 0.4017 -0.3779
vn 0.6307 -0.3037 0.7141
vn -0.6432 0.3098 -0.7002
vn 0.3340 -0.1608 0.9288
vn -0.3554 0.1711 -0.9189
vn -0.0125 0.0060 0.9999
vn -0.3554 0.1711 0.9189
vn 0.6307 -0.3037 -0.7141
vn 0.5473 -0.4365 0.7141
vn 0.7207 -0.5747 0.3877
vn 0.5747 -0.7207 0.3877
vn 0.4365 -0.5473 0.7141
vn -0.3084 0.2459 -0.9189
vn -0.0109 0.0087 0.9999
vn -0.3084 0.2459 0.9189
vn 0.5473 -0.4365 -0.7141
vn -0.5582 0.4451 0.7002
vn 0.7207 -0.5747 -0.3877
vn -0.7239 0.5773 0.3779
vn 0.7818 -0.6235 -0.0000
vn -0.7818 0.6235 -0.0000
vn -0.7239 0.5773 -0.3779
vn -0.5582 0.4451 -0.7002
vn 0.2898 -0.2311 0.9288
vn -0.5773 0.7239 0.3779
vn -0.4451 0.5582 0.7002
vn -0.3098 0.6432 0.7002
vn -0.4017 0.8342 0.3779
vn -0.5773 0.7239 -0.3779
vn -0.4451 0.5582 -0.7002
vn 0.2311 -0.2898 0.9288
vn -0.2459 0.3084 -0.9189
vn -0.0087 0.0109 0.9999
vn -0.0087 0.0109 -0.9999
vn 0.2311 -0.2898 -0.9288
vn -0.2459 0.3084 0.9189
vn 0.4365 -0.5473 -0.7141
vn 0.5747 -0.7207 -0.3877
vn 0.6235 -0.7818 -0.0000
vn -0.6235 0.7818 -0.0000
vn -0.0060 0.0125 -0.9999
vn -0.1711 0.3554 -0.9189
vn -0.0878 0.3846 -0.9189
vn -0.0031 0.0136 -0.9999
vn 0.3999 -0.8305 -0.3877
vn 0.4339 -0.9010 -0.0000
vn -0.4339 0.9010 -0.0000
vn 0.3999 -0.8305 0.3877
vn -0.4017 0.8342 -0.3779
vn 0.3037 -0.6307 0.7141
vn -0.3098 0.6432 -0.7002
vn 0.1608 -0.3340 0.9288
vn -0.0060 0.0125 0.9999
vn 0.1608 -0.3340 -0.9288
vn -0.1711 0.3554 0.9189
vn 0.3037 -0.6307 -0.7141
vn -0.1589 0.6960 -0.7002
vn -0.2060 0.9027 -0.3779
vn -0.1038 0.9209 -0.3758
vn -0.0802 0.7116 -0.6980
vn -0.0031 0.0136 0.9999
vn -0.0878 0.3846 0.9189
vn 0.0825 -0.3614 -0.9288
vn 0.1558 -0.6825 -0.7141
vn -0.1589 0.6960 0.7002
vn 0.2051 -0.8987 -0.3877
vn -0.2060 0.9027 0.3779
vn 0.2225 -0.9749 -0.0000
vn -0.2225 0.9749 -0.0000
vn 0.2051 -0.8987 0.3877
vn 0.1558 -0.6825 0.7141
vn 0.0825 -0.3614 0.9288
vn 1.0000 -0.0000 -0.0000
vn 0.0786 -0.6978 0.7119
vn 0.0417 -0.3704 0.9280
vn -0.0444 0.3941 -0.9180
vn -0.0016 0.0139 0.9999
vn -0.0016 0.0139 -0.9999
vn 0.0417 -0.3704 -0.9280
vn -0.0444 0.3941 0.9180
vn 0.0786 -0.6978 -0.7119
vn -0.0802 0.7116 0.6980
vn 0.1033 -0.9169 -0.3856
vn -0.1038 0.9209 0.3758
vn 0.1120 -0.9937 -0.0000
vn -0.1120 0.9937 -0.0000
vn 0.1033 -0.9169 0.3856
vn -0.9978 -0.0659 -0.0000
vn -0.0000 -0.0000 1.0000
vn -0.0000 -0.0000 -1.0000
vn -0.0659 0.9978 -0.0000
vn 0.0659 -0.9978 -0.0000
vn 0.9978 0.0659 -0.0000
vt 0.286449 0.316052
vt 0.317615 0.316052
vt 0.317620 0.317497
vt 0.286454 0.317497
vt 0.317635 0.318801
vt 0.286469 0.318801
vt 0.286449 0.132745
vt 0.317623 0.132745
vt 0.317623 0.133779
vt 0.286449 0.133779
vt 0.317623 0.135083
vt 0.286449 0.135083
vt 0.317623 0.136528
vt 0.286449 0.136528
vt 0.317623 0.200309
vt 0.286449 0.200309
vt 0.286449 0.198864
vt 0.317623 0.198864
vt 0.286449 0.197561
vt 0.317623 0.197561
vt 0.286449 0.196526
vt 0.317623 0.196526
vt 0.317616 0.380513
vt 0.286449 0.380513
vt 0.286463 0.379210
vt 0.317630 0.379210
vt 0.286468 0.377765
vt 0.317635 0.377765
vt 0.286449 0.253305
vt 0.317623 0.253305
vt 0.317623 0.254750
vt 0.286449 0.254750
vt 0.317623 0.256054
vt 0.286449 0.256054
vt 0.317623 0.257088
vt 0.286449 0.257088
vt 0.286469 0.260308
vt 0.317635 0.260308
vt 0.317620 0.261611
vt 0.286454 0.261611
vt 0.317615 0.263056
vt 0.286449 0.263056
vt 0.286449 0.189524
vt 0.317623 0.189524
vt 0.317623 0.190969
vt 0.286449 0.190969
vt 0.317623 0.192272
vt 0.286449 0.192272
vt 0.317623 0.193307
vt 0.286449 0.193307
vt 0.286449 0.322020
vt 0.317616 0.322020
vt 0.317630 0.323324
vt 0.286463 0.323324
vt 0.317635 0.324769
vt 0.286468 0.324769
vt 0.345960 0.059282
vt 0.345741 0.060727
vt 0.345107 0.062030
vt 0.344120 0.063065
vt 0.342875 0.063729
vt 0.341496 0.063958
vt 0.290912 0.063958
vt 0.289533 0.063729
vt 0.288289 0.063065
vt 0.287301 0.062030
vt 0.286668 0.060727
vt 0.286449 0.059282
vt 0.286449 0.006286
vt 0.286668 0.004841
vt 0.287301 0.003537
vt 0.288289 0.002503
vt 0.289533 0.001839
vt 0.290912 0.001610
vt 0.341496 0.001610
vt 0.342875 0.001839
vt 0.344120 0.002503
vt 0.345107 0.003537
vt 0.345741 0.004841
vt 0.345960 0.006286
vt 0.290793 0.129525
vt 0.289451 0.129296
vt 0.288240 0.128632
vt 0.287279 0.127598
vt 0.286662 0.126294
vt 0.286449 0.124849
vt 0.286449 0.071853
vt 0.286662 0.070408
vt 0.287279 0.069105
vt 0.288240 0.068070
vt 0.289451 0.067406
vt 0.290793 0.067177
vt 0.340022 0.067177
vt 0.341365 0.067406
vt 0.342575 0.068070
vt 0.343536 0.069105
vt 0.344153 0.070408
vt 0.344366 0.071853
vt 0.344366 0.124849
vt 0.344153 0.126294
vt 0.343536 0.127598
vt 0.342575 0.128632
vt 0.341365 0.129296
vt 0.340022 0.129525
vt 0.232857 0.671599
vt 0.229653 0.117403
vt 0.231944 0.117389
vt 0.234766 0.671588
vt 0.233886 0.117378
vt 0.236384 0.671578
vt 0.235183 0.117371
vt 0.237465 0.671572
vt 0.355156 0.573551
vt 0.354944 0.019465
vt 0.356216 0.019455
vt 0.356216 0.573543
vt 0.357489 0.019465
vt 0.357277 0.573551
vt 0.207562 0.671572
vt 0.209845 0.117371
vt 0.211142 0.117378
vt 0.208644 0.671578
vt 0.213084 0.117389
vt 0.210262 0.671588
vt 0.215374 0.117403
vt 0.212171 0.671599
vt 0.217665 0.117416
vt 0.214079 0.671610
vt 0.219607 0.117427
vt 0.215697 0.671619
vt 0.220904 0.117435
vt 0.216779 0.671626
vt 0.349391 0.660087
vt 0.349179 0.106033
vt 0.350452 0.106042
vt 0.350452 0.660096
vt 0.351724 0.106033
vt 0.351512 0.660087
vt 0.228249 0.671626
vt 0.224124 0.117435
vt 0.225421 0.117427
vt 0.229330 0.671619
vt 0.227363 0.117416
vt 0.225595 0.094920
vt 0.227509 0.098510
vt 0.230949 0.671610
vt 0.336750 0.187931
vt 0.337170 0.186145
vt 0.337944 0.184680
vt 0.338956 0.183758
vt 0.340051 0.183520
vt 0.341062 0.184002
vt 0.341837 0.185131
vt 0.342256 0.186734
vt 0.342256 0.188568
vt 0.341837 0.190354
vt 0.341062 0.191819
vt 0.340051 0.192741
vt 0.338956 0.192979
vt 0.337944 0.192497
vt 0.337170 0.191368
vt 0.336750 0.189765
vt 0.220711 0.092521
vt 0.219433 0.094920
vt 0.218658 0.073538
vt 0.219855 0.068853
vt 0.233938 0.110568
vt 0.235217 0.112967
vt 0.213003 0.106978
vt 0.215261 0.102744
vt 0.229767 0.102744
vt 0.232024 0.106978
vt 0.350452 0.080284
vt 0.351724 0.081119
vt 0.209811 0.112967
vt 0.211089 0.110568
vt 0.354944 0.015061
vt 0.356216 0.015896
vt 0.217519 0.098510
vt 0.224317 0.092521
vt 0.349179 0.081119
vt 0.357489 0.015061
vt 0.232383 0.097088
vt 0.230271 0.088818
vt 0.231141 0.076323
vt 0.233000 0.088214
vt 0.354944 0.010876
vt 0.356216 0.012513
vt 0.349179 0.057441
vt 0.350452 0.055803
vt 0.357489 0.010876
vt 0.351724 0.057441
vt 0.209659 0.108783
vt 0.210855 0.104099
vt 0.225173 0.068853
vt 0.226369 0.073538
vt 0.212645 0.097088
vt 0.228159 0.080548
vt 0.214757 0.088818
vt 0.216868 0.080548
vt 0.234173 0.104099
vt 0.235369 0.108783
vt 0.210451 0.098294
vt 0.209398 0.105029
vt 0.209040 0.101894
vt 0.209898 0.093445
vt 0.229281 0.064433
vt 0.213887 0.076323
vt 0.215747 0.064433
vt 0.234577 0.098294
vt 0.217323 0.054353
vt 0.235630 0.105029
vt 0.218377 0.047618
vt 0.354944 0.007118
vt 0.356216 0.009477
vt 0.349179 0.036184
vt 0.350452 0.033825
vt 0.357489 0.007118
vt 0.351724 0.036184
vt 0.226651 0.047618
vt 0.227704 0.054353
vt 0.212028 0.088214
vt 0.216352 0.029879
vt 0.215494 0.038327
vt 0.213263 0.026265
vt 0.213882 0.016527
vt 0.228676 0.029879
vt 0.229534 0.038327
vt 0.211182 0.080801
vt 0.230817 0.050971
vt 0.212696 0.065886
vt 0.232332 0.065886
vt 0.233846 0.080801
vt 0.214210 0.050971
vt 0.235130 0.093445
vt 0.235988 0.101894
vt 0.354944 0.003977
vt 0.356216 0.006938
vt 0.349179 0.018415
vt 0.350452 0.015454
vt 0.357489 0.003977
vt 0.351724 0.018415
vt 0.233785 0.058030
vt 0.232692 0.040839
vt 0.234810 0.034543
vt 0.235428 0.053149
vt 0.354944 0.001610
vt 0.356216 0.005025
vt 0.349179 0.005025
vt 0.350452 0.001610
vt 0.357489 0.001610
vt 0.351724 0.005025
vt 0.208603 0.099534
vt 0.209223 0.089795
vt 0.231146 0.016527
vt 0.231765 0.026265
vt 0.210149 0.075221
vt 0.211243 0.058030
vt 0.234878 0.075221
vt 0.212336 0.040839
vt 0.235805 0.089795
vt 0.236424 0.099534
vt 0.234287 0.018770
vt 0.233938 0.008230
vt 0.236911 0.005406
vt 0.236973 0.016218
vt 0.209600 0.053149
vt 0.210217 0.034543
vt 0.236045 0.071754
vt 0.236568 0.087528
vt 0.210741 0.018770
vt 0.236918 0.098067
vt 0.211090 0.008230
vt 0.236642 0.102953
vt 0.237041 0.101768
vt 0.214099 0.013107
vt 0.211213 0.004530
vt 0.208386 0.102953
vt 0.207987 0.101768
vt 0.208110 0.098067
vt 0.230928 0.013107
vt 0.233815 0.004530
vt 0.208460 0.087528
vt 0.208983 0.071754
vt 0.321349 0.201728
vt 0.320843 0.182650
vt 0.320843 0.163566
vt 0.321349 0.147380
vt 0.322284 0.136557
vt 0.323506 0.132745
vt 0.324829 0.136524
vt 0.326051 0.147318
vt 0.326986 0.163484
vt 0.327493 0.182562
vt 0.327493 0.201647
vt 0.326986 0.217832
vt 0.326051 0.228655
vt 0.324829 0.232467
vt 0.323506 0.228689
vt 0.322284 0.217895
vt 0.207647 0.086756
vt 0.207741 0.070574
vt 0.237067 0.032400
vt 0.207851 0.051487
vt 0.237177 0.051487
vt 0.237287 0.070574
vt 0.207961 0.032400
vt 0.237381 0.086756
vt 0.208055 0.016218
vt 0.237443 0.097568
vt 0.208117 0.005406
vt 0.237465 0.101365
vt 0.208139 0.001610
vt 0.207562 0.101365
vt 0.207584 0.097568
vt 0.236889 0.001610
vt 0.040404 0.333274
vt 0.001610 0.001610
vt 0.101367 0.001610
vt 0.062572 0.333274
vt 0.360708 0.001610
vt 0.363208 0.002959
vt 0.363208 0.334770
vt 0.360708 0.333420
vt 0.240685 0.001610
vt 0.262853 0.001610
vt 0.262853 0.333274
vt 0.240685 0.333274
vt 0.366427 0.002959
vt 0.368927 0.001610
vt 0.368927 0.333420
vt 0.366427 0.334770
vt 0.336750 0.154913
vt 0.336750 0.132745
vt 0.339569 0.132745
vt 0.339569 0.154913
vt 0.339534 0.158133
vt 0.339534 0.180301
vt 0.336751 0.180301
vt 0.336751 0.158133
vt 0.327493 0.335444
vt 0.324709 0.335444
vt 0.324709 0.235687
vt 0.327493 0.235687
vt 0.040404 0.664939
vt 0.001610 0.996604
vt 0.101367 0.996604
vt 0.062572 0.664939
vt 0.277511 0.001610
vt 0.278760 0.002285
vt 0.278760 0.964535
vt 0.277511 0.963860
vt 0.333531 0.232502
vt 0.330712 0.232502
vt 0.330712 0.132745
vt 0.333531 0.132745
vt 0.274291 0.998390
vt 0.271792 0.997041
vt 0.271792 0.001610
vt 0.274291 0.002959
vt 0.266073 0.002959
vt 0.268572 0.001610
vt 0.268572 0.997041
vt 0.266073 0.998390
vt 0.105695 0.018193
vt 0.104586 0.001610
vt 0.204343 0.001610
vt 0.203234 0.018193
vt 0.105695 0.979998
vt 0.104586 0.996580
vt 0.203234 0.979998
vt 0.204343 0.996580
vt 0.000318 0.000318
vt 0.101620 0.000318
vt 0.101620 0.999682
vt 0.000318 0.999682
vt 0.330712 0.235721
vt 0.332122 0.235721
vt 0.332122 0.333261
vt 0.330712 0.333261
vt 0.335341 0.235721
vt 0.336733 0.235721
vt 0.336733 0.333261
vt 0.335341 0.333261
vt 0.283229 0.963860
vt 0.281980 0.964535
vt 0.281980 0.002285
vt 0.283229 0.001610
s 1
usemtl black_plastic
f 37/1/1 2/2/1 6/3/2 39/4/2
f 39/4/2 6/3/2 5/5/3 40/6/3
f 40/7/3 5/8/3 4/9/4 41/10/4
f 41/10/4 4/9/4 3/11/5 42/12/5
f 42/12/5 3/11/5 1/13/6 38/14/6
f 19/15/7 32/16/7 36/17/8 21/18/8
f 21/18/8 36/17/8 35/19/9 22/20/9
f 22/20/9 35/19/9 34/21/10 23/22/10
f 23/23/10 34/24/10 33/25/11 24/26/11
f 24/26/11 33/25/11 31/27/12 20/28/12
f 25/29/13 8/30/13 12/31/14 27/32/14
f 27/32/14 12/31/14 11/33/15 28/34/15
f 28/34/15 11/33/15 10/35/16 29/36/16
f 29/37/16 10/38/16 9/39/17 30/40/17
f 30/40/17 9/39/17 7/41/18 26/42/18
f 43/43/19 14/44/19 18/45/20 45/46/20
f 45/46/20 18/45/20 17/47/21 46/48/21
f 46/48/21 17/47/21 16/49/22 47/50/22
f 47/51/22 16/52/22 15/53/23 48/54/23
f 48/54/23 15/53/23 13/55/24 44/56/24
f 14/44/19 43/43/19 38/14/6 1/13/6
f 2/2/1 37/1/1 26/42/18 7/41/18
f 13/57/25 15/58/25 16/59/25 17/60/25 18/61/25 14/62/25 1/63/25 3/64/25 4/65/25 5/66/25 6/67/25 2/68/25 7/69/25 9/70/25 10/71/25 11/72/25 12/73/25 8/74/25 19/75/25 21/76/25 22/77/25 23/78/25 24/79/25 20/80/25
f 8/30/13 25/29/13 32/16/7 19/15/7
f 20/28/12 31/27/12 44/56/24 13/55/24
f 25/81/26 27/82/26 28/83/26 29/84/26 30/85/26 26/86/26 37/87/26 39/88/26 40/89/26 41/90/26 42/91/26 38/92/26 43/93/26 45/94/26 46/95/26 47/96/26 48/97/26 44/98/26 31/99/26 33/100/26 34/101/26 35/102/26 36/103/26 32/104/26
f 49/105/27 50/106/28 52/107/29 51/108/30
f 51/108/30 52/107/29 54/109/31 53/110/32
f 53/110/32 54/109/31 56/111/33 55/112/34
f 55/113/34 56/114/33 58/115/35 57/116/36
f 57/116/36 58/115/35 60/117/37 59/118/38
f 59/119/38 60/120/37 62/121/39 61/122/40
f 61/122/40 62/121/39 64/123/41 63/124/42
f 63/124/42 64/123/41 66/125/43 65/126/44
f 65/126/44 66/125/43 68/127/45 67/128/46
f 67/128/46 68/127/45 70/129/47 69/130/48
f 69/130/48 70/129/47 72/131/49 71/132/50
f 71/133/50 72/134/49 74/135/51 73/136/52
f 73/136/52 74/135/51 76/137/53 75/138/54
f 75/139/54 76/140/53 78/141/55 77/142/56
f 80/143/57 78/141/55 95/144/58 96/145/59
f 77/142/56 78/141/55 80/143/57 79/146/60
f 79/146/60 80/143/57 50/106/28 49/105/27
f 49/147/25 51/148/25 53/149/25 55/150/25 57/151/25 59/152/25 61/153/25 63/154/25 65/155/25 67/156/25 69/157/25 71/158/25 73/159/25 75/160/25 77/161/25 79/162/25
f 92/163/61 91/164/62 107/165/63 108/166/64
f 56/111/33 54/109/31 83/167/65 84/168/66
f 66/125/43 64/123/41 88/169/67 89/170/68
f 52/107/29 50/106/28 81/171/69 82/172/70
f 76/137/53 74/135/51 93/173/71 94/174/72
f 62/121/39 60/120/37 86/175/73 87/176/74
f 72/131/49 70/129/47 91/164/62 92/163/61
f 50/106/28 80/143/57 96/145/59 81/171/69
f 58/115/35 56/114/33 84/177/66 85/178/75
f 68/127/45 66/125/43 89/170/68 90/179/76
f 78/141/55 76/140/53 94/180/72 95/144/58
f 54/109/31 52/107/29 82/172/70 83/167/65
f 64/123/41 62/121/39 87/176/74 88/169/67
f 74/135/51 72/134/49 92/181/61 93/173/71
f 60/117/37 58/115/35 85/178/75 86/182/73
f 70/129/47 68/127/45 90/179/76 91/164/62
f 98/183/77 97/184/78 113/185/79 114/186/80
f 85/178/75 84/177/66 100/187/81 101/188/82
f 93/173/71 92/181/61 108/189/64 109/190/83
f 86/182/73 85/178/75 101/188/82 102/191/84
f 94/174/72 93/173/71 109/190/83 110/192/85
f 87/176/74 86/175/73 102/193/84 103/194/86
f 95/144/58 94/180/72 110/195/85 111/196/87
f 88/169/67 87/176/74 103/194/86 104/197/88
f 96/145/59 95/144/58 111/196/87 112/198/89
f 89/170/68 88/169/67 104/197/88 105/199/90
f 82/172/70 81/171/69 97/184/78 98/183/77
f 81/171/69 96/145/59 112/198/89 97/184/78
f 90/179/76 89/170/68 105/199/90 106/200/91
f 83/167/65 82/172/70 98/183/77 99/201/92
f 91/164/62 90/179/76 106/200/91 107/165/63
f 84/168/66 83/167/65 99/201/92 100/202/81
f 119/203/93 118/204/94 134/205/95 135/206/96
f 97/184/78 112/198/89 128/207/97 113/185/79
f 106/200/91 105/199/90 121/208/98 122/209/99
f 99/201/92 98/183/77 114/186/80 115/210/100
f 107/165/63 106/200/91 122/209/99 123/211/101
f 100/202/81 99/201/92 115/210/100 116/212/102
f 108/166/64 107/165/63 123/211/101 124/213/103
f 101/188/82 100/187/81 116/214/102 117/215/104
f 109/190/83 108/189/64 124/216/103 125/217/105
f 102/191/84 101/188/82 117/215/104 118/218/94
f 110/192/85 109/190/83 125/217/105 126/219/106
f 103/194/86 102/193/84 118/204/94 119/203/93
f 111/196/87 110/195/85 126/220/106 127/221/107
f 104/197/88 103/194/86 119/203/93 120/222/108
f 112/198/89 111/196/87 127/221/107 128/207/97
f 105/199/90 104/197/88 120/222/108 121/208/98
f 140/223/109 139/224/110 155/225/111 156/226/112
f 127/221/107 126/220/106 142/227/113 143/228/114
f 120/222/108 119/203/93 135/206/96 136/229/115
f 128/207/97 127/221/107 143/228/114 144/230/116
f 121/208/98 120/222/108 136/229/115 137/231/117
f 114/186/80 113/185/79 129/232/118 130/233/119
f 113/185/79 128/207/97 144/230/116 129/232/118
f 122/209/99 121/208/98 137/231/117 138/234/120
f 115/210/100 114/186/80 130/233/119 131/235/121
f 123/211/101 122/209/99 138/234/120 139/224/110
f 116/212/102 115/210/100 131/235/121 132/236/122
f 124/213/103 123/211/101 139/224/110 140/223/109
f 117/215/104 116/214/102 132/237/122 133/238/123
f 125/217/105 124/216/103 140/239/109 141/240/124
f 118/218/94 117/215/104 133/238/123 134/241/95
f 126/219/106 125/217/105 141/240/124 142/242/113
f 145/243/125 160/244/126 176/245/127 161/246/128
f 133/238/123 132/237/122 148/247/129 149/248/130
f 141/240/124 140/239/109 156/249/112 157/250/131
f 134/241/95 133/238/123 149/248/130 150/251/132
f 142/242/113 141/240/124 157/250/131 158/252/133
f 135/206/96 134/205/95 150/253/132 151/254/134
f 143/228/114 142/227/113 158/255/133 159/256/135
f 136/229/115 135/206/96 151/254/134 152/257/136
f 144/230/116 143/228/114 159/256/135 160/244/126
f 137/231/117 136/229/115 152/257/136 153/258/137
f 130/233/119 129/232/118 145/243/125 146/259/138
f 129/232/118 144/230/116 160/244/126 145/243/125
f 138/234/120 137/231/117 153/258/137 154/260/139
f 131/235/121 130/233/119 146/259/138 147/261/140
f 139/224/110 138/234/120 154/260/139 155/225/111
f 132/236/122 131/235/121 147/261/140 148/262/129
f 175/263/141 174/264/142 190/265/143 191/266/144
f 154/260/139 153/258/137 169/267/145 170/268/146
f 147/261/140 146/259/138 162/269/147 163/270/148
f 155/225/111 154/260/139 170/268/146 171/271/149
f 148/262/129 147/261/140 163/270/148 164/272/150
f 156/226/112 155/225/111 171/271/149 172/273/151
f 149/274/130 148/262/129 164/272/150 165/275/152
f 157/276/131 156/226/112 172/273/151 173/277/153
f 150/253/132 149/278/130 165/279/152 166/280/154
f 158/255/133 157/281/131 173/282/153 174/264/142
f 151/254/134 150/253/132 166/280/154 167/283/155
f 159/256/135 158/255/133 174/264/142 175/263/141
f 152/257/136 151/254/134 167/283/155 168/284/156
f 160/244/126 159/256/135 175/263/141 176/245/127
f 153/258/137 152/257/136 168/284/156 169/267/145
f 146/259/138 145/243/125 161/246/128 162/269/147
f 178/285/157 177/286/157 192/287/157 191/288/157 190/289/157 189/290/157 188/291/157 187/292/157 186/293/157 185/294/157 184/295/157 183/296/157 182/297/157 181/298/157 180/299/157 179/300/157
f 168/284/156 167/283/155 183/301/158 184/302/159
f 176/245/127 175/263/141 191/266/144 192/303/160
f 169/267/145 168/284/156 184/302/159 185/304/161
f 162/269/147 161/246/128 177/305/162 178/306/163
f 161/246/128 176/245/127 192/303/160 177/305/162
f 170/268/146 169/267/145 185/304/161 186/307/164
f 163/270/148 162/269/147 178/306/163 179/308/165
f 171/271/149 170/268/146 186/307/164 187/309/166
f 164/272/150 163/270/148 179/308/165 180/310/167
f 172/273/151 171/271/149 187/309/166 188/311/168
f 165/275/152 164/272/150 180/310/167 181/312/169
f 173/277/153 172/273/151 188/311/168 189/313/170
f 166/280/154 165/279/152 181/314/169 182/315/171
f 174/264/142 173/282/153 189/316/170 190/265/143
f 167/283/155 166/280/154 182/315/171 183/301/158
s 0
f 195/317/172 201/318/172 202/319/172 193/320/172
f 195/321/173 199/322/173 200/323/173 196/324/173
f 199/325/172 197/326/172 198/327/172 200/328/172
f 197/329/174 193/330/174 194/331/174 198/332/174
f 195/333/175 193/334/175 197/335/175 199/336/175
f 200/337/176 198/338/176 194/339/176 196/340/176
f 203/341/176 211/342/176 212/343/176 204/344/176
f 196/345/172 204/346/172 201/318/172 195/317/172
f 193/320/172 202/319/172 203/347/172 194/348/172
f 194/348/172 203/347/172 204/346/172 196/345/172
f 206/349/173 214/350/173 215/351/173 207/352/173
f 201/353/175 209/354/175 210/355/175 202/356/175
f 204/357/173 212/358/173 209/359/173 201/360/173
f 202/361/174 210/362/174 211/363/174 203/364/174
f 206/365/177 210/366/177 209/367/177 205/368/177
f 207/369/177 211/370/177 210/366/177 206/365/177
f 208/371/177 212/372/177 211/370/177 207/369/177
f 205/368/177 209/367/177 212/372/177 208/371/177
f 207/377/175 215/378/175 216/379/175 208/380/175
f 205/381/176 213/382/176 214/383/176 206/384/176
f 208/385/174 216/386/174 213/387/174 205/388/174
usemtl screen
f 214/373/177 213/374/177 216/375/177 215/376/177
