# Blender 4.5.3 LTS
# www.blender.org
mtllib sign_exit.mtl
o sign_exit
v 0.047500 0.030000 0.136800
v 0.060000 0.000000 0.180000
v -0.047500 0.030000 0.136800
v -0.060000 0.000000 0.180000
v 0.047500 0.030000 -0.136800
v 0.060000 0.000000 -0.180000
v -0.047500 0.030000 -0.136800
v -0.060000 0.000000 -0.180000
v -0.050000 0.030000 0.150000
v -0.050000 0.030000 -0.150000
v 0.050000 0.030000 0.150000
v 0.050000 0.030000 -0.150000
v -0.047500 0.022500 0.136800
v -0.047500 0.022500 -0.136800
v 0.047500 0.022500 0.136800
v 0.047500 0.022500 -0.136800
vn -0.0000 -0.0000 1.0000
vn -0.9487 0.3162 -0.0000
vn -0.0000 0.7071 -0.7071
vn -0.0000 -1.0000 -0.0000
vn -0.0000 0.7071 0.7071
vn 0.9487 0.3162 -0.0000
vn -0.0000 1.0000 -0.0000
vn 1.0000 -0.0000 -0.0000
vn -1.0000 -0.0000 -0.0000
vn -0.0000 -0.0000 -1.0000
vt 0.905177 0.264896
vt 0.905177 0.002133
vt 0.925921 0.002133
vt 0.925921 0.264896
vt 0.760824 0.997867
vt 0.674487 0.914889
vt 0.674487 0.085111
vt 0.760824 0.002133
vt 0.002133 0.997867
vt 0.029792 0.914889
vt 0.306385 0.914889
vt 0.334044 0.997867
vt 0.338310 0.997867
vt 0.338310 0.002133
vt 0.670221 0.002133
vt 0.670221 0.997867
vt 0.334044 0.002133
vt 0.306385 0.085111
vt 0.029792 0.085111
vt 0.002133 0.002133
vt 0.851426 0.997867
vt 0.765090 0.914889
vt 0.765090 0.085111
vt 0.851426 0.002133
vt 0.036707 0.121621
vt 0.036707 0.878379
vt 0.299470 0.121621
vt 0.299470 0.878379
vt 0.000000 0.000000
vt 1.000000 0.000000
vt 1.000000 1.000000
vt 0.000000 1.000000
vt 0.876169 0.002133
vt 0.876169 0.758891
vt 0.855692 0.758891
vt 0.855692 0.002133
vt 0.900911 0.002133
vt 0.900911 0.758891
vt 0.880435 0.758891
vt 0.880435 0.002133
vt 0.905177 0.531925
vt 0.905177 0.269162
vt 0.925921 0.269162
vt 0.925921 0.531925
s 0
usemtl white_plastic
f 5/1/1 7/2/1 14/3/1 16/4/1
f 4/5/2 9/6/2 10/7/2 8/8/2
f 8/9/3 10/10/3 12/11/3 6/12/3
f 6/13/4 2/14/4 4/15/4 8/16/4
f 2/17/5 11/18/5 9/19/5 4/20/5
f 6/21/6 12/22/6 11/23/6 2/24/6
f 3/25/7 7/26/7 10/10/7 9/19/7
f 1/27/7 3/25/7 9/19/7 11/18/7
f 7/26/7 5/28/7 12/11/7 10/10/7
f 5/28/7 1/27/7 11/18/7 12/11/7
f 7/33/8 3/34/8 13/35/8 14/36/8
f 1/37/9 5/38/9 16/39/9 15/40/9
f 3/41/10 1/42/10 15/43/10 13/44/10
usemtl exit
f 15/29/7 16/30/7 14/31/7 13/32/7
