# Blender 4.5.3 LTS
# www.blender.org
mtllib projector.mtl
o projector
v 0.063750 0.037000 -0.075000
v 0.064446 0.017977 -0.010746
v 0.063750 0.040000 -0.063750
v 0.065457 0.012700 -0.009307
v 0.075000 0.037000 -0.063750
v 0.063750 0.037927 -0.074449
v 0.063750 0.038763 -0.072852
v 0.066198 0.008836 -0.005373
v 0.067227 0.037000 -0.074449
v 0.067319 0.037957 -0.073797
v 0.066469 0.007422 0.000000
v 0.067203 0.038722 -0.072289
v 0.070361 0.037000 -0.072852
v 0.066198 0.008836 0.005373
v 0.070215 0.037923 -0.072281
v 0.069703 0.038587 -0.071213
v 0.065457 0.012700 0.009307
v 0.067227 0.039853 -0.063750
v 0.064446 0.017977 0.010746
v 0.070361 0.039427 -0.063750
v 0.063750 0.039853 -0.067227
v 0.067339 0.039679 -0.067319
v 0.063434 0.023254 0.009307
v 0.070209 0.039277 -0.067203
v 0.063750 0.039427 -0.070361
v 0.062694 0.027117 0.005373
v 0.067212 0.039275 -0.070215
v 0.069703 0.038990 -0.069703
v 0.062422 0.028531 0.000000
v 0.074449 0.037000 -0.067227
v 0.072852 0.037000 -0.070361
v 0.062694 0.027117 -0.005373
v 0.074449 0.037927 -0.063750
v 0.063434 0.023254 -0.009307
v 0.073797 0.037952 -0.067339
v 0.072289 0.037921 -0.070209
v 0.072852 0.038763 -0.063750
v 0.072281 0.038724 -0.067212
v 0.071213 0.038587 -0.069703
v 0.063750 0.000000 -0.063750
v 0.063750 0.003000 -0.075000
v 0.075000 0.003000 -0.063750
v 0.063750 0.000147 -0.067227
v 0.063750 0.000573 -0.070361
v 0.067227 0.000147 -0.063750
v 0.067319 0.000321 -0.067339
v 0.067203 0.000723 -0.070209
v 0.070361 0.000573 -0.063750
v 0.070215 0.000725 -0.067212
v 0.069703 0.001010 -0.069703
v 0.067227 0.003000 -0.074449
v 0.070361 0.003000 -0.072852
v 0.063750 0.002073 -0.074449
v 0.067339 0.002048 -0.073797
v 0.070209 0.002079 -0.072289
v 0.063750 0.001237 -0.072852
v 0.067212 0.001276 -0.072281
v 0.069703 0.001413 -0.071213
v 0.074449 0.002073 -0.063750
v 0.072852 0.001237 -0.063750
v 0.074449 0.003000 -0.067227
v 0.073797 0.002043 -0.067319
v 0.072289 0.001278 -0.067203
v 0.072852 0.003000 -0.070361
v 0.072281 0.002077 -0.070215
v 0.071213 0.001413 -0.069703
v 0.075000 0.037000 0.063750
v 0.063750 0.040000 0.063750
v 0.063750 0.037000 0.075000
v 0.074449 0.037927 0.063750
v 0.072852 0.038763 0.063750
v 0.074449 0.037000 0.067227
v 0.073797 0.037957 0.067319
v 0.072289 0.038722 0.067203
v 0.072852 0.037000 0.070361
v 0.072281 0.037923 0.070215
v 0.071213 0.038587 0.069703
v 0.063750 0.039853 0.067227
v 0.063750 0.039427 0.070361
v 0.067227 0.039853 0.063750
v 0.067319 0.039679 0.067339
v 0.067203 0.039277 0.070209
v 0.070361 0.039427 0.063750
v 0.070215 0.039275 0.067212
v 0.069703 0.038990 0.069703
v 0.067227 0.037000 0.074449
v 0.070361 0.037000 0.072852
v 0.063750 0.037927 0.074449
v 0.067339 0.037952 0.073797
v 0.070209 0.037921 0.072289
v 0.063750 0.038763 0.072852
v 0.067212 0.038724 0.072281
v 0.069703 0.038587 0.071213
v 0.075000 0.003000 0.063750
v 0.063750 0.003000 0.075000
v 0.063750 0.000000 0.063750
v 0.074449 0.003000 0.067227
v 0.072852 0.003000 0.070361
v 0.074449 0.002073 0.063750
v 0.073797 0.002048 0.067339
v 0.072289 0.002079 0.070209
v 0.072852 0.001237 0.063750
v 0.072281 0.001276 0.067212
v 0.071213 0.001413 0.069703
v 0.063750 0.002073 0.074449
v 0.063750 0.001237 0.072852
v 0.067227 0.003000 0.074449
v 0.067319 0.002043 0.073797
v 0.067203 0.001278 0.072289
v 0.070361 0.003000 0.072852
v 0.070215 0.002077 0.072281
v 0.069703 0.001413 0.071213
v 0.067227 0.000147 0.063750
v 0.070361 0.000573 0.063750
v 0.063750 0.000147 0.067227
v 0.067339 0.000321 0.067319
v 0.070209 0.000723 0.067203
v 0.063750 0.000573 0.070361
v 0.067212 0.000725 0.070215
v 0.069703 0.001010 0.069703
v -0.063750 0.037000 -0.075000
v -0.075000 0.037000 -0.063750
v -0.063750 0.040000 -0.063750
v -0.067227 0.037000 -0.074449
v -0.070361 0.037000 -0.072852
v -0.063750 0.037927 -0.074449
v -0.067339 0.037952 -0.073797
v -0.070209 0.037921 -0.072289
v -0.063750 0.038763 -0.072852
v -0.067212 0.038724 -0.072281
v -0.069703 0.038587 -0.071213
v -0.074449 0.037927 -0.063750
v -0.072852 0.038763 -0.063750
v -0.074449 0.037000 -0.067227
v -0.073797 0.037957 -0.067319
v -0.072289 0.038722 -0.067203
v -0.072852 0.037000 -0.070361
v -0.072281 0.037923 -0.070215
v -0.071213 0.038587 -0.069703
v -0.063750 0.039853 -0.067227
v -0.063750 0.039427 -0.070361
v -0.067227 0.039853 -0.063750
v -0.067319 0.039679 -0.067339
v -0.067203 0.039277 -0.070209
v -0.070361 0.039427 -0.063750
v -0.070215 0.039275 -0.067212
v -0.069703 0.038990 -0.069703
v -0.075000 0.003000 -0.063750
v -0.063750 0.003000 -0.075000
v -0.063750 0.000000 -0.063750
v -0.074449 0.003000 -0.067227
v -0.072852 0.003000 -0.070361
v -0.074449 0.002073 -0.063750
v -0.073797 0.002048 -0.067339
v -0.072289 0.002079 -0.070209
v -0.072852 0.001237 -0.063750
v -0.072281 0.001276 -0.067212
v -0.071213 0.001413 -0.069703
v -0.063750 0.002073 -0.074449
v -0.063750 0.001237 -0.072852
v -0.067227 0.003000 -0.074449
v -0.067319 0.002043 -0.073797
v -0.067203 0.001278 -0.072289
v -0.070361 0.003000 -0.072852
v -0.070215 0.002077 -0.072281
v -0.069703 0.001413 -0.071213
v -0.067227 0.000147 -0.063750
v -0.070361 0.000573 -0.063750
v -0.063750 0.000147 -0.067227
v -0.067339 0.000321 -0.067319
v -0.070209 0.000723 -0.067203
v -0.063750 0.000573 -0.070361
v -0.067212 0.000725 -0.070215
v -0.069703 0.001010 -0.069703
v -0.075000 0.037000 0.063750
v -0.063750 0.037000 0.075000
v -0.063750 0.040000 0.063750
v -0.074449 0.037000 0.067227
v -0.072852 0.037000 0.070361
v -0.074449 0.037927 0.063750
v -0.073797 0.037952 0.067339
v -0.072289 0.037921 0.070209
v -0.072852 0.038763 0.063750
v -0.072281 0.038724 0.067212
v -0.071213 0.038587 0.069703
v -0.063750 0.037927 0.074449
v -0.063750 0.038763 0.072852
v -0.067227 0.037000 0.074449
v -0.067319 0.037957 0.073797
v -0.067203 0.038722 0.072289
v -0.070361 0.037000 0.072852
v -0.070215 0.037923 0.072281
v -0.069703 0.038587 0.071213
v -0.067227 0.039853 0.063750
v -0.070361 0.039427 0.063750
v -0.063750 0.039853 0.067227
v -0.067339 0.039679 0.067319
v -0.070209 0.039277 0.067203
v -0.063750 0.039427 0.070361
v -0.067212 0.039275 0.070215
v -0.069703 0.038990 0.069703
v -0.063750 0.000000 0.063750
v -0.063750 0.003000 0.075000
v -0.075000 0.003000 0.063750
v -0.063750 0.000147 0.067227
v -0.063750 0.000573 0.070361
v -0.067227 0.000147 0.063750
v -0.067319 0.000321 0.067339
v -0.067203 0.000723 0.070209
v -0.070361 0.000573 0.063750
v -0.070215 0.000725 0.067212
v -0.069703 0.001010 0.069703
v -0.067227 0.003000 0.074449
v -0.070361 0.003000 0.072852
v -0.063750 0.002073 0.074449
v -0.067339 0.002048 0.073797
v -0.070209 0.002079 0.072289
v -0.063750 0.001237 0.072852
v -0.067212 0.001276 0.072281
v -0.069703 0.001413 0.071213
v -0.074449 0.002073 0.063750
v -0.072852 0.001237 0.063750
v -0.074449 0.003000 0.067227
v -0.073797 0.002043 0.067319
v -0.072289 0.001278 0.067203
v -0.072852 0.003000 0.070361
v -0.072281 0.002077 0.070215
v -0.071213 0.001413 0.069703
v 0.075000 0.025471 0.009307
v 0.075000 0.030942 0.000000
v 0.075000 0.029476 0.005373
v 0.075000 0.020000 -0.010746
v 0.075000 0.025471 -0.009307
v 0.075000 0.029476 -0.005373
v 0.075000 0.020000 0.010746
v 0.075000 0.010524 0.005373
v 0.075000 0.014529 0.009307
v 0.075000 0.009058 0.000000
v 0.075000 0.014529 -0.009307
v 0.075000 0.010524 -0.005373
v 0.075211 0.026274 0.010672
v 0.075211 0.032548 0.000000
v 0.075211 0.030867 0.006162
v 0.075211 0.020000 -0.012323
v 0.075211 0.026274 -0.010672
v 0.075211 0.030867 -0.006162
v 0.075211 0.020000 0.012323
v 0.075211 0.009133 0.006162
v 0.075211 0.013726 0.010672
v 0.075211 0.007452 0.000000
v 0.075211 0.013726 -0.010672
v 0.075211 0.009133 -0.006162
v 0.076211 0.026274 0.010672
v 0.076211 0.032548 0.000000
v 0.076211 0.030867 0.006162
v 0.076211 0.020000 -0.012323
v 0.076211 0.026274 -0.010672
v 0.076211 0.030867 -0.006162
v 0.076211 0.020000 0.012323
v 0.076211 0.009133 0.006162
v 0.076211 0.013726 0.010672
v 0.076211 0.007452 0.000000
v 0.076211 0.013726 -0.010672
v 0.076211 0.009133 -0.006162
v 0.075211 0.030171 -0.005767
v 0.075211 0.031745 0.000000
v 0.075211 0.025872 0.009989
v 0.075211 0.020000 0.011535
v 0.075211 0.009829 -0.005767
v 0.075211 0.014128 -0.009989
v 0.075211 0.025872 -0.009989
v 0.075211 0.030171 0.005767
v 0.075211 0.008255 0.000000
v 0.075211 0.009829 0.005767
v 0.075211 0.014128 0.009989
v 0.075211 0.020000 -0.011535
v 0.076211 0.030171 -0.005767
v 0.076211 0.031745 0.000000
v 0.076211 0.025872 0.009989
v 0.076211 0.020000 0.011535
v 0.076211 0.009829 -0.005767
v 0.076211 0.014128 -0.009989
v 0.076211 0.025872 -0.009989
v 0.076211 0.030171 0.005767
v 0.076211 0.008255 0.000000
v 0.076211 0.009829 0.005767
v 0.076211 0.014128 0.009989
v 0.076211 0.020000 -0.011535
v 0.073196 0.019654 -0.010746
v 0.073023 0.025092 -0.009307
v 0.072896 0.029073 -0.005373
v 0.072850 0.030530 0.000000
v 0.072896 0.029073 0.005373
v 0.073023 0.025092 0.009307
v 0.073196 0.019654 0.010746
v 0.073369 0.014216 0.009307
v 0.073495 0.010235 0.005373
v 0.073542 0.008778 0.000000
v 0.073495 0.010235 -0.005373
v 0.073369 0.014216 -0.009307
v 0.074891 0.019654 -0.003689
v 0.074470 0.019654 -0.007113
v 0.074871 0.019654 -0.004435
v 0.074811 0.019654 -0.005226
v 0.074718 0.019654 -0.005983
v 0.074600 0.019654 -0.006634
v 0.074597 0.016073 -0.006129
v 0.074983 0.016759 -0.002923
v 0.074717 0.016259 -0.005710
v 0.074825 0.016437 -0.005117
v 0.074911 0.016589 -0.004408
v 0.074965 0.016700 -0.003651
v 0.074700 0.013505 -0.003508
v 0.075046 0.014774 -0.000961
v 0.074810 0.013819 -0.003240
v 0.074908 0.014131 -0.002803
v 0.074984 0.014412 -0.002239
v 0.075032 0.014633 -0.001605
v 0.074734 0.012565 0.000000
v 0.075055 0.014513 0.000000
v 0.074840 0.012947 0.000000
v 0.074933 0.013375 0.000000
v 0.075004 0.013806 0.000000
v 0.075046 0.014198 0.000000
v 0.074700 0.013505 0.003508
v 0.075046 0.014774 0.000961
v 0.074810 0.013819 0.003240
v 0.074908 0.014131 0.002803
v 0.074984 0.014412 0.002239
v 0.075032 0.014633 0.001605
v 0.074597 0.016073 0.006129
v 0.074983 0.016759 0.002923
v 0.074717 0.016259 0.005710
v 0.074825 0.016437 0.005117
v 0.074911 0.016589 0.004408
v 0.074965 0.016700 0.003651
v 0.074470 0.019654 0.007113
v 0.074891 0.019654 0.003689
v 0.074600 0.019654 0.006634
v 0.074718 0.019654 0.005983
v 0.074811 0.019654 0.005226
v 0.074871 0.019654 0.004435
v 0.074369 0.023235 0.006129
v 0.074799 0.022550 0.002923
v 0.074501 0.023049 0.005710
v 0.074621 0.022871 0.005117
v 0.074716 0.022719 0.004407
v 0.074777 0.022608 0.003651
v 0.074309 0.025802 0.003507
v 0.074736 0.024534 0.000961
v 0.074439 0.025489 0.003240
v 0.074556 0.025177 0.002803
v 0.074651 0.024897 0.002239
v 0.074713 0.024675 0.001605
v 0.074283 0.026743 0.000000
v 0.074728 0.024795 0.000000
v 0.074414 0.026360 0.000000
v 0.074534 0.025933 0.000000
v 0.074632 0.025502 0.000000
v 0.074699 0.025110 0.000000
v 0.074309 0.025802 -0.003507
v 0.074736 0.024534 -0.000961
v 0.074439 0.025489 -0.003240
v 0.074556 0.025177 -0.002803
v 0.074651 0.024897 -0.002239
v 0.074713 0.024675 -0.001605
v 0.074369 0.023235 -0.006129
v 0.074799 0.022550 -0.002923
v 0.074501 0.023049 -0.005710
v 0.074621 0.022871 -0.005117
v 0.074716 0.022719 -0.004407
v 0.074777 0.022608 -0.003651
vn 0.0765 0.2669 -0.9607
vn 0.0581 0.7230 -0.6884
vn 0.2311 0.7169 -0.6578
vn 0.2911 0.2657 -0.9191
vn 0.0341 0.9303 -0.3652
vn 0.1341 0.9244 -0.3570
vn 0.0251 0.9799 -0.1978
vn 0.1009 0.9744 -0.2009
vn 0.4316 0.6957 -0.5742
vn 0.5633 0.2532 -0.7865
vn 0.2528 0.9084 -0.3330
vn 0.1979 0.9600 -0.1979
vn 0.0217 0.9995 -0.0217
vn 0.0893 0.9957 -0.0228
vn 0.0940 0.9911 -0.0937
vn 0.0229 0.9957 -0.0894
vn 0.1978 0.9799 -0.0250
vn 0.2007 0.9745 -0.1007
vn 0.3654 0.9302 -0.0343
vn 0.3569 0.9244 -0.1342
vn 0.3330 0.9084 -0.2528
vn 0.9607 0.2669 -0.0765
vn 0.9194 0.2650 -0.2905
vn 0.6585 0.7157 -0.2327
vn 0.6884 0.7230 -0.0583
vn 0.7865 0.2522 -0.5638
vn 0.5750 0.6951 -0.4315
vn 0.0217 -0.9995 -0.0217
vn 0.0228 -0.9957 -0.0893
vn 0.0937 -0.9911 -0.0940
vn 0.0894 -0.9957 -0.0229
vn 0.0250 -0.9799 -0.1978
vn 0.1007 -0.9745 -0.2007
vn 0.0343 -0.9302 -0.3654
vn 0.1342 -0.9244 -0.3569
vn 0.2009 -0.9744 -0.1009
vn 0.1978 -0.9799 -0.0251
vn 0.1979 -0.9600 -0.1979
vn 0.2528 -0.9084 -0.3330
vn 0.0765 -0.2669 -0.9607
vn 0.2905 -0.2650 -0.9194
vn 0.2327 -0.7157 -0.6585
vn 0.0583 -0.7230 -0.6884
vn 0.5638 -0.2522 -0.7865
vn 0.4315 -0.6951 -0.5750
vn 0.7865 -0.2532 -0.5633
vn 0.5742 -0.6957 -0.4316
vn 0.3330 -0.9084 -0.2528
vn 0.9607 -0.2669 -0.0765
vn 0.6884 -0.7230 -0.0581
vn 0.6578 -0.7169 -0.2311
vn 0.9191 -0.2657 -0.2911
vn 0.3652 -0.9303 -0.0341
vn 0.3570 -0.9244 -0.1341
vn 0.9607 0.2669 0.0765
vn 0.6884 0.7230 0.0581
vn 0.6578 0.7169 0.2311
vn 0.9191 0.2657 0.2911
vn 0.3652 0.9303 0.0341
vn 0.3570 0.9244 0.1341
vn 0.1978 0.9799 0.0251
vn 0.2009 0.9744 0.1009
vn 0.5742 0.6957 0.4316
vn 0.7865 0.2532 0.5633
vn 0.3330 0.9084 0.2528
vn 0.1979 0.9600 0.1979
vn 0.0217 0.9995 0.0217
vn 0.0228 0.9957 0.0893
vn 0.0937 0.9911 0.0940
vn 0.0894 0.9957 0.0229
vn 0.0250 0.9799 0.1978
vn 0.1007 0.9745 0.2007
vn 0.0343 0.9302 0.3654
vn 0.1342 0.9244 0.3569
vn 0.2528 0.9084 0.3330
vn 0.0765 0.2669 0.9607
vn 0.2905 0.2650 0.9194
vn 0.2327 0.7157 0.6585
vn 0.0583 0.7230 0.6884
vn 0.5638 0.2522 0.7865
vn 0.4315 0.6951 0.5750
vn 0.9607 -0.2669 0.0765
vn 0.9194 -0.2650 0.2905
vn 0.6585 -0.7157 0.2327
vn 0.6884 -0.7230 0.0583
vn 0.7865 -0.2522 0.5638
vn 0.5750 -0.6951 0.4315
vn 0.5633 -0.2532 0.7865
vn 0.4316 -0.6957 0.5742
vn 0.3569 -0.9244 0.1342
vn 0.3654 -0.9302 0.0343
vn 0.3330 -0.9084 0.2528
vn 0.2528 -0.9084 0.3330
vn 0.0765 -0.2669 0.9607
vn 0.0581 -0.7230 0.6884
vn 0.2311 -0.7169 0.6578
vn 0.2911 -0.2657 0.9191
vn 0.0341 -0.9303 0.3652
vn 0.1341 -0.9244 0.3570
vn 0.0251 -0.9799 0.1978
vn 0.1009 -0.9744 0.2009
vn 0.1979 -0.9600 0.1979
vn 0.0217 -0.9995 0.0217
vn 0.0893 -0.9957 0.0228
vn 0.0940 -0.9911 0.0937
vn 0.0229 -0.9957 0.0894
vn 0.1978 -0.9799 0.0250
vn 0.2007 -0.9745 0.1007
vn -0.0765 0.2669 -0.9607
vn -0.2905 0.2650 -0.9194
vn -0.2327 0.7157 -0.6585
vn -0.0583 0.7230 -0.6884
vn -0.5638 0.2522 -0.7865
vn -0.4315 0.6951 -0.5750
vn -0.7865 0.2532 -0.5633
vn -0.5742 0.6957 -0.4316
vn -0.1342 0.9244 -0.3569
vn -0.0343 0.9302 -0.3654
vn -0.2528 0.9084 -0.3330
vn -0.3330 0.9084 -0.2528
vn -0.9607 0.2669 -0.0765
vn -0.6884 0.7230 -0.0581
vn -0.6578 0.7169 -0.2311
vn -0.9191 0.2657 -0.2911
vn -0.3652 0.9303 -0.0341
vn -0.3570 0.9244 -0.1341
vn -0.1978 0.9799 -0.0251
vn -0.2009 0.9744 -0.1009
vn -0.1979 0.9600 -0.1979
vn -0.0217 0.9995 -0.0217
vn -0.0228 0.9957 -0.0893
vn -0.0937 0.9911 -0.0940
vn -0.0894 0.9957 -0.0229
vn -0.0250 0.9799 -0.1978
vn -0.1007 0.9745 -0.2007
vn -0.9607 -0.2669 -0.0765
vn -0.9194 -0.2650 -0.2905
vn -0.6585 -0.7157 -0.2327
vn -0.6884 -0.7230 -0.0583
vn -0.7865 -0.2522 -0.5638
vn -0.5750 -0.6951 -0.4315
vn -0.5633 -0.2532 -0.7865
vn -0.4316 -0.6957 -0.5742
vn -0.3569 -0.9244 -0.1342
vn -0.3654 -0.9302 -0.0343
vn -0.3330 -0.9084 -0.2528
vn -0.2528 -0.9084 -0.3330
vn -0.0765 -0.2669 -0.9607
vn -0.0581 -0.7230 -0.6884
vn -0.2311 -0.7169 -0.6578
vn -0.2911 -0.2657 -0.9191
vn -0.0341 -0.9303 -0.3652
vn -0.1341 -0.9244 -0.3570
vn -0.0251 -0.9799 -0.1978
vn -0.1009 -0.9744 -0.2009
vn -0.1979 -0.9600 -0.1979
vn -0.0217 -0.9995 -0.0217
vn -0.0893 -0.9957 -0.0228
vn -0.0940 -0.9911 -0.0937
vn -0.0229 -0.9957 -0.0894
vn -0.1978 -0.9799 -0.0250
vn -0.2007 -0.9745 -0.1007
vn -0.9607 0.2669 0.0765
vn -0.9194 0.2650 0.2905
vn -0.6585 0.7157 0.2327
vn -0.6884 0.7230 0.0583
vn -0.7865 0.2522 0.5638
vn -0.5750 0.6951 0.4315
vn -0.5633 0.2532 0.7865
vn -0.4316 0.6957 0.5742
vn -0.3569 0.9244 0.1342
vn -0.3654 0.9302 0.0343
vn -0.3330 0.9084 0.2528
vn -0.2528 0.9084 0.3330
vn -0.0765 0.2669 0.9607
vn -0.0581 0.7230 0.6884
vn -0.2311 0.7169 0.6578
vn -0.2911 0.2657 0.9191
vn -0.0341 0.9303 0.3652
vn -0.1341 0.9244 0.3570
vn -0.0251 0.9799 0.1978
vn -0.1009 0.9744 0.2009
vn -0.1979 0.9600 0.1979
vn -0.0217 0.9995 0.0217
vn -0.0893 0.9957 0.0228
vn -0.0940 0.9911 0.0937
vn -0.0229 0.9957 0.0894
vn -0.1978 0.9799 0.0250
vn -0.2007 0.9745 0.1007
vn -0.0217 -0.9995 0.0217
vn -0.0228 -0.9957 0.0893
vn -0.0937 -0.9911 0.0940
vn -0.0894 -0.9957 0.0229
vn -0.0250 -0.9799 0.1978
vn -0.1007 -0.9745 0.2007
vn -0.0343 -0.9302 0.3654
vn -0.1342 -0.9244 0.3569
vn -0.2009 -0.9744 0.1009
vn -0.1978 -0.9799 0.0251
vn -0.1979 -0.9600 0.1979
vn -0.2528 -0.9084 0.3330
vn -0.0765 -0.2669 0.9607
vn -0.2905 -0.2650 0.9194
vn -0.2327 -0.7157 0.6585
vn -0.0583 -0.7230 0.6884
vn -0.5638 -0.2522 0.7865
vn -0.4315 -0.6951 0.5750
vn -0.7865 -0.2532 0.5633
vn -0.5742 -0.6957 0.4316
vn -0.3330 -0.9084 0.2528
vn -0.9607 -0.2669 0.0765
vn -0.6884 -0.7230 0.0581
vn -0.6578 -0.7169 0.2311
vn -0.9191 -0.2657 0.2911
vn -0.3652 -0.9303 0.0341
vn -0.3570 -0.9244 0.1341
vn 1.0000 -0.0000 -0.0000
vn -0.0049 0.0255 0.9997
vn -0.0978 0.5103 0.8544
vn -0.0898 0.4682 0.8791
vn 0.0059 -0.0307 0.9995
vn -0.1331 0.6945 0.7071
vn -0.1819 0.9487 0.2588
vn -0.1819 0.9487 -0.2588
vn -0.1331 0.6945 -0.7071
vn -0.0978 0.5103 -0.8544
vn -0.0898 0.4682 -0.8791
vn -0.0049 0.0255 -0.9997
vn 0.0059 -0.0307 -0.9995
vn 0.0905 -0.4720 -0.8769
vn 0.0986 -0.5143 -0.8519
vn 0.1331 -0.6945 -0.7071
vn 0.1819 -0.9487 -0.2588
vn 0.1819 -0.9487 0.2588
vn 0.1331 -0.6945 0.7071
vn 0.0905 -0.4720 0.8769
vn 0.0986 -0.5143 0.8519
vn 0.9821 0.1883 -0.0000
vn -1.0000 -0.0000 -0.0000
vn -0.0000 0.9647 0.2632
vn -0.0000 0.8626 0.5059
vn -0.0000 -0.8626 -0.5059
vn -0.0000 -0.9647 -0.2632
vn -0.0000 -0.0000 1.0000
vn -0.0000 -0.4941 0.8694
vn -0.0000 -0.4941 -0.8694
vn -0.0000 -0.0000 -1.0000
vn -0.0000 0.8626 -0.5059
vn -0.0000 0.9647 -0.2632
vn -0.0000 0.4941 0.8694
vn -0.0000 0.4941 -0.8694
vn -0.0000 -0.9647 0.2632
vn -0.0000 -0.8626 0.5059
vn 0.9663 0.1266 0.2243
vn 0.9663 0.1277 0.2237
vn 0.9660 -0.0000 0.2587
vn 0.9660 -0.0000 -0.2587
vn 0.9663 0.1277 -0.2237
vn 0.9663 0.1266 -0.2243
vn 0.9668 0.2199 0.1299
vn 0.9671 0.2543 -0.0000
vn 0.9668 0.2206 0.1288
vn 0.9671 -0.2543 -0.0000
vn 0.9668 -0.2206 -0.1288
vn 0.9668 -0.2199 -0.1299
vn 0.9663 -0.1277 0.2237
vn 0.9663 -0.1266 0.2243
vn 0.9668 0.2206 -0.1288
vn 0.9668 0.2199 -0.1299
vn 0.9663 -0.1277 -0.2237
vn 0.9663 -0.1266 -0.2243
vn 0.9668 -0.2206 0.1288
vn 0.9668 -0.2199 0.1299
vn 0.0941 -0.4911 0.8660
vn 0.0049 -0.0255 0.9997
vn 0.0978 -0.5103 0.8544
vn 0.0941 -0.4911 -0.8660
vn 0.0978 -0.5103 -0.8544
vn 0.0049 -0.0255 -0.9997
vn -0.0941 0.4911 -0.8660
vn -0.0905 0.4720 -0.8769
vn -0.0941 0.4911 0.8660
vn -0.0905 0.4720 0.8769
vn 0.9529 0.0300 -0.3018
vn 0.9482 0.1778 -0.2632
vn 0.9688 0.1450 -0.2009
vn 0.9737 0.0307 -0.2258
vn 0.9838 0.1125 -0.1394
vn 0.9877 0.0313 -0.1532
vn 0.9917 0.0876 -0.0939
vn 0.9943 0.0316 -0.1015
vn 0.9966 0.0639 -0.0512
vn 0.9980 0.0317 -0.0548
vn 0.9990 0.0421 -0.0150
vn 0.9994 0.0318 -0.0158
vn 0.9432 0.2927 -0.1573
vn 0.9604 0.2481 -0.1267
vn 0.9753 0.2007 -0.0926
vn 0.9852 0.1584 -0.0651
vn 0.9931 0.1111 -0.0365
vn 0.9981 0.0608 -0.0108
vn 0.9401 0.3409 -0.0000
vn 0.9536 0.3012 -0.0000
vn 0.9680 0.2509 -0.0000
vn 0.9798 0.2001 -0.0000
vn 0.9907 0.1362 -0.0000
vn 0.9978 0.0665 -0.0000
vn 0.9432 0.2927 0.1573
vn 0.9604 0.2481 0.1267
vn 0.9753 0.2007 0.0926
vn 0.9852 0.1584 0.0651
vn 0.9931 0.1111 0.0365
vn 0.9981 0.0608 0.0108
vn 0.9482 0.1778 0.2632
vn 0.9688 0.1450 0.2009
vn 0.9838 0.1125 0.1394
vn 0.9917 0.0876 0.0939
vn 0.9966 0.0639 0.0512
vn 0.9990 0.0421 0.0150
vn 0.9529 0.0300 0.3018
vn 0.9737 0.0307 0.2258
vn 0.9877 0.0313 0.1532
vn 0.9943 0.0316 0.1015
vn 0.9980 0.0317 0.0548
vn 0.9994 0.0318 0.0158
vn 0.9568 -0.1190 0.2654
vn 0.9757 -0.0844 0.2022
vn 0.9888 -0.0505 0.1401
vn 0.9952 -0.0248 0.0942
vn 0.9987 -0.0006 0.0514
vn 0.9997 0.0214 0.0150
vn 0.9584 -0.2366 0.1596
vn 0.9734 -0.1898 0.1282
vn 0.9857 -0.1405 0.0935
vn 0.9931 -0.0968 0.0656
vn 0.9982 -0.0485 0.0367
vn 0.9999 0.0026 0.0109
vn 0.9581 -0.2865 -0.0000
vn 0.9696 -0.2446 -0.0000
vn 0.9814 -0.1920 -0.0000
vn 0.9902 -0.1394 -0.0000
vn 0.9973 -0.0739 -0.0000
vn 1.0000 -0.0031 -0.0000
vn 0.9584 -0.2366 -0.1596
vn 0.9734 -0.1898 -0.1282
vn 0.9857 -0.1405 -0.0935
vn 0.9931 -0.0968 -0.0656
vn 0.9982 -0.0485 -0.0367
vn 0.9999 0.0026 -0.0109
vn 0.9568 -0.1190 -0.2654
vn 0.9757 -0.0844 -0.2022
vn 0.9888 -0.0505 -0.1401
vn 0.9952 -0.0248 -0.0942
vn 0.9987 -0.0006 -0.0514
vn 0.9997 0.0214 -0.0150
vn 0.9432 0.0305 -0.3309
vn 0.9389 0.1935 -0.2847
vn 0.9482 -0.1344 -0.2879
vn 0.9523 -0.2558 -0.1666
vn 0.9539 -0.3003 -0.0000
vn 0.9523 -0.2558 0.1666
vn 0.9482 -0.1344 0.2879
vn 0.9432 0.0305 0.3309
vn 0.9389 0.1935 0.2847
vn 0.9362 0.3112 0.1634
vn 0.9353 0.3539 -0.0000
vn 0.9362 0.3112 -0.1634
vt 0.314702 0.356641
vt 0.314702 0.348631
vt 0.322925 0.348372
vt 0.322713 0.356642
vt 0.314702 0.341410
vt 0.322657 0.341761
vt 0.984851 0.670060
vt 0.984826 0.664322
vt 0.992800 0.663949
vt 0.992800 0.668728
vt 0.329596 0.348666
vt 0.329934 0.356642
vt 0.328416 0.342928
vt 0.322678 0.336987
vt 0.328416 0.339448
vt 0.984759 0.649091
vt 0.992770 0.649056
vt 0.993064 0.657277
vt 0.984794 0.657101
vt 0.999991 0.649024
vt 0.999674 0.656980
vt 1.000000 0.020970
vt 0.994255 0.020970
vt 0.993919 0.012994
vt 0.998703 0.013015
vt 0.998532 0.662744
vt 0.992742 0.007256
vt 0.996225 0.007256
vt 0.979018 0.020970
vt 0.979020 0.012959
vt 0.987244 0.012700
vt 0.987030 0.020970
vt 0.979024 0.005738
vt 0.986980 0.006089
vt 0.979030 -0.000000
vt 0.987006 0.001315
vt 0.992746 0.003777
vt 0.355361 0.359199
vt 0.347350 0.359234
vt 0.347056 0.351012
vt 0.355326 0.351189
vt 0.340129 0.359266
vt 0.340446 0.351309
vt 0.314702 0.671344
vt 0.314702 0.665605
vt 0.322678 0.665268
vt 0.322657 0.670047
vt 0.347321 0.344340
vt 0.355294 0.343968
vt 0.341588 0.345546
vt 0.335672 0.351309
vt 0.338108 0.345561
vt 0.314702 0.650374
vt 0.322713 0.650374
vt 0.322971 0.658597
vt 0.314702 0.658385
vt 0.329934 0.650374
vt 0.329583 0.658329
vt 0.335672 0.650374
vt 0.334357 0.658349
vt 0.328416 0.664088
vt 0.331895 0.664088
vt 0.685286 0.020970
vt 0.677277 0.020970
vt 0.677020 0.012747
vt 0.685287 0.012959
vt 0.670060 0.020970
vt 0.670412 0.013015
vt 0.355269 0.338230
vt 0.347320 0.339561
vt 0.677318 0.006076
vt 0.685291 0.005738
vt 0.671582 0.007256
vt 0.341572 0.342066
vt 0.979018 0.314702
vt 0.987030 0.314702
vt 0.987291 0.322925
vt 0.979020 0.322713
vt 0.994255 0.314702
vt 0.993906 0.322657
vt 1.000000 0.314702
vt 0.998685 0.322678
vt 0.987001 0.329596
vt 0.979024 0.329934
vt 0.992742 0.328416
vt 0.996225 0.328416
vt 0.983479 0.355361
vt 0.983444 0.347350
vt 0.991666 0.347056
vt 0.991489 0.355326
vt 0.983412 0.340129
vt 0.991369 0.340446
vt 0.335672 0.020970
vt 0.329934 0.020970
vt 0.329596 0.012994
vt 0.334375 0.013015
vt 0.998338 0.347321
vt 0.998710 0.355294
vt 0.997132 0.341588
vt 0.991368 0.335672
vt 0.997117 0.338108
vt 0.314702 0.020970
vt 0.314702 0.012959
vt 0.322925 0.012700
vt 0.322713 0.020970
vt 0.314702 0.005738
vt 0.322657 0.006089
vt 0.979030 0.335672
vt 0.986986 0.334375
vt 0.328416 0.007256
vt 0.322678 0.001315
vt 0.328416 0.003777
vt 0.992746 0.331895
vt 0.685286 0.314702
vt 0.685287 0.322713
vt 0.677066 0.322971
vt 0.677277 0.314702
vt 0.685291 0.329934
vt 0.677338 0.329583
vt 0.020970 0.000000
vt 0.020970 0.005738
vt 0.012994 0.006076
vt 0.013015 0.001297
vt 0.670399 0.322678
vt 0.670060 0.314702
vt 0.671582 0.328416
vt 0.677323 0.334357
vt 0.671586 0.331895
vt 0.020970 0.020970
vt 0.012959 0.020970
vt 0.012700 0.012747
vt 0.020970 0.012959
vt 0.005738 0.020970
vt 0.006089 0.013015
vt 0.670060 0.357827
vt 0.664322 0.357852
vt 0.663949 0.349878
vt 0.668728 0.349878
vt 0.007256 0.007256
vt 0.001315 0.012994
vt 0.003777 0.007256
vt 0.649091 0.357919
vt 0.649056 0.349908
vt 0.657277 0.349614
vt 0.657101 0.357884
vt 0.649024 0.342687
vt 0.656980 0.343004
vt 0.648999 0.336949
vt 0.656980 0.338230
vt 0.662744 0.344145
vt 0.662729 0.340666
vt 0.666224 0.344130
vt 0.020970 0.356641
vt 0.012959 0.356642
vt 0.012700 0.348419
vt 0.020970 0.348631
vt 0.005738 0.356642
vt 0.006089 0.348687
vt 0.670060 0.020878
vt 0.664322 0.020903
vt 0.663949 0.012929
vt 0.668728 0.012929
vt 0.012994 0.341748
vt 0.020970 0.341410
vt 0.007256 0.342928
vt 0.001315 0.348666
vt 0.003777 0.342928
vt 0.649091 0.020969
vt 0.649056 0.012959
vt 0.657277 0.012665
vt 0.657101 0.020935
vt 0.649024 0.005738
vt 0.656980 0.006054
vt 0.670060 0.650463
vt 0.675798 0.650437
vt 0.676171 0.658411
vt 0.671392 0.658412
vt 0.662744 0.007196
vt 0.656980 0.001281
vt 0.662729 0.003717
vt 0.691030 0.650371
vt 0.691064 0.658381
vt 0.682843 0.658676
vt 0.683019 0.650406
vt 0.691096 0.665602
vt 0.683140 0.665286
vt 0.020970 0.335672
vt 0.013015 0.336969
vt 0.677376 0.664144
vt 0.683140 0.670060
vt 0.677391 0.667624
vt 0.673896 0.664159
vt 0.650371 0.314699
vt 0.658381 0.314664
vt 0.658676 0.322886
vt 0.650406 0.322710
vt 0.665602 0.314633
vt 0.665286 0.322589
vt 0.000000 0.650374
vt 0.005738 0.650374
vt 0.006076 0.658349
vt 0.001297 0.658329
vt 0.658411 0.329558
vt 0.650437 0.329931
vt 0.664144 0.328353
vt 0.670060 0.322589
vt 0.667624 0.328338
vt 0.020970 0.650374
vt 0.020970 0.658385
vt 0.012747 0.658643
vt 0.012959 0.650374
vt 0.020970 0.665605
vt 0.013015 0.665255
vt 0.335672 0.653020
vt 0.341410 0.652995
vt 0.341783 0.660969
vt 0.337003 0.660969
vt 0.007256 0.664088
vt 0.012994 0.670028
vt 0.007256 0.667567
vt 0.356641 0.652929
vt 0.356676 0.660939
vt 0.348455 0.661234
vt 0.348631 0.652964
vt 0.356708 0.668160
vt 0.348751 0.667844
vt 0.650463 0.335669
vt 0.658412 0.334337
vt 0.342988 0.666702
vt 0.348752 0.672618
vt 0.343003 0.670182
vt 0.339508 0.666717
vt 0.355361 0.022250
vt 0.347350 0.022285
vt 0.347056 0.014063
vt 0.355326 0.014240
vt 0.340129 0.022316
vt 0.340446 0.014360
vt 0.314702 0.335672
vt 0.314702 0.329934
vt 0.322678 0.329596
vt 0.322657 0.334375
vt 0.347321 0.007391
vt 0.355294 0.007019
vt 0.341588 0.008596
vt 0.335672 0.014360
vt 0.338108 0.008612
vt 0.314702 0.314702
vt 0.322713 0.314702
vt 0.322971 0.322925
vt 0.314702 0.322713
vt 0.329934 0.314702
vt 0.329583 0.322657
vt 0.689658 0.335672
vt 0.689683 0.341410
vt 0.681709 0.341783
vt 0.681709 0.337003
vt 0.328416 0.328416
vt 0.334357 0.322678
vt 0.331895 0.328416
vt 0.689749 0.356641
vt 0.681739 0.356676
vt 0.681444 0.348455
vt 0.689714 0.348631
vt 0.674518 0.356708
vt 0.674834 0.348751
vt 0.355269 0.001281
vt 0.347320 0.002612
vt 0.675976 0.342988
vt 0.670060 0.348752
vt 0.672496 0.343003
vt 0.675961 0.339508
vt 0.650371 0.651648
vt 0.658381 0.651613
vt 0.658676 0.659835
vt 0.650406 0.659659
vt 0.665602 0.651582
vt 0.665286 0.659538
vt 0.000000 0.314702
vt 0.005738 0.314702
vt 0.006076 0.322678
vt 0.001297 0.322657
vt 0.658411 0.666507
vt 0.650437 0.666880
vt 0.664144 0.665302
vt 0.670060 0.659538
vt 0.667624 0.665287
vt 0.020970 0.314702
vt 0.020970 0.322713
vt 0.012747 0.322971
vt 0.012959 0.314702
vt 0.020970 0.329934
vt 0.013015 0.329583
vt 0.335672 0.316071
vt 0.341410 0.316046
vt 0.341783 0.324020
vt 0.337003 0.324020
vt 0.007256 0.328416
vt 0.012994 0.334357
vt 0.007256 0.331895
vt 0.356641 0.315980
vt 0.356676 0.323990
vt 0.348455 0.324285
vt 0.348631 0.316015
vt 0.356708 0.331211
vt 0.348751 0.330895
vt 0.650463 0.672618
vt 0.658412 0.671286
vt 0.342988 0.329753
vt 0.348752 0.335669
vt 0.343003 0.333232
vt 0.664159 0.668782
vt 0.356733 0.336949
vt 0.020970 0.671344
vt 0.335672 0.356641
vt 0.020970 0.335672
vt 0.314702 -0.000000
vt 0.000000 0.356641
vt 0.335672 0.314702
vt 0.000000 0.020970
vt 0.648999 0.000000
vt 0.314702 0.335672
vt 0.750286 0.180215
vt 0.750286 0.155457
vt 0.737621 0.167836
vt 0.551462 0.767880
vt 0.551064 0.814800
vt 0.547311 0.812102
vt 0.547311 0.764896
vt 0.550773 0.849147
vt 0.547311 0.846658
vt 0.550666 0.861719
vt 0.547311 0.859307
vt 0.601834 0.861719
vt 0.601728 0.849147
vt 0.605189 0.846658
vt 0.605189 0.859307
vt 0.601437 0.814800
vt 0.605189 0.812102
vt 0.601039 0.767880
vt 0.605189 0.764897
vt 0.600641 0.720961
vt 0.605189 0.717691
vt 0.600350 0.686614
vt 0.605189 0.683135
vt 0.600243 0.674042
vt 0.605189 0.670486
vt 0.552258 0.674042
vt 0.552151 0.686614
vt 0.547311 0.683135
vt 0.547311 0.670486
vt 0.551860 0.720961
vt 0.547311 0.717691
vt 0.814929 0.670060
vt 0.826389 0.683142
vt 0.833005 0.717088
vt 0.833005 0.762801
vt 0.826389 0.808033
vt 0.814929 0.840663
vt 0.801697 0.851949
vt 0.790237 0.838867
vt 0.783621 0.804921
vt 0.783621 0.759208
vt 0.790237 0.713977
vt 0.801697 0.681346
vt 0.784887 0.189276
vt 0.832152 0.192593
vt 0.879417 0.189276
vt 0.914018 0.180215
vt 0.926683 0.167836
vt 0.914018 0.155457
vt 0.879417 0.146395
vt 0.832152 0.143079
vt 0.784887 0.146395
vt 0.711737 0.690590
vt 0.698450 0.676996
vt 0.698450 0.670060
vt 0.712645 0.684583
vt 0.675437 0.727729
vt 0.671876 0.778462
vt 0.670060 0.778462
vt 0.673864 0.724261
vt 0.711737 0.866335
vt 0.721464 0.829195
vt 0.723037 0.832663
vt 0.712645 0.872341
vt 0.721464 0.727729
vt 0.723037 0.724261
vt 0.685163 0.690590
vt 0.684255 0.684583
vt 0.698450 0.879929
vt 0.698450 0.886864
vt 0.684255 0.872341
vt 0.685163 0.866335
vt 0.675437 0.829195
vt 0.673864 0.832663
vt 0.725024 0.778462
vt 0.726840 0.778462
vt 0.835309 0.670060
vt 0.835309 0.684583
vt 0.833005 0.684583
vt 0.833005 0.670060
vt 0.835309 0.872341
vt 0.837613 0.872341
vt 0.837613 0.886864
vt 0.835309 0.886864
vt 0.835309 0.778462
vt 0.835309 0.832663
vt 0.833005 0.832663
vt 0.833005 0.778462
vt 0.835309 0.832663
vt 0.835309 0.778462
vt 0.837613 0.778462
vt 0.837613 0.832663
vt 0.835309 0.684583
vt 0.835309 0.670060
vt 0.837613 0.670060
vt 0.837613 0.684583
vt 0.835309 0.724261
vt 0.833005 0.724261
vt 0.835309 0.724261
vt 0.837613 0.724261
vt 0.835309 0.886864
vt 0.833005 0.886864
vt 0.833005 0.872341
vt 0.835309 0.872341
vt 0.781418 0.144822
vt 0.832152 0.141262
vt 0.832152 0.194410
vt 0.781418 0.190850
vt 0.730685 0.167836
vt 0.744279 0.154549
vt 0.933618 0.167836
vt 0.920024 0.181123
vt 0.882885 0.144822
vt 0.744279 0.181123
vt 0.882885 0.190849
vt 0.920024 0.154549
vt 0.837613 0.720793
vt 0.839916 0.720793
vt 0.839916 0.771526
vt 0.837613 0.771526
vt 0.842220 0.822260
vt 0.839917 0.822260
vt 0.839917 0.771526
vt 0.842220 0.771526
vt 0.837613 0.683654
vt 0.839916 0.683654
vt 0.839917 0.720793
vt 0.842220 0.720793
vt 0.842220 0.683654
vt 0.839917 0.683654
vt 0.839917 0.670060
vt 0.842220 0.670060
vt 0.839916 0.822260
vt 0.837613 0.822260
vt 0.839916 0.859399
vt 0.837613 0.859399
vt 0.842220 0.859399
vt 0.842220 0.872993
vt 0.839917 0.872993
vt 0.839917 0.859399
vt 0.837613 0.872993
vt 0.839916 0.872993
vt 0.837613 0.670060
vt 0.839916 0.670060
vt 0.741944 0.866334
vt 0.755231 0.879928
vt 0.755231 0.886864
vt 0.741036 0.872341
vt 0.768518 0.866334
vt 0.778244 0.829195
vt 0.779817 0.832663
vt 0.769426 0.872341
vt 0.732217 0.829195
vt 0.730644 0.832663
vt 0.781804 0.778462
vt 0.783621 0.778462
vt 0.728657 0.778462
vt 0.726840 0.778462
vt 0.730644 0.724261
vt 0.732217 0.727729
vt 0.769426 0.684583
vt 0.779817 0.724261
vt 0.778244 0.727729
vt 0.768518 0.690590
vt 0.741036 0.684583
vt 0.741944 0.690590
vt 0.755231 0.670060
vt 0.755231 0.676996
vt 0.573923 0.736822
vt 0.571595 0.782354
vt 0.575627 0.703491
vt 0.576250 0.691290
vt 0.576874 0.703491
vt 0.578578 0.736822
vt 0.580906 0.782354
vt 0.583233 0.827886
vt 0.584937 0.861217
vt 0.585561 0.873418
vt 0.567563 0.861217
vt 0.566940 0.873418
vt 0.569267 0.827886
vt 0.044547 0.506289
vt 0.044992 0.340798
vt 0.050735 0.349032
vt 0.050428 0.505887
vt 0.058586 0.356710
vt 0.058402 0.505336
vt 0.067775 0.363081
vt 0.067690 0.504690
vt 0.077403 0.367521
vt 0.077382 0.504012
vt 0.086529 0.369596
vt 0.086529 0.503369
vt 0.068799 0.220522
vt 0.073099 0.234694
vt 0.079469 0.248673
vt 0.087285 0.261089
vt 0.095783 0.270728
vt 0.104130 0.276646
vt 0.108744 0.174253
vt 0.109986 0.191843
vt 0.111375 0.211510
vt 0.112774 0.231327
vt 0.114047 0.249355
vt 0.115068 0.263829
vt 0.154794 0.214450
vt 0.152528 0.229086
vt 0.148185 0.243821
vt 0.142191 0.257212
vt 0.135132 0.267950
vt 0.127699 0.274982
vt 0.195264 0.330189
vt 0.190735 0.339148
vt 0.184041 0.347853
vt 0.175838 0.355451
vt 0.166929 0.361200
vt 0.158185 0.364537
vt 0.218956 0.493975
vt 0.213077 0.494404
vt 0.205104 0.494979
vt 0.195818 0.495645
vt 0.186127 0.496335
vt 0.176981 0.496983
vt 0.218519 0.659482
vt 0.212775 0.651271
vt 0.204924 0.643612
vt 0.195735 0.637257
vt 0.186106 0.632828
vt 0.176981 0.630756
vt 0.194712 0.779783
vt 0.190411 0.765625
vt 0.184041 0.751660
vt 0.176224 0.739253
vt 0.167727 0.729621
vt 0.159380 0.723705
vt 0.154762 0.826059
vt 0.153521 0.808481
vt 0.152133 0.788826
vt 0.150735 0.769017
vt 0.149463 0.750995
vt 0.148441 0.736522
vt 0.108707 0.785855
vt 0.110976 0.771233
vt 0.115320 0.756511
vt 0.121317 0.743130
vt 0.128377 0.732399
vt 0.135810 0.725370
vt 0.068234 0.670092
vt 0.072767 0.661155
vt 0.079464 0.652470
vt 0.087669 0.644887
vt 0.096580 0.639148
vt 0.105324 0.635815
vt -0.000000 0.509301
vt -0.000000 0.258055
vt 0.035300 0.758055
vt 0.096442 0.937663
vt 0.167042 1.000000
vt 0.228184 0.928362
vt 0.263484 0.741945
vt 0.263484 0.490699
vt 0.228184 0.241945
vt 0.167042 0.062337
vt 0.096442 -0.000000
vt 0.035300 0.071638
s 1
usemtl grey_plastic
f 1/1/1 6/2/2 10/3/3 9/4/4
f 6/2/2 7/5/5 12/6/6 10/3/3
f 7/7/5 25/8/7 27/9/8 12/10/6
f 9/4/4 10/3/3 15/11/9 13/12/10
f 10/3/3 12/6/6 16/13/11 15/11/9
f 12/6/6 27/14/8 28/15/12 16/13/11
f 3/16/13 18/17/14 22/18/15 21/19/16
f 18/17/14 20/20/17 24/21/18 22/18/15
f 20/22/17 37/23/19 38/24/20 24/25/18
f 21/19/16 22/18/15 27/9/8 25/8/7
f 22/18/15 24/21/18 28/26/12 27/9/8
f 24/25/18 38/24/20 39/27/21 28/28/12
f 5/29/22 30/30/23 35/31/24 33/32/25
f 30/30/23 31/33/26 36/34/27 35/31/24
f 31/33/26 13/35/10 15/36/9 36/34/27
f 33/32/25 35/31/24 38/24/20 37/23/19
f 35/31/24 36/34/27 39/27/21 38/24/20
f 36/34/27 15/36/9 16/37/11 39/27/21
f 16/37/11 28/28/12 39/27/21
f 40/38/28 43/39/29 46/40/30 45/41/31
f 43/39/29 44/42/32 47/43/33 46/40/30
f 44/44/32 56/45/34 57/46/35 47/47/33
f 45/41/31 46/40/30 49/48/36 48/49/37
f 46/40/30 47/43/33 50/50/38 49/48/36
f 47/43/33 57/51/35 58/52/39 50/50/38
f 41/53/40 51/54/41 54/55/42 53/56/43
f 51/54/41 52/57/44 55/58/45 54/55/42
f 52/57/44 64/59/46 65/60/47 55/58/45
f 53/56/43 54/55/42 57/46/35 56/45/34
f 54/55/42 55/58/45 58/61/39 57/46/35
f 55/58/45 65/60/47 66/62/48 58/61/39
f 42/63/49 59/64/50 62/65/51 61/66/52
f 59/64/50 60/67/53 63/68/54 62/65/51
f 60/69/53 48/49/37 49/48/36 63/70/54
f 61/66/52 62/65/51 65/71/47 64/72/46
f 62/65/51 63/68/54 66/73/48 65/71/47
f 63/70/54 49/48/36 50/50/38 66/74/48
f 50/50/38 58/52/39 66/74/48
f 67/75/55 70/76/56 73/77/57 72/78/58
f 70/76/56 71/79/59 74/80/60 73/77/57
f 71/79/59 83/81/61 84/82/62 74/80/60
f 72/78/58 73/77/57 76/83/63 75/84/64
f 73/77/57 74/80/60 77/85/65 76/83/63
f 74/80/60 84/82/62 85/86/66 77/85/65
f 68/87/67 78/88/68 81/89/69 80/90/70
f 78/88/68 79/91/71 82/92/72 81/89/69
f 79/93/71 91/94/73 92/95/74 82/96/72
f 80/90/70 81/89/69 84/97/62 83/98/61
f 81/89/69 82/92/72 85/99/66 84/97/62
f 82/92/72 92/100/74 93/101/75 85/99/66
f 69/102/76 86/103/77 89/104/78 88/105/79
f 86/103/77 87/106/80 90/107/81 89/104/78
f 87/108/80 75/84/64 76/83/63 90/109/81
f 88/105/79 89/104/78 92/95/74 91/94/73
f 89/104/78 90/107/81 93/110/75 92/95/74
f 90/107/81 76/111/63 77/112/65 93/110/75
f 77/85/65 85/86/66 93/113/75
f 94/114/82 97/115/83 100/116/84 99/117/85
f 97/115/83 98/118/86 101/119/87 100/116/84
f 98/120/86 110/121/88 111/122/89 101/123/87
f 99/117/85 100/116/84 103/124/90 102/125/91
f 100/116/84 101/119/87 104/126/92 103/124/90
f 101/119/87 111/127/89 112/128/93 104/126/92
f 95/129/94 105/130/95 108/131/96 107/132/97
f 105/130/95 106/133/98 109/134/99 108/131/96
f 106/135/98 118/136/100 119/137/101 109/138/99
f 107/132/97 108/131/96 111/122/89 110/121/88
f 108/131/96 109/134/99 112/139/93 111/122/89
f 109/134/99 119/140/101 120/141/102 112/139/93
f 96/142/103 113/143/104 116/144/105 115/145/106
f 113/143/104 114/146/107 117/147/108 116/144/105
f 114/146/107 102/148/91 103/149/90 117/147/108
f 115/145/106 116/144/105 119/137/101 118/136/100
f 116/144/105 117/147/108 120/150/102 119/137/101
f 117/147/108 103/149/90 104/151/92 120/150/102
f 104/151/92 112/152/93 120/150/102
f 121/153/109 124/154/110 127/155/111 126/156/112
f 124/154/110 125/157/113 128/158/114 127/155/111
f 125/159/113 137/160/115 138/161/116 128/162/114
f 126/156/112 127/155/111 130/163/117 129/164/118
f 127/155/111 128/158/114 131/165/119 130/163/117
f 128/158/114 138/166/116 139/167/120 131/165/119
f 122/168/121 132/169/122 135/170/123 134/171/124
f 132/169/122 133/172/125 136/173/126 135/170/123
f 133/174/125 145/175/127 146/176/128 136/177/126
f 134/171/124 135/170/123 138/161/116 137/160/115
f 135/170/123 136/173/126 139/178/120 138/161/116
f 136/173/126 146/179/128 147/180/129 139/178/120
f 123/181/130 140/182/131 143/183/132 142/184/133
f 140/182/131 141/185/134 144/186/135 143/183/132
f 141/187/134 129/164/118 130/163/117 144/188/135
f 142/184/133 143/183/132 146/176/128 145/175/127
f 143/183/132 144/186/135 147/189/129 146/176/128
f 144/186/135 130/190/117 131/191/119 147/189/129
f 131/191/119 139/192/120 147/189/129
f 148/193/136 151/194/137 154/195/138 153/196/139
f 151/194/137 152/197/140 155/198/141 154/195/138
f 152/199/140 164/200/142 165/201/143 155/202/141
f 153/196/139 154/195/138 157/203/144 156/204/145
f 154/195/138 155/198/141 158/205/146 157/203/144
f 155/198/141 165/206/143 166/207/147 158/205/146
f 149/208/148 159/209/149 162/210/150 161/211/151
f 159/209/149 160/212/152 163/213/153 162/210/150
f 160/214/152 172/215/154 173/216/155 163/217/153
f 161/211/151 162/210/150 165/201/143 164/200/142
f 162/210/150 163/213/153 166/218/147 165/201/143
f 163/213/153 173/219/155 174/220/156 166/218/147
f 150/221/157 167/222/158 170/223/159 169/224/160
f 167/222/158 168/225/161 171/226/162 170/223/159
f 168/227/161 156/204/145 157/203/144 171/228/162
f 169/224/160 170/223/159 173/216/155 172/215/154
f 170/223/159 171/226/162 174/229/156 173/216/155
f 171/226/162 157/230/144 158/231/146 174/229/156
f 158/231/146 166/232/147 174/229/156
f 175/233/163 178/234/164 181/235/165 180/236/166
f 178/234/164 179/237/167 182/238/168 181/235/165
f 179/239/167 191/240/169 192/241/170 182/242/168
f 180/236/166 181/235/165 184/243/171 183/244/172
f 181/235/165 182/238/168 185/245/173 184/243/171
f 182/238/168 192/246/170 193/247/174 185/245/173
f 176/248/175 186/249/176 189/250/177 188/251/178
f 186/249/176 187/252/179 190/253/180 189/250/177
f 187/254/179 199/255/181 200/256/182 190/257/180
f 188/251/178 189/250/177 192/241/170 191/240/169
f 189/250/177 190/253/180 193/258/174 192/241/170
f 190/253/180 200/259/182 201/260/183 193/258/174
f 177/261/184 194/262/185 197/263/186 196/264/187
f 194/262/185 195/265/188 198/266/189 197/263/186
f 195/267/188 183/244/172 184/243/171 198/268/189
f 196/264/187 197/263/186 200/256/182 199/255/181
f 197/263/186 198/266/189 201/269/183 200/256/182
f 198/266/189 184/270/171 185/271/173 201/269/183
f 185/271/173 193/272/174 201/269/183
f 202/273/190 205/274/191 208/275/192 207/276/193
f 205/274/191 206/277/194 209/278/195 208/275/192
f 206/279/194 218/280/196 219/281/197 209/282/195
f 207/276/193 208/275/192 211/283/198 210/284/199
f 208/275/192 209/278/195 212/285/200 211/283/198
f 209/278/195 219/286/197 220/287/201 212/285/200
f 203/288/202 213/289/203 216/290/204 215/291/205
f 213/289/203 214/292/206 217/293/207 216/290/204
f 214/294/206 226/295/208 227/296/209 217/297/207
f 215/291/205 216/290/204 219/281/197 218/280/196
f 216/290/204 217/293/207 220/298/201 219/281/197
f 217/293/207 227/299/209 228/300/210 220/298/201
f 204/301/211 221/302/212 224/303/213 223/304/214
f 221/302/212 222/305/215 225/306/216 224/303/213
f 222/307/215 210/284/199 211/283/198 225/308/216
f 223/304/214 224/303/213 227/296/209 226/295/208
f 224/303/213 225/306/216 228/309/210 227/296/209
f 225/306/216 211/310/198 212/311/200 228/309/210
f 212/285/200 220/287/201 228/312/210
f 150/221/157 202/273/190 207/276/193 167/222/158
f 167/222/158 207/276/193 210/284/199 168/225/161
f 168/227/161 210/313/199 222/305/215 156/204/145
f 156/204/145 222/305/215 221/302/212 153/196/139
f 153/196/139 221/302/212 204/301/211 148/193/136
f 40/38/28 150/221/157 169/224/160 43/39/29
f 43/39/29 169/224/160 172/215/154 44/42/32
f 44/44/32 172/314/154 160/212/152 56/45/34
f 56/45/34 160/212/152 159/209/149 53/56/43
f 53/56/43 159/209/149 149/208/148 41/53/40
f 5/29/22 42/63/49 61/66/52 30/30/23
f 30/30/23 61/66/52 64/72/46 31/33/26
f 31/315/26 64/59/46 52/57/44 13/12/10
f 13/12/10 52/57/44 51/54/41 9/4/4
f 9/4/4 51/54/41 41/53/40 1/1/1
f 203/288/202 176/248/175 188/251/178 213/289/203
f 213/289/203 188/251/178 191/240/169 214/292/206
f 214/292/206 191/240/169 179/239/167 226/316/208
f 226/295/208 179/237/167 178/234/164 223/304/214
f 223/304/214 178/234/164 175/233/163 204/301/211
f 69/102/76 95/129/94 107/132/97 86/103/77
f 86/103/77 107/132/97 110/121/88 87/106/80
f 87/106/80 110/121/88 98/120/86 75/317/64
f 75/84/64 98/118/86 97/115/83 72/78/58
f 72/78/58 97/115/83 94/114/82 67/75/55
f 121/153/109 149/208/148 161/211/151 124/154/110
f 124/154/110 161/211/151 164/200/142 125/157/113
f 125/157/113 164/200/142 152/199/140 137/318/115
f 137/160/115 152/197/140 151/194/137 134/171/124
f 68/87/67 177/261/184 196/264/187 78/88/68
f 78/88/68 196/264/187 199/255/181 79/91/71
f 79/93/71 199/319/181 187/252/179 91/94/73
f 91/94/73 187/252/179 186/249/176 88/105/79
f 88/105/79 186/249/176 176/248/175 69/102/76
f 3/16/13 68/87/67 80/90/70 18/17/14
f 18/17/14 80/90/70 83/98/61 20/20/17
f 20/22/17 83/81/61 71/79/59 37/23/19
f 37/23/19 71/79/59 70/76/56 33/32/25
f 33/32/25 70/76/56 67/75/55 5/29/22
f 202/273/190 96/142/103 115/145/106 205/274/191
f 205/274/191 115/145/106 118/136/100 206/277/194
f 206/279/194 118/320/100 106/133/98 218/280/196
f 218/280/196 106/133/98 105/130/95 215/291/205
f 215/291/205 105/130/95 95/129/94 203/288/202
f 177/261/184 123/181/130 142/184/133 194/262/185
f 194/262/185 142/184/133 145/175/127 195/265/188
f 195/267/188 145/321/127 133/172/125 183/244/172
f 183/244/172 133/172/125 132/169/122 180/236/166
f 180/236/166 132/169/122 122/168/121 175/233/163
f 123/181/130 3/16/13 21/19/16 140/182/131
f 140/182/131 21/19/16 25/8/7 141/185/134
f 141/187/134 25/322/7 7/5/5 129/164/118
f 129/164/118 7/5/5 6/2/2 126/156/112
f 126/156/112 6/2/2 1/1/1 121/153/109
f 96/142/103 40/38/28 45/41/31 113/143/104
f 113/143/104 45/41/31 48/49/37 114/146/107
f 114/146/107 48/49/37 60/69/53 102/148/91
f 102/125/91 60/67/53 59/64/50 99/117/85
f 99/117/85 59/64/50 42/63/49 94/114/82
f 134/171/124 151/194/137 148/193/136 122/168/121
f 236/323/217 94/114/82 42/63/49 240/324/217 238/325/217
f 3/16/13 123/181/130 177/261/184 68/87/67
f 150/221/157 40/38/28 96/142/103 202/273/190
f 149/208/148 121/153/109 1/1/1 41/53/40
f 95/129/94 69/102/76 176/248/175 203/288/202
f 29/354/238 26/355/238 23/356/238 19/357/238 17/358/238 14/359/238 11/360/238 8/361/238 4/362/238 2/363/238 34/364/238 32/365/238
f 67/75/55 94/114/82 236/323/217 237/366/217 235/367/217 229/368/217 231/369/217 230/370/217 234/371/217 233/372/217 232/373/217 239/374/217 240/324/217 42/63/49 5/29/22
f 204/301/211 175/233/163 122/168/121 148/193/136
f 265/375/239 266/376/239 242/377/239 246/378/239
f 267/379/239 268/380/239 247/381/239 241/382/239
f 269/383/239 270/384/239 251/385/239 252/386/239
f 271/387/239 265/375/239 246/378/239 245/388/239
f 272/389/239 267/379/239 241/382/239 243/390/239
f 273/391/239 250/392/239 248/393/239 274/394/239
f 275/395/239 274/394/239 248/393/239 249/396/239
f 276/397/239 271/387/239 245/388/239 244/398/239
f 266/376/239 272/389/239 243/390/239 242/377/239
f 269/383/239 252/386/239 250/392/239 273/391/239
f 268/380/239 275/395/239 249/396/239 247/381/239
f 270/384/239 276/397/239 244/398/239 251/385/239
f 242/399/240 243/400/241 255/401/241 254/402/240
f 252/403/242 264/404/242 262/405/243 250/406/243
f 247/407/244 249/408/245 261/409/245 259/410/244
f 251/411/246 244/412/247 256/413/247 263/414/246
f 246/415/248 242/416/249 254/417/249 258/418/248
f 241/419/250 247/407/244 259/410/244 253/420/250
f 252/403/242 251/411/246 263/414/246 264/404/242
f 245/421/251 246/415/248 258/418/248 257/422/251
f 243/400/241 241/419/250 253/420/250 255/401/241
f 250/423/252 262/424/252 260/425/253 248/426/253
f 249/408/245 248/426/253 260/425/253 261/409/245
f 244/412/247 245/421/251 257/422/251 256/413/247
f 239/374/254 270/427/255 276/428/256 232/373/256
f 235/367/257 268/429/257 275/430/258 237/366/259
f 240/324/260 238/325/261 273/431/261 269/432/262
f 230/370/263 266/433/263 272/434/264 231/369/265
f 232/373/256 276/428/256 271/435/266 233/372/267
f 237/366/259 275/430/258 274/436/268 236/323/269
f 238/325/261 236/323/269 274/436/268 273/431/261
f 231/369/265 272/434/264 267/437/270 229/368/271
f 233/372/267 271/435/266 265/438/272 234/371/273
f 240/324/260 269/432/262 270/427/255 239/374/254
f 229/368/271 267/437/270 268/429/257 235/367/257
f 234/371/273 265/438/272 266/433/263 230/370/263
f 267/439/246 279/440/246 280/441/247 268/442/247
f 270/443/250 282/444/250 288/445/244 276/446/244
f 272/447/242 284/448/242 279/440/246 267/439/246
f 276/446/244 288/445/244 283/449/245 271/450/245
f 265/451/253 277/452/253 278/453/252 266/454/252
f 268/442/247 280/441/247 287/455/251 275/456/251
f 271/450/245 283/449/245 277/452/253 265/451/253
f 275/456/251 287/455/251 286/457/248 274/458/248
f 269/459/241 273/460/240 285/461/240 281/462/241
f 269/459/241 281/462/241 282/444/250 270/443/250
f 273/463/249 274/458/248 286/457/248 285/464/249
f 266/465/243 278/466/243 284/448/242 272/447/242
f 281/467/217 285/468/217 262/469/217 264/470/217
f 286/471/217 287/472/217 261/473/217 260/474/217
f 282/475/217 281/467/217 264/470/217 263/476/217
f 287/472/217 280/477/217 259/478/217 261/473/217
f 288/479/217 282/475/217 263/476/217 256/480/217
f 256/480/217 257/481/217 283/482/217 288/479/217
f 255/483/217 253/484/217 279/485/217 284/486/217
f 257/481/217 258/487/217 277/488/217 283/482/217
f 254/489/217 255/483/217 284/486/217 278/490/217
f 258/487/217 254/489/217 278/490/217 277/488/217
f 279/485/217 253/484/217 259/478/217 280/477/217
f 285/468/217 286/471/217 260/474/217 262/469/217
usemtl white_alpha
f 289/326/218 300/327/219 239/328/220 232/329/221
f 300/327/219 299/330/222 240/331/222 239/328/220
f 299/330/223 298/332/223 238/333/223 240/331/223
f 298/334/224 297/335/224 236/336/224 238/337/224
f 297/335/225 296/338/226 237/339/227 236/336/225
f 296/338/226 295/340/228 235/341/229 237/339/227
f 295/340/228 294/342/230 229/343/231 235/341/229
f 294/342/230 293/344/232 231/345/232 229/343/231
f 293/344/233 292/346/233 230/347/233 231/345/233
f 292/348/234 291/349/234 234/350/234 230/351/234
f 291/349/235 290/352/236 233/353/237 234/350/235
f 290/352/236 289/326/218 232/329/221 233/353/237
f 34/491/274 2/492/244 289/326/275 290/352/276
f 32/493/235 34/491/274 290/352/276 291/349/235
f 29/494/234 32/493/234 291/349/234 292/348/234
f 26/495/233 29/494/233 292/346/233 293/344/233
f 23/496/277 26/495/232 293/344/232 294/342/278
f 19/497/247 23/496/277 294/342/278 295/340/279
f 17/498/280 19/497/247 295/340/279 296/338/281
f 14/499/225 17/498/280 296/338/281 297/335/225
f 11/500/224 14/499/224 297/335/224 298/334/224
f 8/501/223 11/502/223 298/332/223 299/330/223
f 4/503/282 8/501/222 299/330/222 300/327/283
f 2/492/244 4/503/282 300/327/283 289/326/275
f 302/504/284 367/505/285 369/506/286 306/507/287
f 306/507/287 369/506/286 370/508/288 305/509/289
f 305/509/289 370/508/288 371/510/290 304/511/291
f 304/511/291 371/510/290 372/512/292 303/513/293
f 303/513/293 372/512/292 368/514/294 301/515/295
f 367/505/285 361/516/296 363/517/297 369/506/286
f 369/506/286 363/517/297 364/518/298 370/508/288
f 370/508/288 364/518/298 365/519/299 371/510/290
f 371/510/290 365/519/299 366/520/300 372/512/292
f 372/512/292 366/520/300 362/521/301 368/514/294
f 361/516/296 355/522/302 357/523/303 363/517/297
f 363/517/297 357/523/303 358/524/304 364/518/298
f 364/518/298 358/524/304 359/525/305 365/519/299
f 365/519/299 359/525/305 360/526/306 366/520/300
f 366/520/300 360/526/306 356/527/307 362/521/301
f 355/522/302 349/528/308 351/529/309 357/523/303
f 357/523/303 351/529/309 352/530/310 358/524/304
f 358/524/304 352/530/310 353/531/311 359/525/305
f 359/525/305 353/531/311 354/532/312 360/526/306
f 360/526/306 354/532/312 350/533/313 356/527/307
f 349/528/308 343/534/314 345/535/315 351/529/309
f 351/529/309 345/535/315 346/536/316 352/530/310
f 352/530/310 346/536/316 347/537/317 353/531/311
f 353/531/311 347/537/317 348/538/318 354/532/312
f 354/532/312 348/538/318 344/539/319 350/533/313
f 343/534/314 337/540/320 339/541/321 345/535/315
f 345/535/315 339/541/321 340/542/322 346/536/316
f 346/536/316 340/542/322 341/543/323 347/537/317
f 347/537/317 341/543/323 342/544/324 348/538/318
f 348/538/318 342/544/324 338/545/325 344/539/319
f 337/540/320 331/546/326 333/547/327 339/541/321
f 339/541/321 333/547/327 334/548/328 340/542/322
f 340/542/322 334/548/328 335/549/329 341/543/323
f 341/543/323 335/549/329 336/550/330 342/544/324
f 342/544/324 336/550/330 332/551/331 338/545/325
f 331/546/326 325/552/332 327/553/333 333/547/327
f 333/547/327 327/553/333 328/554/334 334/548/328
f 334/548/328 328/554/334 329/555/335 335/549/329
f 335/549/329 329/555/335 330/556/336 336/550/330
f 336/550/330 330/556/336 326/557/337 332/551/331
f 325/552/332 319/558/338 321/559/339 327/553/333
f 327/553/333 321/559/339 322/560/340 328/554/334
f 328/554/334 322/560/340 323/561/341 329/555/335
f 329/555/335 323/561/341 324/562/342 330/556/336
f 330/556/336 324/562/342 320/563/343 326/557/337
f 319/558/338 313/564/344 315/565/345 321/559/339
f 321/559/339 315/565/345 316/566/346 322/560/340
f 322/560/340 316/566/346 317/567/347 323/561/341
f 323/561/341 317/567/347 318/568/348 324/562/342
f 324/562/342 318/568/348 314/569/349 320/563/343
f 313/564/344 307/570/350 309/571/351 315/565/345
f 315/565/345 309/571/351 310/572/352 316/566/346
f 316/566/346 310/572/352 311/573/353 317/567/347
f 317/567/347 311/573/353 312/574/354 318/568/348
f 318/568/348 312/574/354 308/575/355 314/569/349
f 307/570/350 302/504/284 306/507/287 309/571/351
f 309/571/351 306/507/287 305/509/289 310/572/352
f 310/572/352 305/509/289 304/511/291 311/573/353
f 311/573/353 304/511/291 303/513/293 312/574/354
f 312/574/354 303/513/293 301/515/295 308/575/355
f 367/505/285 302/504/284 289/576/356 290/577/357
f 301/515/295 368/514/294 362/521/301 356/527/307 350/533/313 344/539/319 338/545/325 332/551/331 326/557/337 320/563/343 314/569/349 308/575/355
f 302/504/284 307/570/350 300/578/358 289/576/356
f 307/570/350 313/564/344 299/579/359 300/578/358
f 313/564/344 319/558/338 298/580/360 299/579/359
f 319/558/338 325/552/332 297/581/361 298/580/360
f 325/552/332 331/546/326 296/582/362 297/581/361
f 331/546/326 337/540/320 295/583/363 296/582/362
f 337/540/320 343/534/314 294/584/364 295/583/363
f 343/534/314 349/528/308 293/585/365 294/584/364
f 349/528/308 355/522/302 292/586/366 293/585/365
f 355/522/302 361/516/296 291/587/367 292/586/366
f 361/516/296 367/505/285 290/577/357 291/587/367
