# Blender 4.5.3 LTS
# www.blender.org
mtllib speaker.mtl
o speaker
v 0.067500 0.285000 -0.075000
v 0.045300 0.082500 -0.021000
v 0.045300 0.217500 -0.021000
v 0.067500 0.300000 -0.067500
v 0.045300 0.074464 -0.019401
v 0.045300 0.209464 -0.019401
v 0.075000 0.285000 -0.067500
v 0.045300 0.067651 -0.014849
v 0.067500 0.289636 -0.074633
v 0.067500 0.293815 -0.073568
v 0.045300 0.063099 -0.008036
v 0.045300 0.202651 -0.014849
v 0.069818 0.285000 -0.074633
v 0.045300 0.061500 0.000000
v 0.069880 0.289786 -0.074198
v 0.045300 0.198099 -0.008036
v 0.045300 0.063099 0.008036
v 0.069802 0.293612 -0.073193
v 0.071908 0.285000 -0.073568
v 0.045300 0.067651 0.014849
v 0.045300 0.196500 0.000000
v 0.071810 0.289616 -0.073188
v 0.045300 0.074464 0.019401
v 0.071468 0.292937 -0.072475
v 0.045300 0.198099 0.008036
v 0.045300 0.082500 0.021000
v 0.069818 0.299266 -0.067500
v 0.071908 0.297136 -0.067500
v 0.045300 0.090536 0.019401
v 0.045300 0.202651 0.014849
v 0.067500 0.299266 -0.069818
v 0.045300 0.097349 0.014849
v 0.069893 0.298396 -0.069880
v 0.045300 0.209464 0.019401
v 0.045300 0.101901 0.008036
v 0.071806 0.296386 -0.069802
v 0.067500 0.297136 -0.071908
v 0.045300 0.103500 0.000000
v 0.045300 0.217500 0.021000
v 0.069808 0.296375 -0.071810
v 0.045300 0.101901 -0.008036
v 0.071468 0.294951 -0.071468
v 0.045300 0.097349 -0.014849
v 0.045300 0.225536 0.019401
v 0.074633 0.285000 -0.069818
v 0.073568 0.285000 -0.071908
v 0.045300 0.090536 -0.019401
v 0.045300 0.232349 0.014849
v 0.074633 0.289636 -0.067500
v 0.045300 0.236902 0.008036
v 0.074198 0.289759 -0.069893
v 0.073193 0.289604 -0.071806
v 0.073568 0.293815 -0.067500
v 0.045300 0.238500 0.000000
v 0.073188 0.293620 -0.069808
v 0.045300 0.236902 -0.008036
v 0.072475 0.292937 -0.071468
v 0.067500 0.000000 -0.067500
v 0.067500 0.015000 -0.075000
v 0.045300 0.232349 -0.014849
v 0.075000 0.015000 -0.067500
v 0.045300 0.225536 -0.019401
v 0.067500 0.000734 -0.069818
v 0.067500 0.002864 -0.071908
v 0.069818 0.000734 -0.067500
v 0.069880 0.001604 -0.069893
v 0.069802 0.003614 -0.071806
v 0.071908 0.002864 -0.067500
v 0.071810 0.003625 -0.069808
v 0.071468 0.005049 -0.071468
v 0.069818 0.015000 -0.074633
v 0.071908 0.015000 -0.073568
v 0.067500 0.010364 -0.074633
v 0.069893 0.010241 -0.074198
v 0.071806 0.010396 -0.073193
v 0.067500 0.006185 -0.073568
v 0.069808 0.006380 -0.073188
v 0.071468 0.007063 -0.072475
v 0.074633 0.010364 -0.067500
v 0.073568 0.006185 -0.067500
v 0.074633 0.015000 -0.069818
v 0.074198 0.010214 -0.069880
v 0.073193 0.006388 -0.069802
v 0.073568 0.015000 -0.071908
v 0.073188 0.010384 -0.071810
v 0.072475 0.007063 -0.071468
v 0.075000 0.285000 0.067500
v 0.067500 0.300000 0.067500
v 0.067500 0.285000 0.075000
v 0.074633 0.289636 0.067500
v 0.073568 0.293815 0.067500
v 0.074633 0.285000 0.069818
v 0.074198 0.289786 0.069880
v 0.073193 0.293612 0.069802
v 0.073568 0.285000 0.071908
v 0.073188 0.289616 0.071810
v 0.072475 0.292937 0.071468
v 0.067500 0.299266 0.069818
v 0.067500 0.297136 0.071908
v 0.069818 0.299266 0.067500
v 0.069880 0.298396 0.069893
v 0.069802 0.296386 0.071806
v 0.071908 0.297136 0.067500
v 0.071810 0.296375 0.069808
v 0.071468 0.294951 0.071468
v 0.069818 0.285000 0.074633
v 0.071908 0.285000 0.073568
v 0.067500 0.289636 0.074633
v 0.069893 0.289759 0.074198
v 0.071806 0.289604 0.073193
v 0.067500 0.293815 0.073568
v 0.069808 0.293620 0.073188
v 0.071468 0.292937 0.072475
v 0.075000 0.015000 0.067500
v 0.067500 0.015000 0.075000
v 0.067500 0.000000 0.067500
v 0.074633 0.015000 0.069818
v 0.073568 0.015000 0.071908
v 0.074633 0.010364 0.067500
v 0.074198 0.010241 0.069893
v 0.073193 0.010396 0.071806
v 0.073568 0.006185 0.067500
v 0.073188 0.006380 0.069808
v 0.072475 0.007063 0.071468
v 0.067500 0.010364 0.074633
v 0.067500 0.006185 0.073568
v 0.069818 0.015000 0.074633
v 0.069880 0.010214 0.074198
v 0.069802 0.006388 0.073193
v 0.071908 0.015000 0.073568
v 0.071810 0.010384 0.073188
v 0.071468 0.007063 0.072475
v 0.069818 0.000734 0.067500
v 0.071908 0.002864 0.067500
v 0.067500 0.000734 0.069818
v 0.069893 0.001604 0.069880
v 0.071806 0.003614 0.069802
v 0.067500 0.002864 0.071908
v 0.069808 0.003625 0.071810
v 0.071468 0.005049 0.071468
v -0.067500 0.285000 -0.075000
v -0.075000 0.285000 -0.067500
v -0.067500 0.300000 -0.067500
v -0.069818 0.285000 -0.074633
v -0.071908 0.285000 -0.073568
v -0.067500 0.289636 -0.074633
v -0.069893 0.289759 -0.074198
v -0.071806 0.289604 -0.073193
v -0.067500 0.293815 -0.073568
v -0.069808 0.293620 -0.073188
v -0.071468 0.292937 -0.072475
v -0.074633 0.289636 -0.067500
v -0.073568 0.293815 -0.067500
v -0.074633 0.285000 -0.069818
v -0.074198 0.289786 -0.069880
v -0.073193 0.293612 -0.069802
v -0.073568 0.285000 -0.071908
v -0.073188 0.289616 -0.071810
v -0.072475 0.292937 -0.071468
v -0.067500 0.299266 -0.069818
v -0.067500 0.297136 -0.071908
v -0.069818 0.299266 -0.067500
v -0.069880 0.298396 -0.069893
v -0.069802 0.296386 -0.071806
v -0.071908 0.297136 -0.067500
v -0.071810 0.296375 -0.069808
v -0.071468 0.294951 -0.071468
v -0.075000 0.015000 -0.067500
v -0.067500 0.015000 -0.075000
v -0.067500 0.000000 -0.067500
v -0.074633 0.015000 -0.069818
v -0.073568 0.015000 -0.071908
v -0.074633 0.010364 -0.067500
v -0.074198 0.010241 -0.069893
v -0.073193 0.010396 -0.071806
v -0.073568 0.006185 -0.067500
v -0.073188 0.006380 -0.069808
v -0.072475 0.007063 -0.071468
v -0.067500 0.010364 -0.074633
v -0.067500 0.006185 -0.073568
v -0.069818 0.015000 -0.074633
v -0.069880 0.010214 -0.074198
v -0.069802 0.006388 -0.073193
v -0.071908 0.015000 -0.073568
v -0.071810 0.010384 -0.073188
v -0.071468 0.007063 -0.072475
v -0.069818 0.000734 -0.067500
v -0.071908 0.002864 -0.067500
v -0.067500 0.000734 -0.069818
v -0.069893 0.001604 -0.069880
v -0.071806 0.003614 -0.069802
v -0.067500 0.002864 -0.071908
v -0.069808 0.003625 -0.071810
v -0.071468 0.005049 -0.071468
v -0.075000 0.285000 0.067500
v -0.067500 0.285000 0.075000
v -0.067500 0.300000 0.067500
v -0.074633 0.285000 0.069818
v -0.073568 0.285000 0.071908
v -0.074633 0.289636 0.067500
v -0.074198 0.289759 0.069893
v -0.073193 0.289604 0.071806
v -0.073568 0.293815 0.067500
v -0.073188 0.293620 0.069808
v -0.072475 0.292937 0.071468
v -0.067500 0.289636 0.074633
v -0.067500 0.293815 0.073568
v -0.069818 0.285000 0.074633
v -0.069880 0.289786 0.074198
v -0.069802 0.293612 0.073193
v -0.071908 0.285000 0.073568
v -0.071810 0.289616 0.073188
v -0.071468 0.292937 0.072475
v -0.069818 0.299266 0.067500
v -0.071908 0.297136 0.067500
v -0.067500 0.299266 0.069818
v -0.069893 0.298396 0.069880
v -0.071806 0.296386 0.069802
v -0.067500 0.297136 0.071908
v -0.069808 0.296375 0.071810
v -0.071468 0.294951 0.071468
v -0.067500 0.000000 0.067500
v -0.067500 0.015000 0.075000
v -0.075000 0.015000 0.067500
v -0.067500 0.000734 0.069818
v -0.067500 0.002864 0.071908
v -0.069818 0.000734 0.067500
v -0.069880 0.001604 0.069893
v -0.069802 0.003614 0.071806
v -0.071908 0.002864 0.067500
v -0.071810 0.003625 0.069808
v -0.071468 0.005049 0.071468
v -0.069818 0.015000 0.074633
v -0.071908 0.015000 0.073568
v -0.067500 0.010364 0.074633
v -0.069893 0.010241 0.074198
v -0.071806 0.010396 0.073193
v -0.067500 0.006185 0.073568
v -0.069808 0.006380 0.073188
v -0.071468 0.007063 0.072475
v -0.074633 0.010364 0.067500
v -0.073568 0.006185 0.067500
v -0.074633 0.015000 0.069818
v -0.074198 0.010214 0.069880
v -0.073193 0.006388 0.069802
v -0.073568 0.015000 0.071908
v -0.073188 0.010384 0.071810
v -0.072475 0.007063 0.071468
v 0.075000 0.150000 -0.067500
v 0.074633 0.150000 -0.069818
v 0.073568 0.150000 -0.071908
v 0.071908 0.150000 -0.073568
v 0.069818 0.150000 -0.074633
v 0.067500 0.150000 -0.075000
v 0.067500 0.150000 0.075000
v 0.069818 0.150000 0.074633
v 0.071908 0.150000 0.073568
v 0.073568 0.150000 0.071908
v 0.074633 0.150000 0.069818
v 0.075000 0.150000 0.067500
v -0.056676 0.236291 0.075000
v -0.056676 0.063709 0.075000
v 0.007500 0.150000 0.075000
v -0.052366 0.211017 0.075000
v -0.049657 0.181585 0.075000
v -0.048733 0.150000 0.075000
v -0.049657 0.118415 0.075000
v -0.052366 0.088983 0.075000
v -0.058963 0.063849 0.074633
v -0.058963 0.236151 0.074633
v -0.054660 0.089082 0.074633
v -0.051955 0.118466 0.074633
v -0.051033 0.150000 0.074633
v -0.051955 0.181534 0.074633
v -0.054660 0.210918 0.074633
v -0.060973 0.064207 0.073568
v -0.060973 0.235793 0.073568
v -0.056688 0.089335 0.073568
v -0.053995 0.118597 0.073568
v -0.053076 0.150000 0.073568
v -0.053995 0.181403 0.073568
v -0.056688 0.210665 0.073568
v -0.062537 0.064640 0.071908
v -0.062537 0.235360 0.071908
v -0.058274 0.089642 0.071908
v -0.055594 0.118756 0.071908
v -0.054680 0.150000 0.071908
v -0.055594 0.181244 0.071908
v -0.058274 0.210358 0.071908
v -0.063521 0.065004 0.069818
v -0.063521 0.234996 0.069818
v -0.059276 0.089899 0.069818
v -0.056607 0.118889 0.069818
v -0.055697 0.150000 0.069818
v -0.056607 0.181111 0.069818
v -0.059276 0.210101 0.069818
v -0.063844 0.065202 0.067500
v -0.063844 0.234798 0.067500
v -0.059609 0.090039 0.067500
v -0.056947 0.118962 0.067500
v -0.056039 0.150000 0.067500
v -0.056947 0.181038 0.067500
v -0.059609 0.209961 0.067500
v -0.056676 0.063709 -0.075000
v -0.056676 0.236291 -0.075000
v 0.007500 0.150000 -0.075000
v -0.052366 0.088983 -0.075000
v -0.049657 0.118415 -0.075000
v -0.048733 0.150000 -0.075000
v -0.049657 0.181585 -0.075000
v -0.052366 0.211017 -0.075000
v -0.058963 0.236151 -0.074633
v -0.058963 0.063849 -0.074633
v -0.054660 0.210918 -0.074633
v -0.051955 0.181534 -0.074633
v -0.051033 0.150000 -0.074633
v -0.051955 0.118466 -0.074633
v -0.054660 0.089082 -0.074633
v -0.060973 0.235793 -0.073568
v -0.060973 0.064207 -0.073568
v -0.056688 0.210665 -0.073568
v -0.053995 0.181403 -0.073568
v -0.053076 0.150000 -0.073568
v -0.053995 0.118597 -0.073568
v -0.056688 0.089335 -0.073568
v -0.062537 0.235360 -0.071908
v -0.062537 0.064640 -0.071908
v -0.058274 0.210358 -0.071908
v -0.055594 0.181244 -0.071908
v -0.054680 0.150000 -0.071908
v -0.055594 0.118756 -0.071908
v -0.058274 0.089642 -0.071908
v -0.063521 0.234996 -0.069818
v -0.063521 0.065004 -0.069818
v -0.059276 0.210101 -0.069818
v -0.056607 0.181111 -0.069818
v -0.055697 0.150000 -0.069818
v -0.056607 0.118889 -0.069818
v -0.059276 0.089899 -0.069818
v -0.063844 0.234798 -0.067500
v -0.063844 0.065202 -0.067500
v -0.059609 0.209961 -0.067500
v -0.056947 0.181038 -0.067500
v -0.056039 0.150000 -0.067500
v -0.056947 0.118962 -0.067500
v -0.059609 0.090039 -0.067500
v 0.075330 0.249836 0.013394
v 0.075330 0.252500 0.000000
v 0.075330 0.217500 -0.035000
v 0.075330 0.204106 -0.032336
v 0.075330 0.230894 -0.032336
v 0.075330 0.249836 -0.013394
v 0.075330 0.242249 -0.024749
v 0.075330 0.217500 0.035000
v 0.075330 0.192751 0.024749
v 0.075330 0.204106 0.032336
v 0.075330 0.230894 0.032336
v 0.075330 0.242249 0.024749
v 0.075330 0.185164 0.013394
v 0.075330 0.182500 0.000000
v 0.075330 0.185164 -0.013394
v 0.075330 0.192751 -0.024749
v 0.075330 0.107249 0.024749
v 0.075330 0.114836 0.013394
v 0.075330 0.114836 -0.013394
v 0.075330 0.117500 0.000000
v 0.075330 0.082500 -0.035000
v 0.075330 0.095894 -0.032336
v 0.075330 0.057751 -0.024749
v 0.075330 0.069106 -0.032336
v 0.075330 0.107249 -0.024749
v 0.075330 0.082500 0.035000
v 0.075330 0.069106 0.032336
v 0.075330 0.095894 0.032336
v 0.075330 0.050164 -0.013394
v 0.075330 0.047500 0.000000
v 0.075330 0.050164 0.013394
v 0.075330 0.057751 0.024749
v 0.075330 0.253069 0.014733
v 0.075330 0.256000 0.000000
v 0.075330 0.217500 -0.038500
v 0.075330 0.202767 -0.035569
v 0.075330 0.232233 -0.035569
v 0.075330 0.253069 -0.014733
v 0.075330 0.244724 -0.027224
v 0.075330 0.217500 0.038500
v 0.075330 0.190276 0.027224
v 0.075330 0.202767 0.035569
v 0.075330 0.232233 0.035569
v 0.075330 0.244724 0.027224
v 0.075330 0.181931 0.014733
v 0.075330 0.179000 0.000000
v 0.075330 0.181931 -0.014733
v 0.075330 0.190276 -0.027224
v 0.077330 0.253069 0.014733
v 0.077330 0.256000 0.000000
v 0.077330 0.217500 -0.038500
v 0.077330 0.202767 -0.035569
v 0.077330 0.232233 -0.035569
v 0.077330 0.253069 -0.014733
v 0.077330 0.244724 -0.027224
v 0.077330 0.217500 0.038500
v 0.077330 0.190276 0.027224
v 0.077330 0.202767 0.035569
v 0.077330 0.232233 0.035569
v 0.077330 0.244724 0.027224
v 0.077330 0.181931 0.014733
v 0.077330 0.179000 0.000000
v 0.077330 0.181931 -0.014733
v 0.077330 0.190276 -0.027224
v 0.075330 0.109724 0.027224
v 0.075330 0.118069 0.014733
v 0.075330 0.118069 -0.014733
v 0.075330 0.121000 0.000000
v 0.075330 0.082500 -0.038500
v 0.075330 0.097233 -0.035569
v 0.075330 0.055276 -0.027224
v 0.075330 0.067767 -0.035569
v 0.075330 0.109724 -0.027224
v 0.075330 0.082500 0.038500
v 0.075330 0.067767 0.035569
v 0.075330 0.097233 0.035569
v 0.075330 0.046931 -0.014733
v 0.075330 0.044000 0.000000
v 0.075330 0.046931 0.014733
v 0.075330 0.055276 0.027224
v 0.077330 0.109724 0.027224
v 0.077330 0.118069 0.014733
v 0.077330 0.118069 -0.014733
v 0.077330 0.121000 0.000000
v 0.077330 0.082500 -0.038500
v 0.077330 0.097233 -0.035569
v 0.077330 0.055276 -0.027224
v 0.077330 0.067767 -0.035569
v 0.077330 0.109724 -0.027224
v 0.077330 0.082500 0.038500
v 0.077330 0.067767 0.035569
v 0.077330 0.097233 0.035569
v 0.077330 0.046931 -0.014733
v 0.077330 0.044000 0.000000
v 0.077330 0.046931 0.014733
v 0.077330 0.055276 0.027224
v 0.075330 0.251453 0.014064
v 0.075330 0.254250 0.000000
v 0.075330 0.203436 -0.033953
v 0.075330 0.191514 -0.025986
v 0.075330 0.251453 -0.014064
v 0.075330 0.183547 -0.014064
v 0.075330 0.243486 -0.025986
v 0.075330 0.180750 0.000000
v 0.075330 0.231564 -0.033953
v 0.075330 0.203436 0.033953
v 0.075330 0.217500 0.036750
v 0.075330 0.183547 0.014064
v 0.075330 0.217500 -0.036750
v 0.075330 0.231564 0.033953
v 0.075330 0.191514 0.025986
v 0.075330 0.243486 0.025986
v 0.075330 0.082500 0.036750
v 0.075330 0.096564 0.033953
v 0.075330 0.082500 -0.036750
v 0.075330 0.068436 -0.033953
v 0.075330 0.108486 0.025986
v 0.075330 0.056514 0.025986
v 0.075330 0.068436 0.033953
v 0.075330 0.116453 0.014064
v 0.075330 0.056514 -0.025986
v 0.075330 0.119250 0.000000
v 0.075330 0.048547 -0.014064
v 0.075330 0.116453 -0.014064
v 0.075330 0.045750 0.000000
v 0.075330 0.108486 -0.025986
v 0.075330 0.048547 0.014064
v 0.075330 0.096564 -0.033953
v 0.077330 0.251453 0.014064
v 0.077330 0.254250 0.000000
v 0.077330 0.203436 -0.033953
v 0.077330 0.191514 -0.025986
v 0.077330 0.251453 -0.014064
v 0.077330 0.183547 -0.014064
v 0.077330 0.243486 -0.025986
v 0.077330 0.180750 0.000000
v 0.077330 0.231564 -0.033953
v 0.077330 0.203436 0.033953
v 0.077330 0.217500 0.036750
v 0.077330 0.183547 0.014064
v 0.077330 0.217500 -0.036750
v 0.077330 0.231564 0.033953
v 0.077330 0.191514 0.025986
v 0.077330 0.243486 0.025986
v 0.077330 0.082500 0.036750
v 0.077330 0.096564 0.033953
v 0.077330 0.082500 -0.036750
v 0.077330 0.068436 -0.033953
v 0.077330 0.108486 0.025986
v 0.077330 0.056514 0.025986
v 0.077330 0.068436 0.033953
v 0.077330 0.116453 0.014064
v 0.077330 0.056514 -0.025986
v 0.077330 0.119250 0.000000
v 0.077330 0.048547 -0.014064
v 0.077330 0.116453 -0.014064
v 0.077330 0.045750 0.000000
v 0.077330 0.108486 -0.025986
v 0.077330 0.048547 0.014064
v 0.077330 0.096564 -0.033953
vn 0.0806 0.0405 -0.9959
vn 0.0835 0.1629 -0.9831
vn 0.3184 0.1654 -0.9334
vn 0.3110 0.0407 -0.9495
vn 0.0879 0.3496 -0.9328
vn 0.3295 0.3379 -0.8816
vn 0.1081 0.5841 -0.8044
vn 0.3852 0.5314 -0.7545
vn 0.5877 0.1499 -0.7950
vn 0.5878 0.0383 -0.8081
vn 0.5773 0.2877 -0.7642
vn 0.6400 0.4249 -0.6401
vn 0.1528 0.9764 -0.1528
vn 0.5116 0.8478 -0.1396
vn 0.4766 0.7396 -0.4752
vn 0.1400 0.8476 -0.5118
vn 0.8047 0.5839 -0.1075
vn 0.7545 0.5317 -0.3849
vn 0.9328 0.3494 -0.0882
vn 0.8813 0.3382 -0.3301
vn 0.7642 0.2877 -0.5772
vn 0.9959 0.0413 -0.0806
vn 0.9495 0.0405 -0.3110
vn 0.9333 0.1647 -0.3191
vn 0.9830 0.1632 -0.0838
vn 0.8080 0.0381 -0.5879
vn 0.7952 0.1496 -0.5876
vn 0.1528 -0.9764 -0.1528
vn 0.1396 -0.8478 -0.5116
vn 0.4752 -0.7396 -0.4766
vn 0.5118 -0.8476 -0.1400
vn 0.1075 -0.5839 -0.8047
vn 0.3849 -0.5317 -0.7545
vn 0.0882 -0.3494 -0.9328
vn 0.3301 -0.3382 -0.8813
vn 0.7545 -0.5314 -0.3852
vn 0.8044 -0.5841 -0.1081
vn 0.6401 -0.4249 -0.6401
vn 0.5772 -0.2877 -0.7642
vn 0.0806 -0.0405 -0.9959
vn 0.3110 -0.0405 -0.9495
vn 0.3191 -0.1647 -0.9333
vn 0.0838 -0.1632 -0.9830
vn 0.5879 -0.0381 -0.8080
vn 0.5876 -0.1496 -0.7952
vn 0.8081 -0.0383 -0.5878
vn 0.7950 -0.1499 -0.5877
vn 0.7642 -0.2877 -0.5773
vn 0.9959 -0.0414 -0.0806
vn 0.9831 -0.1629 -0.0835
vn 0.9334 -0.1654 -0.3184
vn 0.9495 -0.0407 -0.3110
vn 0.9328 -0.3496 -0.0879
vn 0.8816 -0.3379 -0.3295
vn 0.9959 0.0413 0.0806
vn 0.9831 0.1629 0.0835
vn 0.9334 0.1654 0.3184
vn 0.9495 0.0407 0.3110
vn 0.9328 0.3496 0.0879
vn 0.8816 0.3379 0.3295
vn 0.8044 0.5841 0.1081
vn 0.7545 0.5314 0.3852
vn 0.7950 0.1499 0.5877
vn 0.8081 0.0383 0.5878
vn 0.7642 0.2877 0.5773
vn 0.6401 0.4249 0.6400
vn 0.1528 0.9764 0.1528
vn 0.1396 0.8478 0.5116
vn 0.4752 0.7396 0.4766
vn 0.5118 0.8476 0.1400
vn 0.1075 0.5839 0.8047
vn 0.3849 0.5317 0.7545
vn 0.0882 0.3494 0.9328
vn 0.3301 0.3382 0.8813
vn 0.5772 0.2877 0.7642
vn 0.0806 0.0405 0.9959
vn 0.3110 0.0405 0.9495
vn 0.3191 0.1647 0.9333
vn 0.0838 0.1632 0.9830
vn 0.5879 0.0381 0.8080
vn 0.5876 0.1496 0.7952
vn 0.9959 -0.0414 0.0806
vn 0.9495 -0.0405 0.3110
vn 0.9333 -0.1647 0.3191
vn 0.9830 -0.1632 0.0838
vn 0.8080 -0.0381 0.5879
vn 0.7952 -0.1496 0.5876
vn 0.5878 -0.0383 0.8081
vn 0.5877 -0.1499 0.7950
vn 0.8813 -0.3382 0.3301
vn 0.9328 -0.3494 0.0882
vn 0.7642 -0.2877 0.5772
vn 0.5773 -0.2877 0.7642
vn 0.0806 -0.0405 0.9959
vn 0.0835 -0.1629 0.9831
vn 0.3184 -0.1654 0.9334
vn 0.3110 -0.0407 0.9495
vn 0.0879 -0.3496 0.9328
vn 0.3295 -0.3379 0.8816
vn 0.1081 -0.5841 0.8044
vn 0.3852 -0.5314 0.7545
vn 0.6401 -0.4249 0.6401
vn 0.1528 -0.9764 0.1528
vn 0.5116 -0.8478 0.1396
vn 0.4766 -0.7396 0.4752
vn 0.1400 -0.8476 0.5118
vn 0.8047 -0.5839 0.1075
vn 0.7545 -0.5317 0.3849
vn -0.0860 0.0306 -0.9958
vn -0.3210 0.0042 -0.9471
vn -0.3191 0.1647 -0.9333
vn -0.0838 0.1632 -0.9830
vn -0.5950 -0.0279 -0.8032
vn -0.5876 0.1496 -0.7952
vn -0.8113 -0.0506 -0.5825
vn -0.7950 0.1499 -0.5877
vn -0.3301 0.3382 -0.8813
vn -0.0882 0.3494 -0.9328
vn -0.5772 0.2877 -0.7642
vn -0.7642 0.2877 -0.5773
vn -0.9945 -0.0679 -0.0801
vn -0.9831 0.1629 -0.0835
vn -0.9334 0.1654 -0.3184
vn -0.9494 -0.0626 -0.3077
vn -0.9328 0.3496 -0.0879
vn -0.8816 0.3379 -0.3295
vn -0.8044 0.5841 -0.1081
vn -0.7545 0.5314 -0.3852
vn -0.6401 0.4249 -0.6400
vn -0.1528 0.9764 -0.1528
vn -0.1396 0.8478 -0.5116
vn -0.4752 0.7396 -0.4766
vn -0.5118 0.8476 -0.1400
vn -0.1075 0.5839 -0.8047
vn -0.3849 0.5317 -0.7545
vn -0.9945 0.0679 -0.0801
vn -0.9494 0.0627 -0.3077
vn -0.9333 -0.1647 -0.3191
vn -0.9830 -0.1632 -0.0838
vn -0.8111 0.0508 -0.5827
vn -0.7952 -0.1496 -0.5876
vn -0.5949 0.0277 -0.8033
vn -0.5877 -0.1499 -0.7950
vn -0.8813 -0.3382 -0.3301
vn -0.9328 -0.3494 -0.0882
vn -0.7642 -0.2877 -0.5772
vn -0.5773 -0.2877 -0.7642
vn -0.0860 -0.0306 -0.9958
vn -0.0835 -0.1629 -0.9831
vn -0.3184 -0.1654 -0.9334
vn -0.3210 -0.0044 -0.9471
vn -0.0879 -0.3496 -0.9328
vn -0.3295 -0.3379 -0.8816
vn -0.1081 -0.5841 -0.8044
vn -0.3852 -0.5314 -0.7545
vn -0.6401 -0.4249 -0.6401
vn -0.1528 -0.9764 -0.1528
vn -0.5116 -0.8478 -0.1396
vn -0.4766 -0.7396 -0.4752
vn -0.1400 -0.8476 -0.5118
vn -0.8047 -0.5839 -0.1075
vn -0.7545 -0.5317 -0.3849
vn -0.9945 -0.0679 0.0801
vn -0.9494 -0.0627 0.3077
vn -0.9333 0.1647 0.3191
vn -0.9830 0.1632 0.0838
vn -0.8111 -0.0508 0.5827
vn -0.7952 0.1496 0.5876
vn -0.5949 -0.0277 0.8033
vn -0.5877 0.1499 0.7950
vn -0.8813 0.3382 0.3301
vn -0.9328 0.3494 0.0882
vn -0.7642 0.2877 0.5772
vn -0.5773 0.2877 0.7642
vn -0.0860 0.0306 0.9958
vn -0.0835 0.1629 0.9831
vn -0.3184 0.1654 0.9334
vn -0.3210 0.0044 0.9471
vn -0.0879 0.3496 0.9328
vn -0.3295 0.3379 0.8816
vn -0.1081 0.5841 0.8044
vn -0.3852 0.5314 0.7545
vn -0.6400 0.4249 0.6401
vn -0.1528 0.9764 0.1528
vn -0.5116 0.8478 0.1396
vn -0.4766 0.7396 0.4752
vn -0.1400 0.8476 0.5118
vn -0.8047 0.5839 0.1075
vn -0.7545 0.5317 0.3849
vn -0.1528 -0.9764 0.1528
vn -0.1396 -0.8478 0.5116
vn -0.4752 -0.7396 0.4766
vn -0.5118 -0.8476 0.1400
vn -0.1075 -0.5839 0.8047
vn -0.3849 -0.5317 0.7545
vn -0.0882 -0.3494 0.9328
vn -0.3301 -0.3382 0.8813
vn -0.7545 -0.5314 0.3852
vn -0.8044 -0.5841 0.1081
vn -0.6401 -0.4249 0.6401
vn -0.5772 -0.2877 0.7642
vn -0.0860 -0.0306 0.9958
vn -0.3210 -0.0042 0.9471
vn -0.3191 -0.1647 0.9333
vn -0.0838 -0.1632 0.9830
vn -0.5950 0.0279 0.8032
vn -0.5876 -0.1496 0.7952
vn -0.8113 0.0506 0.5825
vn -0.7950 -0.1499 0.5877
vn -0.7642 -0.2877 0.5773
vn -0.9945 0.0679 0.0801
vn -0.9831 -0.1629 0.0835
vn -0.9334 -0.1654 0.3184
vn -0.9494 0.0626 0.3077
vn -0.9328 -0.3496 0.0879
vn -0.8816 -0.3379 0.3295
vn 0.9969 -0.0001 -0.0785
vn 0.9511 -0.0000 -0.3090
vn 0.8090 -0.0000 -0.5878
vn 0.5878 -0.0000 -0.8090
vn 0.3090 -0.0000 -0.9511
vn 0.0785 -0.0000 -0.9969
vn 0.0785 -0.0000 0.9969
vn 0.3090 -0.0000 0.9511
vn 0.5878 -0.0000 0.8090
vn 0.8090 -0.0000 0.5878
vn 0.9511 -0.0000 0.3090
vn 0.9969 -0.0001 0.0785
vn 1.0000 -0.0003 -0.0000
vn 1.0000 0.0033 -0.0000
vn 1.0000 -0.0074 -0.0000
vn -0.0773 -0.0150 0.9969
vn -0.0769 -0.0099 0.9970
vn -0.0000 -0.0000 1.0000
vn -0.0775 -0.0046 0.9970
vn -0.0776 -0.0000 0.9970
vn -0.0775 0.0046 0.9970
vn -0.0769 0.0099 0.9970
vn -0.0773 0.0150 0.9969
vn -0.0773 0.0150 -0.9969
vn -0.0769 0.0099 -0.9970
vn -0.0000 -0.0000 -1.0000
vn -0.0775 0.0046 -0.9970
vn -0.0776 -0.0000 -0.9970
vn -0.0775 -0.0046 -0.9970
vn -0.0769 -0.0099 -0.9970
vn -0.0773 -0.0150 -0.9969
vn -0.9785 -0.1916 0.0760
vn -0.9785 -0.1916 -0.0760
vn -0.9888 -0.1291 -0.0747
vn -0.9888 -0.1291 0.0747
vn -0.9955 -0.0601 -0.0735
vn -0.9955 -0.0601 0.0735
vn -0.9973 -0.0000 -0.0732
vn -0.9973 -0.0000 0.0732
vn -0.9955 0.0601 -0.0735
vn -0.9955 0.0601 0.0735
vn -0.9888 0.1291 -0.0747
vn -0.9888 0.1291 0.0747
vn -0.9785 0.1916 -0.0760
vn -0.9785 0.1916 0.0760
vn -0.9355 0.1835 -0.3020
vn -0.9460 0.1239 -0.2994
vn -0.9532 0.0577 -0.2968
vn -0.9552 -0.0000 -0.2960
vn -0.9532 -0.0577 -0.2968
vn -0.9460 -0.1239 -0.2994
vn -0.9355 -0.1835 -0.3020
vn -0.7999 0.1572 -0.5792
vn -0.8093 0.1063 -0.5777
vn -0.8163 0.0495 -0.5754
vn -0.8184 -0.0000 -0.5747
vn -0.8163 -0.0495 -0.5754
vn -0.8093 -0.1063 -0.5777
vn -0.7999 -0.1572 -0.5792
vn -0.5839 0.1150 -0.8036
vn -0.5897 0.0777 -0.8039
vn -0.5950 0.0362 -0.8029
vn -0.5965 -0.0000 -0.8026
vn -0.5950 -0.0362 -0.8029
vn -0.5897 -0.0777 -0.8039
vn -0.5839 -0.1150 -0.8036
vn -0.3069 0.0604 -0.9498
vn -0.3081 0.0405 -0.9505
vn -0.3106 0.0189 -0.9504
vn -0.3113 -0.0000 -0.9503
vn -0.3106 -0.0189 -0.9504
vn -0.3081 -0.0405 -0.9505
vn -0.3069 -0.0604 -0.9498
vn -0.9355 -0.1835 0.3020
vn -0.9460 -0.1239 0.2994
vn -0.9532 -0.0577 0.2968
vn -0.9552 -0.0000 0.2960
vn -0.9532 0.0577 0.2968
vn -0.9460 0.1239 0.2994
vn -0.9355 0.1835 0.3020
vn -0.7999 -0.1572 0.5792
vn -0.8093 -0.1063 0.5777
vn -0.8163 -0.0495 0.5754
vn -0.8184 -0.0000 0.5747
vn -0.8163 0.0495 0.5754
vn -0.8093 0.1063 0.5777
vn -0.7999 0.1572 0.5792
vn -0.5839 -0.1150 0.8036
vn -0.5897 -0.0777 0.8039
vn -0.5950 -0.0362 0.8029
vn -0.5965 -0.0000 0.8026
vn -0.5950 0.0362 0.8029
vn -0.5897 0.0777 0.8039
vn -0.5839 0.1150 0.8036
vn -0.3069 -0.0604 0.9498
vn -0.3081 -0.0405 0.9505
vn -0.3106 -0.0189 0.9504
vn -0.3113 -0.0000 0.9503
vn -0.3106 0.0189 0.9504
vn -0.3081 0.0405 0.9505
vn -0.3069 0.0604 0.9498
vn 0.4225 -0.0000 0.9063
vn 0.4225 0.3468 0.8374
vn 0.4225 0.6409 0.6409
vn 0.4225 0.8374 0.3468
vn 0.4225 0.9063 -0.0000
vn 0.4225 0.8374 -0.3468
vn 0.4225 0.6409 -0.6409
vn 0.4225 0.3468 -0.8374
vn 0.4225 -0.0000 -0.9063
vn 0.4225 -0.3468 -0.8374
vn 0.4225 -0.6409 -0.6409
vn 0.4225 -0.8374 -0.3468
vn 0.4225 -0.9063 -0.0000
vn 0.4225 -0.8374 0.3468
vn 0.4225 -0.6409 0.6409
vn 0.4225 -0.3468 0.8374
vn 1.0000 -0.0000 -0.0000
vn -0.0000 0.3827 0.9239
vn -0.0000 0.7071 0.7071
vn -0.0000 -0.7071 0.7071
vn -0.0000 -0.3827 0.9239
vn -0.0000 0.9239 0.3827
vn -0.0000 -0.3827 -0.9239
vn -0.0000 -0.7071 -0.7071
vn -0.0000 1.0000 -0.0000
vn -0.0000 -0.9239 -0.3827
vn -0.0000 0.9239 -0.3827
vn -0.0000 -1.0000 -0.0000
vn -0.0000 0.7071 -0.7071
vn -0.0000 -0.9239 0.3827
vn -0.0000 0.3827 -0.9239
vt 0.983860 0.356085
vt 0.983501 0.350785
vt 0.988211 0.350599
vt 0.988497 0.356070
vt 0.982563 0.346029
vt 0.987161 0.346247
vt 0.321502 0.680426
vt 0.321502 0.676620
vt 0.326792 0.676396
vt 0.326778 0.679566
vt 0.680098 0.015901
vt 0.681081 0.010417
vt 0.684790 0.010609
vt 0.684050 0.015898
vt 0.683179 0.006033
vt 0.686049 0.006804
vt 0.330598 0.675613
vt 0.330598 0.677921
vt 0.321502 0.666518
vt 0.326815 0.666518
vt 0.326987 0.671972
vt 0.321502 0.671831
vt 0.331604 0.666518
vt 0.331371 0.671794
vt 0.697091 0.001994
vt 0.698413 0.005797
vt 0.693151 0.006020
vt 0.692063 0.002853
vt 0.689015 0.006803
vt 0.688213 0.004497
vt 0.699554 0.015897
vt 0.694280 0.015896
vt 0.693773 0.010443
vt 0.699261 0.010584
vt 0.688941 0.015896
vt 0.688861 0.010621
vt 0.325308 0.325308
vt 0.330621 0.325308
vt 0.330792 0.330762
vt 0.325308 0.330621
vt 0.335410 0.325308
vt 0.335177 0.330584
vt 0.339216 0.325308
vt 0.338343 0.330598
vt 0.330598 0.335186
vt 0.325308 0.335410
vt 0.334403 0.334403
vt 0.336711 0.334403
vt 0.986840 0.665459
vt 0.991477 0.665444
vt 0.991324 0.670910
vt 0.986583 0.670783
vt 0.680098 0.325307
vt 0.684050 0.325304
vt 0.684776 0.330580
vt 0.681092 0.330761
vt 0.688941 0.325302
vt 0.688848 0.330592
vt 0.990339 0.675366
vt 0.985737 0.675605
vt 0.686049 0.334401
vt 0.683196 0.335186
vt 0.689015 0.334400
vt 0.699554 0.325303
vt 0.699261 0.330616
vt 0.693801 0.330787
vt 0.694280 0.325302
vt 0.698413 0.335407
vt 0.693168 0.335173
vt 0.697091 0.339216
vt 0.692053 0.338342
vt 0.688213 0.336709
vt 0.989674 0.015985
vt 0.989381 0.010673
vt 0.994149 0.010504
vt 0.994363 0.015988
vt 0.988533 0.005886
vt 0.993181 0.006121
vt 0.335410 0.357112
vt 0.331604 0.357112
vt 0.331380 0.351823
vt 0.334550 0.351836
vt 0.997492 0.010702
vt 0.998006 0.015991
vt 0.996191 0.006897
vt 0.330598 0.348017
vt 0.332905 0.348017
vt 0.321502 0.357112
vt 0.321502 0.351799
vt 0.326956 0.351628
vt 0.326815 0.357112
vt 0.321502 0.347010
vt 0.326778 0.347243
vt 0.357094 0.344711
vt 0.357288 0.348516
vt 0.351961 0.348740
vt 0.351813 0.345571
vt 0.348077 0.349523
vt 0.347960 0.347216
vt 0.357455 0.358618
vt 0.352106 0.358618
vt 0.351884 0.353165
vt 0.357412 0.353305
vt 0.347199 0.358618
vt 0.347388 0.353342
vt 0.343205 0.358618
vt 0.344064 0.353329
vt 0.345655 0.349523
vt 0.989674 0.325391
vt 0.994363 0.325394
vt 0.994177 0.330848
vt 0.989381 0.330705
vt 0.998006 0.325397
vt 0.997488 0.330673
vt 0.343205 0.668025
vt 0.347199 0.668024
vt 0.347378 0.673314
vt 0.344052 0.673300
vt 0.993190 0.335274
vt 0.988533 0.335496
vt 0.996191 0.334494
vt 0.348077 0.677120
vt 0.345655 0.677120
vt 0.357455 0.668024
vt 0.357412 0.673337
vt 0.351915 0.673509
vt 0.352106 0.668024
vt 0.357288 0.678126
vt 0.351975 0.677894
vt 0.357094 0.681932
vt 0.351800 0.681060
vt 0.347960 0.679428
vt 0.015902 0.325308
vt 0.015902 0.330621
vt 0.010448 0.330792
vt 0.010589 0.325308
vt 0.015902 0.335410
vt 0.010626 0.335177
vt 0.015902 0.339216
vt 0.010613 0.338343
vt 0.006024 0.330598
vt 0.005800 0.325308
vt 0.006807 0.334403
vt 0.006807 0.336711
vt 0.695906 0.357631
vt 0.690654 0.357669
vt 0.690077 0.352230
vt 0.695547 0.352330
vt 0.685304 0.357726
vt 0.685156 0.352461
vt 0.680371 0.357797
vt 0.681050 0.352507
vt 0.689369 0.347837
vt 0.694609 0.347575
vt 0.685238 0.348661
vt 0.682246 0.348704
vt 0.357757 0.011621
vt 0.352386 0.011658
vt 0.352115 0.006364
vt 0.357672 0.006450
vt 0.347375 0.011896
vt 0.347520 0.006767
vt 0.343205 0.012312
vt 0.344050 0.007100
vt 0.352075 0.002258
vt 0.357425 0.001994
vt 0.348124 0.003186
vt 0.345595 0.003439
vt 0.012096 0.666518
vt 0.012096 0.671831
vt 0.006643 0.672003
vt 0.006784 0.666518
vt 0.012096 0.676620
vt 0.006820 0.676387
vt 0.012096 0.680426
vt 0.006807 0.679554
vt 0.002218 0.671808
vt 0.001994 0.666518
vt 0.003001 0.675613
vt 0.688193 0.344711
vt 0.684371 0.346385
vt 0.665582 0.015444
vt 0.665497 0.010274
vt 0.670822 0.010292
vt 0.670782 0.015612
vt 0.665250 0.005818
vt 0.670412 0.006218
vt 0.683350 0.667170
vt 0.688284 0.667100
vt 0.688224 0.672399
vt 0.684116 0.672445
vt 0.674990 0.010822
vt 0.675301 0.015968
vt 0.680371 0.672694
vt 0.685401 0.676266
vt 0.682497 0.677108
vt 0.688392 0.676223
vt 0.698886 0.667004
vt 0.698629 0.672328
vt 0.693191 0.672540
vt 0.693633 0.667042
vt 0.697783 0.677150
vt 0.692556 0.676955
vt 0.696427 0.681007
vt 0.691414 0.680164
vt 0.687571 0.678562
vt 0.325308 0.015902
vt 0.325308 0.010589
vt 0.330762 0.010418
vt 0.330621 0.015902
vt 0.325308 0.005800
vt 0.330584 0.006033
vt 0.325308 0.001994
vt 0.330598 0.002867
vt 0.335186 0.010613
vt 0.335410 0.015902
vt 0.334403 0.006807
vt 0.334403 0.004499
vt 0.357757 0.318701
vt 0.357672 0.324077
vt 0.352145 0.324301
vt 0.352386 0.318738
vt 0.357425 0.329127
vt 0.352090 0.328935
vt 0.357041 0.333367
vt 0.351756 0.332463
vt 0.347510 0.324335
vt 0.347375 0.318976
vt 0.348124 0.328320
vt 0.347891 0.330892
vt 0.666460 0.358619
vt 0.666417 0.353306
vt 0.671813 0.353135
vt 0.671723 0.358619
vt 0.666293 0.348517
vt 0.671518 0.348750
vt 0.012096 0.343205
vt 0.012096 0.347010
vt 0.006807 0.347234
vt 0.006820 0.344065
vt 0.676114 0.353329
vt 0.676382 0.358619
vt 0.675249 0.349524
vt 0.003001 0.348017
vt 0.003001 0.345709
vt 0.012096 0.357112
vt 0.006784 0.357112
vt 0.006612 0.351659
vt 0.012096 0.351799
vt 0.001994 0.357112
vt 0.002227 0.351836
vt 0.343205 0.319392
vt 0.344037 0.324667
vt 0.345595 0.328573
vt 0.015902 0.015902
vt 0.010589 0.015902
vt 0.010418 0.010448
vt 0.015902 0.010589
vt 0.005800 0.015902
vt 0.006033 0.010626
vt 0.001994 0.015902
vt 0.002867 0.010613
vt 0.010613 0.006024
vt 0.015902 0.005800
vt 0.006807 0.006807
vt 0.004499 0.006807
vt 0.666460 0.668025
vt 0.671723 0.668025
vt 0.671844 0.673479
vt 0.666417 0.673338
vt 0.676382 0.668025
vt 0.676105 0.673301
vt 0.664866 0.337190
vt 0.665250 0.332950
vt 0.670425 0.332899
vt 0.670091 0.336430
vt 0.671531 0.677903
vt 0.666293 0.678127
vt 0.675249 0.677120
vt 0.674046 0.332368
vt 0.673813 0.334939
vt 0.665582 0.322524
vt 0.670782 0.322692
vt 0.670852 0.328229
vt 0.665497 0.327900
vt 0.675301 0.323049
vt 0.674982 0.328387
vt 0.015902 0.001994
vt 0.010626 0.002855
vt 0.006807 0.004499
vt 0.676109 0.332678
vt 0.339216 0.015902
vt 0.699554 0.170600
vt 0.694280 0.170599
vt 0.688941 0.170599
vt 0.684050 0.170601
vt 0.680098 0.170604
vt 0.989987 0.510757
vt 0.985350 0.510772
vt 0.357455 0.513321
vt 0.352106 0.513321
vt 0.347199 0.513321
vt 0.343205 0.513321
vt 0.998006 0.170694
vt 0.994363 0.170691
vt 0.989674 0.170688
vt 0.321502 0.343205
vt 0.335410 0.666518
vt 0.001994 0.325308
vt 0.325308 0.339216
vt 0.775386 0.108619
vt 0.914367 0.108662
vt 0.920093 0.093315
vt 0.914367 0.077964
vt 0.898063 0.064947
vt 0.873661 0.056246
vt 0.844877 0.053184
vt 0.816093 0.056228
vt 0.791691 0.064915
vt 0.775386 0.077922
vt 0.769660 0.093269
vt 0.898063 0.121669
vt 0.791691 0.121636
vt 0.816093 0.130338
vt 0.844877 0.133400
vt 0.873661 0.130356
vt 0.914367 0.263365
vt 0.920093 0.248018
vt 0.914367 0.232667
vt 0.898063 0.219650
vt 0.873661 0.210949
vt 0.844877 0.207887
vt 0.816093 0.210931
vt 0.791691 0.219618
vt 0.775386 0.232625
vt 0.769660 0.247972
vt 0.775386 0.263322
vt 0.791691 0.276339
vt 0.816093 0.285041
vt 0.844877 0.288103
vt 0.873661 0.285059
vt 0.898063 0.276372
vt 0.641684 0.414437
vt 0.631820 0.443399
vt 0.494790 0.513322
vt 0.625619 0.477127
vt 0.623504 0.513322
vt 0.625619 0.549516
vt 0.631820 0.583244
vt 0.641684 0.612207
vt 0.721436 0.611068
vt 0.730350 0.582059
vt 0.857370 0.511459
vt 0.735803 0.548304
vt 0.737426 0.512103
vt 0.735106 0.475923
vt 0.729003 0.442229
vt 0.719532 0.413319
vt 0.412410 0.322525
vt 0.412410 0.015445
vt 0.439746 0.016978
vt 0.439746 0.324059
vt 0.472105 0.018131
vt 0.472105 0.325211
vt 0.507281 0.018823
vt 0.507281 0.325904
vt 0.542878 0.019010
vt 0.542878 0.326090
vt 0.576469 0.018676
vt 0.576469 0.325757
vt 0.605765 0.017846
vt 0.605765 0.324927
vt 0.605916 0.012666
vt 0.576551 0.013498
vt 0.542882 0.013832
vt 0.507202 0.013646
vt 0.471944 0.012951
vt 0.439510 0.011796
vt 0.412110 0.010259
vt 0.606103 0.008193
vt 0.576613 0.009028
vt 0.542799 0.009364
vt 0.506967 0.009177
vt 0.471558 0.008479
vt 0.438984 0.007319
vt 0.411467 0.005775
vt 0.711065 0.610592
vt 0.706332 0.610165
vt 0.715149 0.581469
vt 0.719927 0.581750
vt 0.720544 0.548078
vt 0.725349 0.548190
vt 0.722149 0.512267
vt 0.726962 0.512197
vt 0.719855 0.476478
vt 0.724656 0.476226
vt 0.713817 0.443148
vt 0.718588 0.442727
vt 0.704448 0.414550
vt 0.709171 0.413983
vt 0.716249 0.610946
vt 0.725148 0.581984
vt 0.730593 0.548283
vt 0.732213 0.512141
vt 0.729897 0.476019
vt 0.723803 0.442380
vt 0.714347 0.413517
vt 0.412109 0.327885
vt 0.439509 0.329422
vt 0.471944 0.330578
vt 0.507202 0.331272
vt 0.542882 0.331459
vt 0.576551 0.331124
vt 0.605916 0.330292
vt 0.411467 0.332908
vt 0.438984 0.334451
vt 0.471558 0.335612
vt 0.506967 0.336309
vt 0.542799 0.336496
vt 0.576613 0.336161
vt 0.606103 0.335325
vt 0.410611 0.337115
vt 0.438268 0.338667
vt 0.471007 0.339833
vt 0.506596 0.340534
vt 0.542610 0.340722
vt 0.576595 0.340385
vt 0.606236 0.339545
vt 0.646876 0.414597
vt 0.651353 0.415007
vt 0.641545 0.443803
vt 0.637028 0.443513
vt 0.635380 0.477336
vt 0.630837 0.477186
vt 0.633277 0.513322
vt 0.628725 0.513322
vt 0.635380 0.549308
vt 0.630837 0.549458
vt 0.641545 0.582841
vt 0.637028 0.583131
vt 0.651353 0.611637
vt 0.646876 0.612047
vt 0.874661 0.006886
vt 0.897941 0.006183
vt 0.878179 0.178187
vt 0.839379 0.179358
vt 0.927585 0.003882
vt 0.927585 0.174352
vt 0.223150 0.712247
vt 0.224919 0.678681
vt 0.392622 0.715356
vt 0.389673 0.771300
vt 0.226101 0.636621
vt 0.394592 0.645258
vt 0.226516 0.592473
vt 0.395284 0.571676
vt 0.226101 0.552955
vt 0.394592 0.505814
vt 0.224919 0.524085
vt 0.392622 0.457698
vt 0.223150 0.510258
vt 0.389673 0.434653
vt 0.315748 0.950124
vt 0.292483 0.949023
vt 0.325495 0.779065
vt 0.364270 0.780899
vt 0.262750 0.949023
vt 0.275941 0.779065
vt 0.231076 0.950124
vt 0.223150 0.780899
vt 0.752877 0.476136
vt 0.751734 0.511878
vt 0.583978 0.494223
vt 0.585882 0.434653
vt 0.751116 0.552168
vt 0.582947 0.561372
vt 0.751116 0.590872
vt 0.582947 0.625879
vt 0.751734 0.622098
vt 0.583978 0.677923
vt 0.752877 0.641092
vt 0.585882 0.709579
vt 0.785650 0.464386
vt 0.806850 0.441239
vt 0.829798 0.434653
vt 0.850999 0.445630
vt 0.867225 0.472499
vt 0.876007 0.511170
vt 0.876007 0.555755
vt 0.867225 0.599466
vt 0.850999 0.635650
vt 0.829798 0.658797
vt 0.806850 0.665383
vt 0.785650 0.654406
vt 0.769423 0.627537
vt 0.760642 0.588866
vt 0.760642 0.544281
vt 0.769423 0.500569
vt 0.874661 0.190126
vt 0.897941 0.189423
vt 0.878179 0.361427
vt 0.839379 0.362598
vt 0.927585 0.187123
vt 0.927585 0.357592
vt 0.403049 0.712247
vt 0.404818 0.678681
vt 0.572520 0.715356
vt 0.569572 0.771300
vt 0.406000 0.636621
vt 0.574491 0.645258
vt 0.406415 0.592473
vt 0.575183 0.571676
vt 0.406000 0.552955
vt 0.574491 0.505814
vt 0.404818 0.524085
vt 0.572521 0.457698
vt 0.403049 0.510258
vt 0.569572 0.434653
vt 0.675545 0.888403
vt 0.652281 0.887303
vt 0.685293 0.717344
vt 0.724067 0.719178
vt 0.622548 0.887303
vt 0.635738 0.717344
vt 0.590873 0.888403
vt 0.582947 0.719178
vt 0.831614 0.045366
vt 0.830471 0.081108
vt 0.662715 0.063452
vt 0.664620 0.003882
vt 0.829853 0.121398
vt 0.661685 0.130602
vt 0.829853 0.160102
vt 0.661685 0.195109
vt 0.830471 0.191328
vt 0.662715 0.247152
vt 0.831614 0.210322
vt 0.664620 0.278809
vt 0.806850 0.897292
vt 0.785649 0.874145
vt 0.769423 0.837961
vt 0.760641 0.794250
vt 0.760641 0.749665
vt 0.769423 0.710994
vt 0.785649 0.684125
vt 0.806850 0.673148
vt 0.829798 0.679734
vt 0.850999 0.702881
vt 0.867225 0.739064
vt 0.876007 0.782776
vt 0.876007 0.827361
vt 0.867225 0.866032
vt 0.850999 0.892901
vt 0.829798 0.903878
vt 0.649113 0.283369
vt 0.649113 0.205346
vt 0.653920 0.204868
vt 0.653920 0.286607
vt 0.490988 0.032706
vt 0.462592 0.079727
vt 0.458517 0.073267
vt 0.488266 0.024007
vt 0.633745 0.128850
vt 0.637821 0.124730
vt 0.447224 0.147401
vt 0.442417 0.144163
vt 0.605349 0.065529
vt 0.608072 0.058393
vt 0.447224 0.225425
vt 0.442417 0.225903
vt 0.568248 0.025022
vt 0.569204 0.015957
vt 0.528089 0.405748
vt 0.568248 0.417274
vt 0.569204 0.426888
vt 0.527133 0.414813
vt 0.462592 0.301920
vt 0.458517 0.306041
vt 0.528090 0.013496
vt 0.527134 0.003882
vt 0.605349 0.398064
vt 0.608072 0.406763
vt 0.490988 0.365241
vt 0.488265 0.372377
vt 0.633745 0.351043
vt 0.637820 0.357503
vt 0.673819 0.341156
vt 0.662816 0.341072
vt 0.661685 0.286574
vt 0.672687 0.286658
vt 0.972543 0.526723
vt 0.961523 0.526873
vt 0.960389 0.469626
vt 0.971409 0.469475
vt 0.889944 0.434687
vt 0.900941 0.434653
vt 0.897698 0.496191
vt 0.886700 0.496225
vt 0.372034 0.821717
vt 0.383033 0.822029
vt 0.383033 0.876539
vt 0.372034 0.876227
vt 0.895530 0.573299
vt 0.884532 0.573333
vt 0.385050 0.934609
vt 0.374052 0.934297
vt 0.894769 0.654239
vt 0.883771 0.654273
vt 0.969314 0.737072
vt 0.958294 0.737223
vt 0.960389 0.671696
vt 0.971409 0.671545
vt 0.895530 0.726687
vt 0.884532 0.726722
vt 0.374052 0.779065
vt 0.385050 0.779377
vt 0.961523 0.597831
vt 0.972543 0.597680
vt 0.897698 0.779615
vt 0.886700 0.779650
vt 0.958294 0.434803
vt 0.969314 0.434653
vt 0.900941 0.804965
vt 0.889944 0.804999
vt 0.672687 0.383841
vt 0.661685 0.383757
vt 0.129713 0.013496
vt 0.089555 0.025022
vt 0.088599 0.015957
vt 0.130669 0.003882
vt 0.089555 0.417274
vt 0.129713 0.405748
vt 0.130669 0.414813
vt 0.088598 0.426888
vt 0.052453 0.065529
vt 0.049730 0.058393
vt 0.195210 0.079727
vt 0.166814 0.032706
vt 0.169537 0.024007
vt 0.199286 0.073267
vt 0.024057 0.128850
vt 0.019982 0.124729
vt 0.166814 0.365241
vt 0.169537 0.372377
vt 0.008689 0.205346
vt 0.003882 0.204867
vt 0.195210 0.301920
vt 0.199285 0.306041
vt 0.008689 0.283369
vt 0.003882 0.286607
vt 0.210578 0.225425
vt 0.215385 0.225903
vt 0.024057 0.351043
vt 0.019982 0.357503
vt 0.210578 0.147401
vt 0.215385 0.144164
vt 0.052453 0.398064
vt 0.049730 0.406763
vt 0.971023 0.306302
vt 0.960004 0.306452
vt 0.962098 0.240925
vt 0.973118 0.240775
vt 0.908706 0.654273
vt 0.919704 0.654239
vt 0.920465 0.726687
vt 0.909467 0.726722
vt 0.963232 0.167060
vt 0.974252 0.166910
vt 0.922632 0.779615
vt 0.911634 0.779650
vt 0.973118 0.038705
vt 0.962098 0.038855
vt 0.960004 0.004033
vt 0.971023 0.003882
vt 0.963232 0.096103
vt 0.974252 0.095952
vt 0.925876 0.804965
vt 0.914878 0.804999
vt 0.692586 0.383841
vt 0.681583 0.383757
vt 0.682715 0.341072
vt 0.693718 0.341156
vt 0.741878 0.717344
vt 0.752877 0.717656
vt 0.750859 0.760308
vt 0.739861 0.759996
vt 0.681583 0.286574
vt 0.692586 0.286658
vt 0.914878 0.434687
vt 0.925876 0.434653
vt 0.922632 0.496191
vt 0.911634 0.496225
vt 0.750859 0.814818
vt 0.739861 0.814506
vt 0.920465 0.573299
vt 0.909467 0.573333
vt 0.752877 0.872888
vt 0.741878 0.872576
vt 0.629670 0.344583
vt 0.644306 0.280132
vt 0.493711 0.358105
vt 0.529046 0.396683
vt 0.529046 0.023110
vt 0.493711 0.041405
vt 0.602626 0.389365
vt 0.466667 0.297799
vt 0.567292 0.407660
vt 0.567292 0.034087
vt 0.452031 0.224947
vt 0.602626 0.072665
vt 0.452031 0.150638
vt 0.629670 0.132971
vt 0.466667 0.086187
vt 0.644306 0.205824
vt 0.055176 0.389365
vt 0.090511 0.407660
vt 0.205771 0.150638
vt 0.191135 0.086187
vt 0.164091 0.041405
vt 0.128757 0.023110
vt 0.028132 0.344583
vt 0.205771 0.224947
vt 0.013496 0.280132
vt 0.191135 0.297799
vt 0.013496 0.205824
vt 0.164091 0.358105
vt 0.028132 0.132971
vt 0.128757 0.396683
vt 0.055176 0.072665
vt 0.090511 0.034087
vt 0.996118 0.003882
vt 0.994118 0.066431
vt 0.983099 0.066581
vt 0.985098 0.004033
vt 0.940515 0.078636
vt 0.938446 0.028114
vt 0.949444 0.028080
vt 0.951513 0.078602
vt 0.994409 0.434653
vt 0.992409 0.497201
vt 0.981389 0.497352
vt 0.983389 0.434803
vt 0.732332 0.327402
vt 0.733412 0.379423
vt 0.722410 0.379339
vt 0.721330 0.327318
vt 0.713565 0.286658
vt 0.712485 0.327402
vt 0.701482 0.327318
vt 0.702562 0.286574
vt 0.415430 0.834495
vt 0.413504 0.779065
vt 0.424502 0.779377
vt 0.426428 0.834807
vt 0.394741 0.886527
vt 0.394741 0.834495
vt 0.405739 0.834807
vt 0.405739 0.886840
vt 0.938806 0.509406
vt 0.936737 0.458884
vt 0.947735 0.458850
vt 0.949803 0.509372
vt 0.941241 0.147792
vt 0.952239 0.147757
vt 0.415430 0.886527
vt 0.426428 0.886840
vt 0.392815 0.927241
vt 0.403813 0.927553
vt 0.994118 0.259316
vt 0.996118 0.292555
vt 0.985098 0.292706
vt 0.983099 0.259466
vt 0.733412 0.286658
vt 0.722410 0.286574
vt 0.992409 0.690086
vt 0.994409 0.723326
vt 0.983389 0.723476
vt 0.981389 0.690237
vt 0.939532 0.578562
vt 0.950530 0.578528
vt 0.413504 0.927241
vt 0.424502 0.927553
vt 0.940515 0.225052
vt 0.951513 0.225018
vt 0.933640 0.434687
vt 0.944638 0.434653
vt 0.935350 0.003917
vt 0.946347 0.003882
vt 0.993036 0.204670
vt 0.982016 0.204821
vt 0.991327 0.635441
vt 0.980307 0.635591
vt 0.938806 0.655822
vt 0.949803 0.655788
vt 0.938446 0.298656
vt 0.949444 0.298621
vt 0.993036 0.136938
vt 0.982016 0.137089
vt 0.991327 0.567708
vt 0.980307 0.567859
vt 0.936737 0.729426
vt 0.947735 0.729392
vt 0.935350 0.357397
vt 0.946347 0.357362
vt 0.933640 0.788167
vt 0.944638 0.788133
vt 0.392815 0.779065
vt 0.403813 0.779377
vt 0.713565 0.379423
vt 0.702562 0.379339
vt 0.169537 0.489163
vt 0.199286 0.555500
vt 0.195210 0.559620
vt 0.166814 0.496299
vt 0.215385 0.635638
vt 0.215385 0.717377
vt 0.210578 0.714140
vt 0.210578 0.636116
vt 0.088599 0.434653
vt 0.130669 0.446727
vt 0.129713 0.455792
vt 0.089555 0.444266
vt 0.199285 0.788273
vt 0.195210 0.781813
vt 0.024057 0.510497
vt 0.008689 0.578171
vt 0.003882 0.574934
vt 0.019982 0.504037
vt 0.052453 0.463476
vt 0.049731 0.454777
vt 0.089555 0.836518
vt 0.088598 0.845583
vt 0.049730 0.803147
vt 0.052453 0.796011
vt 0.019982 0.736811
vt 0.024057 0.732690
vt 0.129713 0.848044
vt 0.166814 0.828835
vt 0.169537 0.837534
vt 0.130669 0.857658
vt 0.008689 0.656195
vt 0.003882 0.656673
vt 0.223150 0.204867
vt 0.239250 0.124729
vt 0.243325 0.128850
vt 0.227957 0.205346
vt 0.223150 0.286607
vt 0.227957 0.283369
vt 0.429846 0.147401
vt 0.434653 0.144164
vt 0.434653 0.225903
vt 0.429846 0.225425
vt 0.414478 0.079727
vt 0.418553 0.073267
vt 0.239249 0.357503
vt 0.243325 0.351043
vt 0.307866 0.426888
vt 0.268998 0.406763
vt 0.271721 0.398064
vt 0.308822 0.417274
vt 0.386082 0.365241
vt 0.414478 0.301920
vt 0.418553 0.306041
vt 0.388805 0.372377
vt 0.271721 0.065529
vt 0.268998 0.058393
vt 0.307866 0.015957
vt 0.308822 0.025022
vt 0.348980 0.405748
vt 0.349936 0.414813
vt 0.348980 0.013496
vt 0.349937 0.003882
vt 0.388805 0.024007
vt 0.386082 0.032706
s 1
usemtl grey_plastic
f 1/1/1 9/2/2 15/3/3 13/4/4
f 9/2/2 10/5/5 18/6/6 15/3/3
f 10/7/5 37/8/7 40/9/8 18/10/6
f 13/11/4 15/12/3 22/13/9 19/14/10
f 15/12/3 18/15/6 24/16/11 22/13/9
f 18/10/6 40/9/8 42/17/12 24/18/11
f 4/19/13 27/20/14 33/21/15 31/22/16
f 27/20/14 28/23/17 36/24/18 33/21/15
f 28/25/17 53/26/19 55/27/20 36/28/18
f 31/22/16 33/21/15 40/9/8 37/8/7
f 33/21/15 36/24/18 42/17/12 40/9/8
f 36/28/18 55/27/20 57/29/21 42/30/12
f 7/31/22 45/32/23 51/33/24 49/34/25
f 45/32/23 46/35/26 52/36/27 51/33/24
f 46/35/26 19/14/10 22/13/9 52/36/27
f 49/34/25 51/33/24 55/27/20 53/26/19
f 51/33/24 52/36/27 57/29/21 55/27/20
f 52/36/27 22/13/9 24/16/11 57/29/21
f 24/16/11 42/30/12 57/29/21
f 58/37/28 63/38/29 66/39/30 65/40/31
f 63/38/29 64/41/32 67/42/33 66/39/30
f 64/41/32 76/43/34 77/44/35 67/42/33
f 65/40/31 66/39/30 69/45/36 68/46/37
f 66/39/30 67/42/33 70/47/38 69/45/36
f 67/42/33 77/44/35 78/48/39 70/47/38
f 59/49/40 71/50/41 74/51/42 73/52/43
f 71/53/41 72/54/44 75/55/45 74/56/42
f 72/54/44 84/57/46 85/58/47 75/55/45
f 73/52/43 74/51/42 77/59/35 76/60/34
f 74/56/42 75/55/45 78/61/39 77/62/35
f 75/55/45 85/58/47 86/63/48 78/61/39
f 61/64/49 79/65/50 82/66/51 81/67/52
f 79/65/50 80/68/53 83/69/54 82/66/51
f 80/68/53 68/70/37 69/71/36 83/69/54
f 81/67/52 82/66/51 85/58/47 84/57/46
f 82/66/51 83/69/54 86/63/48 85/58/47
f 83/69/54 69/71/36 70/72/38 86/63/48
f 70/72/38 78/61/39 86/63/48
f 87/73/55 90/74/56 93/75/57 92/76/58
f 90/74/56 91/77/59 94/78/60 93/75/57
f 91/79/59 103/80/61 104/81/62 94/82/60
f 92/76/58 93/75/57 96/83/63 95/84/64
f 93/75/57 94/78/60 97/85/65 96/83/63
f 94/82/60 104/81/62 105/86/66 97/87/65
f 88/88/67 98/89/68 101/90/69 100/91/70
f 98/89/68 99/92/71 102/93/72 101/90/69
f 99/94/71 111/95/73 112/96/74 102/97/72
f 100/91/70 101/90/69 104/81/62 103/80/61
f 101/90/69 102/93/72 105/86/66 104/81/62
f 102/97/72 112/96/74 113/98/75 105/99/66
f 89/100/76 106/101/77 109/102/78 108/103/79
f 106/101/77 107/104/80 110/105/81 109/102/78
f 107/104/80 95/106/64 96/107/63 110/105/81
f 108/103/79 109/102/78 112/96/74 111/95/73
f 109/102/78 110/105/81 113/98/75 112/96/74
f 110/105/81 96/107/63 97/108/65 113/98/75
f 97/108/65 105/99/66 113/98/75
f 114/109/82 117/110/83 120/111/84 119/112/85
f 117/110/83 118/113/86 121/114/87 120/111/84
f 118/115/86 130/116/88 131/117/89 121/118/87
f 119/112/85 120/111/84 123/119/90 122/120/91
f 120/111/84 121/114/87 124/121/92 123/119/90
f 121/118/87 131/117/89 132/122/93 124/123/92
f 115/124/94 125/125/95 128/126/96 127/127/97
f 125/125/95 126/128/98 129/129/99 128/126/96
f 126/128/98 138/130/100 139/131/101 129/129/99
f 127/127/97 128/126/96 131/117/89 130/116/88
f 128/126/96 129/129/99 132/122/93 131/117/89
f 129/129/99 139/131/101 140/132/102 132/122/93
f 116/133/103 133/134/104 136/135/105 135/136/106
f 133/134/104 134/137/107 137/138/108 136/135/105
f 134/137/107 122/139/91 123/140/90 137/138/108
f 135/136/106 136/135/105 139/141/101 138/142/100
f 136/135/105 137/138/108 140/143/102 139/141/101
f 137/138/108 123/140/90 124/144/92 140/143/102
f 124/123/92 132/122/93 140/132/102
f 141/145/109 144/146/110 147/147/111 146/148/112
f 144/146/110 145/149/113 148/150/114 147/147/111
f 145/149/113 157/151/115 158/152/116 148/150/114
f 146/148/112 147/147/111 150/153/117 149/154/118
f 147/147/111 148/150/114 151/155/119 150/153/117
f 148/150/114 158/152/116 159/156/120 151/155/119
f 142/157/121 152/158/122 155/159/123 154/160/124
f 152/158/122 153/161/125 156/162/126 155/159/123
f 153/161/125 165/163/127 166/164/128 156/162/126
f 154/160/124 155/159/123 158/165/116 157/166/115
f 155/159/123 156/162/126 159/167/120 158/165/116
f 156/162/126 166/164/128 167/168/129 159/167/120
f 143/169/130 160/170/131 163/171/132 162/172/133
f 160/170/131 161/173/134 164/174/135 163/171/132
f 161/173/134 149/175/118 150/176/117 164/174/135
f 162/172/133 163/171/132 166/177/128 165/178/127
f 163/171/132 164/174/135 167/179/129 166/177/128
f 164/180/135 150/153/117 151/155/119 167/181/129
f 151/155/119 159/156/120 167/181/129
f 168/182/136 171/183/137 174/184/138 173/185/139
f 171/183/137 172/186/140 175/187/141 174/184/138
f 172/188/140 184/189/142 185/190/143 175/191/141
f 173/185/139 174/184/138 177/192/144 176/193/145
f 174/194/138 175/191/141 178/195/146 177/196/144
f 175/191/141 185/190/143 186/197/147 178/195/146
f 169/198/148 179/199/149 182/200/150 181/201/151
f 179/199/149 180/202/152 183/203/153 182/200/150
f 180/202/152 192/204/154 193/205/155 183/203/153
f 181/201/151 182/200/150 185/190/143 184/189/142
f 182/200/150 183/203/153 186/197/147 185/190/143
f 183/203/153 193/205/155 194/206/156 186/197/147
f 170/207/157 187/208/158 190/209/159 189/210/160
f 187/208/158 188/211/161 191/212/162 190/209/159
f 188/211/161 176/213/145 177/214/144 191/212/162
f 189/210/160 190/209/159 193/215/155 192/216/154
f 190/209/159 191/212/162 194/217/156 193/215/155
f 191/212/162 177/214/144 178/218/146 194/217/156
f 178/195/146 186/197/147 194/206/156
f 195/219/163 198/220/164 201/221/165 200/222/166
f 198/220/164 199/223/167 202/224/168 201/221/165
f 199/223/167 211/225/169 212/226/170 202/224/168
f 200/222/166 201/221/165 204/227/171 203/228/172
f 201/221/165 202/224/168 205/229/173 204/227/171
f 202/224/168 212/226/170 213/230/174 205/229/173
f 196/231/175 206/232/176 209/233/177 208/234/178
f 206/232/176 207/235/179 210/236/180 209/233/177
f 207/237/179 219/238/181 220/239/182 210/240/180
f 208/234/178 209/233/177 212/241/170 211/242/169
f 209/233/177 210/236/180 213/243/174 212/241/170
f 210/240/180 220/239/182 221/244/183 213/245/174
f 197/246/184 214/247/185 217/248/186 216/249/187
f 214/247/185 215/250/188 218/251/189 217/248/186
f 215/252/188 203/228/172 204/227/171 218/253/189
f 216/249/187 217/248/186 220/239/182 219/238/181
f 217/248/186 218/251/189 221/244/183 220/239/182
f 218/253/189 204/227/171 205/229/173 221/254/183
f 205/229/173 213/230/174 221/254/183
f 222/255/190 225/256/191 228/257/192 227/258/193
f 225/256/191 226/259/194 229/260/195 228/257/192
f 226/259/194 238/261/196 239/262/197 229/260/195
f 227/258/193 228/257/192 231/263/198 230/264/199
f 228/257/192 229/260/195 232/265/200 231/263/198
f 229/260/195 239/262/197 240/266/201 232/265/200
f 223/267/202 233/268/203 236/269/204 235/270/205
f 233/268/203 234/271/206 237/272/207 236/269/204
f 234/273/206 246/274/208 247/275/209 237/276/207
f 235/270/205 236/269/204 239/277/197 238/278/196
f 236/269/204 237/272/207 240/279/201 239/277/197
f 237/276/207 247/275/209 248/280/210 240/281/201
f 224/282/211 241/283/212 244/284/213 243/285/214
f 241/283/212 242/286/215 245/287/216 244/284/213
f 242/288/215 230/264/199 231/263/198 245/289/216
f 243/285/214 244/284/213 247/275/209 246/274/208
f 244/284/213 245/287/216 248/280/210 247/275/209
f 245/289/216 231/263/198 232/265/200 248/290/210
f 232/291/200 240/281/201 248/280/210
f 170/207/157 222/255/190 227/258/193 187/208/158
f 187/208/158 227/258/193 230/264/199 188/211/161
f 188/211/161 230/264/199 242/288/215 176/213/145
f 176/193/145 242/286/215 241/283/212 173/185/139
f 173/185/139 241/283/212 224/282/211 168/182/136
f 58/37/28 170/207/157 189/210/160 63/38/29
f 63/38/29 189/210/160 192/216/154 64/41/32
f 64/41/32 192/216/154 180/292/152 76/43/34
f 76/60/34 180/202/152 179/199/149 73/52/43
f 73/52/43 179/199/149 169/198/148 59/49/40
f 249/293/217 61/64/49 81/67/52 250/294/218
f 250/294/218 81/67/52 84/57/46 251/295/219
f 251/295/219 84/57/46 72/54/44 252/296/220
f 252/296/220 72/54/44 71/53/41 253/297/221
f 253/298/221 71/50/41 59/49/40 254/299/222
f 255/300/223 115/124/94 127/127/97 256/301/224
f 256/301/224 127/127/97 130/116/88 257/302/225
f 257/302/225 130/116/88 118/115/86 258/303/226
f 258/304/226 118/113/86 117/110/83 259/305/227
f 259/305/227 117/110/83 114/109/82 260/306/228
f 88/88/67 197/246/184 216/249/187 98/89/68
f 98/89/68 216/249/187 219/238/181 99/92/71
f 99/92/71 219/238/181 207/237/179 111/307/73
f 111/95/73 207/235/179 206/232/176 108/103/79
f 108/103/79 206/232/176 196/231/175 89/100/76
f 4/19/13 88/88/67 100/91/70 27/20/14
f 27/20/14 100/91/70 103/80/61 28/23/17
f 28/23/17 103/80/61 91/79/59 53/308/19
f 53/26/19 91/77/59 90/74/56 49/34/25
f 49/34/25 90/74/56 87/73/55 7/31/22
f 222/255/190 116/133/103 135/136/106 225/256/191
f 225/256/191 135/136/106 138/142/100 226/259/194
f 226/259/194 138/142/100 126/309/98 238/261/196
f 238/278/196 126/128/98 125/125/95 235/270/205
f 235/270/205 125/125/95 115/124/94 223/267/202
f 197/246/184 143/169/130 162/172/133 214/247/185
f 214/247/185 162/172/133 165/178/127 215/250/188
f 215/252/188 165/163/127 153/161/125 203/228/172
f 203/228/172 153/161/125 152/158/122 200/222/166
f 200/222/166 152/158/122 142/157/121 195/219/163
f 143/169/130 4/19/13 31/22/16 160/170/131
f 160/170/131 31/22/16 37/8/7 161/173/134
f 161/173/134 37/8/7 10/7/5 149/175/118
f 149/154/118 10/5/5 9/2/2 146/148/112
f 146/148/112 9/2/2 1/1/1 141/145/109
f 116/133/103 58/37/28 65/40/31 133/134/104
f 133/134/104 65/40/31 68/46/37 134/137/107
f 134/137/107 68/46/37 80/310/53 122/139/91
f 122/120/91 80/68/53 79/65/50 119/112/85
f 119/112/85 79/65/50 61/64/49 114/109/82
f 350/311/229 249/293/217 7/31/22 87/73/55 260/306/228 356/312/229 354/313/230 357/314/230 358/315/230 347/316/230 348/317/230 352/318/230 353/319/230 351/320/230 349/321/230
f 355/322/231 356/312/229 260/306/228 249/293/217 350/311/229 362/323/231 361/324/231 360/325/231 359/326/231
f 4/19/13 143/169/130 197/246/184 88/88/67
f 170/207/157 58/37/28 116/133/103 222/255/190
f 61/64/49 249/293/217 260/306/228 114/109/82 373/327/229 372/328/230 374/329/230 363/330/230 364/331/230 366/332/230 365/333/230 371/334/230 368/335/230 367/336/230 370/337/229
f 373/327/229 114/109/82 61/64/49 370/337/229 369/338/231 375/339/231 376/340/231 377/341/231 378/342/231
f 92/76/58 259/305/227 260/306/228 87/73/55
f 95/84/64 258/304/226 259/305/227 92/76/58
f 107/104/80 257/302/225 258/303/226 95/106/64
f 106/101/77 256/301/224 257/302/225 107/104/80
f 89/100/76 255/300/223 256/301/224 106/101/77
f 13/4/4 253/298/221 254/299/222 1/1/1
f 19/14/10 252/296/220 253/297/221 13/11/4
f 46/35/26 251/295/219 252/296/220 19/14/10
f 45/32/23 250/294/218 251/295/219 46/35/26
f 7/31/22 249/293/217 250/294/218 45/32/23
f 261/343/232 264/344/233 263/345/234
f 264/344/233 265/346/235 263/345/234
f 265/346/235 266/347/236 263/345/234
f 266/347/236 267/348/237 263/345/234
f 267/348/237 268/349/238 263/345/234
f 268/349/238 262/350/239 263/345/234
f 304/351/240 307/352/241 306/353/242
f 307/352/241 308/354/243 306/353/242
f 308/354/243 309/355/244 306/353/242
f 309/355/244 310/356/245 306/353/242
f 310/356/245 311/357/246 306/353/242
f 311/357/246 305/358/247 306/353/242
f 298/359/248 340/360/249 342/361/250 303/362/251
f 303/362/251 342/361/250 343/363/252 302/364/253
f 302/364/253 343/363/252 344/365/254 301/366/255
f 301/366/255 344/365/254 345/367/256 300/368/257
f 300/368/257 345/367/256 346/369/258 299/370/259
f 299/370/259 346/369/258 341/371/260 297/372/261
f 334/373/262 341/371/260 346/369/258 339/374/263
f 339/374/263 346/369/258 345/367/256 338/375/264
f 338/375/264 345/367/256 344/365/254 337/376/265
f 337/376/265 344/365/254 343/363/252 336/377/266
f 336/377/266 343/363/252 342/361/250 335/378/267
f 335/378/267 342/361/250 340/360/249 333/379/268
f 327/380/269 334/373/262 339/374/263 332/381/270
f 332/381/270 339/374/263 338/375/264 331/382/271
f 331/382/271 338/375/264 337/376/265 330/383/272
f 330/383/272 337/376/265 336/377/266 329/384/273
f 329/384/273 336/377/266 335/378/267 328/385/274
f 328/385/274 335/378/267 333/379/268 326/386/275
f 320/387/276 327/388/269 332/389/270 325/390/277
f 325/390/277 332/389/270 331/391/271 324/392/278
f 324/392/278 331/391/271 330/393/272 323/394/279
f 323/394/279 330/393/272 329/395/273 322/396/280
f 322/396/280 329/395/273 328/397/274 321/398/281
f 321/398/281 328/397/274 326/399/275 319/400/282
f 313/401/283 320/387/276 325/390/277 318/402/284
f 318/402/284 325/390/277 324/392/278 317/403/285
f 317/403/285 324/392/278 323/394/279 316/404/286
f 316/404/286 323/394/279 322/396/280 315/405/287
f 315/405/287 322/396/280 321/398/281 314/406/288
f 314/406/288 321/398/281 319/400/282 312/407/289
f 304/351/240 313/401/283 318/402/284 307/352/241
f 307/352/241 318/402/284 317/403/285 308/354/243
f 308/354/243 317/403/285 316/404/286 309/355/244
f 309/355/244 316/404/286 315/405/287 310/356/245
f 310/356/245 315/405/287 314/406/288 311/357/246
f 311/357/246 314/406/288 312/407/289 305/358/247
f 291/408/290 298/359/248 303/362/251 296/409/291
f 296/409/291 303/362/251 302/364/253 295/410/292
f 295/410/292 302/364/253 301/366/255 294/411/293
f 294/411/293 301/366/255 300/368/257 293/412/294
f 293/412/294 300/368/257 299/370/259 292/413/295
f 292/413/295 299/370/259 297/372/261 290/414/296
f 284/415/297 291/408/290 296/409/291 289/416/298
f 289/416/298 296/409/291 295/410/292 288/417/299
f 288/417/299 295/410/292 294/411/293 287/418/300
f 287/418/300 294/411/293 293/412/294 286/419/301
f 286/419/301 293/412/294 292/413/295 285/420/302
f 285/420/302 292/413/295 290/414/296 283/421/303
f 277/422/304 284/415/297 289/416/298 282/423/305
f 282/423/305 289/416/298 288/417/299 281/424/306
f 281/424/306 288/417/299 287/418/300 280/425/307
f 280/425/307 287/418/300 286/419/301 279/426/308
f 279/426/308 286/419/301 285/420/302 278/427/309
f 278/427/309 285/420/302 283/421/303 276/428/310
f 270/429/311 277/430/304 282/431/305 275/432/312
f 275/432/312 282/431/305 281/433/306 274/434/313
f 274/434/313 281/433/306 280/435/307 273/436/314
f 273/436/314 280/435/307 279/437/308 272/438/315
f 272/438/315 279/437/308 278/439/309 271/440/316
f 271/440/316 278/439/309 276/441/310 269/442/317
f 261/343/232 270/429/311 275/432/312 264/344/233
f 264/344/233 275/432/312 274/434/313 265/346/235
f 265/346/235 274/434/313 273/436/314 266/347/236
f 266/347/236 273/436/314 272/438/315 267/348/237
f 267/348/237 272/438/315 271/440/316 268/349/238
f 268/349/238 271/440/316 269/442/317 262/350/239
f 261/343/232 263/345/234 255/300/223 89/100/76 196/231/175
f 223/267/202 262/350/239 269/442/317 233/268/203
f 261/343/232 196/231/175 208/234/178 270/429/311
f 263/345/234 262/350/239 223/267/202 115/124/94 255/300/223
f 270/429/311 208/234/178 211/242/169 277/430/304
f 233/268/203 269/442/317 276/441/310 234/271/206
f 277/422/304 211/225/169 199/223/167 284/415/297
f 234/273/206 276/428/310 283/421/303 246/274/208
f 284/415/297 199/223/167 198/220/164 291/408/290
f 246/274/208 283/421/303 290/414/296 243/285/214
f 291/408/290 198/220/164 195/219/163 298/359/248
f 243/285/214 290/414/296 297/372/261 224/282/211
f 298/359/248 195/219/163 142/157/121 340/360/249
f 224/282/211 297/372/261 341/371/260 168/182/136
f 306/353/242 254/299/222 59/49/40 169/198/148 304/351/240
f 141/145/109 305/358/247 312/407/289 144/146/110
f 304/351/240 169/198/148 181/201/151 313/401/283
f 306/353/242 305/358/247 141/145/109 1/1/1 254/299/222
f 313/401/283 181/201/151 184/189/142 320/387/276
f 144/146/110 312/407/289 319/400/282 145/149/113
f 320/387/276 184/189/142 172/188/140 327/388/269
f 145/149/113 319/400/282 326/399/275 157/151/115
f 327/380/269 172/186/140 171/183/137 334/373/262
f 157/166/115 326/386/275 333/379/268 154/160/124
f 334/373/262 171/183/137 168/182/136 341/371/260
f 154/160/124 333/379/268 340/360/249 142/157/121
usemtl speaker
f 3/443/318 6/444/319 350/445/319 349/446/318
f 6/444/319 12/447/320 362/448/320 350/445/319
f 12/449/320 16/450/321 361/451/321 362/452/320
f 16/450/321 21/453/322 360/454/322 361/451/321
f 21/453/322 25/455/323 359/456/323 360/454/322
f 25/455/323 30/457/324 355/458/324 359/456/323
f 30/457/324 34/459/325 356/460/325 355/458/324
f 34/459/325 39/461/326 354/462/326 356/460/325
f 39/463/326 44/464/327 357/465/327 354/466/326
f 44/464/327 48/467/328 358/468/328 357/465/327
f 48/467/328 50/469/329 347/470/329 358/468/328
f 50/471/329 54/472/330 348/473/330 347/474/329
f 54/472/330 56/475/331 352/476/331 348/473/330
f 56/475/331 60/477/332 353/478/332 352/476/331
f 60/477/332 62/479/333 351/480/333 353/478/332
f 62/479/333 3/481/318 349/482/318 351/480/333
f 48/483/334 44/484/334 39/485/334 34/486/334 30/487/334 25/488/334 21/489/334 16/490/334 12/491/334 6/492/334 3/493/334 62/494/334 60/495/334 56/496/334 54/497/334 50/498/334
f 2/499/318 5/500/319 370/501/319 367/502/318
f 5/500/319 8/503/320 369/504/320 370/501/319
f 8/505/320 11/506/321 375/507/321 369/508/320
f 11/506/321 14/509/322 376/510/322 375/507/321
f 14/509/322 17/511/323 377/512/323 376/510/322
f 17/511/323 20/513/324 378/514/324 377/512/323
f 20/513/324 23/515/325 373/516/325 378/514/324
f 23/515/325 26/517/326 372/518/326 373/516/325
f 26/519/326 29/520/327 374/521/327 372/522/326
f 29/520/327 32/523/328 363/524/328 374/521/327
f 32/523/328 35/525/329 364/526/329 363/524/328
f 35/527/329 38/528/330 366/529/330 364/530/329
f 38/528/330 41/531/331 365/532/331 366/529/330
f 41/531/331 43/533/332 371/534/332 365/532/331
f 43/533/332 47/535/333 368/536/333 371/534/332
f 47/535/333 2/537/318 367/538/318 368/536/333
f 23/539/334 20/540/334 17/541/334 14/542/334 11/543/334 8/544/334 5/545/334 2/546/334 47/547/334 43/548/334 41/549/334 38/550/334 35/551/334 32/552/334 29/553/334 26/554/334
f 443/555/334 444/556/334 380/557/334 379/558/334
f 445/559/334 446/560/334 394/561/334 382/562/334
f 444/556/334 447/563/334 384/564/334 380/557/334
f 446/560/334 448/565/334 393/566/334 394/561/334
f 447/563/334 449/567/334 385/568/334 384/564/334
f 448/565/334 450/569/334 392/570/334 393/566/334
f 449/567/334 451/571/334 383/572/334 385/568/334
f 452/573/334 453/574/334 386/575/334 388/576/334
f 450/569/334 454/577/334 391/578/334 392/570/334
f 451/571/334 455/579/334 381/580/334 383/572/334
f 453/574/334 456/581/334 389/582/334 386/575/334
f 454/577/334 457/583/334 387/584/334 391/578/334
f 456/581/334 458/585/334 390/586/334 389/582/334
f 455/579/334 445/559/334 382/562/334 381/580/334
f 457/583/334 452/573/334 388/576/334 387/584/334
f 458/585/334 443/555/334 379/558/334 390/586/334
f 389/587/335 405/588/335 406/589/336 390/590/336
f 387/591/337 403/592/337 404/593/338 388/594/338
f 390/595/336 406/596/336 395/597/339 379/598/339
f 382/599/340 398/600/340 410/601/341 394/602/341
f 379/598/339 395/597/339 396/603/342 380/604/342
f 394/602/341 410/601/341 409/605/343 393/606/343
f 380/604/342 396/603/342 400/607/344 384/608/344
f 393/609/343 409/610/343 408/611/345 392/612/345
f 384/608/344 400/607/344 401/613/346 385/614/346
f 381/615/242 397/616/242 398/600/340 382/599/340
f 392/612/345 408/611/345 407/617/347 391/618/347
f 385/614/346 401/613/346 399/619/348 383/620/348
f 388/594/338 404/593/338 402/621/234 386/622/234
f 383/620/348 399/619/348 397/623/242 381/624/242
f 386/625/234 402/626/234 405/588/335 389/587/335
f 391/618/347 407/617/347 403/592/337 387/591/337
f 459/627/334 460/628/334 422/629/334 420/630/334
f 461/631/334 462/632/334 418/633/334 415/634/334
f 460/628/334 463/635/334 411/636/334 422/629/334
f 464/637/334 465/638/334 421/639/334 426/640/334
f 463/635/334 466/641/334 412/642/334 411/636/334
f 462/632/334 467/643/334 417/644/334 418/633/334
f 466/641/334 468/645/334 414/646/334 412/642/334
f 467/643/334 469/647/334 423/648/334 417/644/334
f 468/645/334 470/649/334 413/650/334 414/646/334
f 469/647/334 471/651/334 424/652/334 423/648/334
f 470/649/334 472/653/334 419/654/334 413/650/334
f 471/651/334 473/655/334 425/656/334 424/652/334
f 472/653/334 474/657/334 416/658/334 419/654/334
f 465/638/334 459/627/334 420/630/334 421/639/334
f 473/655/334 464/637/334 426/640/334 425/656/334
f 474/657/334 461/631/334 415/634/334 416/658/334
f 423/659/343 439/660/343 440/661/345 424/662/345
f 413/663/344 429/664/344 435/665/346 419/666/346
f 424/662/345 440/661/345 441/667/347 425/668/347
f 419/666/346 435/665/346 432/669/348 416/670/348
f 421/671/338 437/672/338 436/673/234 420/674/234
f 425/668/347 441/667/347 442/675/337 426/676/337
f 416/670/348 432/669/348 431/677/242 415/678/242
f 420/679/234 436/680/234 438/681/335 422/682/335
f 415/683/242 431/684/242 434/685/340 418/686/340
f 422/682/335 438/681/335 427/687/336 411/688/336
f 426/676/337 442/675/337 437/672/338 421/671/338
f 411/689/336 427/690/336 428/691/339 412/692/339
f 418/686/340 434/685/340 433/693/341 417/694/341
f 412/692/339 428/691/339 430/695/342 414/696/342
f 417/694/341 433/693/341 439/697/343 423/698/343
f 414/696/342 430/695/342 429/664/344 413/663/344
f 358/699/334 347/700/334 443/555/334 458/585/334
f 355/701/334 356/702/334 452/573/334 457/583/334
f 349/703/334 350/704/334 445/559/334 455/579/334
f 357/705/334 358/699/334 458/585/334 456/581/334
f 359/706/334 355/701/334 457/583/334 454/577/334
f 354/707/334 357/705/334 456/581/334 453/574/334
f 351/708/334 349/703/334 455/579/334 451/571/334
f 360/709/334 359/706/334 454/577/334 450/569/334
f 356/702/334 354/707/334 453/574/334 452/573/334
f 353/710/334 351/708/334 451/571/334 449/567/334
f 361/711/334 360/709/334 450/569/334 448/565/334
f 352/712/334 353/710/334 449/567/334 447/563/334
f 362/713/334 361/711/334 448/565/334 446/560/334
f 348/714/334 352/712/334 447/563/334 444/556/334
f 350/704/334 362/713/334 446/560/334 445/559/334
f 347/700/334 348/714/334 444/556/334 443/555/334
f 368/715/334 367/716/334 461/631/334 474/657/334
f 377/717/334 378/718/334 464/637/334 473/655/334
f 373/719/334 372/720/334 459/627/334 465/638/334
f 371/721/334 368/715/334 474/657/334 472/653/334
f 376/722/334 377/717/334 473/655/334 471/651/334
f 365/723/334 371/721/334 472/653/334 470/649/334
f 375/724/334 376/722/334 471/651/334 469/647/334
f 366/725/334 365/723/334 470/649/334 468/645/334
f 369/726/334 375/724/334 469/647/334 467/643/334
f 364/727/334 366/725/334 468/645/334 466/641/334
f 370/728/334 369/726/334 467/643/334 462/632/334
f 363/729/334 364/727/334 466/641/334 463/635/334
f 378/718/334 373/719/334 465/638/334 464/637/334
f 374/730/334 363/729/334 463/635/334 460/628/334
f 367/716/334 370/728/334 462/632/334 461/631/334
f 372/720/334 374/730/334 460/628/334 459/627/334
f 466/731/343 468/732/345 500/733/345 498/734/343
f 457/735/346 452/736/348 484/737/348 489/738/346
f 443/739/343 444/740/345 476/741/345 475/742/343
f 462/743/335 467/744/336 499/745/336 494/746/335
f 455/747/234 445/748/335 477/749/335 487/750/234
f 463/751/341 466/752/343 498/753/343 495/754/341
f 456/755/340 458/756/341 490/757/341 488/758/340
f 464/759/346 465/760/348 497/761/348 496/762/346
f 454/763/344 457/735/346 489/738/346 486/764/344
f 460/765/340 463/751/341 495/754/341 492/766/340
f 453/767/242 456/755/340 488/758/340 485/768/242
f 474/769/338 461/770/234 493/771/234 506/772/338
f 461/773/234 462/743/335 494/746/335 493/774/234
f 451/775/338 455/776/234 487/777/234 483/778/338
f 473/779/344 464/759/346 496/762/346 505/780/344
f 459/781/242 460/765/340 492/766/340 491/782/242
f 450/783/342 454/763/344 486/764/344 482/784/342
f 465/760/348 459/785/242 491/786/242 497/761/348
f 452/736/348 453/787/242 485/788/242 484/737/348
f 472/789/337 474/769/338 506/772/338 504/790/337
f 449/791/337 451/775/338 483/778/338 481/792/337
f 471/793/342 473/779/344 505/780/344 503/794/342
f 448/795/339 450/783/342 482/784/342 480/796/339
f 470/797/347 472/789/337 504/790/337 502/798/347
f 447/799/347 449/791/337 481/792/337 479/800/347
f 469/801/339 471/793/342 503/794/342 501/802/339
f 446/803/336 448/795/339 480/796/339 478/804/336
f 468/732/345 470/797/347 502/798/347 500/733/345
f 444/740/345 447/799/347 479/800/347 476/741/345
f 467/805/336 469/801/339 501/802/339 499/806/336
f 458/756/341 443/807/343 475/808/343 490/757/341
f 445/748/335 446/809/336 478/810/336 477/749/335
f 401/811/334 400/812/334 479/813/334 481/814/334
f 396/815/334 395/816/334 475/817/334 476/818/334
f 400/812/334 396/815/334 476/818/334 479/813/334
f 397/819/334 399/820/334 483/821/334 487/822/334
f 475/817/334 395/816/334 406/823/334 490/824/334
f 399/820/334 401/811/334 481/814/334 483/821/334
f 478/825/334 480/826/334 409/827/334 410/828/334
f 487/822/334 477/829/334 398/830/334 397/819/334
f 484/831/334 404/832/334 403/833/334 489/834/334
f 477/829/334 478/825/334 410/828/334 398/830/334
f 489/834/334 403/833/334 407/835/334 486/836/334
f 485/837/334 488/838/334 405/839/334 402/840/334
f 485/837/334 402/840/334 404/832/334 484/831/334
f 480/826/334 482/841/334 408/842/334 409/827/334
f 406/823/334 405/839/334 488/838/334 490/824/334
f 486/836/334 407/835/334 408/842/334 482/841/334
f 430/843/334 428/844/334 498/845/334 500/846/334
f 429/847/334 430/843/334 500/846/334 502/848/334
f 505/849/334 441/850/334 440/851/334 503/852/334
f 496/853/334 442/854/334 441/850/334 505/849/334
f 435/855/334 429/847/334 502/848/334 504/856/334
f 431/857/334 432/858/334 506/859/334 493/860/334
f 499/861/334 501/862/334 439/863/334 433/864/334
f 495/865/334 427/866/334 438/867/334 492/868/334
f 493/860/334 494/869/334 434/870/334 431/857/334
f 435/855/334 504/856/334 506/859/334 432/858/334
f 498/845/334 428/844/334 427/866/334 495/865/334
f 491/871/334 492/868/334 438/867/334 436/872/334
f 491/871/334 436/872/334 437/873/334 497/874/334
f 497/874/334 437/873/334 442/854/334 496/853/334
f 494/869/334 499/861/334 433/864/334 434/870/334
f 501/862/334 503/852/334 440/851/334 439/863/334
