# Blender 4.5.3 LTS
# www.blender.org
mtllib rack.mtl
o rack
v 0.250000 1.020000 -0.400000
v 0.250000 1.000000 -0.400000
v 0.250000 1.020000 0.400000
v 0.250000 1.000000 0.400000
v -0.250000 1.020000 -0.400000
v -0.250000 1.000000 -0.400000
v -0.250000 1.020000 0.400000
v -0.250000 1.000000 0.400000
v 0.250000 0.800000 -0.400000
v 0.250000 0.780000 -0.400000
v 0.250000 0.800000 0.400000
v 0.250000 0.780000 0.400000
v -0.250000 0.800000 -0.400000
v -0.250000 0.780000 -0.400000
v -0.250000 0.800000 0.400000
v -0.250000 0.780000 0.400000
v 0.250000 0.580000 -0.400000
v 0.250000 0.560000 -0.400000
v 0.250000 0.580000 0.400000
v 0.250000 0.560000 0.400000
v -0.250000 0.580000 -0.400000
v -0.250000 0.560000 -0.400000
v -0.250000 0.580000 0.400000
v -0.250000 0.560000 0.400000
v 0.250000 0.360000 -0.400000
v 0.250000 0.340000 -0.400000
v 0.250000 0.360000 0.400000
v 0.250000 0.340000 0.400000
v -0.250000 0.360000 -0.400000
v -0.250000 0.340000 -0.400000
v -0.250000 0.360000 0.400000
v -0.250000 0.340000 0.400000
v 0.250000 0.140000 -0.400000
v 0.250000 0.120000 -0.400000
v 0.250000 0.140000 0.400000
v 0.250000 0.120000 0.400000
v -0.250000 0.140000 -0.400000
v -0.250000 0.120000 -0.400000
v -0.250000 0.140000 0.400000
v -0.250000 0.120000 0.400000
v -0.230000 0.000000 0.400000
v -0.230000 1.000000 0.400000
v -0.230000 0.000000 0.380000
v -0.230000 1.000000 0.380000
v -0.250000 0.000000 0.400000
v -0.250000 1.000000 0.400000
v -0.250000 0.000000 0.380000
v -0.250000 1.000000 0.380000
v 0.230000 0.000000 0.400000
v 0.250000 0.800000 -0.400000
v 0.250000 0.780000 -0.400000
v 0.230000 1.000000 0.400000
v 0.230000 0.000000 0.380000
v 0.250000 0.800000 0.400000
v 0.230000 1.000000 0.380000
v 0.250000 0.780000 0.400000
v 0.250000 0.000000 0.400000
v -0.250000 0.800000 -0.400000
v 0.250000 1.000000 0.400000
v -0.250000 0.780000 -0.400000
v -0.250000 0.800000 0.400000
v 0.250000 0.000000 0.380000
v 0.250000 1.000000 0.380000
v -0.250000 0.780000 0.400000
v 0.250000 0.580000 -0.400000
v 0.230000 0.000000 -0.400000
v 0.250000 0.560000 -0.400000
v 0.230000 1.000000 -0.400000
v 0.230000 0.000000 -0.380000
v 0.250000 0.580000 0.400000
v 0.250000 0.560000 0.400000
v 0.230000 1.000000 -0.380000
v -0.250000 0.580000 -0.400000
v 0.250000 0.000000 -0.400000
v 0.250000 1.000000 -0.400000
v -0.250000 0.560000 -0.400000
v 0.250000 0.000000 -0.380000
v -0.250000 0.580000 0.400000
v -0.250000 0.560000 0.400000
v 0.250000 1.000000 -0.380000
v 0.250000 0.360001 -0.400000
v -0.230000 0.000000 -0.400000
v -0.230000 1.000000 -0.400000
v 0.250000 0.340001 -0.400000
v 0.250000 0.360001 0.400000
v -0.230000 0.000000 -0.380000
v -0.230000 1.000000 -0.380000
v 0.250000 0.340001 0.400000
v -0.250000 0.000000 -0.400000
v -0.250000 0.360001 -0.400000
v -0.250000 0.340001 -0.400000
v -0.250000 1.000000 -0.400000
v -0.250000 0.360001 0.400000
v -0.250000 0.000000 -0.380000
v -0.250000 1.000000 -0.380000
v -0.250000 0.340001 0.400000
v 0.250000 0.140001 -0.400000
v 0.250000 0.120001 -0.400000
v 0.250000 0.140001 0.400000
v 0.250000 0.120001 0.400000
v -0.250000 0.140001 -0.400000
v -0.250000 0.120001 -0.400000
v -0.250000 0.140001 0.400000
v -0.250000 0.120001 0.400000
v -0.230000 0.800000 0.400000
v -0.230000 0.120001 0.400000
v -0.230000 0.140001 0.400000
v -0.230000 0.340001 0.400000
v -0.230000 0.360001 0.400000
v -0.230000 0.560000 0.400000
v -0.230000 0.580000 0.400000
v -0.230000 0.780000 0.400000
v -0.230000 0.120001 0.380000
v -0.230000 0.140001 0.380000
v -0.230000 0.340001 0.380000
v -0.230000 0.360001 0.380000
v -0.230000 0.560000 0.380000
v -0.230000 0.580000 0.380000
v -0.230000 0.780000 0.380000
v -0.230000 0.800000 0.380000
v -0.237500 1.000000 0.380000
v -0.250000 0.120001 0.380000
v -0.250000 0.140001 0.380000
v -0.250000 0.340001 0.380000
v -0.250000 0.360001 0.380000
v -0.250000 0.560000 0.380000
v -0.250000 0.580000 0.380000
v -0.250000 0.780000 0.380000
v -0.250000 0.800000 0.380000
v 0.230000 0.120001 0.380000
v 0.230000 0.140001 0.380000
v 0.230000 0.340001 0.380000
v 0.230000 0.360001 0.380000
v 0.230000 0.560000 0.380000
v 0.230000 0.580000 0.380000
v 0.230000 0.780000 0.380000
v 0.230000 0.800000 0.380000
v 0.230000 0.800000 0.400000
v 0.230000 0.120001 0.400000
v 0.230000 0.140001 0.400000
v 0.230000 0.340001 0.400000
v 0.230000 0.360001 0.400000
v 0.230000 0.560000 0.400000
v 0.230000 0.580000 0.400000
v 0.230000 0.780000 0.400000
v 0.250000 0.800000 0.380000
v 0.250000 0.120001 0.380000
v 0.250000 0.140001 0.380000
v 0.250000 0.340001 0.380000
v 0.250000 0.360001 0.380000
v 0.250000 0.560000 0.380000
v 0.250000 0.580000 0.380000
v 0.250000 0.780000 0.380000
v 0.230000 0.120001 -0.400000
v 0.230000 0.140001 -0.400000
v 0.230000 0.340001 -0.400000
v 0.230000 0.360001 -0.400000
v 0.230000 0.560000 -0.400000
v 0.230000 0.580000 -0.400000
v 0.230000 0.780000 -0.400000
v 0.230000 0.800000 -0.400000
v 0.230000 0.120001 -0.380000
v 0.230000 0.140001 -0.380000
v 0.230000 0.340001 -0.380000
v 0.230000 0.360001 -0.380000
v 0.230000 0.560000 -0.380000
v 0.230000 0.580000 -0.380000
v 0.230000 0.780000 -0.380000
v 0.230000 0.800000 -0.380000
v 0.237500 1.000000 -0.380000
v 0.250000 0.800000 -0.380000
v 0.250000 0.120001 -0.380000
v 0.250000 0.140001 -0.380000
v 0.250000 0.340001 -0.380000
v 0.250000 0.360001 -0.380000
v 0.250000 0.560000 -0.380000
v 0.250000 0.580000 -0.380000
v 0.250000 0.780000 -0.380000
v -0.230000 0.120001 -0.380000
v -0.230000 0.140001 -0.380000
v -0.230000 0.340001 -0.380000
v -0.230000 0.360001 -0.380000
v -0.230000 0.560000 -0.380000
v -0.230000 0.580000 -0.380000
v -0.230000 0.780000 -0.380000
v -0.230000 0.800000 -0.380000
v -0.230000 0.120001 -0.400000
v -0.230000 0.140001 -0.400000
v -0.230000 0.340001 -0.400000
v -0.230000 0.360001 -0.400000
v -0.230000 0.560000 -0.400000
v -0.230000 0.580000 -0.400000
v -0.230000 0.780000 -0.400000
v -0.230000 0.800000 -0.400000
v -0.250000 0.120001 -0.380000
v -0.250000 0.140001 -0.380000
v -0.250000 0.340001 -0.380000
v -0.250000 0.360001 -0.380000
v -0.250000 0.560000 -0.380000
v -0.250000 0.580000 -0.380000
v -0.250000 0.780000 -0.380000
v -0.250000 0.800000 -0.380000
v 0.242308 1.000000 -0.387692
v -0.242308 1.000000 0.387692
vn -0.0000 -1.0000 -0.0000
vn -0.0000 -0.0000 1.0000
vn -1.0000 -0.0000 -0.0000
vn 1.0000 -0.0000 -0.0000
vn -0.0000 1.0000 -0.0000
vn -0.0000 -0.0000 -1.0000
vt 0.206903 0.327611
vt 0.005722 0.327611
vt 0.005722 0.005722
vt 0.206903 0.005722
vt 0.555966 0.873570
vt 0.547919 0.873570
vt 0.547919 0.672389
vt 0.555966 0.672389
vt 0.942234 0.327611
vt 0.934186 0.327611
vt 0.934186 0.005722
vt 0.942234 0.005722
vt 0.942233 0.660945
vt 0.934186 0.660945
vt 0.934186 0.339055
vt 0.942234 0.339055
vt 0.419528 0.327611
vt 0.218347 0.327611
vt 0.218347 0.005722
vt 0.419528 0.005722
vt 0.575458 0.873570
vt 0.567410 0.873570
vt 0.567410 0.672389
vt 0.575458 0.672389
vt 0.883760 0.327611
vt 0.875713 0.327611
vt 0.875713 0.005722
vt 0.883760 0.005722
vt 0.632152 0.327611
vt 0.430972 0.327611
vt 0.430972 0.005722
vt 0.632152 0.005722
vt 0.883760 0.660945
vt 0.875713 0.660945
vt 0.875713 0.339055
vt 0.883760 0.339055
vt 0.594949 0.873570
vt 0.586902 0.873570
vt 0.586902 0.672389
vt 0.594949 0.672389
vt 0.206903 0.660945
vt 0.005722 0.660945
vt 0.005722 0.339055
vt 0.206903 0.339055
vt 0.478001 0.873570
vt 0.469954 0.873570
vt 0.469954 0.672389
vt 0.478001 0.672389
vt 0.864269 0.327611
vt 0.856221 0.327611
vt 0.856221 0.005722
vt 0.864269 0.005722
vt 0.419528 0.660945
vt 0.218347 0.660945
vt 0.218347 0.339055
vt 0.419528 0.339055
vt 0.864269 0.660945
vt 0.856221 0.660945
vt 0.856221 0.339055
vt 0.864269 0.339055
vt 0.497493 0.873570
vt 0.489445 0.873570
vt 0.489445 0.672389
vt 0.497493 0.672389
vt 0.632152 0.660945
vt 0.430972 0.660945
vt 0.430972 0.339055
vt 0.632152 0.339055
vt 0.439019 0.873570
vt 0.430972 0.873570
vt 0.430972 0.672389
vt 0.439019 0.672389
vt 0.903251 0.327611
vt 0.895204 0.327611
vt 0.895204 0.005722
vt 0.903251 0.005722
vt 0.844777 0.327611
vt 0.643596 0.327611
vt 0.643596 0.005722
vt 0.844777 0.005722
vt 0.903251 0.660945
vt 0.895204 0.660945
vt 0.895204 0.339055
vt 0.903251 0.339055
vt 0.458510 0.873570
vt 0.450463 0.873570
vt 0.450463 0.672389
vt 0.458510 0.672389
vt 0.844777 0.660945
vt 0.643596 0.660945
vt 0.643596 0.339055
vt 0.844777 0.339055
vt 0.516984 0.873570
vt 0.508937 0.873570
vt 0.508937 0.672389
vt 0.516984 0.672389
vt 0.922742 0.327611
vt 0.914695 0.327611
vt 0.914695 0.005722
vt 0.922742 0.005722
vt 0.206903 0.994278
vt 0.005722 0.994278
vt 0.005722 0.672389
vt 0.206903 0.672389
vt 0.922742 0.660945
vt 0.914695 0.660945
vt 0.914695 0.339055
vt 0.922742 0.339055
vt 0.536475 0.873570
vt 0.528428 0.873570
vt 0.528428 0.672389
vt 0.536475 0.672389
vt 0.867826 0.672389
vt 0.867826 0.752861
vt 0.859779 0.752861
vt 0.859779 0.672389
vt 0.789861 0.752861
vt 0.781814 0.752861
vt 0.781814 0.672389
vt 0.789861 0.672389
vt 0.489445 0.933297
vt 0.489445 0.885013
vt 0.497493 0.885013
vt 0.497493 0.933297
vt 0.625884 0.672389
vt 0.633931 0.672389
vt 0.633931 0.752861
vt 0.625884 0.752861
vt 0.801305 0.672389
vt 0.809352 0.672389
vt 0.809352 0.752861
vt 0.801305 0.752861
vt 0.867826 0.844777
vt 0.859779 0.844777
vt 0.859779 0.764305
vt 0.864808 0.764305
vt 0.867826 0.764305
vt 0.653422 0.672389
vt 0.653422 0.752861
vt 0.645375 0.752861
vt 0.645375 0.672389
vt 0.828843 0.672389
vt 0.828843 0.752861
vt 0.820796 0.752861
vt 0.820796 0.672389
vt 0.508937 0.885013
vt 0.516984 0.885013
vt 0.516984 0.933297
vt 0.508937 0.933297
vt 0.625884 0.764305
vt 0.633931 0.764305
vt 0.633931 0.844777
vt 0.625884 0.844777
vt 0.672914 0.752861
vt 0.664866 0.752861
vt 0.664866 0.672389
vt 0.672914 0.672389
vt 0.653422 0.844777
vt 0.645375 0.844777
vt 0.645375 0.764305
vt 0.653422 0.764305
vt 0.692405 0.844777
vt 0.684358 0.844777
vt 0.684358 0.764305
vt 0.692405 0.764305
vt 0.887317 0.752861
vt 0.879270 0.752861
vt 0.879270 0.672389
vt 0.887317 0.672389
vt 0.528428 0.885013
vt 0.536475 0.885013
vt 0.536475 0.933297
vt 0.528428 0.933297
vt 0.692405 0.752861
vt 0.684358 0.752861
vt 0.684358 0.672389
vt 0.692405 0.672389
vt 0.672914 0.844777
vt 0.664866 0.844777
vt 0.664866 0.764305
vt 0.672914 0.764305
vt 0.731387 0.844777
vt 0.723340 0.844777
vt 0.723340 0.764305
vt 0.731387 0.764305
vt 0.887317 0.844777
vt 0.879270 0.844777
vt 0.879270 0.764305
vt 0.887317 0.764305
vt 0.547919 0.885013
vt 0.555966 0.885013
vt 0.555966 0.933297
vt 0.547919 0.933297
vt 0.497493 0.952788
vt 0.489445 0.952788
vt 0.489445 0.944741
vt 0.497493 0.944741
vt 0.516984 0.944741
vt 0.516984 0.947759
vt 0.513889 0.949693
vt 0.516984 0.952788
vt 0.508937 0.952788
vt 0.508937 0.944741
vt 0.906808 0.752861
vt 0.898761 0.752861
vt 0.898761 0.672389
vt 0.906808 0.672389
vt 0.567410 0.885013
vt 0.575458 0.885013
vt 0.575458 0.933297
vt 0.567410 0.933297
vt 0.703849 0.672389
vt 0.711896 0.672389
vt 0.711896 0.752861
vt 0.703849 0.752861
vt 0.742831 0.764305
vt 0.750879 0.764305
vt 0.750879 0.844777
vt 0.742831 0.844777
vt 0.703849 0.764305
vt 0.711896 0.764305
vt 0.711896 0.844777
vt 0.703849 0.844777
vt 0.961725 0.557219
vt 0.961725 0.637692
vt 0.953678 0.637692
vt 0.953678 0.557219
vt 0.762322 0.856221
vt 0.770370 0.856221
vt 0.770370 0.936693
vt 0.762322 0.936693
vt 0.973169 0.065450
vt 0.981216 0.065450
vt 0.981216 0.113734
vt 0.973169 0.113734
vt 0.645375 0.856221
vt 0.653422 0.856221
vt 0.653422 0.936693
vt 0.645375 0.936693
vt 0.840287 0.856221
vt 0.848335 0.856221
vt 0.848335 0.936693
vt 0.840287 0.936693
vt 0.906808 0.764305
vt 0.906808 0.844777
vt 0.898761 0.844777
vt 0.898761 0.764305
vt 0.770370 0.844777
vt 0.762322 0.844777
vt 0.762322 0.764305
vt 0.770370 0.764305
vt 0.789861 0.844777
vt 0.781814 0.844777
vt 0.781814 0.764305
vt 0.789861 0.764305
vt 0.731387 0.752861
vt 0.723340 0.752861
vt 0.723340 0.672389
vt 0.731387 0.672389
vt 0.586902 0.885013
vt 0.594949 0.885013
vt 0.594949 0.933297
vt 0.586902 0.933297
vt 0.879270 0.856221
vt 0.887317 0.856221
vt 0.887317 0.936693
vt 0.879270 0.936693
vt 0.965282 0.752861
vt 0.957235 0.752861
vt 0.957235 0.672389
vt 0.965282 0.672389
vt 0.625884 0.856221
vt 0.633931 0.856221
vt 0.633931 0.936693
vt 0.625884 0.936693
vt 0.859779 0.856221
vt 0.867826 0.856221
vt 0.867826 0.936693
vt 0.859779 0.936693
vt 0.973169 0.125178
vt 0.981216 0.125178
vt 0.981216 0.173461
vt 0.973169 0.173461
vt 0.711896 0.956185
vt 0.703849 0.956185
vt 0.703849 0.948137
vt 0.711896 0.948137
vt 0.692405 0.956185
vt 0.684358 0.956185
vt 0.684358 0.948137
vt 0.692405 0.948137
vt 0.965282 0.844777
vt 0.957235 0.844777
vt 0.957235 0.764305
vt 0.965282 0.764305
vt 0.973169 0.184905
vt 0.981216 0.184905
vt 0.981216 0.233189
vt 0.973169 0.233189
vt 0.692405 0.936693
vt 0.684358 0.936693
vt 0.684358 0.856221
vt 0.692405 0.856221
vt 0.809352 0.936693
vt 0.801305 0.936693
vt 0.801305 0.856221
vt 0.809352 0.856221
vt 0.828843 0.936693
vt 0.820796 0.936693
vt 0.820796 0.856221
vt 0.828843 0.856221
vt 0.957235 0.856221
vt 0.962264 0.856221
vt 0.965282 0.856221
vt 0.965282 0.936693
vt 0.957235 0.936693
vt 0.672914 0.936693
vt 0.664866 0.936693
vt 0.664866 0.856221
vt 0.672914 0.856221
vt 0.973169 0.244633
vt 0.981216 0.244633
vt 0.981216 0.292917
vt 0.973169 0.292917
vt 0.906808 0.936693
vt 0.898761 0.936693
vt 0.898761 0.856221
vt 0.906808 0.856221
vt 0.926300 0.936693
vt 0.918252 0.936693
vt 0.918252 0.856221
vt 0.926300 0.856221
vt 0.711896 0.856221
vt 0.711896 0.936693
vt 0.703849 0.936693
vt 0.703849 0.856221
vt 0.945791 0.672389
vt 0.945791 0.752861
vt 0.937744 0.752861
vt 0.937744 0.672389
vt 0.945791 0.764305
vt 0.945791 0.844777
vt 0.937744 0.844777
vt 0.937744 0.764305
vt 0.945791 0.856221
vt 0.945791 0.936693
vt 0.937744 0.936693
vt 0.937744 0.856221
vt 0.973169 0.352645
vt 0.973169 0.304361
vt 0.981216 0.304361
vt 0.981216 0.352645
vt 0.750878 0.856221
vt 0.750878 0.936693
vt 0.742831 0.936693
vt 0.742831 0.856221
vt 0.961725 0.005722
vt 0.961725 0.086194
vt 0.953678 0.086194
vt 0.953678 0.005722
vt 0.961725 0.097638
vt 0.961725 0.178110
vt 0.953678 0.178110
vt 0.953678 0.097638
vt 0.458510 0.885013
vt 0.458510 0.965486
vt 0.450463 0.965486
vt 0.450463 0.885013
vt 0.973169 0.412372
vt 0.973169 0.364089
vt 0.981216 0.364089
vt 0.981216 0.412372
vt 0.586902 0.964233
vt 0.594949 0.964233
vt 0.594949 0.972280
vt 0.586902 0.972280
vt 0.567410 0.972280
vt 0.567410 0.969262
vt 0.570505 0.967328
vt 0.567410 0.964233
vt 0.575458 0.964233
vt 0.575458 0.972280
vt 0.439019 0.965486
vt 0.430972 0.965486
vt 0.430972 0.885013
vt 0.439019 0.885013
vt 0.973169 0.423816
vt 0.981216 0.423816
vt 0.981216 0.472100
vt 0.973169 0.472100
vt 0.723340 0.936693
vt 0.723340 0.856221
vt 0.731387 0.856221
vt 0.731387 0.936693
vt 0.953678 0.270027
vt 0.953678 0.189555
vt 0.961725 0.189555
vt 0.961725 0.270027
vt 0.953678 0.361943
vt 0.953678 0.281471
vt 0.961725 0.281471
vt 0.961725 0.361943
vt 0.926300 0.752861
vt 0.918252 0.752861
vt 0.918252 0.672389
vt 0.926300 0.672389
vt 0.828843 0.844777
vt 0.820796 0.844777
vt 0.820796 0.764305
vt 0.828843 0.764305
vt 0.606393 0.885013
vt 0.614440 0.885013
vt 0.614440 0.933297
vt 0.606393 0.933297
vt 0.750879 0.752861
vt 0.742831 0.752861
vt 0.742831 0.672389
vt 0.750879 0.672389
vt 0.809352 0.844777
vt 0.801305 0.844777
vt 0.801305 0.764305
vt 0.809352 0.764305
vt 0.953678 0.373387
vt 0.961725 0.373387
vt 0.961725 0.453859
vt 0.953678 0.453859
vt 0.953678 0.465303
vt 0.961725 0.465303
vt 0.961725 0.545776
vt 0.953678 0.545776
vt 0.478001 0.965486
vt 0.469954 0.965486
vt 0.469954 0.885013
vt 0.478001 0.885013
vt 0.789861 0.936693
vt 0.781814 0.936693
vt 0.781814 0.856221
vt 0.789861 0.856221
vt 0.973169 0.483544
vt 0.981216 0.483544
vt 0.981216 0.531828
vt 0.973169 0.531828
vt 0.926300 0.764305
vt 0.926300 0.844777
vt 0.918252 0.844777
vt 0.918252 0.764305
vt 0.770370 0.752861
vt 0.762322 0.752861
vt 0.762322 0.672389
vt 0.770370 0.672389
vt 0.848335 0.752861
vt 0.840287 0.752861
vt 0.840287 0.672389
vt 0.848335 0.672389
vt 0.840287 0.764305
vt 0.848335 0.764305
vt 0.848335 0.844777
vt 0.840287 0.844777
vt 0.973169 0.054006
vt 0.973169 0.005722
vt 0.981216 0.005722
vt 0.981216 0.054006
vt 0.742831 0.956185
vt 0.742831 0.948138
vt 0.750878 0.948138
vt 0.750878 0.956185
vt 0.723340 0.956185
vt 0.723340 0.948138
vt 0.731387 0.948138
vt 0.731387 0.956185
vt 0.770370 0.948137
vt 0.770370 0.956185
vt 0.762322 0.956185
vt 0.762322 0.948137
vt 0.555966 0.952788
vt 0.547919 0.952788
vt 0.547919 0.944741
vt 0.555966 0.944741
vt 0.606393 0.964233
vt 0.614440 0.964233
vt 0.614440 0.972280
vt 0.606393 0.972280
vt 0.801305 0.956185
vt 0.801305 0.948137
vt 0.809352 0.948137
vt 0.809352 0.956185
vt 0.781814 0.948137
vt 0.789861 0.948137
vt 0.789861 0.956185
vt 0.781814 0.956185
vt 0.536475 0.944741
vt 0.536475 0.952788
vt 0.528428 0.952788
vt 0.528428 0.944741
vt 0.625884 0.975676
vt 0.625884 0.967629
vt 0.633931 0.967629
vt 0.633931 0.975676
vt 0.848335 0.948137
vt 0.848335 0.956185
vt 0.840287 0.956185
vt 0.840287 0.948137
vt 0.828843 0.948137
vt 0.828843 0.956185
vt 0.820796 0.956185
vt 0.820796 0.948137
vt 0.586902 0.952788
vt 0.586902 0.944741
vt 0.594949 0.944741
vt 0.594949 0.952788
vt 0.879270 0.956185
vt 0.879270 0.948137
vt 0.887317 0.948137
vt 0.887317 0.956185
vt 0.645375 0.967629
vt 0.653422 0.967629
vt 0.653422 0.975676
vt 0.645375 0.975676
vt 0.575458 0.944741
vt 0.575458 0.952788
vt 0.567410 0.952788
vt 0.567410 0.944741
vt 0.859779 0.948137
vt 0.867826 0.948137
vt 0.867826 0.956185
vt 0.859779 0.956185
vt 0.664866 0.975676
vt 0.664866 0.967629
vt 0.672914 0.967629
vt 0.672914 0.975676
vt 0.906808 0.948137
vt 0.906808 0.956185
vt 0.898761 0.956185
vt 0.898761 0.948137
vt 0.606393 0.952788
vt 0.606393 0.944741
vt 0.614440 0.944741
vt 0.614440 0.952788
vt 0.918252 0.948137
vt 0.926299 0.948137
vt 0.926299 0.956185
vt 0.918252 0.956185
vt 0.937743 0.956185
vt 0.937743 0.948137
vt 0.945791 0.948137
vt 0.945791 0.956185
vt 0.684358 0.967629
vt 0.692405 0.967629
vt 0.692405 0.975676
vt 0.684358 0.975676
vt 0.703849 0.975676
vt 0.703849 0.967629
vt 0.711896 0.967629
vt 0.711896 0.975676
vt 0.953678 0.649136
vt 0.961725 0.649136
vt 0.961725 0.657183
vt 0.953678 0.657183
vt 0.633931 0.956185
vt 0.625884 0.956185
vt 0.625884 0.948137
vt 0.633931 0.948137
vt 0.965282 0.948137
vt 0.965282 0.956185
vt 0.957235 0.956185
vt 0.957235 0.948137
vt 0.508937 0.964233
vt 0.516984 0.964233
vt 0.516984 0.972280
vt 0.508937 0.972280
vt 0.672914 0.956185
vt 0.664866 0.956185
vt 0.664866 0.948137
vt 0.672914 0.948137
vt 0.489445 0.972280
vt 0.489445 0.964232
vt 0.497493 0.964232
vt 0.497493 0.972280
vt 0.723340 0.967629
vt 0.731387 0.967629
vt 0.731387 0.975676
vt 0.723340 0.975676
vt 0.742831 0.975676
vt 0.742831 0.967629
vt 0.750878 0.967629
vt 0.750878 0.975676
vt 0.528428 0.964232
vt 0.536475 0.964232
vt 0.536475 0.972280
vt 0.528428 0.972280
vt 0.653423 0.956185
vt 0.645375 0.956185
vt 0.645375 0.948137
vt 0.653423 0.948137
vt 0.555966 0.964233
vt 0.555966 0.972280
vt 0.547919 0.972280
vt 0.547919 0.964233
vt 0.419528 0.994278
vt 0.218347 0.994278
vt 0.218347 0.672389
vt 0.419528 0.672389
vt 0.614440 0.873570
vt 0.606393 0.873570
vt 0.606393 0.672389
vt 0.614440 0.672389
s 0
usemtl white_metal
f 6/1/1 2/2/1 4/3/1 8/4/1
f 4/5/2 3/6/2 7/7/2 8/8/2
f 8/9/3 7/10/3 5/11/3 6/12/3
f 2/13/4 1/14/4 3/15/4 4/16/4
f 9/17/5 13/18/5 15/19/5 11/20/5
f 12/21/2 11/22/2 15/23/2 16/24/2
f 16/25/3 15/26/3 13/27/3 14/28/3
f 14/29/1 10/30/1 12/31/1 16/32/1
f 10/33/4 9/34/4 11/35/4 12/36/4
f 14/37/6 13/38/6 9/39/6 10/40/6
f 17/41/5 21/42/5 23/43/5 19/44/5
f 20/45/2 19/46/2 23/47/2 24/48/2
f 24/49/3 23/50/3 21/51/3 22/52/3
f 22/53/1 18/54/1 20/55/1 24/56/1
f 18/57/4 17/58/4 19/59/4 20/60/4
f 22/61/6 21/62/6 17/63/6 18/64/6
f 25/65/5 29/66/5 31/67/5 27/68/5
f 28/69/2 27/70/2 31/71/2 32/72/2
f 32/73/3 31/74/3 29/75/3 30/76/3
f 30/77/1 26/78/1 28/79/1 32/80/1
f 26/81/4 25/82/4 27/83/4 28/84/4
f 30/85/6 29/86/6 25/87/6 26/88/6
f 33/89/5 37/90/5 39/91/5 35/92/5
f 36/93/2 35/94/2 39/95/2 40/96/2
f 40/97/3 39/98/3 37/99/3 38/100/3
f 38/101/1 34/102/1 36/103/1 40/104/1
f 34/105/4 33/106/4 35/107/4 36/108/4
f 38/109/6 37/110/6 33/111/6 34/112/6
f 42/113/4 105/114/4 120/115/4 44/116/4
f 111/117/4 118/118/4 119/119/4 112/120/4
f 43/121/4 113/122/4 106/123/4 41/124/4
f 115/125/4 108/126/4 107/127/4 114/128/4
f 117/129/4 110/130/4 109/131/4 116/132/4
f 120/133/6 129/134/6 48/135/6 121/136/6 44/137/6
f 115/138/6 114/139/6 123/140/6 124/141/6
f 117/142/6 116/143/6 125/144/6 126/145/6
f 122/146/6 113/147/6 43/148/6 47/149/6
f 128/150/6 119/151/6 118/152/6 127/153/6
f 123/154/3 103/155/3 96/156/3 124/157/3
f 125/158/3 93/159/3 79/160/3 126/161/3
f 127/162/3 78/163/3 64/164/3 128/165/3
f 129/166/3 61/167/3 46/168/3 48/169/3
f 104/170/3 122/171/3 47/172/3 45/173/3
f 103/174/2 107/175/2 108/176/2 96/177/2
f 93/178/2 109/179/2 110/180/2 79/181/2
f 78/182/2 111/183/2 112/184/2 64/185/2
f 61/186/2 105/187/2 42/188/2 46/189/2
f 106/190/2 104/191/2 45/192/2 41/193/2
f 43/194/1 41/195/1 45/196/1 47/197/1
f 44/198/5 121/199/5 204/200/5 48/201/5 46/202/5 42/203/5
f 48/201/5 204/200/5 121/199/5
f 137/204/3 138/205/3 52/206/3 55/207/3
f 139/208/3 130/209/3 53/210/3 49/211/3
f 141/212/3 132/213/3 131/214/3 140/215/3
f 143/216/3 134/217/3 133/218/3 142/219/3
f 145/220/3 136/221/3 135/222/3 144/223/3
f 63/224/6 146/225/6 137/226/6 55/227/6
f 136/228/6 153/229/6 152/230/6 135/231/6
f 130/232/6 147/233/6 62/234/6 53/235/6
f 132/236/6 149/237/6 148/238/6 131/239/6
f 134/240/6 151/241/6 150/242/6 133/243/6
f 59/244/4 54/245/4 146/246/4 63/247/4
f 85/248/4 150/249/4 151/250/4 71/251/4
f 70/252/4 152/253/4 153/254/4 56/255/4
f 99/256/4 148/257/4 149/258/4 88/259/4
f 147/260/4 100/261/4 57/262/4 62/263/4
f 56/264/2 145/265/2 144/266/2 70/267/2
f 138/268/2 54/269/2 59/270/2 52/271/2
f 88/272/2 141/273/2 140/274/2 99/275/2
f 71/276/2 143/277/2 142/278/2 85/279/2
f 100/280/2 139/281/2 49/282/2 57/283/2
f 53/284/1 62/285/1 57/286/1 49/287/1
f 63/288/5 55/289/5 52/290/5 59/291/5
f 161/292/3 169/293/3 72/294/3 68/295/3
f 162/296/3 154/297/3 66/298/3 69/299/3
f 155/300/3 163/301/3 164/302/3 156/303/3
f 157/304/3 165/305/3 166/306/3 158/307/3
f 159/308/3 167/309/3 168/310/3 160/311/3
f 80/312/2 170/313/2 72/314/2 169/315/2 171/316/2
f 163/317/2 173/318/2 174/319/2 164/320/2
f 172/321/2 162/322/2 69/323/2 77/324/2
f 165/325/2 175/326/2 176/327/2 166/328/2
f 167/329/2 177/330/2 178/331/2 168/332/2
f 174/333/4 173/334/4 97/335/4 84/336/4
f 176/337/4 175/338/4 81/339/4 67/340/4
f 178/341/4 177/342/4 65/343/4 51/344/4
f 80/345/4 171/346/4 50/347/4 75/348/4
f 74/349/4 98/350/4 172/351/4 77/352/4
f 84/353/6 97/354/6 155/355/6 156/356/6
f 67/357/6 81/358/6 157/359/6 158/360/6
f 51/361/6 65/362/6 159/363/6 160/364/6
f 75/365/6 50/366/6 161/367/6 68/368/6
f 66/369/6 154/370/6 98/371/6 74/372/6
f 69/373/1 66/374/1 74/375/1 77/376/1
f 72/377/5 170/378/5 203/379/5 80/380/5 75/381/5 68/382/5
f 80/380/5 203/379/5 170/378/5
f 186/383/4 194/384/4 83/385/4 87/386/4
f 187/387/4 179/388/4 86/389/4 82/390/4
f 188/391/4 189/392/4 181/393/4 180/394/4
f 190/395/4 191/396/4 183/397/4 182/398/4
f 192/399/4 193/400/4 185/401/4 184/402/4
f 202/403/2 186/404/2 87/405/2 95/406/2
f 200/407/2 184/408/2 185/409/2 201/410/2
f 179/411/2 195/412/2 94/413/2 86/414/2
f 196/415/2 180/416/2 181/417/2 197/418/2
f 198/419/2 182/420/2 183/421/2 199/422/2
f 199/423/3 76/424/3 90/425/3 198/426/3
f 201/427/3 60/428/3 73/429/3 200/430/3
f 58/431/3 202/432/3 95/433/3 92/434/3
f 101/435/3 196/436/3 197/437/3 91/438/3
f 195/439/3 102/440/3 89/441/3 94/442/3
f 83/443/6 194/444/6 58/445/6 92/446/6
f 188/447/6 101/448/6 91/449/6 189/450/6
f 190/451/6 90/452/6 76/453/6 191/454/6
f 60/455/6 193/456/6 192/457/6 73/458/6
f 89/459/6 102/460/6 187/461/6 82/462/6
f 86/463/1 94/464/1 89/465/1 82/466/1
f 95/467/5 87/468/5 83/469/5 92/470/5
f 138/471/1 137/472/1 146/473/1 54/474/1
f 120/475/1 105/476/1 61/477/1 129/478/1
f 169/479/1 161/480/1 50/481/1 171/482/1
f 186/483/1 202/484/1 58/485/1 194/486/1
f 145/487/5 56/488/5 153/489/5 136/490/5
f 119/491/5 128/492/5 64/493/5 112/494/5
f 168/495/5 178/496/5 51/497/5 160/498/5
f 193/499/5 60/500/5 201/501/5 185/502/5
f 144/503/1 135/504/1 152/505/1 70/506/1
f 111/507/1 78/508/1 127/509/1 118/510/1
f 184/511/1 200/512/1 73/513/1 192/514/1
f 167/515/1 159/516/1 65/517/1 177/518/1
f 117/519/5 126/520/5 79/521/5 110/522/5
f 143/523/5 71/524/5 151/525/5 134/526/5
f 166/527/5 176/528/5 67/529/5 158/530/5
f 191/531/5 76/532/5 199/533/5 183/534/5
f 109/535/1 93/536/1 125/537/1 116/538/1
f 198/539/1 90/540/1 190/541/1 182/542/1
f 150/543/1 85/544/1 142/545/1 133/546/1
f 165/547/1 157/548/1 81/549/1 175/550/1
f 164/551/5 174/552/5 84/553/5 156/554/5
f 141/555/5 88/556/5 149/557/5 132/558/5
f 124/559/5 96/560/5 108/561/5 115/562/5
f 189/563/5 91/564/5 197/565/5 181/566/5
f 196/567/1 101/568/1 188/569/1 180/570/1
f 114/571/1 107/572/1 103/573/1 123/574/1
f 148/575/1 99/576/1 140/577/1 131/578/1
f 163/579/1 155/580/1 97/581/1 173/582/1
f 162/583/5 172/584/5 98/585/5 154/586/5
f 139/587/5 100/588/5 147/589/5 130/590/5
f 122/591/5 104/592/5 106/593/5 113/594/5
f 187/595/5 102/596/5 195/597/5 179/598/5
f 1/599/5 5/600/5 7/601/5 3/602/5
f 6/603/6 5/604/6 1/605/6 2/606/6
