# Blender 4.5.3 LTS
# www.blender.org
mtllib cactus_in_pot.mtl
o cactus_in_pot
v 0.000000 -0.000000 -0.045000
v 0.000000 0.099500 -0.054588
v 0.031820 -0.000000 -0.031820
v 0.038600 0.099500 -0.038600
v 0.045000 -0.000000 -0.000000
v 0.054588 0.099500 -0.000000
v 0.031820 -0.000000 0.031820
v 0.038600 0.099500 0.038600
v 0.000000 -0.000000 0.045000
v 0.000000 0.099500 0.054588
v -0.031820 -0.000000 0.031820
v -0.038600 0.099500 0.038600
v -0.045000 -0.000000 -0.000000
v -0.054588 0.099500 -0.000000
v -0.031820 -0.000000 -0.031820
v -0.038600 0.099500 -0.038600
v 0.042426 0.099500 -0.042426
v 0.000000 0.099500 -0.060000
v 0.060000 0.099500 -0.000000
v 0.042426 0.099500 0.042426
v 0.000000 0.099500 0.060000
v -0.042426 0.099500 0.042426
v -0.060000 0.099500 -0.000000
v -0.042426 0.099500 -0.042426
v 0.029529 0.009000 -0.029529
v 0.000000 0.009000 -0.041760
v 0.041760 0.009000 -0.000000
v 0.029529 0.009000 0.029529
v 0.000000 0.009000 0.041760
v -0.029529 0.009000 0.029529
v -0.041760 0.009000 -0.000000
v -0.029529 0.009000 -0.029529
v 0.000000 0.094500 -0.059500
v 0.042073 0.094500 -0.042073
v 0.059500 0.094500 -0.000000
v 0.042073 0.094500 0.042073
v 0.000000 0.094500 0.059500
v -0.042073 0.094500 0.042073
v -0.059500 0.094500 -0.000000
v -0.042073 0.094500 -0.042073
v 0.044185 0.099251 -0.044185
v 0.000000 0.099251 -0.062488
v 0.000000 0.094251 -0.061988
v 0.062488 0.099251 -0.000000
v 0.044185 0.099251 0.044185
v 0.000000 0.099251 0.062488
v -0.044185 0.099251 0.044185
v -0.062488 0.099251 -0.000000
v -0.044185 0.099251 -0.044185
v 0.043832 0.094251 -0.043832
v 0.061988 0.094251 -0.000000
v 0.043832 0.094251 0.043832
v 0.000000 0.094251 0.061988
v -0.043832 0.094251 0.043832
v -0.061988 0.094251 -0.000000
v -0.043832 0.094251 -0.043832
v 0.000000 0.104255 -0.040987
v 0.000000 0.095471 -0.048195
v 0.005654 0.120118 -0.009793
v 0.011091 0.116820 -0.019210
v 0.016102 0.111463 -0.027889
v 0.020493 0.104255 -0.035496
v 0.024098 0.095471 -0.041738
v 0.026776 0.085450 -0.046377
v 0.009793 0.120118 -0.005654
v 0.019210 0.116820 -0.011091
v 0.027889 0.111463 -0.016102
v 0.035496 0.104255 -0.020493
v 0.041738 0.095471 -0.024098
v 0.046377 0.085450 -0.026776
v 0.011308 0.120118 0.000000
v 0.022182 0.116820 0.000000
v 0.032203 0.111463 0.000000
v 0.040987 0.104255 0.000000
v 0.048195 0.095471 0.000000
v 0.053552 0.085450 0.000000
v 0.009793 0.120118 0.005654
v 0.019210 0.116820 0.011091
v 0.027889 0.111463 0.016102
v 0.035496 0.104255 0.020493
v 0.041738 0.095471 0.024098
v 0.046377 0.085450 0.026776
v 0.005654 0.120118 0.009793
v 0.011091 0.116820 0.019210
v 0.016102 0.111463 0.027889
v 0.020493 0.104255 0.035496
v 0.024098 0.095471 0.041738
v 0.026776 0.085450 0.046377
v 0.000000 0.120118 0.011308
v 0.000000 0.116820 0.022182
v 0.000000 0.111463 0.032203
v -0.000000 0.104255 0.040987
v 0.000000 0.095471 0.048195
v 0.000000 0.085450 0.053552
v -0.005654 0.120118 0.009793
v -0.011091 0.116820 0.019210
v -0.016102 0.111463 0.027889
v -0.020493 0.104255 0.035496
v -0.024098 0.095471 0.041738
v -0.026776 0.085450 0.046377
v -0.009793 0.120118 0.005654
v -0.019210 0.116820 0.011091
v -0.027889 0.111463 0.016102
v -0.035496 0.104255 0.020493
v -0.041738 0.095471 0.024098
v -0.046377 0.085450 0.026776
v -0.011308 0.120118 0.000000
v -0.022182 0.116820 0.000000
v -0.032203 0.111463 -0.000000
v -0.040987 0.104255 -0.000000
v -0.048195 0.095471 -0.000000
v -0.053552 0.085450 0.000000
v -0.009793 0.120118 -0.005654
v -0.019210 0.116820 -0.011091
v -0.027889 0.111463 -0.016102
v -0.035496 0.104255 -0.020493
v -0.041738 0.095471 -0.024098
v -0.046377 0.085450 -0.026776
v -0.005654 0.120118 -0.009793
v -0.011091 0.116820 -0.019210
v -0.016102 0.111463 -0.027889
v -0.020493 0.104255 -0.035496
v -0.024098 0.095471 -0.041738
v -0.026776 0.085450 -0.046377
v 0.000000 0.121232 0.000000
v 0.000000 0.120118 -0.011308
v 0.000000 0.116820 -0.022182
v 0.000000 0.111463 -0.032203
v 0.000000 0.085450 -0.053552
v 0.038054 0.103372 0.013648
v 0.039107 0.101332 0.015968
v 0.037252 0.102874 0.018166
v 0.036200 0.104914 0.015847
v 0.044191 0.108489 0.017659
v 0.039873 0.104925 -0.001109
v 0.041855 0.103814 0.001234
v 0.040256 0.105611 0.003438
v 0.038274 0.106722 0.001096
v 0.045467 0.111850 -0.000283
v 0.037005 0.104299 -0.014661
v 0.038986 0.103188 -0.012318
v 0.037387 0.104985 -0.010113
v 0.035405 0.106096 -0.012456
v 0.042598 0.111225 -0.013834
v 0.025742 0.104859 -0.029242
v 0.028288 0.104542 -0.027224
v 0.026895 0.106631 -0.025139
v 0.024350 0.106948 -0.027156
v 0.030273 0.112327 -0.031145
v 0.024043 0.113651 -0.015181
v 0.026274 0.112776 -0.012965
v 0.024445 0.114092 -0.010605
v 0.022214 0.114966 -0.012821
v 0.028284 0.121429 -0.013975
v 0.018952 0.117421 0.004661
v 0.021189 0.116562 0.006877
v 0.019009 0.117030 0.009259
v 0.016772 0.117888 0.007044
v 0.021480 0.125466 0.007630
v 0.017698 0.113745 0.024681
v 0.019658 0.111846 0.026470
v 0.017106 0.110920 0.028282
v 0.015147 0.112819 0.026493
v 0.018850 0.118915 0.031884
v 0.017498 0.106858 0.034162
v 0.019351 0.104559 0.035552
v 0.016747 0.103439 0.037169
v 0.014894 0.105737 0.035779
v 0.018874 0.110514 0.042204
v 0.024882 0.103529 0.031921
v 0.026589 0.100991 0.033059
v 0.024476 0.100675 0.035526
v 0.022769 0.103213 0.034388
v 0.029465 0.107468 0.038510
v 0.026723 0.109419 0.020670
v 0.028752 0.107323 0.022130
v 0.026680 0.107062 0.024637
v 0.024650 0.109159 0.023177
v 0.030656 0.114823 0.026608
v 0.026683 0.113145 0.008859
v 0.029048 0.111642 0.010530
v 0.027397 0.112127 0.013303
v 0.025032 0.113631 0.011632
v 0.031080 0.120194 0.012163
v 0.027362 0.113238 -0.005678
v 0.029926 0.112106 -0.004007
v 0.028606 0.113210 -0.001234
v 0.026041 0.114341 -0.002906
v 0.032023 0.120781 -0.004538
v 0.004776 0.118913 0.014003
v 0.007458 0.118177 0.015710
v 0.005617 0.117533 0.018326
v 0.002934 0.118269 0.016619
v 0.005866 0.126464 0.018664
v -0.007019 0.100776 0.041961
v -0.004317 0.099785 0.043499
v -0.006022 0.097427 0.044977
v -0.008725 0.098418 0.043439
v -0.008273 0.104467 0.050007
v 0.004391 0.109940 0.032883
v 0.007105 0.108472 0.033944
v 0.005379 0.106952 0.036259
v 0.002664 0.108420 0.035198
v 0.006332 0.115028 0.039973
v -0.003271 0.112697 0.029020
v -0.000532 0.112182 0.030717
v -0.002258 0.110688 0.033049
v -0.004997 0.111203 0.031352
v -0.003847 0.119250 0.035074
v -0.013107 0.111876 0.028188
v -0.010337 0.111187 0.029770
v -0.011973 0.109190 0.031765
v -0.014743 0.109878 0.030184
v -0.013988 0.117115 0.035379
v -0.021571 0.112651 0.019384
v -0.019066 0.112815 0.021470
v -0.020835 0.111244 0.023717
v -0.023339 0.111080 0.021632
v -0.024160 0.119505 0.024508
v -0.006952 0.120119 0.009438
v -0.004389 0.119988 0.011454
v -0.006408 0.119684 0.014000
v -0.008970 0.119815 0.011984
v -0.006907 0.128495 0.012565
v -0.005538 0.118866 0.016869
v -0.002935 0.118241 0.018736
v -0.004861 0.116790 0.020935
v -0.007463 0.117415 0.019068
v -0.006282 0.125386 0.022942
v -0.006035 0.118409 -0.015327
v -0.003522 0.119197 -0.013401
v -0.005587 0.119775 -0.010942
v -0.008101 0.118987 -0.012868
v -0.006481 0.127333 -0.015634
v 0.007356 0.120615 -0.004052
v 0.009858 0.120313 -0.001979
v 0.007788 0.120451 0.000540
v 0.005285 0.120752 -0.001533
v 0.008418 0.129126 -0.001529
v 0.014794 0.116675 0.015876
v 0.016997 0.115101 0.017698
v 0.014863 0.114970 0.020164
v 0.012661 0.116545 0.018342
v 0.017786 0.123381 0.020977
v 0.007342 0.114441 0.024666
v 0.009974 0.113252 0.026185
v 0.008088 0.112211 0.028637
v 0.005456 0.113400 0.027118
v 0.008798 0.120883 0.030691
v 0.003218 0.120764 0.003890
v 0.005926 0.120515 0.005693
v 0.004107 0.120297 0.008394
v 0.001399 0.120546 0.006590
v 0.003889 0.129124 0.006988
v -0.013389 0.119452 0.000438
v -0.010799 0.120084 0.002322
v -0.012547 0.119338 0.004975
v -0.015136 0.118706 0.003091
v -0.015468 0.127636 0.003376
v -0.023548 0.115071 0.007113
v -0.021120 0.116093 0.009040
v -0.022677 0.114888 0.011642
v -0.025105 0.113866 0.009715
v -0.027152 0.122537 0.010460
v -0.023740 0.115241 -0.005211
v -0.021541 0.116692 -0.003284
v -0.023409 0.116066 -0.000682
v -0.025607 0.114615 -0.002609
v -0.027614 0.123211 -0.004029
v -0.019622 0.115125 -0.015011
v -0.017482 0.116703 -0.013118
v -0.019678 0.116787 -0.010706
v -0.021818 0.115210 -0.012598
v -0.022607 0.123514 -0.015815
v -0.014505 0.113266 -0.024945
v -0.012311 0.114641 -0.022959
v -0.014692 0.115418 -0.020867
v -0.016886 0.114043 -0.022853
v -0.015681 0.121900 -0.026946
v -0.004011 0.112269 -0.029621
v -0.001817 0.113645 -0.027635
v -0.004199 0.114422 -0.025543
v -0.006392 0.113046 -0.027529
v -0.005187 0.120903 -0.031621
v 0.010773 0.108689 -0.032697
v 0.012963 0.109918 -0.030613
v 0.010606 0.111637 -0.029150
v 0.008416 0.110408 -0.031234
v 0.012137 0.116746 -0.036326
v 0.021269 0.109341 -0.026255
v 0.023142 0.109797 -0.023622
v 0.020926 0.111861 -0.022403
v 0.019053 0.111404 -0.025036
v 0.025052 0.117183 -0.028284
v 0.015589 0.114198 -0.021413
v 0.017406 0.114539 -0.018723
v 0.014936 0.116082 -0.017251
v 0.013119 0.115741 -0.019940
v 0.018219 0.122698 -0.022289
v 0.018460 0.117349 -0.007384
v 0.020069 0.117090 -0.004557
v 0.017392 0.118033 -0.002947
v 0.015783 0.118292 -0.005774
v 0.020426 0.125932 -0.005835
v 0.011656 0.117931 -0.013641
v 0.013393 0.118157 -0.010887
v 0.010718 0.119108 -0.009278
v 0.008981 0.118882 -0.012032
v 0.013017 0.126760 -0.013290
v 0.001211 0.120363 -0.009154
v 0.002956 0.120678 -0.006414
v 0.000200 0.120777 -0.004670
v -0.001545 0.120462 -0.007409
v 0.000479 0.129163 -0.007758
v 0.003664 0.117209 -0.020472
v 0.005465 0.118287 -0.017972
v 0.002774 0.119442 -0.016532
v 0.000973 0.118364 -0.019032
v 0.004301 0.125883 -0.022542
v -0.002801 0.106653 -0.037314
v -0.000690 0.108493 -0.035638
v -0.003118 0.109532 -0.033721
v -0.005229 0.107692 -0.035397
v -0.004407 0.114675 -0.040920
v -0.017278 0.103981 -0.036582
v -0.015270 0.106208 -0.035292
v -0.017757 0.107465 -0.033594
v -0.019764 0.105239 -0.034884
v -0.019269 0.111089 -0.041626
v -0.024142 0.104787 -0.030962
v -0.022070 0.106878 -0.029553
v -0.024101 0.107181 -0.027017
v -0.026173 0.105090 -0.028426
v -0.028076 0.112567 -0.032944
v -0.036388 0.105845 -0.009933
v -0.034282 0.107887 -0.008505
v -0.035713 0.107347 -0.005622
v -0.037819 0.105304 -0.007051
v -0.041453 0.113178 -0.009225
v 0.005313 0.102456 -0.041040
v 0.007418 0.104077 -0.039145
v 0.005014 0.106055 -0.038166
v 0.002909 0.104434 -0.040061
v 0.006916 0.109621 -0.046141
v 0.023430 0.100920 -0.036298
v 0.025091 0.101813 -0.033635
v 0.022942 0.104209 -0.033098
v 0.021281 0.103316 -0.035761
v 0.027972 0.107930 -0.039484
v 0.036603 0.096627 -0.027938
v 0.038265 0.097520 -0.025275
v 0.036116 0.099916 -0.024738
v 0.034454 0.099023 -0.027400
v 0.041146 0.103637 -0.031124
v 0.031204 0.108573 -0.016872
v 0.033185 0.107462 -0.014529
v 0.031586 0.109260 -0.012324
v 0.029605 0.110371 -0.014667
v 0.036797 0.115499 -0.016045
v 0.035358 0.108800 0.000339
v 0.036834 0.107073 0.002682
v 0.034759 0.108291 0.004887
v 0.033283 0.110018 0.002544
v 0.040461 0.115128 0.004060
v 0.033233 0.103147 0.023998
v 0.034065 0.100666 0.025947
v 0.031480 0.101285 0.027839
v 0.030647 0.103766 0.025890
v 0.037142 0.107582 0.030705
v -0.038645 0.107061 0.000145
v -0.037910 0.106920 0.003321
v -0.039912 0.104366 0.003671
v -0.040647 0.104507 0.000495
v -0.045817 0.111079 0.003660
v -0.036472 0.105547 0.010973
v -0.035761 0.105431 0.014156
v -0.038206 0.103321 0.014624
v -0.038917 0.103437 0.011441
v -0.042741 0.111016 0.014246
v -0.033603 0.103937 0.022743
v -0.032092 0.102882 0.025436
v -0.034350 0.100552 0.025790
v -0.035861 0.101607 0.023097
v -0.038763 0.107610 0.029053
v -0.024203 0.101723 0.036579
v -0.022268 0.099970 0.038536
v -0.024810 0.098108 0.039383
v -0.026746 0.099861 0.037426
v -0.026259 0.105281 0.044519
v -0.031929 0.105848 -0.021407
v -0.031682 0.107632 -0.018685
v -0.034573 0.106499 -0.017681
v -0.034820 0.104715 -0.020402
v -0.037206 0.112756 -0.023498
vn -0.0440 0.9981 0.0440
vn -0.0622 0.9981 -0.0000
vn -0.0995 0.9950 -0.0000
vn -0.0704 0.9950 0.0704
vn -0.0000 -0.9950 -0.0995
vn -0.0704 -0.9950 -0.0704
vn -0.0000 0.9981 -0.0622
vn 0.0440 0.9981 -0.0440
vn 0.0704 0.9950 -0.0704
vn -0.0000 0.9950 -0.0995
vn -0.0440 0.9981 -0.0440
vn -0.0704 0.9950 -0.0704
vn 0.0622 0.9981 -0.0000
vn 0.0440 0.9981 0.0440
vn 0.0704 0.9950 0.0704
vn 0.0995 0.9950 -0.0000
vn 0.0704 -0.9950 -0.0704
vn 0.0995 -0.9950 -0.0000
vn -0.0000 0.9981 0.0622
vn -0.0000 0.9950 0.0995
vn -0.0000 -1.0000 -0.0000
vn -0.0000 1.0000 -0.0000
vn -0.0000 0.1403 0.9901
vn 0.7001 0.1403 0.7001
vn 0.9901 0.1403 -0.0000
vn 0.7001 0.1403 -0.7001
vn -0.0000 0.1403 -0.9901
vn -0.7001 0.1403 -0.7001
vn -0.9901 0.1403 -0.0000
vn -0.7001 0.1403 0.7001
vn -0.6989 -0.1517 -0.6989
vn -0.0000 -0.1517 -0.9884
vn -0.9884 -0.1517 -0.0000
vn -0.6989 -0.1517 0.6989
vn -0.0000 -0.1517 0.9884
vn 0.6989 -0.1517 0.6989
vn 0.9884 -0.1517 -0.0000
vn 0.6989 -0.1517 -0.6989
vn -0.0000 -0.0995 -0.9950
vn 0.7036 -0.0995 -0.7036
vn 0.9950 -0.0995 -0.0000
vn 0.7036 -0.0995 0.7036
vn -0.0000 -0.0995 0.9950
vn -0.7036 -0.0995 0.7036
vn -0.9950 -0.0995 -0.0000
vn -0.7036 -0.0995 -0.7036
vn -0.0995 -0.9950 -0.0000
vn -0.0704 -0.9950 0.0704
vn -0.0000 -0.9950 0.0995
vn 0.0704 -0.9950 0.0704
vn -0.0000 0.5482 -0.8363
vn -0.0000 0.6991 -0.7150
vn 0.3575 0.6991 -0.6192
vn 0.4182 0.5482 -0.7243
vn -0.0000 0.4714 -0.8819
vn 0.4410 0.4714 -0.7638
vn -0.0000 0.9776 -0.2107
vn 0.1053 0.9776 -0.1825
vn -0.0000 0.9181 -0.3964
vn 0.1982 0.9181 -0.3433
vn -0.0000 0.8240 -0.5666
vn 0.2833 0.8240 -0.4907
vn 0.4907 0.8240 -0.2833
vn 0.6192 0.6991 -0.3575
vn 0.7243 0.5482 -0.4182
vn 0.7638 0.4714 -0.4410
vn 0.1825 0.9776 -0.1053
vn 0.3433 0.9181 -0.1982
vn 0.2107 0.9776 -0.0000
vn 0.3964 0.9181 -0.0000
vn 0.5666 0.8240 -0.0000
vn 0.7150 0.6991 -0.0000
vn 0.8363 0.5482 -0.0000
vn 0.8819 0.4714 -0.0000
vn 0.6192 0.6991 0.3575
vn 0.7243 0.5482 0.4182
vn 0.7638 0.4714 0.4410
vn 0.1825 0.9776 0.1053
vn 0.3433 0.9181 0.1982
vn 0.4907 0.8240 0.2833
vn 0.1053 0.9776 0.1825
vn 0.1982 0.9181 0.3433
vn 0.2833 0.8240 0.4907
vn 0.3575 0.6991 0.6192
vn 0.4182 0.5482 0.7243
vn 0.4410 0.4714 0.7638
vn -0.0000 0.6991 0.7150
vn -0.0000 0.5482 0.8363
vn -0.0000 0.4714 0.8819
vn -0.0000 0.9776 0.2107
vn -0.0000 0.9181 0.3964
vn -0.0000 0.8240 0.5666
vn -0.1053 0.9776 0.1825
vn -0.1982 0.9181 0.3433
vn -0.2833 0.8240 0.4907
vn -0.3575 0.6991 0.6192
vn -0.4182 0.5482 0.7243
vn -0.4410 0.4714 0.7638
vn -0.7243 0.5482 0.4182
vn -0.7638 0.4714 0.4410
vn -0.1825 0.9776 0.1053
vn -0.3433 0.9181 0.1982
vn -0.4907 0.8240 0.2833
vn -0.6192 0.6991 0.3575
vn -0.2107 0.9776 -0.0000
vn -0.3964 0.9181 -0.0000
vn -0.5666 0.8240 -0.0000
vn -0.7150 0.6991 -0.0000
vn -0.8363 0.5482 -0.0000
vn -0.8819 0.4714 -0.0000
vn -0.7243 0.5482 -0.4182
vn -0.7638 0.4714 -0.4410
vn -0.1825 0.9776 -0.1053
vn -0.3433 0.9181 -0.1982
vn -0.4907 0.8240 -0.2833
vn -0.6192 0.6991 -0.3575
vn -0.1982 0.9181 -0.3433
vn -0.2833 0.8240 -0.4907
vn -0.3575 0.6991 -0.6192
vn -0.4182 0.5482 -0.7243
vn -0.4410 0.4714 -0.7638
vn -0.1053 0.9776 -0.1825
vn 0.6989 -0.3490 -0.6243
vn 0.4575 -0.4990 0.7360
vn -0.7569 -0.6212 -0.2028
vn -0.4179 0.5796 0.6996
vn -0.1765 0.7296 -0.6607
vn 0.5977 -0.3997 -0.6950
vn 0.7127 -0.1930 0.6744
vn -0.6254 -0.7621 0.1676
vn -0.3655 0.6827 0.6328
vn -0.4805 0.4760 -0.7366
vn 0.5041 -0.4876 -0.7128
vn 0.8514 0.0459 0.5224
vn -0.4578 -0.7621 0.4578
vn -0.3342 0.7705 0.5429
vn -0.6815 0.2370 -0.6924
vn 0.6376 -0.2338 -0.7340
vn 0.7584 -0.1010 0.6439
vn -0.4677 -0.8750 0.1253
vn -0.4640 0.5586 0.6875
vn -0.5848 0.4258 -0.6905
vn 0.7102 0.0363 -0.7031
vn 0.7273 -0.0815 0.6815
vn -0.2894 -0.9541 -0.0775
vn -0.6028 0.3179 0.7318
vn -0.6198 0.4356 -0.6527
vn 0.7993 0.4203 -0.4295
vn 0.6212 -0.4304 0.6548
vn -0.1676 -0.7621 -0.6254
vn -0.7371 -0.1373 0.6617
vn -0.5590 0.7134 -0.4226
vn 0.8216 0.4527 -0.3465
vn 0.5956 -0.5769 0.5591
vn -0.2028 -0.6212 -0.7569
vn -0.7463 -0.2221 0.6275
vn -0.5203 0.8075 -0.2780
vn 0.7391 0.2103 -0.6399
vn 0.6169 -0.6488 0.4454
vn -0.5541 -0.6212 -0.5541
vn -0.5334 0.0203 0.8456
vn -0.4112 0.8795 -0.2397
vn 0.7091 0.2200 -0.6699
vn 0.6962 -0.4899 0.5247
vn -0.4578 -0.7621 -0.4578
vn -0.5392 0.0629 0.8398
vn -0.5262 0.7728 -0.3547
vn 0.5840 0.0163 -0.8116
vn 0.7990 -0.2903 0.5266
vn -0.4677 -0.8750 -0.1253
vn -0.4103 0.3086 0.8581
vn -0.6254 0.6152 -0.4801
vn 0.4845 -0.1697 -0.8581
vn 0.8589 -0.1782 0.4801
vn -0.3109 0.4946 0.8116
vn -0.6853 0.5030 -0.5266
vn 0.5689 0.3710 -0.7340
vn 0.8220 -0.0445 0.5677
vn -0.0775 -0.9541 -0.2894
vn -0.5401 -0.0168 0.8414
vn -0.7932 0.3987 -0.4603
vn 0.4758 0.8252 -0.3045
vn 0.7761 -0.1831 0.6035
vn 0.2028 -0.6212 -0.7569
vn -0.5511 -0.5945 0.5855
vn -0.8514 0.4138 -0.3225
vn 0.5510 0.5991 -0.5809
vn 0.8485 -0.3005 0.4356
vn -0.4888 -0.3162 0.8131
vn -0.7863 0.5834 -0.2034
vn 0.4965 0.6122 -0.6154
vn 0.8015 0.0074 0.5979
vn 0.1253 -0.8750 -0.4677
vn -0.5430 -0.2874 0.7890
vn -0.8480 0.3175 -0.4243
vn 0.4615 0.7429 -0.4848
vn 0.8030 -0.0659 0.5923
vn 0.1676 -0.7621 -0.6254
vn -0.5237 -0.4600 0.7170
vn -0.8653 0.3488 -0.3601
vn 0.4690 0.6356 -0.6132
vn 0.6906 0.2118 0.6915
vn 0.3424 -0.8750 -0.3424
vn -0.5961 -0.3108 0.7403
vn -0.8177 0.1130 -0.5644
vn 0.6029 0.2762 -0.7485
vn 0.7668 0.1452 0.6252
vn 0.0263 -0.9948 -0.0980
vn -0.6127 0.0931 0.7848
vn -0.7765 0.2241 -0.5889
vn 0.5565 0.5994 -0.5753
vn 0.7605 -0.0258 0.6489
vn -0.6030 -0.2746 0.7490
vn -0.8070 0.3506 -0.4752
vn 0.6075 0.0030 -0.7943
vn 0.7425 0.4145 0.5261
vn 0.0775 -0.9541 0.2894
vn -0.6363 0.3512 0.6868
vn -0.7713 -0.0603 -0.6336
vn 0.6415 0.1433 -0.7536
vn 0.7717 0.0940 0.6290
vn -0.0980 -0.9948 -0.0263
vn -0.6051 0.2260 0.7634
vn -0.7353 0.2753 -0.6193
vn 0.7059 0.2017 -0.6790
vn 0.7267 -0.3117 0.6121
vn -0.3424 -0.8750 -0.3424
vn -0.5788 0.1232 0.8061
vn -0.5996 0.6366 -0.4850
vn 0.5910 0.4757 -0.6514
vn 0.8157 -0.1956 0.5443
vn -0.1253 -0.8750 -0.4677
vn -0.5445 -0.1509 0.8251
vn -0.7692 0.5205 -0.3707
vn 0.5526 0.2503 -0.7950
vn 0.8203 0.1097 0.5613
vn -0.0263 -0.9948 -0.0980
vn -0.5428 0.1190 0.8314
vn -0.8105 0.2597 -0.5250
vn 0.4725 0.4017 -0.7845
vn 0.7259 0.3675 0.5815
vn 0.2894 -0.9541 -0.0775
vn -0.5800 -0.0475 0.8133
vn -0.8333 -0.0133 -0.5527
vn 0.3822 0.5253 -0.7603
vn 0.6442 0.4701 0.6033
vn 0.4677 -0.8750 -0.1253
vn -0.5558 -0.2005 0.8068
vn -0.8178 -0.1453 -0.5568
vn 0.4755 0.3507 -0.8068
vn 0.5751 0.5993 0.5568
vn 0.4677 -0.8750 0.1253
vn -0.6491 -0.0259 0.7603
vn -0.7488 -0.2745 -0.6033
vn 0.5977 0.1369 -0.7899
vn 0.5807 0.6375 0.5063
vn 0.3424 -0.8750 0.3424
vn -0.7248 0.1879 0.6628
vn -0.7078 -0.3127 -0.6334
vn 0.6937 -0.0716 -0.7167
vn 0.6373 0.5767 0.5112
vn 0.1253 -0.8750 0.4677
vn -0.7402 0.3964 0.5431
vn -0.6838 -0.2518 -0.6848
vn 0.7408 -0.3761 -0.5566
vn 0.6905 0.5115 0.5115
vn -0.1676 -0.7621 0.6254
vn -0.6786 0.6590 0.3244
vn -0.6283 -0.2286 -0.7436
vn 0.7521 -0.4797 -0.4518
vn 0.6490 0.2789 0.7078
vn -0.5822 0.7627 0.2819
vn -0.4790 0.0040 -0.8778
vn 0.8073 -0.3021 -0.5070
vn 0.6106 0.2652 0.7462
vn -0.3424 -0.8750 0.3424
vn -0.6802 0.6269 0.3799
vn -0.4835 0.0596 -0.8733
vn 0.8598 -0.1068 -0.4993
vn 0.5384 0.0993 0.8368
vn -0.2894 -0.9541 0.0775
vn -0.7524 0.4610 0.4705
vn -0.4309 0.2549 -0.8656
vn 0.8448 -0.1094 -0.5238
vn 0.5623 0.2451 0.7898
vn -0.2119 -0.9541 0.2119
vn -0.7661 0.4635 0.4452
vn -0.4836 0.1091 -0.8685
vn 0.8250 0.1548 -0.5435
vn 0.5207 0.2798 0.8066
vn 0.0263 -0.9948 0.0980
vn -0.8348 0.2145 0.5071
vn -0.5304 0.0896 -0.8430
vn 0.8336 -0.1854 -0.5204
vn 0.5653 0.4870 0.6658
vn -0.1253 -0.8750 0.4677
vn -0.7870 0.5102 0.3468
vn -0.5188 -0.1622 -0.8394
vn 0.7000 -0.1714 -0.6933
vn 0.6044 0.6954 0.3886
vn 0.1676 -0.7621 0.6254
vn -0.7622 0.4544 0.4611
vn -0.6666 -0.4125 -0.6208
vn 0.7111 -0.2634 -0.6519
vn 0.5667 0.7858 0.2478
vn 0.2028 -0.6212 0.7569
vn -0.7864 0.4940 0.3709
vn -0.6420 -0.5552 -0.5288
vn 0.5265 0.0500 -0.8487
vn 0.5389 0.7711 0.3392
vn 0.4578 -0.7621 0.4578
vn -0.6965 0.2329 0.6787
vn -0.7088 -0.4882 -0.5092
vn 0.3148 0.3042 -0.8991
vn 0.5181 0.7565 0.3990
vn 0.6254 -0.7621 0.1676
vn -0.5470 -0.0213 0.8369
vn -0.7503 -0.4736 -0.4613
vn 0.7616 -0.4802 -0.4353
vn 0.6715 0.6035 0.4300
vn -0.2028 -0.6212 0.7569
vn -0.6863 0.7108 0.1542
vn -0.5962 -0.3729 -0.7110
vn 0.7500 -0.6062 -0.2646
vn 0.6032 0.3843 0.6990
vn -0.5541 -0.6212 0.5541
vn -0.5443 0.8368 0.0589
vn -0.3974 -0.1536 -0.9047
vn 0.7408 -0.2253 -0.6328
vn 0.5606 -0.3784 0.7366
vn -0.6254 -0.7621 -0.1676
vn -0.5087 0.5082 0.6950
vn -0.3284 0.6614 -0.6744
vn 0.8815 -0.0710 -0.4669
vn 0.3536 -0.6318 0.6898
vn -0.6757 0.3016 0.6726
vn -0.1478 0.8625 -0.4841
vn 0.4622 0.8842 -0.0677
vn 0.0809 0.0728 0.9941
vn 0.7569 -0.6212 -0.2028
vn -0.7433 -0.6535 0.1430
vn -0.3619 0.1578 -0.9188
vn 0.6202 0.7767 -0.1100
vn 0.0979 0.1063 0.9895
vn 0.6254 -0.7621 -0.1676
vn -0.8524 -0.4938 0.1722
vn -0.3301 0.1766 -0.9273
vn 0.5770 0.8168 -0.0037
vn 0.3520 -0.2023 0.9139
vn 0.5541 -0.6212 -0.5541
vn -0.7827 -0.5861 0.2094
vn -0.5578 0.4330 -0.7081
vn 0.7279 0.6761 -0.1146
vn 0.5453 -0.4124 0.7298
vn -0.8032 -0.4454 0.3956
vn -0.6205 0.6430 -0.4488
vn 0.7854 0.4826 -0.3875
vn -0.0106 0.6785 0.7345
vn -0.9554 -0.1997 0.2176
vn -0.1593 -0.3956 -0.9045
vt 0.060190 0.060190
vt 0.010080 0.181166
vt 0.002987 0.181166
vt 0.055175 0.055175
vt 0.179740 0.372413
vt 0.059773 0.422105
vt 0.054757 0.417089
vt 0.179740 0.365319
vt 0.181166 0.352252
vt 0.302142 0.302142
vt 0.307158 0.307158
vt 0.181166 0.359345
vt 0.060190 0.302142
vt 0.055175 0.307158
vt 0.352252 0.181166
vt 0.302142 0.060190
vt 0.307158 0.055175
vt 0.359345 0.181166
vt 0.299708 0.422105
vt 0.304724 0.417089
vt 0.349401 0.542073
vt 0.356494 0.542073
vt 0.181166 0.010080
vt 0.181166 0.002987
vt 0.230655 0.892451
vt 0.230655 0.794244
vt 0.300099 0.724800
vt 0.398306 0.724800
vt 0.467750 0.794244
vt 0.467750 0.892451
vt 0.398306 0.961895
vt 0.300099 0.961895
vt 0.181166 0.336820
vt 0.291230 0.291230
vt 0.336820 0.181166
vt 0.291230 0.071102
vt 0.181166 0.025512
vt 0.071102 0.071102
vt 0.025512 0.181166
vt 0.071102 0.291230
vt 0.747534 0.944823
vt 0.683090 0.880380
vt 0.683090 0.789244
vt 0.747534 0.724800
vt 0.838670 0.724800
vt 0.903113 0.789244
vt 0.903113 0.880380
vt 0.838670 0.944823
vt 0.473724 0.724800
vt 0.592844 0.726498
vt 0.575189 0.983011
vt 0.484062 0.981713
vt 0.644298 0.290598
vt 0.647196 0.206359
vt 0.903935 0.192361
vt 0.901718 0.256804
vt 0.647196 0.087226
vt 0.644298 0.002987
vt 0.901718 0.036781
vt 0.903935 0.101225
vt 0.647196 0.499944
vt 0.647196 0.380812
vt 0.903935 0.394810
vt 0.903935 0.485946
vt 0.677116 0.724800
vt 0.639657 0.981713
vt 0.644298 0.584184
vt 0.901718 0.550389
vt 0.638324 0.278280
vt 0.368479 0.316478
vt 0.365319 0.224659
vt 0.635934 0.208836
vt 0.120862 0.995613
vt 0.132826 0.724800
vt 0.224681 0.726651
vt 0.190332 0.997013
vt 0.022664 0.997013
vt 0.002987 0.726651
vt 0.635934 0.430094
vt 0.365320 0.414272
vt 0.368479 0.322452
vt 0.638324 0.360651
vt 0.635934 0.528302
vt 0.365320 0.544124
vt 0.638324 0.597745
vt 0.368479 0.635944
vt 0.635934 0.110629
vt 0.365319 0.094807
vt 0.368479 0.002987
vt 0.638324 0.041186
vt 0.924204 0.235244
vt 0.909909 0.235789
vt 0.909909 0.099417
vt 0.924204 0.099963
vt 0.913227 0.002987
vt 0.927495 0.004304
vt 0.926137 0.905111
vt 0.911853 0.906225
vt 0.909909 0.809758
vt 0.924210 0.809416
vt 0.911853 0.673399
vt 0.926137 0.674149
vt 0.927495 0.666108
vt 0.913227 0.667425
vt 0.909909 0.570995
vt 0.924204 0.570450
vt 0.909909 0.434623
vt 0.924204 0.435169
vt 0.913227 0.338193
vt 0.927495 0.339510
vt 0.927495 0.330902
vt 0.913227 0.332219
vt 0.010080 0.542073
vt 0.002987 0.542073
vt 0.059773 0.662041
vt 0.054757 0.667056
vt 0.179740 0.711733
vt 0.179740 0.718826
vt 0.299708 0.662041
vt 0.304724 0.667056
vt 0.644298 0.296572
vt 0.901718 0.330367
vt 0.206237 0.468351
vt 0.168871 0.427346
vt 0.246859 0.356975
vt 0.297941 0.385603
vt 0.244853 0.501023
vt 0.346749 0.409079
vt 0.078071 0.271326
vt 0.058786 0.214988
vt 0.099588 0.251911
vt 0.103533 0.326904
vt 0.145740 0.288819
vt 0.134192 0.379585
vt 0.195467 0.324295
vt 0.228247 0.241367
vt 0.288580 0.251427
vt 0.346999 0.261492
vt 0.401260 0.271174
vt 0.111099 0.222790
vt 0.168319 0.231697
vt 0.109519 0.191767
vt 0.165220 0.170843
vt 0.223747 0.153021
vt 0.282853 0.138984
vt 0.340265 0.129273
vt 0.393778 0.124260
vt 0.231214 0.049774
vt 0.279545 0.024373
vt 0.326309 0.007701
vt 0.095272 0.167154
vt 0.137273 0.122563
vt 0.183175 0.082929
vt 0.072175 0.155546
vt 0.091967 0.099794
vt 0.117401 0.049873
vt 0.147500 0.007701
vt 0.685244 0.526139
vt 0.726036 0.541102
vt 0.731184 0.654071
vt 0.691297 0.658977
vt 0.636376 0.515366
vt 0.643102 0.662968
vt 0.726036 0.760890
vt 0.685244 0.784583
vt 0.636376 0.802533
vt 0.046417 0.160054
vt 0.041442 0.108636
vt 0.044050 0.062709
vt 0.444705 0.440835
vt 0.419944 0.391582
vt 0.471616 0.382900
vt 0.510471 0.429786
vt 0.439941 0.330458
vt 0.416663 0.274474
vt 0.432377 0.256162
vt 0.470765 0.294536
vt 0.516366 0.330750
vt 0.567427 0.363412
vt 0.555013 0.469313
vt 0.621985 0.391265
vt 0.603529 0.499963
vt 0.677945 0.413241
vt 0.024900 0.179469
vt 0.660652 0.269076
vt 0.720909 0.277472
vt 0.013390 0.208590
vt 0.441449 0.227492
vt 0.488561 0.238299
vt 0.542202 0.249106
vt 0.600310 0.259498
vt 0.441449 0.196147
vt 0.488561 0.176814
vt 0.542202 0.159844
vt 0.600310 0.145889
vt 0.660652 0.135486
vt 0.720909 0.129034
vt 0.014970 0.239613
vt 0.621985 0.026289
vt 0.677945 0.007702
vt 0.029217 0.264226
vt 0.432377 0.170526
vt 0.470765 0.126557
vt 0.516366 0.086881
vt 0.567427 0.053025
vt 0.580079 0.559105
vt 0.620973 0.581455
vt 0.620973 0.642134
vt 0.580079 0.647198
vt 0.531102 0.540182
vt 0.531102 0.652303
vt 0.475923 0.525413
vt 0.475923 0.657254
vt 0.416663 0.515366
vt 0.416663 0.661859
vt 0.052314 0.275833
vt 0.007702 0.312976
vt 0.053007 0.335746
vt 0.060841 0.392422
vt 0.591192 0.732154
vt 0.545245 0.760432
vt 0.492554 0.784400
vt 0.435142 0.803137
vt 0.161744 0.752195
vt 0.171124 0.704920
vt 0.178813 0.752195
vt 0.325071 0.812631
vt 0.331877 0.767849
vt 0.342533 0.812631
vt 0.142476 0.955568
vt 0.125166 0.955239
vt 0.125166 0.937737
vt 0.142476 0.938065
vt 0.259986 0.873181
vt 0.274163 0.828645
vt 0.276337 0.873181
vt 0.125166 0.920040
vt 0.142461 0.883407
vt 0.142461 0.922334
vt 0.736312 0.119430
vt 0.736312 0.071225
vt 0.752837 0.116136
vt 0.047101 0.625916
vt 0.047101 0.577779
vt 0.064150 0.622545
vt 0.829302 0.952620
vt 0.812148 0.953456
vt 0.812148 0.936262
vt 0.829302 0.935425
vt 0.845098 0.870777
vt 0.861051 0.826083
vt 0.861051 0.871604
vt 0.736312 0.244088
vt 0.746451 0.197613
vt 0.753696 0.244088
vt 0.736312 0.429869
vt 0.752957 0.384628
vt 0.752957 0.432484
vt 0.357981 0.627295
vt 0.357981 0.579158
vt 0.375029 0.623924
vt 0.796331 0.954369
vt 0.779178 0.955205
vt 0.779178 0.938011
vt 0.796331 0.937174
vt 0.845098 0.810680
vt 0.845098 0.763223
vt 0.860401 0.806095
vt 0.736312 0.305967
vt 0.746451 0.259491
vt 0.753696 0.305967
vt 0.768355 0.053023
vt 0.784795 0.007701
vt 0.784795 0.055604
vt 0.668962 0.859268
vt 0.686208 0.817936
vt 0.686208 0.861579
vt 0.176713 0.967177
vt 0.161744 0.970102
vt 0.161744 0.953406
vt 0.176713 0.950482
vt 0.843487 0.560445
vt 0.843487 0.512702
vt 0.858651 0.556105
vt 0.161744 0.689517
vt 0.169581 0.642549
vt 0.179175 0.689517
vt 0.195026 0.815898
vt 0.195026 0.768602
vt 0.211103 0.811506
vt 0.086312 0.747623
vt 0.103418 0.702963
vt 0.103418 0.750275
vt 0.890263 0.964942
vt 0.873570 0.965289
vt 0.873570 0.947725
vt 0.890263 0.947378
vt 0.292789 0.818238
vt 0.292789 0.770038
vt 0.308223 0.815201
vt 0.007702 0.690382
vt 0.017426 0.643320
vt 0.024971 0.690382
vt 0.746587 0.922004
vt 0.762966 0.881814
vt 0.763259 0.922004
vt 0.325185 0.690103
vt 0.334818 0.643047
vt 0.342533 0.690103
vt 0.529873 0.958838
vt 0.513247 0.957663
vt 0.513247 0.940434
vt 0.529873 0.941609
vt 0.831956 0.178035
vt 0.847158 0.134188
vt 0.847158 0.182119
vt 0.736312 0.494591
vt 0.746577 0.447887
vt 0.753541 0.494591
vt 0.227462 0.874806
vt 0.241781 0.830745
vt 0.243965 0.874806
vt 0.779220 0.622517
vt 0.787511 0.577163
vt 0.796806 0.622517
vt 0.138866 0.970971
vt 0.138866 0.988569
vt 0.125166 0.988617
vt 0.125166 0.971020
vt 0.007702 0.929867
vt 0.020149 0.889841
vt 0.020149 0.936230
vt 0.812148 0.917392
vt 0.829450 0.880836
vt 0.829450 0.920022
vt 0.843186 0.746675
vt 0.855659 0.700480
vt 0.859126 0.746675
vt 0.357981 0.871744
vt 0.366995 0.829536
vt 0.375578 0.871744
vt 0.791787 0.972172
vt 0.791787 0.989626
vt 0.779178 0.988062
vt 0.779178 0.970608
vt 0.086312 0.552390
vt 0.109763 0.516426
vt 0.095292 0.561369
vt 0.109763 0.560421
vt 0.845098 0.931661
vt 0.845098 0.887007
vt 0.858897 0.924751
vt 0.898787 0.484929
vt 0.914845 0.447887
vt 0.914845 0.490737
vt 0.341339 0.943883
vt 0.341339 0.961040
vt 0.325071 0.959547
vt 0.325071 0.942390
vt 0.007702 0.557832
vt 0.031698 0.516426
vt 0.018922 0.562394
vt 0.031698 0.564377
vt 0.386274 0.928994
vt 0.386274 0.887147
vt 0.401047 0.921734
vt 0.831901 0.429377
vt 0.836194 0.384929
vt 0.848914 0.429377
vt 0.976832 0.197877
vt 0.976832 0.215459
vt 0.960346 0.215194
vt 0.960346 0.197613
vt 0.161744 0.932117
vt 0.174118 0.886877
vt 0.174118 0.935079
vt 0.047101 0.929871
vt 0.047101 0.888537
vt 0.062331 0.922891
vt 0.908134 0.623916
vt 0.908134 0.577164
vt 0.921941 0.618255
vt 0.779576 0.747820
vt 0.786936 0.700480
vt 0.796020 0.747820
vt 0.434003 0.957469
vt 0.416663 0.957225
vt 0.416663 0.939685
vt 0.434003 0.939930
vt 0.416663 0.924282
vt 0.421551 0.876967
vt 0.430131 0.924282
vt 0.515332 0.865465
vt 0.515332 0.818540
vt 0.530813 0.860566
vt 0.874529 0.745985
vt 0.888883 0.700480
vt 0.889647 0.745985
vt 0.800389 0.179451
vt 0.816553 0.134188
vt 0.816553 0.181237
vt 0.955309 0.958560
vt 0.938512 0.959227
vt 0.938512 0.941772
vt 0.955309 0.941105
vt 0.899651 0.303374
vt 0.908019 0.256033
vt 0.913396 0.303374
vt 0.800198 0.054788
vt 0.810434 0.007702
vt 0.816378 0.054788
vt 0.779178 0.921771
vt 0.786348 0.883112
vt 0.796745 0.921771
vt 0.769099 0.245824
vt 0.769099 0.197613
vt 0.785308 0.242607
vt 0.102039 0.959745
vt 0.086312 0.956659
vt 0.086312 0.940461
vt 0.102039 0.943547
vt 0.927593 0.045626
vt 0.939983 0.007701
vt 0.939983 0.052863
vt 0.831781 0.052663
vt 0.847865 0.007701
vt 0.847865 0.053935
vt 0.161945 0.564628
vt 0.161945 0.516426
vt 0.179245 0.561410
vt 0.746587 0.561760
vt 0.753476 0.515366
vt 0.763892 0.561760
vt 0.963998 0.826083
vt 0.978730 0.827878
vt 0.978730 0.845167
vt 0.963998 0.843372
vt 0.292789 0.935022
vt 0.292789 0.894067
vt 0.307422 0.927422
vt 0.482565 0.916616
vt 0.499516 0.877294
vt 0.499516 0.917353
vt 0.161744 0.809924
vt 0.179046 0.767598
vt 0.179046 0.812988
vt 0.701611 0.862819
vt 0.704751 0.817937
vt 0.718177 0.862819
vt 0.370872 0.949067
vt 0.370872 0.966238
vt 0.356831 0.968560
vt 0.356831 0.951389
vt 0.125166 0.549779
vt 0.146542 0.516426
vt 0.130158 0.559626
vt 0.146542 0.560218
vt 0.769099 0.305934
vt 0.775890 0.261227
vt 0.786563 0.305934
vt 0.768659 0.179519
vt 0.784986 0.134188
vt 0.784986 0.182210
vt 0.227462 0.965884
vt 0.227462 0.950120
vt 0.242648 0.946169
vt 0.242648 0.961933
vt 0.390432 0.609060
vt 0.400835 0.579158
vt 0.400835 0.619367
vt 0.844725 0.624512
vt 0.844725 0.577163
vt 0.860080 0.619857
vt 0.086312 0.687560
vt 0.086312 0.640057
vt 0.103575 0.684593
vt 0.292789 0.751224
vt 0.309220 0.706457
vt 0.309220 0.754635
vt 0.007701 0.951633
vt 0.022728 0.954408
vt 0.022728 0.971179
vt 0.007701 0.968404
vt 0.955386 0.046346
vt 0.955386 0.007702
vt 0.967891 0.036623
vt 0.864317 0.430596
vt 0.864317 0.384929
vt 0.879591 0.424948
vt 0.125166 0.809153
vt 0.125166 0.763094
vt 0.142201 0.806980
vt 0.811389 0.560445
vt 0.823718 0.514746
vt 0.828084 0.560445
vt 0.292789 0.969358
vt 0.292789 0.952221
vt 0.308513 0.950425
vt 0.308513 0.967563
vt 0.701611 0.956553
vt 0.714226 0.933357
vt 0.714226 0.967235
vt 0.007701 0.812793
vt 0.023744 0.767335
vt 0.023744 0.815163
vt 0.193039 0.929307
vt 0.196852 0.892860
vt 0.210408 0.929307
vt 0.227462 0.813647
vt 0.244284 0.769838
vt 0.244284 0.815342
vt 0.976007 0.091287
vt 0.961701 0.087725
vt 0.961701 0.071225
vt 0.976007 0.074786
vt 0.515332 0.918328
vt 0.529873 0.880868
vt 0.529873 0.925031
vt 0.227910 0.751563
vt 0.244284 0.706310
vt 0.244284 0.754435
vt 0.779576 0.805301
vt 0.796745 0.763223
vt 0.796745 0.809022
vt 0.736312 0.182210
vt 0.745199 0.134833
vt 0.753256 0.182210
vt 0.386275 0.964279
vt 0.386275 0.948223
vt 0.401186 0.944397
vt 0.401186 0.960453
vt 0.957086 0.415274
vt 0.968292 0.384929
vt 0.968292 0.425203
vt 0.831715 0.241816
vt 0.848202 0.197613
vt 0.848202 0.243110
vt 0.325071 0.926987
vt 0.325071 0.886984
vt 0.341540 0.921362
vt 0.259986 0.925056
vt 0.277176 0.888584
vt 0.277176 0.926348
vt 0.428136 0.992298
vt 0.416663 0.990264
vt 0.416663 0.972872
vt 0.428136 0.974906
vt 0.811423 0.741800
vt 0.827783 0.700480
vt 0.827783 0.746534
vt 0.812209 0.621490
vt 0.816848 0.577163
vt 0.829322 0.621490
vt 0.926685 0.424962
vt 0.926685 0.384929
vt 0.941683 0.417488
vt 0.259986 0.813242
vt 0.271692 0.767737
vt 0.277078 0.813242
vt 0.975602 0.275352
vt 0.960504 0.273051
vt 0.960504 0.256033
vt 0.975602 0.258335
vt 0.896262 0.051328
vt 0.896346 0.007701
vt 0.912190 0.051328
vt 0.736312 0.052908
vt 0.752952 0.007701
vt 0.752952 0.055822
vt 0.926726 0.360230
vt 0.926726 0.321370
vt 0.942344 0.353234
vt 0.357981 0.753030
vt 0.357981 0.705633
vt 0.374928 0.750511
vt 0.063683 0.945274
vt 0.063683 0.962726
vt 0.047101 0.963484
vt 0.047101 0.946032
vt 0.906441 0.556383
vt 0.919801 0.512702
vt 0.919801 0.560674
vt 0.863605 0.240348
vt 0.877732 0.197613
vt 0.880516 0.240348
vt 0.086312 0.872282
vt 0.086312 0.829236
vt 0.103437 0.868303
vt 0.779295 0.561760
vt 0.785724 0.514746
vt 0.795986 0.561760
vt 0.972758 0.321370
vt 0.972758 0.338219
vt 0.957747 0.340869
vt 0.957747 0.324019
vt 0.390331 0.743791
vt 0.401168 0.705633
vt 0.401168 0.751218
vt 0.897362 0.113902
vt 0.913633 0.071225
vt 0.913633 0.114054
vt 0.929037 0.106394
vt 0.929037 0.071225
vt 0.946298 0.104863
vt 0.800941 0.118616
vt 0.800941 0.071225
vt 0.816855 0.114212
vt 0.977904 0.720143
vt 0.963319 0.717361
vt 0.963319 0.700480
vt 0.977904 0.703262
vt 0.876454 0.925300
vt 0.890263 0.886849
vt 0.890263 0.931976
vt 0.086312 0.813833
vt 0.086312 0.765678
vt 0.102239 0.810953
vt 0.905050 0.738724
vt 0.920202 0.700480
vt 0.920202 0.744923
vt 0.895252 0.179250
vt 0.895252 0.134188
vt 0.910443 0.173303
vt 0.970890 0.659374
vt 0.970890 0.642119
vt 0.984441 0.639915
vt 0.984441 0.657171
vt 0.938512 0.917598
vt 0.953209 0.887441
vt 0.953209 0.925702
vt 0.831265 0.368222
vt 0.831265 0.321370
vt 0.847073 0.366759
vt 0.292789 0.878664
vt 0.292789 0.833641
vt 0.308628 0.878155
vt 0.908729 0.684304
vt 0.908729 0.639915
vt 0.923253 0.677677
vt 0.967612 0.781553
vt 0.967612 0.764028
vt 0.982818 0.763223
vt 0.982818 0.780748
vt 0.482565 0.955728
vt 0.497469 0.932756
vt 0.497469 0.964462
vt 0.195026 0.877457
vt 0.195026 0.831301
vt 0.210408 0.876671
vt 0.908455 0.803558
vt 0.922416 0.763223
vt 0.922416 0.809504
vt 0.937819 0.802258
vt 0.937819 0.763223
vt 0.952209 0.794020
vt 0.669750 0.988589
vt 0.669750 0.970999
vt 0.682898 0.971349
vt 0.682898 0.988939
vt 0.930248 0.482150
vt 0.936969 0.447887
vt 0.947811 0.482150
vt 0.876454 0.865561
vt 0.891549 0.826083
vt 0.891549 0.871446
vt 0.937343 0.611495
vt 0.937343 0.577163
vt 0.954561 0.608007
vt 0.935605 0.744050
vt 0.935605 0.700480
vt 0.947916 0.735943
vt 0.620491 0.983753
vt 0.609328 0.986372
vt 0.609328 0.969103
vt 0.620491 0.966485
vt 0.865794 0.489096
vt 0.873874 0.447887
vt 0.883384 0.489096
vt 0.701611 0.917954
vt 0.704035 0.878222
vt 0.718707 0.917954
vt 0.875483 0.618558
vt 0.875483 0.577163
vt 0.892731 0.615100
vt 0.416663 0.849990
vt 0.428923 0.818540
vt 0.434211 0.851046
vt 0.416663 0.860508
vt 0.434211 0.861564
vt 0.768944 0.493538
vt 0.776840 0.447887
vt 0.786499 0.493538
vt 0.867265 0.298961
vt 0.884248 0.261227
vt 0.884248 0.303374
vt 0.875803 0.804618
vt 0.875803 0.763223
vt 0.893052 0.801160
vt 0.449614 0.849990
vt 0.461875 0.818540
vt 0.467162 0.851046
vt 0.449614 0.860508
vt 0.467162 0.861564
vt 0.768240 0.117554
vt 0.768240 0.071225
vt 0.785538 0.114561
vt 0.874054 0.550436
vt 0.891038 0.512702
vt 0.891038 0.554849
vt 0.047101 0.685350
vt 0.064379 0.641320
vt 0.064379 0.688677
vt 0.935204 0.547222
vt 0.938891 0.512702
vt 0.952591 0.547222
vt 0.401115 0.660293
vt 0.390513 0.660540
vt 0.390513 0.642945
vt 0.401115 0.642698
vt 0.125166 0.622869
vt 0.134254 0.575621
vt 0.142701 0.622869
vt 0.862476 0.361734
vt 0.879735 0.321370
vt 0.879735 0.364002
vt 0.227299 0.561306
vt 0.244583 0.516426
vt 0.244583 0.564558
vt 0.125166 0.868004
vt 0.125166 0.824556
vt 0.142288 0.866191
vt 0.985009 0.958586
vt 0.970712 0.959767
vt 0.970712 0.942286
vt 0.985009 0.941105
vt 0.746587 0.685077
vt 0.756403 0.639100
vt 0.764111 0.685077
vt 0.325329 0.752446
vt 0.335320 0.705506
vt 0.342533 0.752446
vt 0.746587 0.746283
vt 0.754945 0.700480
vt 0.764173 0.746283
vt 0.482565 0.861891
vt 0.488131 0.818540
vt 0.499929 0.861891
vt 0.593925 0.984497
vt 0.579163 0.984065
vt 0.579163 0.966485
vt 0.593925 0.966917
vt 0.357981 0.563755
vt 0.366987 0.516426
vt 0.375503 0.563755
vt 0.259986 0.689945
vt 0.269609 0.642946
vt 0.277385 0.689945
vt 0.779514 0.867708
vt 0.779514 0.824425
vt 0.796745 0.864137
vt 0.746587 0.623697
vt 0.746587 0.577163
vt 0.763817 0.621009
vt 0.276278 0.960381
vt 0.259986 0.958917
vt 0.259986 0.941751
vt 0.276278 0.943215
vt 0.292789 0.627569
vt 0.292789 0.579857
vt 0.309980 0.624672
vt 0.325383 0.561364
vt 0.342578 0.516426
vt 0.342578 0.564623
vt 0.812148 0.865433
vt 0.812148 0.822200
vt 0.829434 0.862224
vt 0.811981 0.682928
vt 0.811981 0.638836
vt 0.829244 0.680463
vt 0.978284 0.467041
vt 0.963214 0.465062
vt 0.963214 0.447887
vt 0.978284 0.449865
vt 0.086312 0.621237
vt 0.103504 0.576773
vt 0.103504 0.624654
vt 0.161744 0.627146
vt 0.171042 0.580031
vt 0.179245 0.627146
vt 0.925846 0.166254
vt 0.942701 0.134188
vt 0.942701 0.171225
vt 0.746587 0.866411
vt 0.746587 0.823226
vt 0.763888 0.863443
vt 0.972410 0.154479
vt 0.958104 0.150091
vt 0.958104 0.134188
vt 0.972410 0.138576
vt 0.812148 0.806796
vt 0.819504 0.763223
vt 0.829695 0.806796
vt 0.259986 0.624351
vt 0.277288 0.579916
vt 0.277288 0.627543
vt 0.357981 0.809949
vt 0.374909 0.768434
vt 0.374909 0.814133
vt 0.906952 0.921262
vt 0.923109 0.887441
vt 0.923109 0.927389
vt 0.824403 0.988444
vt 0.812148 0.986169
vt 0.812148 0.968859
vt 0.824403 0.971134
vt 0.259986 0.561319
vt 0.277288 0.516426
vt 0.277288 0.564513
vt 0.801966 0.303449
vt 0.819174 0.261227
vt 0.819174 0.305716
vt 0.546216 0.861505
vt 0.553417 0.818540
vt 0.563760 0.861505
vt 0.227462 0.930765
vt 0.227462 0.890209
vt 0.242660 0.923592
vt 0.759375 0.988907
vt 0.746587 0.988663
vt 0.746587 0.971069
vt 0.759375 0.971313
vt 0.125166 0.682469
vt 0.142459 0.638272
vt 0.142459 0.685730
vt 0.579163 0.912850
vt 0.595793 0.876928
vt 0.595793 0.918080
vt 0.746587 0.803874
vt 0.763624 0.761686
vt 0.763624 0.807823
vt 0.895138 0.364554
vt 0.895138 0.321370
vt 0.911323 0.358958
vt 0.984589 0.595614
vt 0.969964 0.594681
vt 0.969964 0.577163
vt 0.984589 0.578097
vt 0.292691 0.561313
vt 0.309980 0.516426
vt 0.309980 0.564454
vt 0.579163 0.861525
vt 0.585800 0.818540
vt 0.596662 0.861525
vt 0.928330 0.228773
vt 0.944943 0.197613
vt 0.944943 0.234351
vt 0.906952 0.872038
vt 0.906952 0.826083
vt 0.921171 0.865996
vt 0.981807 0.529783
vt 0.967994 0.532406
vt 0.967994 0.515324
vt 0.981807 0.512702
vt 0.863267 0.049356
vt 0.872671 0.007701
vt 0.880859 0.049356
vt 0.161744 0.871474
vt 0.166256 0.828391
vt 0.178960 0.871474
vt 0.047101 0.554627
vt 0.070909 0.516426
vt 0.057265 0.562376
vt 0.070909 0.561809
vt 0.449614 0.986278
vt 0.449614 0.968734
vt 0.463358 0.969597
vt 0.463358 0.987140
vt 0.636376 0.963853
vt 0.645610 0.932004
vt 0.653972 0.963853
vt 0.844725 0.684163
vt 0.848480 0.639915
vt 0.861637 0.684163
vt 0.194647 0.561392
vt 0.211896 0.516426
vt 0.211896 0.564629
vt 0.955487 0.645024
vt 0.938656 0.673846
vt 0.938656 0.639915
vt 0.401224 0.787507
vt 0.390331 0.783440
vt 0.390331 0.766621
vt 0.401224 0.770688
vt 0.007702 0.751932
vt 0.016659 0.705785
vt 0.025297 0.751932
vt 0.449614 0.919897
vt 0.449614 0.876967
vt 0.465227 0.913644
vt 0.227299 0.627935
vt 0.227299 0.579961
vt 0.244322 0.624432
vt 0.877040 0.682935
vt 0.877040 0.639915
vt 0.893326 0.682707
vt 0.858167 0.964699
vt 0.844843 0.966733
vt 0.844843 0.949412
vt 0.858167 0.947379
vt 0.832257 0.111505
vt 0.849428 0.071225
vt 0.849428 0.115304
vt 0.800422 0.430270
vt 0.816498 0.384929
vt 0.816498 0.432068
vt 0.325383 0.624829
vt 0.342533 0.580026
vt 0.342533 0.627644
vt 0.894994 0.427945
vt 0.895598 0.384929
vt 0.911282 0.427945
vt 0.559540 0.985209
vt 0.546216 0.987243
vt 0.546216 0.969922
vt 0.559540 0.967889
vt 0.834577 0.305014
vt 0.834577 0.261227
vt 0.851862 0.301777
vt 0.800109 0.369476
vt 0.800109 0.321370
vt 0.815862 0.365799
vt 0.736312 0.366610
vt 0.752957 0.321370
vt 0.752957 0.369225
vt 0.007701 0.627917
vt 0.007701 0.579780
vt 0.024750 0.624546
vt 0.466768 0.952495
vt 0.449614 0.953331
vt 0.449614 0.936137
vt 0.466768 0.935301
vt 0.047101 0.873134
vt 0.060722 0.827674
vt 0.063076 0.873134
vt 0.227299 0.690907
vt 0.227299 0.643338
vt 0.244284 0.687201
vt 0.047101 0.810311
vt 0.063879 0.765826
vt 0.063879 0.812271
vt 0.125166 0.747691
vt 0.132997 0.701133
vt 0.142669 0.747691
vt 0.596759 0.933489
vt 0.596759 0.951082
vt 0.579163 0.951076
vt 0.579163 0.933483
vt 0.800711 0.245690
vt 0.800711 0.197613
vt 0.816312 0.241930
vt 0.862561 0.174250
vt 0.879849 0.134188
vt 0.879849 0.176757
vt 0.007701 0.873474
vt 0.024346 0.830566
vt 0.024346 0.874438
vt 0.864831 0.113266
vt 0.864831 0.071225
vt 0.881959 0.109267
vt 0.686208 0.953933
vt 0.669750 0.955596
vt 0.669750 0.938637
vt 0.686208 0.936974
vt 0.801902 0.493448
vt 0.817608 0.447887
vt 0.817608 0.495691
vt 0.671655 0.915041
vt 0.686208 0.876982
vt 0.686208 0.921571
vt 0.292789 0.687534
vt 0.309542 0.642972
vt 0.309542 0.691054
vt 0.636376 0.916601
vt 0.641528 0.877127
vt 0.653810 0.916601
vt 0.906112 0.943073
vt 0.923109 0.942792
vt 0.923109 0.960356
vt 0.906112 0.960638
vt 0.779514 0.685077
vt 0.790594 0.638836
vt 0.796578 0.685077
vt 0.047101 0.750423
vt 0.056377 0.704080
vt 0.064678 0.750423
vt 0.195099 0.628219
vt 0.195099 0.580032
vt 0.211896 0.624876
vt 0.546216 0.913623
vt 0.562469 0.876908
vt 0.562469 0.919278
vt 0.746587 0.938618
vt 0.763493 0.937406
vt 0.763493 0.954455
vt 0.746587 0.955666
vt 0.325071 0.870079
vt 0.342063 0.828034
vt 0.342063 0.871581
vt 0.195026 0.753200
vt 0.204968 0.706808
vt 0.212487 0.753200
vt 0.768360 0.432382
vt 0.768360 0.384929
vt 0.785019 0.430047
vt 0.195026 0.687711
vt 0.211896 0.643622
vt 0.211896 0.691405
vt 0.563598 0.934681
vt 0.563598 0.952133
vt 0.546216 0.952486
vt 0.546216 0.935033
vt 0.833011 0.491529
vt 0.844596 0.447887
vt 0.850392 0.491529
vt 0.357981 0.686655
vt 0.375110 0.642698
vt 0.375110 0.690229
vt 0.768360 0.366589
vt 0.784706 0.321370
vt 0.784706 0.369526
vt 0.259986 0.749635
vt 0.277181 0.705348
vt 0.277181 0.752334
vt 0.193039 0.944710
vt 0.208569 0.947711
vt 0.208569 0.964111
vt 0.193039 0.961110
vt 0.086312 0.925058
vt 0.096315 0.887685
vt 0.103894 0.925058
vt 0.895919 0.234911
vt 0.912927 0.197613
vt 0.912927 0.239286
vt 0.636376 0.861724
vt 0.641053 0.817936
vt 0.653559 0.861724
vt 0.936574 0.862005
vt 0.948595 0.826083
vt 0.948595 0.870043
vt 0.968612 0.887441
vt 0.982325 0.889754
vt 0.982325 0.906960
vt 0.968612 0.904647
vt 0.357981 0.933664
vt 0.357981 0.887147
vt 0.370872 0.927533
vt 0.928799 0.293045
vt 0.928799 0.256033
vt 0.945101 0.286864
s 1
usemtl pot
f 22/1/1 23/2/2 48/3/3 47/4/4
f 37/5/5 36/6/6 52/7/6 53/8/5
f 18/9/7 17/10/8 41/11/9 42/12/10
f 24/13/11 18/9/7 42/12/10 49/14/12
f 19/15/13 20/16/14 45/17/15 44/18/16
f 38/19/17 37/5/5 53/8/5 54/20/17
f 39/21/18 38/19/17 54/20/17 55/22/18
f 21/23/19 22/1/1 47/4/4 46/24/20
f 1/25/21 3/26/21 5/27/21 7/28/21 9/29/21 11/30/21 13/31/21 15/32/21
f 2/33/22 4/34/22 17/10/8 18/9/7
f 4/34/22 6/35/22 19/15/13 17/10/8
f 6/35/22 8/36/22 20/16/14 19/15/13
f 8/36/22 10/37/22 21/23/19 20/16/14
f 10/37/22 12/38/22 22/1/1 21/23/19
f 12/38/22 14/39/22 23/2/2 22/1/1
f 14/39/22 16/40/22 24/13/11 23/2/2
f 16/40/22 2/33/22 18/9/7 24/13/11
f 25/41/22 26/42/22 32/43/22 31/44/22 30/45/22 29/46/22 28/47/22 27/48/22
f 2/49/23 16/50/24 32/51/24 26/52/23
f 14/53/25 12/54/26 30/55/26 31/56/25
f 10/57/27 8/58/28 28/59/28 29/60/27
f 6/61/29 4/62/30 25/63/30 27/64/29
f 16/50/24 14/65/25 31/66/25 32/51/24
f 12/54/26 10/57/27 29/60/27 30/55/26
f 8/67/28 6/61/29 27/64/29 28/68/28
f 15/69/31 40/70/31 33/71/32 1/72/32
f 13/73/33 39/74/33 40/75/31 15/76/31
f 11/77/34 38/78/34 39/74/33 13/73/33
f 9/79/35 37/80/35 38/81/34 11/82/34
f 7/83/36 36/84/36 37/80/35 9/79/35
f 5/85/37 35/86/37 36/84/36 7/83/36
f 3/87/38 34/88/38 35/89/37 5/90/37
f 1/72/32 33/71/32 34/88/38 3/87/38
f 43/91/39 42/92/39 41/93/40 50/94/40
f 50/94/40 41/93/40 44/95/41 51/96/41
f 51/97/41 44/98/41 45/99/42 52/100/42
f 52/100/42 45/99/42 46/101/43 53/102/43
f 53/103/43 46/104/43 47/105/44 54/106/44
f 54/106/44 47/105/44 48/107/45 55/108/45
f 55/108/45 48/107/45 49/109/46 56/110/46
f 56/111/46 49/112/46 42/92/39 43/91/39
f 36/6/6 35/113/47 51/114/47 52/7/6
f 35/113/47 34/115/48 50/116/48 51/114/47
f 20/16/14 21/23/19 46/24/20 45/17/15
f 34/115/48 33/117/49 43/118/49 50/116/48
f 33/117/49 40/119/50 56/120/50 43/118/49
f 17/10/8 19/15/13 44/18/16 41/11/9
f 23/2/2 24/13/11 49/14/12 48/3/3
f 40/119/50 39/21/18 55/22/18 56/120/50
f 4/62/30 2/121/23 26/122/23 25/63/30
usemtl cactus
f 58/123/51 57/124/52 62/125/53 63/126/54
f 129/127/55 58/123/51 63/126/54 64/128/56
f 126/129/57 125/130/22 59/131/58
f 127/132/59 126/129/57 59/131/58 60/133/60
f 128/134/61 127/132/59 60/133/60 61/135/62
f 57/124/52 128/134/61 61/135/62 62/125/53
f 62/125/53 61/135/62 67/136/63 68/137/64
f 63/126/54 62/125/53 68/137/64 69/138/65
f 64/128/56 63/126/54 69/138/65 70/139/66
f 59/131/58 125/130/22 65/140/67
f 60/133/60 59/131/58 65/140/67 66/141/68
f 61/135/62 60/133/60 66/141/68 67/136/63
f 65/140/67 125/130/22 71/142/69
f 66/141/68 65/140/67 71/142/69 72/143/70
f 67/136/63 66/141/68 72/143/70 73/144/71
f 68/137/64 67/136/63 73/144/71 74/145/72
f 69/138/65 68/137/64 74/145/72 75/146/73
f 70/139/66 69/138/65 75/146/73 76/147/74
f 75/146/73 74/145/72 80/148/75 81/149/76
f 76/147/74 75/146/73 81/149/76 82/150/77
f 71/142/69 125/130/22 77/151/78
f 72/143/70 71/142/69 77/151/78 78/152/79
f 73/144/71 72/143/70 78/152/79 79/153/80
f 74/145/72 73/144/71 79/153/80 80/148/75
f 77/151/78 125/130/22 83/154/81
f 78/152/79 77/151/78 83/154/81 84/155/82
f 79/153/80 78/152/79 84/155/82 85/156/83
f 80/148/75 79/153/80 85/156/83 86/157/84
f 81/158/76 80/159/75 86/160/84 87/161/85
f 82/162/77 81/158/76 87/161/85 88/163/86
f 87/161/85 86/160/84 92/164/87 93/165/88
f 88/163/86 87/161/85 93/165/88 94/166/89
f 83/154/81 125/130/22 89/167/90
f 84/155/82 83/154/81 89/167/90 90/168/91
f 85/156/83 84/155/82 90/168/91 91/169/92
f 86/170/84 85/171/83 91/172/92 92/173/87
f 90/174/91 89/175/90 95/176/93 96/177/94
f 91/172/92 90/174/91 96/177/94 97/178/95
f 92/173/87 91/172/92 97/178/95 98/179/96
f 93/180/88 92/173/87 98/179/96 99/181/97
f 94/182/89 93/180/88 99/181/97 100/183/98
f 89/167/90 125/130/22 95/184/93
f 100/183/98 99/181/97 105/185/99 106/186/100
f 95/184/93 125/130/22 101/187/101
f 96/177/94 95/176/93 101/188/101 102/189/102
f 97/178/95 96/177/94 102/189/102 103/190/103
f 98/179/96 97/178/95 103/190/103 104/191/104
f 99/181/97 98/179/96 104/191/104 105/185/99
f 102/189/102 101/188/101 107/192/105 108/193/106
f 103/190/103 102/189/102 108/193/106 109/194/107
f 104/191/104 103/190/103 109/194/107 110/195/108
f 105/185/99 104/191/104 110/195/108 111/196/109
f 106/186/100 105/185/99 111/196/109 112/197/110
f 101/187/101 125/130/22 107/198/105
f 112/197/110 111/196/109 117/199/111 118/200/112
f 107/198/105 125/130/22 113/201/113
f 108/193/106 107/192/105 113/202/113 114/203/114
f 109/194/107 108/193/106 114/203/114 115/204/115
f 110/195/108 109/194/107 115/204/115 116/205/116
f 111/196/109 110/195/108 116/205/116 117/199/111
f 115/206/115 114/207/114 120/208/117 121/209/118
f 116/210/116 115/206/115 121/209/118 122/211/119
f 117/212/111 116/210/116 122/211/119 123/213/120
f 118/214/112 117/212/111 123/213/120 124/215/121
f 113/201/113 125/130/22 119/216/122
f 114/217/114 113/201/113 119/216/122 120/218/117
f 119/216/122 125/130/22 126/129/57
f 120/218/117 119/216/122 126/129/57 127/132/59
f 121/219/118 120/218/117 127/132/59 128/134/61
f 122/211/119 121/209/118 128/220/61 57/221/52
f 123/213/120 122/211/119 57/221/52 58/222/51
f 124/215/121 123/213/120 58/222/51 129/223/55
s 0
f 130/224/123 134/225/123 131/226/123
f 131/227/124 134/228/124 132/229/124
f 130/230/125 131/231/125 132/232/125 133/233/125
f 132/234/126 134/235/126 133/236/126
f 133/237/127 134/238/127 130/239/127
f 135/240/128 139/241/128 136/242/128
f 136/243/129 139/244/129 137/245/129
f 135/246/130 136/247/130 137/248/130 138/249/130
f 137/250/131 139/251/131 138/252/131
f 138/253/132 139/254/132 135/255/132
f 140/256/128 144/257/128 141/258/128
f 141/259/129 144/260/129 142/261/129
f 140/262/130 141/263/130 142/264/130 143/265/130
f 142/266/131 144/267/131 143/268/131
f 143/269/132 144/270/132 140/271/132
f 145/272/133 149/273/133 146/274/133
f 146/275/134 149/276/134 147/277/134
f 145/278/135 146/279/135 147/280/135 148/281/135
f 147/282/136 149/283/136 148/284/136
f 148/285/137 149/286/137 145/287/137
f 150/288/138 154/289/138 151/290/138
f 151/291/139 154/292/139 152/293/139
f 150/294/140 151/295/140 152/296/140 153/297/140
f 152/298/141 154/299/141 153/300/141
f 153/301/142 154/302/142 150/303/142
f 155/304/143 159/305/143 156/306/143
f 156/307/144 159/308/144 157/309/144
f 155/310/145 156/311/145 157/312/145 158/313/145
f 157/314/146 159/315/146 158/316/146
f 158/317/147 159/318/147 155/319/147
f 160/320/148 164/321/148 161/322/148
f 161/323/149 164/324/149 162/325/149
f 160/326/150 161/327/150 162/328/150 163/329/150
f 162/330/151 164/331/151 163/332/151
f 163/333/152 164/334/152 160/335/152
f 165/336/153 169/337/153 166/338/153
f 166/339/154 169/340/154 167/341/154
f 165/342/155 166/343/155 167/344/155 168/345/155
f 167/346/156 169/347/156 168/348/156
f 168/348/157 169/347/157 165/349/157
f 170/350/158 174/351/158 171/352/158
f 171/353/159 174/354/159 172/355/159
f 170/356/160 171/357/160 172/358/160 173/359/160
f 172/360/161 174/361/161 173/362/161
f 173/362/162 174/361/162 170/363/162
f 175/364/163 179/365/163 176/366/163
f 176/367/164 179/368/164 177/369/164
f 175/370/165 176/371/165 177/372/165 178/373/165
f 177/374/166 179/375/166 178/376/166
f 178/377/167 179/378/167 175/379/167
f 180/380/168 184/381/168 181/382/168
f 181/383/169 184/384/169 182/385/169
f 180/386/170 181/387/170 182/388/170 183/389/170
f 182/390/171 184/391/171 183/392/171
f 183/393/172 184/394/172 180/395/172
f 185/396/173 189/397/173 186/398/173
f 186/399/174 189/400/174 187/401/174
f 185/402/140 186/403/140 187/404/140 188/405/140
f 187/406/175 189/407/175 188/408/175
f 188/409/176 189/410/176 185/411/176
f 190/412/177 194/413/177 191/414/177
f 191/415/178 194/416/178 192/417/178
f 190/418/179 191/419/179 192/420/179 193/421/179
f 192/422/180 194/423/180 193/424/180
f 193/425/181 194/426/181 190/427/181
f 195/428/182 199/429/182 196/430/182
f 196/431/183 199/432/183 197/433/183
f 195/434/184 196/435/184 197/436/184 198/437/184
f 197/438/185 199/439/185 198/440/185
f 198/441/186 199/442/186 195/443/186
f 200/444/187 204/445/187 201/446/187
f 201/447/188 204/448/188 202/449/188
f 200/450/150 201/451/150 202/452/150 203/453/150
f 202/454/189 204/455/189 203/456/189
f 203/456/190 204/455/190 200/457/190
f 205/458/191 209/459/191 206/460/191
f 206/461/192 209/462/192 207/463/192
f 205/464/193 206/465/193 207/466/193 208/467/193
f 207/468/194 209/469/194 208/470/194
f 208/471/195 209/472/195 205/473/195
f 210/474/196 214/475/196 211/476/196
f 211/477/197 214/478/197 212/479/197
f 210/480/198 211/481/198 212/482/198 213/483/198
f 212/484/199 214/485/199 213/486/199
f 213/487/200 214/488/200 210/489/200
f 215/490/201 219/491/201 216/492/201
f 216/493/202 219/494/202 217/495/202
f 215/496/203 216/497/203 217/498/203 218/499/203
f 217/500/204 219/501/204 218/502/204
f 218/503/205 219/504/205 215/505/205
f 220/506/206 224/507/206 221/508/206
f 221/509/207 224/510/207 222/511/207
f 220/512/208 221/513/208 222/514/208 223/515/208
f 222/516/209 224/517/209 223/518/209
f 223/519/210 224/520/210 220/521/210
f 225/522/211 229/523/211 226/524/211
f 226/525/212 229/526/212 227/527/212
f 225/528/193 226/529/193 227/530/193 228/531/193
f 227/532/213 229/533/213 228/534/213
f 228/535/214 229/536/214 225/537/214
f 230/538/215 234/539/215 231/540/215
f 231/541/216 234/542/216 232/543/216
f 230/544/217 231/545/217 232/546/217 233/547/217
f 232/548/218 234/549/218 233/550/218
f 233/551/219 234/552/219 230/553/219
f 235/554/220 239/555/220 236/556/220
f 236/557/221 239/558/221 237/559/221
f 235/560/222 236/561/222 237/562/222 238/563/222
f 237/564/223 239/565/223 238/566/223
f 238/567/224 239/568/224 235/569/224
f 240/570/225 244/571/225 241/572/225
f 241/573/226 244/574/226 242/575/226
f 240/576/227 241/577/227 242/578/227 243/579/227
f 242/580/228 244/581/228 243/582/228
f 243/583/229 244/584/229 240/585/229
f 245/586/230 249/587/230 246/588/230
f 246/589/231 249/590/231 247/591/231
f 245/592/232 246/593/232 247/594/232 248/595/232
f 247/596/233 249/597/233 248/598/233
f 248/599/234 249/600/234 245/601/234
f 250/602/235 254/603/235 251/604/235
f 251/605/236 254/606/236 252/607/236
f 250/608/237 251/609/237 252/610/237 253/611/237
f 252/612/238 254/613/238 253/614/238
f 253/615/239 254/616/239 250/617/239
f 255/618/240 259/619/240 256/620/240
f 256/621/241 259/622/241 257/623/241
f 255/624/242 256/625/242 257/626/242 258/627/242
f 257/628/243 259/629/243 258/630/243
f 258/631/244 259/632/244 255/633/244
f 260/634/245 264/635/245 261/636/245
f 261/637/246 264/638/246 262/639/246
f 260/640/247 261/641/247 262/642/247 263/643/247
f 262/644/248 264/645/248 263/646/248
f 263/647/249 264/648/249 260/649/249
f 265/650/250 269/651/250 266/652/250
f 266/653/251 269/654/251 267/655/251
f 265/656/252 266/657/252 267/658/252 268/659/252
f 267/660/253 269/661/253 268/662/253
f 268/663/254 269/664/254 265/665/254
f 270/666/255 274/667/255 271/668/255
f 271/669/256 274/670/256 272/671/256
f 270/672/257 271/673/257 272/674/257 273/675/257
f 272/676/258 274/677/258 273/678/258
f 273/679/259 274/680/259 270/681/259
f 275/682/260 279/683/260 276/684/260
f 276/685/261 279/686/261 277/687/261
f 275/688/262 276/685/262 277/687/262 278/689/262
f 277/690/263 279/691/263 278/692/263
f 278/693/264 279/694/264 275/695/264
f 280/696/260 284/697/260 281/698/260
f 281/699/261 284/700/261 282/701/261
f 280/702/262 281/699/262 282/701/262 283/703/262
f 282/704/263 284/705/263 283/706/263
f 283/707/264 284/708/264 280/709/264
f 285/710/265 289/711/265 286/712/265
f 286/713/266 289/714/266 287/715/266
f 285/716/267 286/717/267 287/718/267 288/719/267
f 287/720/268 289/721/268 288/722/268
f 288/723/269 289/724/269 285/725/269
f 290/726/270 294/727/270 291/728/270
f 291/729/271 294/730/271 292/731/271
f 290/732/135 291/733/135 292/734/135 293/735/135
f 292/736/272 294/737/272 293/738/272
f 293/739/273 294/740/273 290/741/273
f 295/742/274 299/743/274 296/744/274
f 296/745/275 299/746/275 297/747/275
f 295/748/276 296/749/276 297/750/276 298/751/276
f 297/752/277 299/753/277 298/754/277
f 298/755/278 299/756/278 295/757/278
f 300/758/279 304/759/279 301/760/279
f 301/761/280 304/762/280 302/763/280
f 300/764/281 301/765/281 302/766/281 303/767/281
f 302/768/282 304/769/282 303/770/282
f 303/771/283 304/772/283 300/773/283
f 305/774/284 309/775/284 306/776/284
f 306/777/285 309/778/285 307/779/285
f 305/780/286 306/781/286 307/782/286 308/783/286
f 307/784/287 309/785/287 308/786/287
f 308/787/288 309/788/288 305/789/288
f 310/790/289 314/791/289 311/792/289
f 311/793/290 314/794/290 312/795/290
f 310/796/291 311/797/291 312/798/291 313/799/291
f 312/800/292 314/801/292 313/802/292
f 313/803/293 314/804/293 310/805/293
f 315/806/294 319/807/294 316/808/294
f 316/809/295 319/810/295 317/811/295
f 315/812/296 316/813/296 317/814/296 318/815/296
f 317/816/297 319/817/297 318/818/297
f 318/819/298 319/820/298 315/821/298
f 320/822/299 324/823/299 321/824/299
f 321/825/300 324/826/300 322/827/300
f 320/828/301 321/829/301 322/830/301 323/831/301
f 322/832/302 324/833/302 323/834/302
f 323/835/303 324/836/303 320/837/303
f 325/838/304 329/839/304 326/840/304
f 326/841/305 329/842/305 327/843/305
f 325/844/306 326/845/306 327/846/306 328/847/306
f 327/848/307 329/849/307 328/850/307
f 328/851/308 329/852/308 325/853/308
f 330/854/309 334/855/309 331/856/309
f 331/857/310 334/858/310 332/859/310
f 330/860/311 331/861/311 332/862/311 333/863/311
f 332/864/312 334/865/312 333/866/312
f 333/867/313 334/868/313 330/869/313
f 335/870/314 339/871/314 336/872/314
f 336/872/315 339/871/315 337/873/315
f 335/874/316 336/875/316 337/876/316 338/877/316
f 337/878/317 339/879/317 338/880/317
f 338/881/318 339/882/318 335/883/318
f 340/884/319 344/885/319 341/886/319
f 341/887/320 344/888/320 342/889/320
f 340/890/321 341/891/321 342/892/321 343/893/321
f 342/894/322 344/895/322 343/896/322
f 343/897/323 344/898/323 340/899/323
f 345/900/324 349/901/324 346/902/324
f 346/903/325 349/904/325 347/905/325
f 345/906/326 346/907/326 347/908/326 348/909/326
f 347/910/327 349/911/327 348/912/327
f 348/913/328 349/914/328 345/915/328
f 350/916/324 354/917/324 351/918/324
f 351/919/325 354/920/325 352/921/325
f 350/922/326 351/923/326 352/924/326 353/925/326
f 352/926/327 354/927/327 353/928/327
f 353/929/328 354/930/328 350/931/328
f 355/932/128 359/933/128 356/934/128
f 356/935/129 359/936/129 357/937/129
f 355/938/130 356/939/130 357/940/130 358/941/130
f 357/942/131 359/943/131 358/944/131
f 358/945/132 359/946/132 355/947/132
f 360/948/329 364/949/329 361/950/329
f 361/951/330 364/952/330 362/953/330
f 360/954/331 361/955/331 362/956/331 363/957/331
f 362/958/332 364/959/332 363/960/332
f 363/961/333 364/962/333 360/963/333
f 365/964/334 369/965/334 366/966/334
f 366/967/335 369/968/335 367/969/335
f 365/970/160 366/971/160 367/972/160 368/973/160
f 367/974/336 369/975/336 368/976/336
f 368/977/337 369/978/337 365/979/337
f 370/980/338 374/981/338 371/982/338
f 371/983/339 374/984/339 372/985/339
f 370/986/340 371/987/340 372/988/340 373/989/340
f 372/990/341 374/991/341 373/992/341
f 373/993/342 374/994/342 370/995/342
f 375/996/343 379/997/343 376/998/343
f 376/999/344 379/1000/344 377/1001/344
f 375/1002/345 376/1003/345 377/1004/345 378/1005/345
f 377/1006/346 379/1007/346 378/1008/346
f 378/1009/347 379/1010/347 375/1011/347
f 380/1012/348 384/1013/348 381/1014/348
f 381/1015/349 384/1016/349 382/1017/349
f 380/1018/350 381/1019/350 382/1020/350 383/1021/350
f 382/1022/351 384/1023/351 383/1024/351
f 383/1025/352 384/1026/352 380/1027/352
f 385/1028/353 389/1029/353 386/1030/353
f 386/1031/354 389/1032/354 387/1033/354
f 385/1034/184 386/1035/184 387/1036/184 388/1037/184
f 387/1038/355 389/1039/355 388/1040/355
f 388/1041/356 389/1042/356 385/1043/356
f 390/1044/357 394/1045/357 391/1046/357
f 391/1047/358 394/1048/358 392/1049/358
f 390/1050/311 391/1051/311 392/1052/311 393/1053/311
f 392/1054/359 394/1055/359 393/1056/359
f 393/1057/360 394/1058/360 390/1059/360
