# Blender 4.5.3 LTS
# www.blender.org
mtllib clock.mtl
o clock
v -0.009750 0.100000 -0.100000
v -0.009750 0.074118 -0.096593
v -0.009750 0.050000 -0.086603
v -0.009750 0.029289 -0.070711
v -0.009750 0.013397 -0.050000
v -0.009750 0.003407 -0.025882
v -0.009750 -0.000000 0.000000
v -0.009750 0.003407 0.025882
v -0.009750 0.013397 0.050000
v -0.009750 0.029289 0.070711
v -0.009750 0.050000 0.086603
v -0.009750 0.074118 0.096593
v -0.009750 0.100000 0.100000
v -0.009750 0.125882 0.096593
v -0.009750 0.150000 0.086603
v -0.009750 0.170711 0.070711
v -0.009750 0.186603 0.050000
v -0.009750 0.196593 0.025882
v -0.009750 0.200000 0.000000
v -0.009750 0.196593 -0.025882
v -0.009750 0.186603 -0.050000
v -0.009750 0.170711 -0.070711
v -0.009750 0.150000 -0.086603
v -0.009750 0.125882 -0.096593
v -0.000038 0.077294 -0.084739
v -0.000038 0.100000 -0.087728
v -0.000038 0.056136 -0.075975
v -0.000038 0.037967 -0.062033
v -0.000038 0.024025 -0.043864
v -0.000038 0.015261 -0.022706
v -0.000038 0.012272 0.000000
v -0.000038 0.015261 0.022706
v -0.000038 0.024025 0.043864
v -0.000038 0.037967 0.062033
v -0.000038 0.056136 0.075975
v -0.000038 0.077294 0.084739
v -0.000038 0.100000 0.087728
v -0.000038 0.122706 0.084739
v -0.000038 0.143864 0.075975
v -0.000038 0.162033 0.062033
v -0.000038 0.175975 0.043864
v -0.000038 0.184739 0.022706
v -0.000038 0.187728 0.000000
v -0.000038 0.184739 -0.022706
v -0.000038 0.175975 -0.043864
v -0.000038 0.162033 -0.062033
v -0.000038 0.143864 -0.075975
v -0.000038 0.122706 -0.084739
v 0.010250 0.100000 -0.092771
v 0.009750 0.100000 -0.087728
v 0.010226 0.100000 -0.091213
v 0.010155 0.100000 -0.089807
v 0.010044 0.100000 -0.088691
v 0.009905 0.100000 -0.087975
v 0.009750 0.077294 -0.084739
v 0.010250 0.075989 -0.089610
v 0.009905 0.077230 -0.084977
v 0.010044 0.077045 -0.085669
v 0.010155 0.076756 -0.086747
v 0.010226 0.076392 -0.088105
v 0.009750 0.056136 -0.075975
v 0.010250 0.053614 -0.080342
v 0.009905 0.056013 -0.076188
v 0.010044 0.055654 -0.076809
v 0.010155 0.055097 -0.077775
v 0.010226 0.054394 -0.078992
v 0.009750 0.037967 -0.062033
v 0.010250 0.034401 -0.065599
v 0.009905 0.037792 -0.062208
v 0.010044 0.037286 -0.062714
v 0.010155 0.036497 -0.063503
v 0.010226 0.035503 -0.064497
v 0.009750 0.024025 -0.043864
v 0.010250 0.019658 -0.046386
v 0.009905 0.023812 -0.043987
v 0.010044 0.023191 -0.044346
v 0.010155 0.022225 -0.044903
v 0.010226 0.021008 -0.045606
v 0.009750 0.015261 -0.022706
v 0.010250 0.010390 -0.024011
v 0.009905 0.015023 -0.022770
v 0.010044 0.014331 -0.022955
v 0.010155 0.013253 -0.023244
v 0.010226 0.011895 -0.023608
v 0.009750 0.012272 0.000000
v 0.010250 0.007229 0.000000
v 0.009905 0.012025 0.000000
v 0.010044 0.011309 0.000000
v 0.010155 0.010193 0.000000
v 0.010226 0.008787 0.000000
v 0.009750 0.015261 0.022706
v 0.010250 0.010390 0.024011
v 0.009905 0.015023 0.022770
v 0.010044 0.014331 0.022955
v 0.010155 0.013253 0.023244
v 0.010226 0.011895 0.023608
v 0.009750 0.024025 0.043864
v 0.010250 0.019658 0.046386
v 0.009905 0.023812 0.043987
v 0.010044 0.023191 0.044346
v 0.010155 0.022225 0.044903
v 0.010226 0.021008 0.045606
v 0.009750 0.037967 0.062033
v 0.010250 0.034401 0.065599
v 0.009905 0.037792 0.062208
v 0.010044 0.037286 0.062714
v 0.010155 0.036497 0.063503
v 0.010226 0.035503 0.064497
v 0.009750 0.056136 0.075975
v 0.010250 0.053614 0.080342
v 0.009905 0.056013 0.076188
v 0.010044 0.055654 0.076809
v 0.010155 0.055097 0.077775
v 0.010226 0.054394 0.078992
v 0.009750 0.077294 0.084739
v 0.010250 0.075989 0.089610
v 0.009905 0.077230 0.084977
v 0.010044 0.077045 0.085669
v 0.010155 0.076756 0.086747
v 0.010226 0.076392 0.088105
v 0.009750 0.100000 0.087728
v 0.010250 0.100000 0.092771
v 0.009905 0.100000 0.087975
v 0.010044 0.100000 0.088691
v 0.010155 0.100000 0.089807
v 0.010226 0.100000 0.091213
v 0.009750 0.122706 0.084739
v 0.010250 0.124011 0.089610
v 0.009905 0.122770 0.084977
v 0.010044 0.122955 0.085669
v 0.010154 0.123244 0.086747
v 0.010226 0.123608 0.088105
v 0.009750 0.143864 0.075975
v 0.010250 0.146386 0.080342
v 0.009904 0.143987 0.076188
v 0.010044 0.144346 0.076809
v 0.010154 0.144903 0.077775
v 0.010226 0.145606 0.078992
v 0.009750 0.162033 0.062033
v 0.010250 0.165599 0.065599
v 0.009904 0.162208 0.062208
v 0.010044 0.162714 0.062714
v 0.010154 0.163503 0.063503
v 0.010226 0.164497 0.064497
v 0.009750 0.175975 0.043864
v 0.010250 0.180342 0.046386
v 0.009904 0.176188 0.043987
v 0.010044 0.176809 0.044346
v 0.010154 0.177775 0.044903
v 0.010226 0.178992 0.045606
v 0.009750 0.184739 0.022706
v 0.010250 0.189610 0.024011
v 0.009904 0.184977 0.022770
v 0.010044 0.185669 0.022955
v 0.010154 0.186747 0.023244
v 0.010226 0.188105 0.023608
v 0.009750 0.187728 0.000000
v 0.010250 0.192771 0.000000
v 0.009904 0.187975 0.000000
v 0.010044 0.188691 0.000000
v 0.010154 0.189807 0.000000
v 0.010226 0.191213 0.000000
v 0.009750 0.184739 -0.022706
v 0.010250 0.189610 -0.024011
v 0.009904 0.184977 -0.022770
v 0.010044 0.185669 -0.022955
v 0.010154 0.186747 -0.023244
v 0.010226 0.188105 -0.023608
v 0.009750 0.175975 -0.043864
v 0.010250 0.180342 -0.046386
v 0.009904 0.176188 -0.043987
v 0.010044 0.176809 -0.044346
v 0.010154 0.177775 -0.044903
v 0.010226 0.178992 -0.045606
v 0.009750 0.162033 -0.062033
v 0.010250 0.165599 -0.065599
v 0.009904 0.162208 -0.062208
v 0.010044 0.162714 -0.062714
v 0.010154 0.163503 -0.063503
v 0.010226 0.164497 -0.064497
v 0.009750 0.143864 -0.075975
v 0.010250 0.146386 -0.080342
v 0.009904 0.143987 -0.076188
v 0.010044 0.144346 -0.076809
v 0.010154 0.144903 -0.077775
v 0.010226 0.145606 -0.078992
v 0.009750 0.122706 -0.084739
v 0.010250 0.124011 -0.089610
v 0.009905 0.122770 -0.084977
v 0.010044 0.122955 -0.085669
v 0.010154 0.123244 -0.086747
v 0.010226 0.123608 -0.088105
v 0.010250 0.075423 -0.091721
v 0.009750 0.074118 -0.096593
v 0.010226 0.075020 -0.093227
v 0.010155 0.074656 -0.094585
v 0.010044 0.074367 -0.095662
v 0.009905 0.074182 -0.096354
v 0.009750 0.100000 -0.100000
v 0.010250 0.100000 -0.094957
v 0.009905 0.100000 -0.099753
v 0.010044 0.100000 -0.099037
v 0.010155 0.100000 -0.097921
v 0.010226 0.100000 -0.096515
v 0.010250 0.052522 -0.082235
v 0.009750 0.050000 -0.086603
v 0.010226 0.051742 -0.083585
v 0.010155 0.051039 -0.084802
v 0.010044 0.050482 -0.085768
v 0.009905 0.050123 -0.086389
v 0.010250 0.032855 -0.067145
v 0.009750 0.029289 -0.070711
v 0.010226 0.031753 -0.068247
v 0.010155 0.030759 -0.069241
v 0.010044 0.029970 -0.070030
v 0.009905 0.029464 -0.070536
v 0.010250 0.017765 -0.047478
v 0.009750 0.013397 -0.050000
v 0.010226 0.016415 -0.048258
v 0.010155 0.015198 -0.048961
v 0.010044 0.014232 -0.049518
v 0.009905 0.013611 -0.049877
v 0.010250 0.008279 -0.024577
v 0.009750 0.003407 -0.025882
v 0.010226 0.006773 -0.024980
v 0.010155 0.005415 -0.025344
v 0.010044 0.004338 -0.025633
v 0.009905 0.003646 -0.025818
v 0.010250 0.005043 0.000000
v 0.009750 0.000000 0.000000
v 0.010226 0.003485 0.000000
v 0.010155 0.002079 0.000000
v 0.010044 0.000963 0.000000
v 0.009905 0.000247 0.000000
v 0.010250 0.008279 0.024577
v 0.009750 0.003407 0.025882
v 0.010226 0.006773 0.024980
v 0.010155 0.005415 0.025344
v 0.010044 0.004338 0.025633
v 0.009905 0.003646 0.025818
v 0.010250 0.017765 0.047478
v 0.009750 0.013397 0.050000
v 0.010226 0.016415 0.048258
v 0.010155 0.015198 0.048961
v 0.010044 0.014232 0.049518
v 0.009905 0.013611 0.049877
v 0.010250 0.032855 0.067145
v 0.009750 0.029289 0.070711
v 0.010226 0.031753 0.068247
v 0.010155 0.030759 0.069241
v 0.010044 0.029970 0.070030
v 0.009905 0.029464 0.070536
v 0.010250 0.052522 0.082235
v 0.009750 0.050000 0.086603
v 0.010226 0.051742 0.083585
v 0.010155 0.051039 0.084802
v 0.010044 0.050482 0.085768
v 0.009905 0.050123 0.086389
v 0.010250 0.075423 0.091721
v 0.009750 0.074118 0.096593
v 0.010226 0.075020 0.093227
v 0.010155 0.074656 0.094585
v 0.010044 0.074367 0.095662
v 0.009905 0.074182 0.096354
v 0.010250 0.100000 0.094957
v 0.009750 0.100000 0.100000
v 0.010226 0.100000 0.096515
v 0.010155 0.100000 0.097921
v 0.010044 0.100000 0.099037
v 0.009905 0.100000 0.099753
v 0.010250 0.124577 0.091721
v 0.009750 0.125882 0.096593
v 0.010226 0.124980 0.093227
v 0.010154 0.125344 0.094585
v 0.010044 0.125633 0.095662
v 0.009905 0.125818 0.096354
v 0.010250 0.147478 0.082235
v 0.009750 0.150000 0.086603
v 0.010226 0.148258 0.083585
v 0.010154 0.148961 0.084802
v 0.010044 0.149518 0.085768
v 0.009904 0.149877 0.086389
v 0.010250 0.167145 0.067145
v 0.009750 0.170711 0.070711
v 0.010226 0.168247 0.068247
v 0.010154 0.169241 0.069241
v 0.010044 0.170030 0.070030
v 0.009904 0.170536 0.070536
v 0.010250 0.182235 0.047478
v 0.009750 0.186603 0.050000
v 0.010226 0.183585 0.048258
v 0.010154 0.184802 0.048961
v 0.010044 0.185768 0.049518
v 0.009904 0.186389 0.049877
v 0.010250 0.191721 0.024577
v 0.009750 0.196593 0.025882
v 0.010226 0.193227 0.024980
v 0.010154 0.194585 0.025344
v 0.010044 0.195662 0.025633
v 0.009904 0.196354 0.025818
v 0.010250 0.194957 0.000000
v 0.009750 0.200000 0.000000
v 0.010226 0.196515 0.000000
v 0.010154 0.197921 0.000000
v 0.010044 0.199037 0.000000
v 0.009904 0.199753 0.000000
v 0.010250 0.191721 -0.024577
v 0.009750 0.196593 -0.025882
v 0.010226 0.193227 -0.024980
v 0.010154 0.194585 -0.025344
v 0.010044 0.195662 -0.025633
v 0.009904 0.196354 -0.025818
v 0.010250 0.182235 -0.047478
v 0.009750 0.186603 -0.050000
v 0.010226 0.183585 -0.048258
v 0.010154 0.184802 -0.048961
v 0.010044 0.185768 -0.049518
v 0.009904 0.186389 -0.049877
v 0.010250 0.167145 -0.067145
v 0.009750 0.170711 -0.070711
v 0.010226 0.168247 -0.068247
v 0.010154 0.169241 -0.069241
v 0.010044 0.170030 -0.070030
v 0.009904 0.170536 -0.070536
v 0.010250 0.147478 -0.082235
v 0.009750 0.150000 -0.086603
v 0.010226 0.148258 -0.083585
v 0.010154 0.148961 -0.084802
v 0.010044 0.149518 -0.085768
v 0.009904 0.149877 -0.086389
v 0.010250 0.124577 -0.091721
v 0.009750 0.125882 -0.096593
v 0.010226 0.124980 -0.093227
v 0.010154 0.125344 -0.094585
v 0.010044 0.125633 -0.095662
v 0.009905 0.125818 -0.096354
vn -1.0000 -0.0000 -0.0000
vn 1.0000 -0.0000 -0.0000
vn 0.6192 -0.2032 -0.7585
vn 0.6192 -0.0000 -0.7852
vn 0.9553 -0.0000 -0.2956
vn 0.9553 -0.0765 -0.2855
vn 0.9905 -0.0000 -0.1374
vn 0.9905 -0.0356 -0.1327
vn 0.9973 -0.0000 -0.0735
vn 0.9973 -0.0190 -0.0710
vn 0.9994 -0.0000 -0.0336
vn 0.9994 -0.0087 -0.0324
vn 1.0000 -0.0000 -0.0085
vn 1.0000 -0.0022 -0.0082
vn 0.6192 -0.3926 -0.6800
vn 0.9553 -0.1478 -0.2560
vn 0.9905 -0.0687 -0.1190
vn 0.9973 -0.0367 -0.0636
vn 0.9994 -0.0168 -0.0291
vn 1.0000 -0.0042 -0.0073
vn 0.6192 -0.5552 -0.5552
vn 0.9553 -0.2090 -0.2090
vn 0.9905 -0.0972 -0.0972
vn 0.9973 -0.0519 -0.0519
vn 0.9994 -0.0237 -0.0237
vn 1.0000 -0.0060 -0.0060
vn 0.6192 -0.6800 -0.3926
vn 0.9553 -0.2560 -0.1478
vn 0.9905 -0.1190 -0.0687
vn 0.9973 -0.0636 -0.0367
vn 0.9994 -0.0291 -0.0168
vn 1.0000 -0.0073 -0.0042
vn 0.6192 -0.7585 -0.2032
vn 0.9553 -0.2855 -0.0765
vn 0.9905 -0.1327 -0.0356
vn 0.9973 -0.0710 -0.0190
vn 0.9994 -0.0324 -0.0087
vn 1.0000 -0.0082 -0.0022
vn 0.6192 -0.7852 -0.0000
vn 0.9553 -0.2956 -0.0000
vn 0.9905 -0.1374 -0.0000
vn 0.9973 -0.0735 -0.0000
vn 0.9994 -0.0336 -0.0000
vn 1.0000 -0.0085 -0.0000
vn 0.6192 -0.7585 0.2032
vn 0.9553 -0.2855 0.0765
vn 0.9905 -0.1327 0.0356
vn 0.9973 -0.0710 0.0190
vn 0.9994 -0.0324 0.0087
vn 1.0000 -0.0082 0.0022
vn 0.6192 -0.6800 0.3926
vn 0.9553 -0.2560 0.1478
vn 0.9905 -0.1190 0.0687
vn 0.9973 -0.0636 0.0367
vn 0.9994 -0.0291 0.0168
vn 1.0000 -0.0073 0.0042
vn 0.6192 -0.5552 0.5552
vn 0.9553 -0.2090 0.2090
vn 0.9905 -0.0972 0.0972
vn 0.9973 -0.0519 0.0519
vn 0.9994 -0.0237 0.0237
vn 1.0000 -0.0060 0.0060
vn 0.6192 -0.3926 0.6800
vn 0.9553 -0.1478 0.2560
vn 0.9905 -0.0687 0.1190
vn 0.9973 -0.0367 0.0636
vn 0.9994 -0.0168 0.0291
vn 1.0000 -0.0042 0.0073
vn 0.6192 -0.2032 0.7585
vn 0.9553 -0.0765 0.2855
vn 0.9905 -0.0356 0.1327
vn 0.9973 -0.0190 0.0710
vn 0.9994 -0.0087 0.0324
vn 1.0000 -0.0022 0.0082
vn 0.6192 -0.0000 0.7852
vn 0.9553 -0.0000 0.2956
vn 0.9905 -0.0000 0.1374
vn 0.9973 -0.0000 0.0735
vn 0.9994 -0.0000 0.0336
vn 1.0000 -0.0000 0.0085
vn 0.6192 0.2032 0.7585
vn 0.9553 0.0765 0.2855
vn 0.9905 0.0356 0.1327
vn 0.9973 0.0190 0.0710
vn 0.9994 0.0087 0.0324
vn 1.0000 0.0022 0.0082
vn 0.6192 0.3926 0.6800
vn 0.9553 0.1478 0.2560
vn 0.9905 0.0687 0.1190
vn 0.9973 0.0367 0.0636
vn 0.9994 0.0168 0.0291
vn 1.0000 0.0042 0.0073
vn 0.6192 0.5552 0.5552
vn 0.9553 0.2090 0.2090
vn 0.9905 0.0972 0.0972
vn 0.9973 0.0519 0.0519
vn 0.9994 0.0237 0.0237
vn 1.0000 0.0060 0.0060
vn 0.6192 0.6800 0.3926
vn 0.9553 0.2560 0.1478
vn 0.9905 0.1190 0.0687
vn 0.9973 0.0636 0.0367
vn 0.9994 0.0291 0.0168
vn 1.0000 0.0073 0.0042
vn 0.6192 0.7585 0.2032
vn 0.9553 0.2855 0.0765
vn 0.9905 0.1327 0.0356
vn 0.9973 0.0710 0.0190
vn 0.9994 0.0324 0.0087
vn 1.0000 0.0082 0.0022
vn 0.6192 0.7852 -0.0000
vn 0.9553 0.2956 -0.0000
vn 0.9905 0.1374 -0.0000
vn 0.9973 0.0735 -0.0000
vn 0.9994 0.0336 -0.0000
vn 1.0000 0.0085 -0.0000
vn 0.6192 0.7585 -0.2032
vn 0.9553 0.2855 -0.0765
vn 0.9905 0.1327 -0.0356
vn 0.9973 0.0710 -0.0190
vn 0.9994 0.0324 -0.0087
vn 1.0000 0.0082 -0.0022
vn 0.6192 0.6800 -0.3926
vn 0.9553 0.2560 -0.1478
vn 0.9905 0.1190 -0.0687
vn 0.9973 0.0636 -0.0367
vn 0.9994 0.0291 -0.0168
vn 1.0000 0.0073 -0.0042
vn 0.6192 0.5552 -0.5552
vn 0.9553 0.2090 -0.2090
vn 0.9905 0.0972 -0.0972
vn 0.9973 0.0519 -0.0519
vn 0.9994 0.0237 -0.0237
vn 1.0000 0.0060 -0.0060
vn 0.6192 0.3926 -0.6800
vn 0.9553 0.1478 -0.2560
vn 0.9905 0.0687 -0.1190
vn 0.9973 0.0367 -0.0636
vn 0.9994 0.0168 -0.0291
vn 1.0000 0.0042 -0.0073
vn 0.6192 0.2032 -0.7585
vn 0.9553 0.0765 -0.2855
vn 0.9905 0.0356 -0.1327
vn 0.9973 0.0190 -0.0710
vn 0.9994 0.0087 -0.0324
vn 1.0000 0.0022 -0.0082
vn 1.0000 0.0019 0.0069
vn 1.0000 -0.0000 0.0072
vn 0.9995 -0.0000 0.0309
vn 0.9995 0.0080 0.0298
vn 0.9975 -0.0000 0.0703
vn 0.9975 0.0182 0.0679
vn 0.9911 -0.0000 0.1331
vn 0.9911 0.0345 0.1286
vn 0.9576 -0.0000 0.2883
vn 0.9576 0.0746 0.2784
vn 0.6242 -0.0000 0.7813
vn 0.6242 0.2022 0.7546
vn 1.0000 0.0036 0.0062
vn 0.9995 0.0154 0.0267
vn 0.9975 0.0351 0.0609
vn 0.9911 0.0666 0.1153
vn 0.9576 0.1441 0.2496
vn 0.6242 0.3906 0.6766
vn 1.0000 0.0051 0.0051
vn 0.9995 0.0218 0.0218
vn 0.9975 0.0497 0.0497
vn 0.9911 0.0941 0.0941
vn 0.9576 0.2038 0.2038
vn 0.6242 0.5524 0.5524
vn 1.0000 0.0062 0.0036
vn 0.9995 0.0267 0.0154
vn 0.9975 0.0609 0.0351
vn 0.9911 0.1153 0.0666
vn 0.9576 0.2496 0.1441
vn 0.6242 0.6766 0.3906
vn 1.0000 0.0069 0.0019
vn 0.9995 0.0298 0.0080
vn 0.9975 0.0679 0.0182
vn 0.9911 0.1286 0.0345
vn 0.9576 0.2784 0.0746
vn 0.6242 0.7546 0.2022
vn 1.0000 0.0072 -0.0000
vn 0.9995 0.0309 -0.0000
vn 0.9975 0.0703 -0.0000
vn 0.9911 0.1331 -0.0000
vn 0.9576 0.2883 -0.0000
vn 0.6242 0.7812 -0.0000
vn 1.0000 0.0069 -0.0019
vn 0.9995 0.0298 -0.0080
vn 0.9975 0.0679 -0.0182
vn 0.9911 0.1286 -0.0345
vn 0.9576 0.2784 -0.0746
vn 0.6242 0.7546 -0.2022
vn 1.0000 0.0062 -0.0036
vn 0.9995 0.0267 -0.0154
vn 0.9975 0.0609 -0.0351
vn 0.9911 0.1153 -0.0666
vn 0.9576 0.2496 -0.1441
vn 0.6242 0.6766 -0.3906
vn 1.0000 0.0051 -0.0051
vn 0.9995 0.0218 -0.0218
vn 0.9975 0.0497 -0.0497
vn 0.9911 0.0941 -0.0941
vn 0.9576 0.2038 -0.2038
vn 0.6242 0.5524 -0.5524
vn 1.0000 0.0036 -0.0062
vn 0.9995 0.0154 -0.0267
vn 0.9975 0.0351 -0.0609
vn 0.9911 0.0666 -0.1153
vn 0.9576 0.1441 -0.2496
vn 0.6242 0.3906 -0.6766
vn 1.0000 0.0019 -0.0069
vn 0.9995 0.0080 -0.0298
vn 0.9975 0.0182 -0.0679
vn 0.9911 0.0345 -0.1286
vn 0.9576 0.0746 -0.2784
vn 0.6242 0.2022 -0.7546
vn 1.0000 -0.0000 -0.0072
vn 0.9995 -0.0000 -0.0309
vn 0.9975 -0.0000 -0.0703
vn 0.9911 -0.0000 -0.1331
vn 0.9576 -0.0000 -0.2883
vn 0.6242 -0.0000 -0.7813
vn 1.0000 -0.0019 -0.0069
vn 0.9995 -0.0080 -0.0298
vn 0.9975 -0.0182 -0.0679
vn 0.9911 -0.0345 -0.1286
vn 0.9576 -0.0746 -0.2784
vn 0.6242 -0.2022 -0.7546
vn 1.0000 -0.0036 -0.0062
vn 0.9995 -0.0154 -0.0267
vn 0.9975 -0.0351 -0.0609
vn 0.9911 -0.0666 -0.1153
vn 0.9576 -0.1441 -0.2496
vn 0.6242 -0.3906 -0.6766
vn 1.0000 -0.0051 -0.0051
vn 0.9995 -0.0218 -0.0218
vn 0.9975 -0.0497 -0.0497
vn 0.9911 -0.0941 -0.0941
vn 0.9576 -0.2038 -0.2038
vn 0.6242 -0.5524 -0.5524
vn 1.0000 -0.0062 -0.0036
vn 0.9995 -0.0267 -0.0154
vn 0.9975 -0.0609 -0.0351
vn 0.9911 -0.1153 -0.0666
vn 0.9576 -0.2496 -0.1441
vn 0.6242 -0.6766 -0.3906
vn 1.0000 -0.0069 -0.0019
vn 0.9995 -0.0298 -0.0080
vn 0.9975 -0.0679 -0.0182
vn 0.9911 -0.1286 -0.0345
vn 0.9576 -0.2784 -0.0746
vn 0.6242 -0.7546 -0.2022
vn 1.0000 -0.0072 -0.0000
vn 0.9995 -0.0309 -0.0000
vn 0.9975 -0.0703 -0.0000
vn 0.9911 -0.1331 -0.0000
vn 0.9576 -0.2883 -0.0000
vn 0.6242 -0.7813 -0.0000
vn 1.0000 -0.0069 0.0019
vn 0.9995 -0.0298 0.0080
vn 0.9975 -0.0679 0.0182
vn 0.9911 -0.1286 0.0345
vn 0.9576 -0.2784 0.0746
vn 0.6242 -0.7546 0.2022
vn 1.0000 -0.0062 0.0036
vn 0.9995 -0.0267 0.0154
vn 0.9975 -0.0609 0.0351
vn 0.9911 -0.1153 0.0666
vn 0.9576 -0.2496 0.1441
vn 0.6242 -0.6766 0.3906
vn 1.0000 -0.0051 0.0051
vn 0.9995 -0.0218 0.0218
vn 0.9975 -0.0497 0.0497
vn 0.9911 -0.0941 0.0941
vn 0.9576 -0.2038 0.2038
vn 0.6242 -0.5524 0.5524
vn 1.0000 -0.0036 0.0062
vn 0.9995 -0.0154 0.0267
vn 0.9975 -0.0351 0.0609
vn 0.9911 -0.0666 0.1153
vn 0.9576 -0.1441 0.2496
vn 0.6242 -0.3906 0.6766
vn 1.0000 -0.0019 0.0069
vn 0.9995 -0.0080 0.0298
vn 0.9975 -0.0182 0.0679
vn 0.9911 -0.0345 0.1286
vn 0.9576 -0.0746 0.2784
vn 0.6242 -0.2022 0.7546
vn -0.0000 -0.0000 1.0000
vn -0.0000 0.2588 0.9659
vn -0.0000 -0.2588 0.9659
vn -0.0000 0.5000 0.8660
vn -0.0000 0.7071 0.7071
vn -0.0000 0.8660 0.5000
vn -0.0000 0.9659 0.2588
vn -0.0000 1.0000 -0.0000
vn -0.0000 0.9659 -0.2588
vn -0.0000 0.8660 -0.5000
vn -0.0000 0.7071 -0.7071
vn -0.0000 0.5000 -0.8660
vn -0.0000 0.2588 -0.9659
vn -0.0000 -0.0000 -1.0000
vn -0.0000 -0.2588 -0.9659
vn -0.0000 -0.5000 -0.8660
vn -0.0000 -0.7071 -0.7071
vn -0.0000 -0.8660 -0.5000
vn -0.0000 -0.9659 -0.2588
vn -0.0000 -1.0000 -0.0000
vn -0.0000 -0.9659 0.2588
vn -0.0000 -0.8660 0.5000
vn -0.0000 -0.7071 0.7071
vn -0.0000 -0.5000 0.8660
vt -0.000000 0.187164
vt -0.000000 0.143616
vt 0.011271 0.101552
vt 0.033045 0.063838
vt 0.063838 0.033045
vt 0.101552 0.011271
vt 0.143616 -0.000000
vt 0.187164 -0.000000
vt 0.229228 0.011271
vt 0.266942 0.033045
vt 0.297735 0.063838
vt 0.319509 0.101552
vt 0.330780 0.143616
vt 0.330780 0.187164
vt 0.319509 0.229228
vt 0.297735 0.266942
vt 0.266942 0.297735
vt 0.229228 0.319509
vt 0.187164 0.330780
vt 0.143616 0.330780
vt 0.101552 0.319509
vt 0.063838 0.297735
vt 0.033045 0.266942
vt 0.011271 0.229228
vt 0.870502 0.398717
vt 0.882689 0.505963
vt 0.868764 0.612963
vt 0.829676 0.712427
vt 0.768090 0.797575
vt 0.688202 0.862605
vt 0.595457 0.903085
vt 0.496175 0.916258
vt 0.397121 0.901224
vt 0.305046 0.859008
vt 0.226226 0.792488
vt 0.166031 0.706197
vt 0.128563 0.606015
vt 0.116377 0.498769
vt 0.130302 0.391769
vt 0.169389 0.292305
vt 0.230975 0.207157
vt 0.310863 0.142127
vt 0.403608 0.101647
vt 0.502891 0.088475
vt 0.601944 0.103508
vt 0.694019 0.145724
vt 0.772839 0.212244
vt 0.833034 0.298535
vt 0.368494 0.677875
vt 0.330780 0.674008
vt 0.331031 0.671414
vt 0.368651 0.675271
vt 0.331758 0.668957
vt 0.369109 0.672786
vt 0.332891 0.666879
vt 0.369821 0.670665
vt 0.336346 0.207488
vt 0.330780 0.165210
vt 0.333125 0.165210
vt 0.338611 0.206881
vt 0.335725 0.165210
vt 0.341123 0.206209
vt 0.410558 0.679876
vt 0.410612 0.677267
vt 0.410768 0.674769
vt 0.411011 0.672625
vt 0.352665 0.246885
vt 0.354696 0.245713
vt 0.356947 0.244413
vt 0.454106 0.679876
vt 0.454052 0.677267
vt 0.453896 0.674769
vt 0.453653 0.672625
vt 0.378624 0.280716
vt 0.380282 0.279058
vt 0.382121 0.277219
vt 0.496170 0.677875
vt 0.496013 0.675271
vt 0.495555 0.672786
vt 0.494843 0.670665
vt 0.412455 0.306675
vt 0.413627 0.304644
vt 0.414927 0.302393
vt 0.533884 0.674008
vt 0.533633 0.671414
vt 0.532906 0.668957
vt 0.531773 0.666879
vt 0.451851 0.322994
vt 0.452458 0.320728
vt 0.453131 0.318217
vt 0.361573 0.340887
vt 0.330780 0.335419
vt 0.331107 0.332838
vt 0.361824 0.338293
vt 0.332055 0.330421
vt 0.362551 0.335836
vt 0.494129 0.330421
vt 0.451370 0.324792
vt 0.494129 0.328560
vt 0.494129 0.326215
vt 0.494129 0.323615
vt 0.399287 0.344754
vt 0.399444 0.342150
vt 0.399902 0.339666
vt 0.363684 0.333758
vt 0.400614 0.337544
vt 0.536407 0.322994
vt 0.535800 0.320728
vt 0.535127 0.318217
vt 0.441351 0.346755
vt 0.441405 0.344146
vt 0.441561 0.341648
vt 0.441804 0.339504
vt 0.575804 0.306675
vt 0.574631 0.304644
vt 0.573332 0.302393
vt 0.484899 0.346755
vt 0.484845 0.344146
vt 0.484689 0.341648
vt 0.484446 0.339504
vt 0.609635 0.280716
vt 0.607976 0.279058
vt 0.606138 0.277219
vt 0.526963 0.344754
vt 0.526806 0.342150
vt 0.526348 0.339666
vt 0.525636 0.337544
vt 0.635594 0.246885
vt 0.633563 0.245712
vt 0.631312 0.244413
vt 0.564677 0.340887
vt 0.564426 0.338293
vt 0.563699 0.335836
vt 0.562566 0.333758
vt 0.651913 0.207488
vt 0.649647 0.206881
vt 0.647136 0.206209
vt 0.030793 0.341247
vt 0.000000 0.335779
vt 0.000327 0.333197
vt 0.031044 0.338652
vt 0.001275 0.330780
vt 0.031771 0.336195
vt 0.659340 0.165210
vt 0.653710 0.207970
vt 0.657479 0.165210
vt 0.655133 0.165210
vt 0.652534 0.165210
vt 0.068507 0.345113
vt 0.068664 0.342509
vt 0.069122 0.340025
vt 0.032904 0.334117
vt 0.069834 0.337903
vt 0.651913 0.122933
vt 0.649647 0.123540
vt 0.647136 0.124212
vt 0.110571 0.347115
vt 0.110625 0.344506
vt 0.110781 0.342007
vt 0.111024 0.339863
vt 0.635594 0.083536
vt 0.633563 0.084708
vt 0.631312 0.086008
vt 0.154119 0.347115
vt 0.154065 0.344506
vt 0.153909 0.342007
vt 0.153666 0.339863
vt 0.609635 0.049705
vt 0.607976 0.051363
vt 0.606138 0.053202
vt 0.196183 0.345113
vt 0.196026 0.342509
vt 0.195568 0.340025
vt 0.194856 0.337903
vt 0.575804 0.023746
vt 0.574631 0.025777
vt 0.573332 0.028028
vt 0.233897 0.341247
vt 0.233646 0.338652
vt 0.232919 0.336195
vt 0.231786 0.334117
vt 0.536407 0.007427
vt 0.535800 0.009692
vt 0.535127 0.012204
vt 0.264690 0.335779
vt 0.264363 0.333197
vt 0.263415 0.330780
vt 0.494129 0.000000
vt 0.536889 0.005629
vt 0.494129 0.001861
vt 0.494129 0.004206
vt 0.494129 0.006806
vt 0.626263 0.340887
vt 0.595470 0.335419
vt 0.595797 0.332838
vt 0.626514 0.338293
vt 0.596745 0.330421
vt 0.627241 0.335836
vt 0.451370 0.005629
vt 0.451851 0.007427
vt 0.452458 0.009692
vt 0.453131 0.012204
vt 0.663977 0.344754
vt 0.664134 0.342150
vt 0.664592 0.339666
vt 0.628374 0.333758
vt 0.665304 0.337544
vt 0.412455 0.023746
vt 0.413627 0.025777
vt 0.414927 0.028028
vt 0.706041 0.346755
vt 0.706095 0.344146
vt 0.706251 0.341648
vt 0.706494 0.339504
vt 0.378624 0.049705
vt 0.380282 0.051363
vt 0.382121 0.053202
vt 0.749589 0.346755
vt 0.749535 0.344146
vt 0.749379 0.341648
vt 0.749136 0.339504
vt 0.352665 0.083536
vt 0.354696 0.084708
vt 0.356947 0.086008
vt 0.791653 0.344754
vt 0.791496 0.342150
vt 0.791038 0.339666
vt 0.790326 0.337544
vt 0.336346 0.122933
vt 0.338611 0.123540
vt 0.341123 0.124212
vt 0.829367 0.340887
vt 0.829116 0.338293
vt 0.828389 0.335836
vt 0.827256 0.333758
vt 0.344645 0.205265
vt 0.339371 0.165210
vt 0.341971 0.165210
vt 0.347156 0.204592
vt 0.344316 0.165210
vt 0.349421 0.203985
vt 0.567066 0.700721
vt 0.570799 0.666879
vt 0.572868 0.668028
vt 0.569182 0.701449
vt 0.575319 0.668774
vt 0.571662 0.701926
vt 0.577911 0.669045
vt 0.574265 0.702103
vt 0.360105 0.242590
vt 0.362356 0.241290
vt 0.364387 0.240117
vt 0.564978 0.738482
vt 0.567119 0.738742
vt 0.569617 0.738917
vt 0.572225 0.738991
vt 0.384699 0.274641
vt 0.386537 0.272803
vt 0.388195 0.271144
vt 0.564677 0.777590
vt 0.566822 0.777364
vt 0.569322 0.777227
vt 0.571931 0.777193
vt 0.416750 0.299235
vt 0.418050 0.296983
vt 0.419223 0.294952
vt 0.566184 0.815380
vt 0.568310 0.814684
vt 0.570798 0.814245
vt 0.573403 0.814108
vt 0.454075 0.314695
vt 0.454748 0.312184
vt 0.455355 0.309919
vt 0.569395 0.849275
vt 0.571482 0.848158
vt 0.573944 0.847449
vt 0.576541 0.847218
vt 0.494129 0.319969
vt 0.494129 0.317369
vt 0.494129 0.315024
vt 0.455837 0.308121
vt 0.494129 0.313162
vt 0.576122 0.875505
vt 0.578546 0.874575
vt 0.581130 0.874269
vt 0.534184 0.314695
vt 0.533511 0.312184
vt 0.532904 0.309919
vt 0.532422 0.308121
vt 0.912152 0.848158
vt 0.907512 0.875505
vt 0.905088 0.874575
vt 0.909690 0.847449
vt 0.902504 0.874269
vt 0.907093 0.847218
vt 0.571508 0.299235
vt 0.570209 0.296983
vt 0.569036 0.294952
vt 0.917450 0.815379
vt 0.914239 0.849275
vt 0.915324 0.814683
vt 0.912836 0.814245
vt 0.910231 0.814108
vt 0.603560 0.274641
vt 0.601722 0.272803
vt 0.600063 0.271144
vt 0.918957 0.777590
vt 0.916812 0.777364
vt 0.914312 0.777227
vt 0.911703 0.777193
vt 0.628154 0.242589
vt 0.625902 0.241290
vt 0.623871 0.240117
vt 0.918656 0.738482
vt 0.916515 0.738742
vt 0.914017 0.738917
vt 0.911409 0.738991
vt 0.643614 0.205265
vt 0.641103 0.204592
vt 0.638838 0.203985
vt 0.916568 0.700721
vt 0.914452 0.701449
vt 0.911972 0.701926
vt 0.909369 0.702103
vt 0.648887 0.165210
vt 0.646288 0.165210
vt 0.643942 0.165210
vt 0.912835 0.666879
vt 0.910766 0.668028
vt 0.908315 0.668774
vt 0.905723 0.669045
vt 0.643614 0.125156
vt 0.641103 0.125829
vt 0.638838 0.126436
vt 0.002389 0.701080
vt 0.006122 0.667238
vt 0.008191 0.668387
vt 0.004505 0.701809
vt 0.010642 0.669134
vt 0.006985 0.702285
vt 0.013235 0.669404
vt 0.009588 0.702463
vt 0.628154 0.087831
vt 0.625902 0.089131
vt 0.623871 0.090304
vt 0.000301 0.738842
vt 0.002443 0.739101
vt 0.004940 0.739276
vt 0.007548 0.739350
vt 0.603560 0.055780
vt 0.601722 0.057618
vt 0.600063 0.059277
vt 0.000000 0.777950
vt 0.002145 0.777723
vt 0.004645 0.777586
vt 0.007254 0.777553
vt 0.571508 0.031186
vt 0.570209 0.033437
vt 0.569036 0.035468
vt 0.001507 0.815739
vt 0.003633 0.815043
vt 0.006121 0.814605
vt 0.008726 0.814467
vt 0.534184 0.015726
vt 0.533511 0.018237
vt 0.532904 0.020502
vt 0.004718 0.849634
vt 0.006805 0.848517
vt 0.009267 0.847808
vt 0.011864 0.847578
vt 0.494129 0.010452
vt 0.494129 0.013052
vt 0.494129 0.015397
vt 0.532422 0.022300
vt 0.494129 0.017259
vt 0.011445 0.875864
vt 0.013869 0.874935
vt 0.016453 0.874628
vt 0.454075 0.015726
vt 0.454748 0.018237
vt 0.455355 0.020502
vt 0.661729 0.033842
vt 0.665462 0.000000
vt 0.667531 0.001149
vt 0.663844 0.034570
vt 0.669982 0.001895
vt 0.666325 0.035047
vt 0.672574 0.002166
vt 0.668928 0.035224
vt 0.416750 0.031186
vt 0.418050 0.033437
vt 0.419223 0.035469
vt 0.659641 0.071603
vt 0.661782 0.071863
vt 0.664280 0.072038
vt 0.666888 0.072112
vt 0.384699 0.055780
vt 0.386537 0.057618
vt 0.388195 0.059277
vt 0.659340 0.110711
vt 0.661485 0.110485
vt 0.663985 0.110348
vt 0.666594 0.110314
vt 0.360105 0.087831
vt 0.362356 0.089131
vt 0.364387 0.090304
vt 0.660847 0.148500
vt 0.662973 0.147804
vt 0.665461 0.147366
vt 0.668066 0.147229
vt 0.344645 0.125156
vt 0.347156 0.125829
vt 0.349421 0.126436
vt 0.664058 0.182396
vt 0.666145 0.181279
vt 0.668607 0.180570
vt 0.671204 0.180339
vt 0.351219 0.126918
vt 0.346177 0.165210
vt 0.670785 0.208626
vt 0.673209 0.207696
vt 0.675793 0.207390
vt 0.738599 0.670281
vt 0.734952 0.703340
vt 0.831891 0.181576
vt 0.836480 0.208626
vt 0.732913 0.740227
vt 0.732619 0.778430
vt 0.734091 0.815344
vt 0.737228 0.848455
vt 0.741817 0.875505
vt 0.746406 0.848455
vt 0.749543 0.815344
vt 0.751015 0.778430
vt 0.750721 0.740227
vt 0.748682 0.703340
vt 0.745035 0.670281
vt 0.173922 0.670640
vt 0.170275 0.703699
vt 0.168236 0.740586
vt 0.167942 0.778789
vt 0.169414 0.815703
vt 0.172551 0.848814
vt 0.177140 0.875864
vt 0.833262 0.003402
vt 0.829615 0.036461
vt 0.827576 0.073348
vt 0.827282 0.111551
vt 0.828753 0.148465
vt 0.330780 0.994132
vt 0.368494 0.997999
vt 0.410558 1.000000
vt 0.791653 0.664878
vt 0.829367 0.661011
vt 0.454106 1.000000
vt 0.496170 0.997999
vt 0.533884 0.994132
vt 0.564677 0.668540
vt 0.564677 0.988664
vt 0.361573 0.661011
vt 0.399287 0.664878
vt 0.441351 0.666879
vt 0.484899 0.666879
vt 0.526963 0.664878
vt 0.564677 0.661011
vt 0.595470 0.335419
vt 0.595470 0.655543
vt 0.030793 0.661370
vt 0.068507 0.665237
vt 0.110571 0.667238
vt 0.154119 0.667238
vt 0.196183 0.665237
vt 0.233897 0.661370
vt 0.264690 0.655902
vt 0.595470 0.655543
vt 0.626263 0.661011
vt 0.663977 0.664878
vt 0.706041 0.666879
vt 0.749589 0.666879
s 1
usemtl clock
f 25/25/2 26/26/2 48/27/2 47/28/2 46/29/2 45/30/2 44/31/2 43/32/2 42/33/2 41/34/2 40/35/2 39/36/2 38/37/2 37/38/2 36/39/2 35/40/2 34/41/2 33/42/2 32/43/2 31/44/2 30/45/2 29/46/2 28/47/2 27/48/2
usemtl plastic
f 1/1/1 2/2/1 3/3/1 4/4/1 5/5/1 6/6/1 7/7/1 8/8/1 9/9/1 10/10/1 11/11/1 12/12/1 13/13/1 14/14/1 15/15/1 16/16/1 17/17/1 18/18/1 19/19/1 20/20/1 21/21/1 22/22/1 23/23/1 24/24/1
f 194/49/3 199/50/4 201/51/5 198/52/6
f 198/52/6 201/51/5 202/53/7 197/54/8
f 197/54/8 202/53/7 203/55/9 196/56/10
f 196/57/10 203/58/9 204/59/11 195/60/12
f 195/60/12 204/59/11 200/61/13 193/62/14
f 206/63/15 194/49/3 198/52/6 210/64/16
f 210/64/16 198/52/6 197/54/8 209/65/17
f 209/65/17 197/54/8 196/56/10 208/66/18
f 208/67/18 196/57/10 195/60/12 207/68/19
f 207/68/19 195/60/12 193/62/14 205/69/20
f 212/70/21 206/63/15 210/64/16 216/71/22
f 216/71/22 210/64/16 209/65/17 215/72/23
f 215/72/23 209/65/17 208/66/18 214/73/24
f 214/74/24 208/67/18 207/68/19 213/75/25
f 213/75/25 207/68/19 205/69/20 211/76/26
f 218/77/27 212/70/21 216/71/22 222/78/28
f 222/78/28 216/71/22 215/72/23 221/79/29
f 221/79/29 215/72/23 214/73/24 220/80/30
f 220/81/30 214/74/24 213/75/25 219/82/31
f 219/82/31 213/75/25 211/76/26 217/83/32
f 224/84/33 218/77/27 222/78/28 228/85/34
f 228/85/34 222/78/28 221/79/29 227/86/35
f 227/86/35 221/79/29 220/80/30 226/87/36
f 226/88/36 220/81/30 219/82/31 225/89/37
f 225/89/37 219/82/31 217/83/32 223/90/38
f 230/91/39 224/92/33 228/93/34 234/94/40
f 234/94/40 228/93/34 227/95/35 233/96/41
f 233/97/41 227/98/35 226/88/36 232/99/42
f 232/99/42 226/88/36 225/89/37 231/100/43
f 231/100/43 225/89/37 223/90/38 229/101/44
f 236/102/45 230/91/39 234/94/40 240/103/46
f 240/103/46 234/94/40 233/96/41 239/104/47
f 239/104/47 233/96/41 232/105/42 238/106/48
f 238/107/48 232/99/42 231/100/43 237/108/49
f 237/108/49 231/100/43 229/101/44 235/109/50
f 242/110/51 236/102/45 240/103/46 246/111/52
f 246/111/52 240/103/46 239/104/47 245/112/53
f 245/112/53 239/104/47 238/106/48 244/113/54
f 244/114/54 238/107/48 237/108/49 243/115/55
f 243/115/55 237/108/49 235/109/50 241/116/56
f 248/117/57 242/110/51 246/111/52 252/118/58
f 252/118/58 246/111/52 245/112/53 251/119/59
f 251/119/59 245/112/53 244/113/54 250/120/60
f 250/121/60 244/114/54 243/115/55 249/122/61
f 249/122/61 243/115/55 241/116/56 247/123/62
f 254/124/63 248/117/57 252/118/58 258/125/64
f 258/125/64 252/118/58 251/119/59 257/126/65
f 257/126/65 251/119/59 250/120/60 256/127/66
f 256/128/66 250/121/60 249/122/61 255/129/67
f 255/129/67 249/122/61 247/123/62 253/130/68
f 260/131/69 254/124/63 258/125/64 264/132/70
f 264/132/70 258/125/64 257/126/65 263/133/71
f 263/133/71 257/126/65 256/127/66 262/134/72
f 262/135/72 256/128/66 255/129/67 261/136/73
f 261/136/73 255/129/67 253/130/68 259/137/74
f 266/138/75 260/139/69 264/140/70 270/141/76
f 270/141/76 264/140/70 263/142/71 269/143/77
f 269/144/77 263/145/71 262/135/72 268/146/78
f 268/146/78 262/135/72 261/136/73 267/147/79
f 267/147/79 261/136/73 259/137/74 265/148/80
f 272/149/81 266/138/75 270/141/76 276/150/82
f 276/150/82 270/141/76 269/143/77 275/151/83
f 275/151/83 269/143/77 268/152/78 274/153/84
f 274/154/84 268/146/78 267/147/79 273/155/85
f 273/155/85 267/147/79 265/148/80 271/156/86
f 278/157/87 272/149/81 276/150/82 282/158/88
f 282/158/88 276/150/82 275/151/83 281/159/89
f 281/159/89 275/151/83 274/153/84 280/160/90
f 280/161/90 274/154/84 273/155/85 279/162/91
f 279/162/91 273/155/85 271/156/86 277/163/92
f 284/164/93 278/157/87 282/158/88 288/165/94
f 288/165/94 282/158/88 281/159/89 287/166/95
f 287/166/95 281/159/89 280/160/90 286/167/96
f 286/168/96 280/161/90 279/162/91 285/169/97
f 285/169/97 279/162/91 277/163/92 283/170/98
f 290/171/99 284/164/93 288/165/94 294/172/100
f 294/172/100 288/165/94 287/166/95 293/173/101
f 293/173/101 287/166/95 286/167/96 292/174/102
f 292/175/102 286/168/96 285/169/97 291/176/103
f 291/176/103 285/169/97 283/170/98 289/177/104
f 296/178/105 290/171/99 294/172/100 300/179/106
f 300/179/106 294/172/100 293/173/101 299/180/107
f 299/180/107 293/173/101 292/174/102 298/181/108
f 298/182/108 292/175/102 291/176/103 297/183/109
f 297/183/109 291/176/103 289/177/104 295/184/110
f 302/185/111 296/178/105 300/179/106 306/186/112
f 306/186/112 300/179/106 299/180/107 305/187/113
f 305/188/113 299/189/107 298/182/108 304/190/114
f 304/190/114 298/182/108 297/183/109 303/191/115
f 303/191/115 297/183/109 295/184/110 301/192/116
f 308/193/117 302/194/111 306/195/112 312/196/118
f 312/196/118 306/195/112 305/197/113 311/198/119
f 311/199/119 305/188/113 304/190/114 310/200/120
f 310/200/120 304/190/114 303/191/115 309/201/121
f 309/201/121 303/191/115 301/192/116 307/202/122
f 314/203/123 308/193/117 312/196/118 318/204/124
f 318/204/124 312/196/118 311/198/119 317/205/125
f 317/205/125 311/198/119 310/206/120 316/207/126
f 316/208/126 310/200/120 309/201/121 315/209/127
f 315/209/127 309/201/121 307/202/122 313/210/128
f 320/211/129 314/203/123 318/204/124 324/212/130
f 324/212/130 318/204/124 317/205/125 323/213/131
f 323/213/131 317/205/125 316/207/126 322/214/132
f 322/215/132 316/208/126 315/209/127 321/216/133
f 321/216/133 315/209/127 313/210/128 319/217/134
f 326/218/135 320/211/129 324/212/130 330/219/136
f 330/219/136 324/212/130 323/213/131 329/220/137
f 329/220/137 323/213/131 322/214/132 328/221/138
f 328/222/138 322/215/132 321/216/133 327/223/139
f 327/223/139 321/216/133 319/217/134 325/224/140
f 332/225/141 326/218/135 330/219/136 336/226/142
f 336/226/142 330/219/136 329/220/137 335/227/143
f 335/227/143 329/220/137 328/221/138 334/228/144
f 334/229/144 328/222/138 327/223/139 333/230/145
f 333/230/145 327/223/139 325/224/140 331/231/146
f 199/232/4 332/225/141 336/226/142 201/233/5
f 201/233/5 336/226/142 335/227/143 202/234/7
f 202/234/7 335/227/143 334/228/144 203/235/9
f 203/58/9 334/229/144 333/230/145 204/59/11
f 204/59/11 333/230/145 331/231/146 200/61/13
f 56/236/147 49/237/148 51/238/149 60/239/150
f 60/239/150 51/238/149 52/240/151 59/241/152
f 59/242/152 52/243/151 53/244/153 58/245/154
f 58/245/154 53/244/153 54/246/155 57/247/156
f 57/247/156 54/246/155 50/248/157 55/249/158
f 62/250/159 56/236/147 60/239/150 66/251/160
f 66/251/160 60/239/150 59/241/152 65/252/161
f 65/253/161 59/242/152 58/245/154 64/254/162
f 64/254/162 58/245/154 57/247/156 63/255/163
f 63/255/163 57/247/156 55/249/158 61/256/164
f 68/257/165 62/250/159 66/251/160 72/258/166
f 72/258/166 66/251/160 65/252/161 71/259/167
f 71/260/167 65/253/161 64/254/162 70/261/168
f 70/261/168 64/254/162 63/255/163 69/262/169
f 69/262/169 63/255/163 61/256/164 67/263/170
f 74/264/171 68/257/165 72/258/166 78/265/172
f 78/265/172 72/258/166 71/259/167 77/266/173
f 77/267/173 71/260/167 70/261/168 76/268/174
f 76/268/174 70/261/168 69/262/169 75/269/175
f 75/269/175 69/262/169 67/263/170 73/270/176
f 80/271/177 74/264/171 78/265/172 84/272/178
f 84/272/178 78/265/172 77/266/173 83/273/179
f 83/274/179 77/267/173 76/268/174 82/275/180
f 82/275/180 76/268/174 75/269/175 81/276/181
f 81/276/181 75/269/175 73/270/176 79/277/182
f 86/278/183 80/271/177 84/272/178 90/279/184
f 90/279/184 84/272/178 83/273/179 89/280/185
f 89/280/185 83/273/179 82/281/180 88/282/186
f 88/283/186 82/275/180 81/276/181 87/284/187
f 87/284/187 81/276/181 79/277/182 85/285/188
f 92/286/189 86/278/183 90/279/184 96/287/190
f 96/287/190 90/279/184 89/280/185 95/288/191
f 95/288/191 89/280/185 88/282/186 94/289/192
f 94/290/192 88/291/186 87/292/187 93/293/193
f 93/293/193 87/292/187 85/294/188 91/295/194
f 98/296/195 92/286/189 96/287/190 102/297/196
f 102/297/196 96/287/190 95/288/191 101/298/197
f 101/299/197 95/300/191 94/290/192 100/301/198
f 100/301/198 94/290/192 93/293/193 99/302/199
f 99/302/199 93/293/193 91/295/194 97/303/200
f 104/304/201 98/296/195 102/297/196 108/305/202
f 108/305/202 102/297/196 101/298/197 107/306/203
f 107/307/203 101/299/197 100/301/198 106/308/204
f 106/308/204 100/301/198 99/302/199 105/309/205
f 105/309/205 99/302/199 97/303/200 103/310/206
f 110/311/207 104/304/201 108/305/202 114/312/208
f 114/312/208 108/305/202 107/306/203 113/313/209
f 113/314/209 107/307/203 106/308/204 112/315/210
f 112/315/210 106/308/204 105/309/205 111/316/211
f 111/316/211 105/309/205 103/310/206 109/317/212
f 116/318/213 110/311/207 114/312/208 120/319/214
f 120/319/214 114/312/208 113/313/209 119/320/215
f 119/321/215 113/314/209 112/315/210 118/322/216
f 118/322/216 112/315/210 111/316/211 117/323/217
f 117/323/217 111/316/211 109/317/212 115/324/218
f 122/325/219 116/318/213 120/319/214 126/326/220
f 126/326/220 120/319/214 119/320/215 125/327/221
f 125/328/221 119/321/215 118/322/216 124/329/222
f 124/329/222 118/322/216 117/323/217 123/330/223
f 123/330/223 117/323/217 115/324/218 121/331/224
f 128/332/225 122/325/219 126/326/220 132/333/226
f 132/333/226 126/326/220 125/327/221 131/334/227
f 131/335/227 125/336/221 124/337/222 130/338/228
f 130/338/228 124/337/222 123/339/223 129/340/229
f 129/340/229 123/339/223 121/341/224 127/342/230
f 134/343/231 128/332/225 132/333/226 138/344/232
f 138/344/232 132/333/226 131/334/227 137/345/233
f 137/346/233 131/335/227 130/338/228 136/347/234
f 136/347/234 130/338/228 129/340/229 135/348/235
f 135/348/235 129/340/229 127/342/230 133/349/236
f 140/350/237 134/343/231 138/344/232 144/351/238
f 144/351/238 138/344/232 137/345/233 143/352/239
f 143/353/239 137/346/233 136/347/234 142/354/240
f 142/354/240 136/347/234 135/348/235 141/355/241
f 141/355/241 135/348/235 133/349/236 139/356/242
f 146/357/243 140/350/237 144/351/238 150/358/244
f 150/358/244 144/351/238 143/352/239 149/359/245
f 149/360/245 143/353/239 142/354/240 148/361/246
f 148/361/246 142/354/240 141/355/241 147/362/247
f 147/362/247 141/355/241 139/356/242 145/363/248
f 152/364/249 146/357/243 150/358/244 156/365/250
f 156/365/250 150/358/244 149/359/245 155/366/251
f 155/367/251 149/360/245 148/361/246 154/368/252
f 154/368/252 148/361/246 147/362/247 153/369/253
f 153/369/253 147/362/247 145/363/248 151/370/254
f 158/371/255 152/364/249 156/365/250 162/372/256
f 162/372/256 156/365/250 155/366/251 161/373/257
f 161/373/257 155/366/251 154/374/252 160/375/258
f 160/376/258 154/368/252 153/369/253 159/377/259
f 159/377/259 153/369/253 151/370/254 157/378/260
f 164/379/261 158/371/255 162/372/256 168/380/262
f 168/380/262 162/372/256 161/373/257 167/381/263
f 167/382/263 161/383/257 160/384/258 166/385/264
f 166/385/264 160/384/258 159/386/259 165/387/265
f 165/387/265 159/386/259 157/388/260 163/389/266
f 170/390/267 164/379/261 168/380/262 174/391/268
f 174/391/268 168/380/262 167/381/263 173/392/269
f 173/393/269 167/382/263 166/385/264 172/394/270
f 172/394/270 166/385/264 165/387/265 171/395/271
f 171/395/271 165/387/265 163/389/266 169/396/272
f 176/397/273 170/390/267 174/391/268 180/398/274
f 180/398/274 174/391/268 173/392/269 179/399/275
f 179/400/275 173/393/269 172/394/270 178/401/276
f 178/401/276 172/394/270 171/395/271 177/402/277
f 177/402/277 171/395/271 169/396/272 175/403/278
f 182/404/279 176/397/273 180/398/274 186/405/280
f 186/405/280 180/398/274 179/399/275 185/406/281
f 185/407/281 179/400/275 178/401/276 184/408/282
f 184/408/282 178/401/276 177/402/277 183/409/283
f 183/409/283 177/402/277 175/403/278 181/410/284
f 188/411/285 182/404/279 186/405/280 192/412/286
f 192/412/286 186/405/280 185/406/281 191/413/287
f 191/414/287 185/407/281 184/408/282 190/415/288
f 190/415/288 184/408/282 183/409/283 189/416/289
f 189/416/289 183/409/283 181/410/284 187/417/290
f 49/237/148 188/411/285 192/412/286 51/238/149
f 51/238/149 192/412/286 191/413/287 52/240/151
f 52/240/151 191/413/287 190/418/288 53/419/153
f 53/420/153 190/415/288 189/416/289 54/421/155
f 54/421/155 189/416/289 187/417/290 50/422/157
f 55/249/158 50/248/157 26/423/291 25/424/292
f 49/237/148 56/236/147 193/62/14 200/61/13
f 50/422/157 187/417/290 48/425/293 26/426/291
f 188/411/285 49/237/148 200/61/13 331/231/146
f 56/236/147 62/250/159 205/69/20 193/62/14
f 61/256/164 55/249/158 25/424/292 27/427/294
f 62/250/159 68/257/165 211/76/26 205/69/20
f 67/263/170 61/256/164 27/427/294 28/428/295
f 68/257/165 74/264/171 217/83/32 211/76/26
f 73/270/176 67/263/170 28/428/295 29/429/296
f 74/264/171 80/271/177 223/90/38 217/83/32
f 79/277/182 73/270/176 29/429/296 30/430/297
f 80/271/177 86/278/183 229/101/44 223/90/38
f 85/285/188 79/277/182 30/430/297 31/431/298
f 86/278/183 92/286/189 235/109/50 229/101/44
f 91/295/194 85/294/188 31/431/298 32/432/299
f 92/286/189 98/296/195 241/116/56 235/109/50
f 97/303/200 91/295/194 32/432/299 33/433/300
f 98/296/195 104/304/201 247/123/62 241/116/56
f 103/310/206 97/303/200 33/433/300 34/434/301
f 104/304/201 110/311/207 253/130/68 247/123/62
f 109/317/212 103/310/206 34/434/301 35/435/302
f 110/311/207 116/318/213 259/137/74 253/130/68
f 115/324/218 109/317/212 35/435/302 36/436/303
f 116/318/213 122/325/219 265/148/80 259/137/74
f 121/331/224 115/324/218 36/436/303 37/437/304
f 122/325/219 128/332/225 271/156/86 265/148/80
f 127/342/230 121/341/224 37/438/304 38/439/305
f 128/332/225 134/343/231 277/163/92 271/156/86
f 133/349/236 127/342/230 38/439/305 39/440/306
f 134/343/231 140/350/237 283/170/98 277/163/92
f 139/356/242 133/349/236 39/440/306 40/441/307
f 140/350/237 146/357/243 289/177/104 283/170/98
f 145/363/248 139/356/242 40/441/307 41/442/308
f 146/357/243 152/364/249 295/184/110 289/177/104
f 151/370/254 145/363/248 41/442/308 42/443/309
f 152/364/249 158/371/255 301/192/116 295/184/110
f 157/378/260 151/370/254 42/443/309 43/444/310
f 158/371/255 164/379/261 307/202/122 301/192/116
f 163/389/266 157/388/260 43/445/310 44/446/311
f 164/379/261 170/390/267 313/210/128 307/202/122
f 169/396/272 163/389/266 44/446/311 45/447/312
f 170/390/267 176/397/273 319/217/134 313/210/128
f 175/403/278 169/396/272 45/447/312 46/448/313
f 176/397/273 182/404/279 325/224/140 319/217/134
f 181/410/284 175/403/278 46/448/313 47/449/314
f 187/417/290 181/410/284 47/449/314 48/425/293
f 182/404/279 188/411/285 331/231/146 325/224/140
f 1/450/304 199/50/4 194/49/3 2/451/305
f 2/451/305 194/49/3 206/63/15 3/452/306
f 24/453/303 332/225/141 199/232/4 1/454/304
f 3/452/306 206/63/15 212/70/21 4/455/307
f 4/455/307 212/70/21 218/77/27 5/456/308
f 5/456/308 218/77/27 224/84/33 6/457/309
f 6/457/309 224/84/33 230/458/39 7/459/310
f 7/460/310 230/91/39 236/102/45 8/461/311
f 8/461/311 236/102/45 242/110/51 9/462/312
f 9/462/312 242/110/51 248/117/57 10/463/313
f 10/463/313 248/117/57 254/124/63 11/464/314
f 11/464/314 254/124/63 260/131/69 12/465/293
f 12/465/293 260/131/69 266/466/75 13/467/291
f 13/468/291 266/138/75 272/149/81 14/469/292
f 14/469/292 272/149/81 278/157/87 15/470/294
f 15/470/294 278/157/87 284/164/93 16/471/295
f 16/471/295 284/164/93 290/171/99 17/472/296
f 17/472/296 290/171/99 296/178/105 18/473/297
f 18/473/297 296/178/105 302/185/111 19/474/298
f 19/475/298 302/194/111 308/193/117 20/476/299
f 20/476/299 308/193/117 314/203/123 21/477/300
f 21/477/300 314/203/123 320/211/129 22/478/301
f 22/478/301 320/211/129 326/218/135 23/479/302
f 23/479/302 326/218/135 332/225/141 24/453/303
