# Blender 4.5.3 LTS
# www.blender.org
mtllib office_table.mtl
o office_table
v 0.600000 0.850000 -1.000000
v 0.600000 0.850000 1.000000
v -0.600000 0.850000 -1.000000
v -0.600000 0.850000 1.000000
v 0.600000 0.880000 1.000000
v -0.600000 0.880000 1.000000
v 0.600000 0.880000 -1.000000
v -0.600000 0.880000 -1.000000
v 0.537500 0.350000 0.925000
v 0.537500 0.850000 0.925000
v 0.537500 0.350000 -0.925000
v 0.537500 0.850000 -0.925000
v 0.547500 0.350000 0.925000
v 0.547500 0.850000 0.925000
v 0.547500 0.350000 -0.925000
v 0.547500 0.850000 -0.925000
v 0.530000 0.550000 -0.932010
v 0.530000 0.850000 -0.932010
v -0.530000 0.550000 -0.932010
v -0.530000 0.850000 -0.932010
v 0.530000 0.550000 -0.942010
v 0.530000 0.850000 -0.942010
v -0.530000 0.550000 -0.942010
v -0.530000 0.850000 -0.942010
v 0.530000 0.550000 0.942010
v 0.530000 0.850000 0.942010
v -0.530000 0.550000 0.942010
v -0.530000 0.850000 0.942010
v 0.530000 0.550000 0.932010
v 0.530000 0.850000 0.932010
v -0.530000 0.550000 0.932010
v -0.530000 0.850000 0.932010
v -0.542500 0.850000 -0.952010
v -0.535000 0.850000 -0.950000
v -0.529510 0.850000 -0.944510
v -0.527500 0.850000 -0.937010
v -0.529510 0.850000 -0.929510
v -0.535000 0.850000 -0.924019
v -0.542500 0.850000 -0.922010
v -0.550000 0.850000 -0.924019
v -0.555490 0.850000 -0.929510
v -0.557500 0.850000 -0.937010
v -0.555490 0.850000 -0.944510
v -0.550000 0.850000 -0.950000
v -0.542500 0.025500 -0.952010
v -0.535000 0.025500 -0.950000
v -0.529510 0.025500 -0.944510
v -0.527500 0.025500 -0.937010
v -0.529510 0.025500 -0.929510
v -0.535000 0.025500 -0.924019
v -0.542500 0.025500 -0.922010
v -0.550000 0.025500 -0.924019
v -0.555490 0.025500 -0.929510
v -0.557500 0.025500 -0.937010
v -0.555490 0.025500 -0.944510
v -0.550000 0.025500 -0.950000
v -0.542500 -0.000000 -0.955010
v -0.533500 -0.000000 -0.952598
v -0.526912 -0.000000 -0.946010
v -0.524500 -0.000000 -0.937010
v -0.526912 -0.000000 -0.928010
v -0.533500 -0.000000 -0.921421
v -0.542500 -0.000000 -0.919010
v -0.551500 -0.000000 -0.921421
v -0.558088 -0.000000 -0.928010
v -0.560500 -0.000000 -0.937010
v -0.558088 -0.000000 -0.946010
v -0.551500 -0.000000 -0.952598
v -0.542500 0.025500 -0.955010
v -0.533500 0.025500 -0.952598
v -0.526912 0.025500 -0.946010
v -0.524500 0.025500 -0.937010
v -0.526912 0.025500 -0.928010
v -0.533500 0.025500 -0.921421
v -0.542500 0.025500 -0.919010
v -0.551500 0.025500 -0.921421
v -0.558088 0.025500 -0.928010
v -0.560500 0.025500 -0.937010
v -0.558088 0.025500 -0.946010
v -0.551500 0.025500 -0.952598
v 0.542500 0.850000 -0.952009
v 0.535000 0.850000 -0.950000
v 0.529510 0.850000 -0.944510
v 0.527500 0.850000 -0.937010
v 0.529510 0.850000 -0.929510
v 0.535000 0.850000 -0.924019
v 0.542500 0.850000 -0.922009
v 0.550000 0.850000 -0.924019
v 0.555490 0.850000 -0.929510
v 0.557500 0.850000 -0.937010
v 0.555490 0.850000 -0.944510
v 0.550000 0.850000 -0.950000
v 0.542500 0.025500 -0.952009
v 0.535000 0.025500 -0.950000
v 0.529510 0.025500 -0.944510
v 0.527500 0.025500 -0.937010
v 0.529510 0.025500 -0.929510
v 0.535000 0.025500 -0.924019
v 0.542500 0.025500 -0.922009
v 0.550000 0.025500 -0.924019
v 0.555490 0.025500 -0.929510
v 0.557500 0.025500 -0.937010
v 0.555490 0.025500 -0.944510
v 0.550000 0.025500 -0.950000
v 0.542500 -0.000000 -0.955009
v 0.533500 -0.000000 -0.952598
v 0.526911 -0.000000 -0.946010
v 0.524500 -0.000000 -0.937010
v 0.526911 -0.000000 -0.928010
v 0.533500 -0.000000 -0.921421
v 0.542500 -0.000000 -0.919010
v 0.551500 -0.000000 -0.921421
v 0.558088 -0.000000 -0.928010
v 0.560500 -0.000000 -0.937010
v 0.558088 -0.000000 -0.946010
v 0.551500 -0.000000 -0.952598
v 0.542500 0.025500 -0.955009
v 0.533500 0.025500 -0.952598
v 0.526911 0.025500 -0.946010
v 0.524500 0.025500 -0.937010
v 0.526911 0.025500 -0.928010
v 0.533500 0.025500 -0.921421
v 0.542500 0.025500 -0.919010
v 0.551500 0.025500 -0.921421
v 0.558088 0.025500 -0.928010
v 0.560500 0.025500 -0.937010
v 0.558088 0.025500 -0.946010
v 0.551500 0.025500 -0.952598
v -0.542500 0.850000 0.952009
v -0.535000 0.850000 0.950000
v -0.529510 0.850000 0.944510
v -0.527500 0.850000 0.937010
v -0.529510 0.850000 0.929509
v -0.535000 0.850000 0.924019
v -0.542500 0.850000 0.922010
v -0.550000 0.850000 0.924019
v -0.555490 0.850000 0.929509
v -0.557500 0.850000 0.937010
v -0.555490 0.850000 0.944510
v -0.550000 0.850000 0.950000
v -0.542500 0.025500 0.952009
v -0.535000 0.025500 0.950000
v -0.529510 0.025500 0.944510
v -0.527500 0.025500 0.937010
v -0.529510 0.025500 0.929509
v -0.535000 0.025500 0.924019
v -0.542500 0.025500 0.922010
v -0.550000 0.025500 0.924019
v -0.555490 0.025500 0.929509
v -0.557500 0.025500 0.937010
v -0.555490 0.025500 0.944510
v -0.550000 0.025500 0.950000
v -0.542500 -0.000000 0.955010
v -0.533500 -0.000000 0.952598
v -0.526912 -0.000000 0.946009
v -0.524500 -0.000000 0.937010
v -0.526912 -0.000000 0.928010
v -0.533500 -0.000000 0.921421
v -0.542500 -0.000000 0.919010
v -0.551500 -0.000000 0.921421
v -0.558088 -0.000000 0.928010
v -0.560500 -0.000000 0.937010
v -0.558088 -0.000000 0.946009
v -0.551500 -0.000000 0.952598
v -0.542500 0.025500 0.955010
v -0.533500 0.025500 0.952598
v -0.526912 0.025500 0.946009
v -0.524500 0.025500 0.937010
v -0.526912 0.025500 0.928010
v -0.533500 0.025500 0.921421
v -0.542500 0.025500 0.919010
v -0.551500 0.025500 0.921421
v -0.558088 0.025500 0.928010
v -0.560500 0.025500 0.937010
v -0.558088 0.025500 0.946009
v -0.551500 0.025500 0.952598
v 0.542500 0.850000 0.952009
v 0.535000 0.850000 0.950000
v 0.529510 0.850000 0.944510
v 0.527500 0.850000 0.937010
v 0.529510 0.850000 0.929509
v 0.535000 0.850000 0.924019
v 0.542500 0.850000 0.922010
v 0.550000 0.850000 0.924019
v 0.555490 0.850000 0.929509
v 0.557500 0.850000 0.937010
v 0.555490 0.850000 0.944510
v 0.550000 0.850000 0.950000
v 0.542500 0.025500 0.952009
v 0.535000 0.025500 0.950000
v 0.529510 0.025500 0.944510
v 0.527500 0.025500 0.937010
v 0.529510 0.025500 0.929509
v 0.535000 0.025500 0.924019
v 0.542500 0.025500 0.922010
v 0.550000 0.025500 0.924019
v 0.555490 0.025500 0.929509
v 0.557500 0.025500 0.937010
v 0.555490 0.025500 0.944510
v 0.550000 0.025500 0.950000
v 0.542500 -0.000000 0.955010
v 0.533500 -0.000000 0.952598
v 0.526911 -0.000000 0.946009
v 0.524500 -0.000000 0.937010
v 0.526911 -0.000000 0.928010
v 0.533500 -0.000000 0.921421
v 0.542500 -0.000000 0.919010
v 0.551500 -0.000000 0.921421
v 0.558088 -0.000000 0.928010
v 0.560500 -0.000000 0.937010
v 0.558088 -0.000000 0.946009
v 0.551500 -0.000000 0.952598
v 0.542500 0.025500 0.955010
v 0.533500 0.025500 0.952598
v 0.526911 0.025500 0.946009
v 0.524500 0.025500 0.937010
v 0.526911 0.025500 0.928010
v 0.533500 0.025500 0.921421
v 0.542500 0.025500 0.919010
v 0.551500 0.025500 0.921421
v 0.558088 0.025500 0.928010
v 0.560500 0.025500 0.937010
v 0.558088 0.025500 0.946009
v 0.551500 0.025500 0.952598
v -0.500000 0.450000 -0.350000
v -0.500000 0.850000 -0.350000
v -0.500000 0.450000 -0.850000
v -0.500000 0.850000 -0.850000
v 0.200000 0.450000 -0.350000
v 0.200000 0.850000 -0.350000
v 0.200000 0.450000 -0.850000
v 0.200000 0.850000 -0.850000
v -0.500000 0.650000 -0.350000
v -0.500000 0.650000 -0.850000
v 0.200000 0.650000 -0.850000
v 0.200000 0.650000 -0.350000
v -0.500000 0.666000 -0.370000
v -0.500000 0.834000 -0.370000
v -0.500000 0.834000 -0.830000
v -0.500000 0.666000 -0.830000
v -0.500000 0.466000 -0.370000
v -0.500000 0.634000 -0.370000
v -0.500000 0.634000 -0.830000
v -0.500000 0.466000 -0.830000
v 0.050000 0.466000 -0.370000
v 0.050000 0.634000 -0.370000
v 0.050000 0.466000 -0.830000
v 0.050000 0.634000 -0.830000
v 0.050000 0.666000 -0.370000
v 0.050000 0.834000 -0.370000
v 0.050000 0.666000 -0.830000
v 0.050000 0.834000 -0.830000
vn -0.0000 -0.0000 -1.0000
vn -0.0000 -0.0000 1.0000
vn 1.0000 -0.0000 -0.0000
vn -1.0000 -0.0000 -0.0000
vn -0.0000 1.0000 -0.0000
vn -0.0000 -1.0000 -0.0000
vn 0.5196 -0.0000 -0.8544
vn 0.8829 -0.0000 -0.4695
vn 0.8829 -0.0000 0.4695
vn 0.5196 -0.0000 0.8544
vn -0.5196 -0.0000 0.8544
vn -0.8829 -0.0000 0.4695
vn -0.8829 -0.0000 -0.4695
vn -0.5196 -0.0000 -0.8544
vn -0.5197 -0.0000 0.8544
vn -0.5197 -0.0000 -0.8544
vn 0.5197 -0.0000 -0.8544
vn 0.5197 -0.0000 0.8544
vt 0.517934 0.001358
vt 0.517934 0.498642
vt 0.501358 0.498642
vt 0.501358 0.001358
vt 0.537226 0.001358
vt 0.537226 0.498642
vt 0.520649 0.498642
vt 0.520649 0.001358
vt 0.556517 0.001358
vt 0.556517 0.498642
vt 0.539941 0.498642
vt 0.539941 0.001358
vt 0.575809 0.001358
vt 0.575809 0.498642
vt 0.559233 0.498642
vt 0.559233 0.001358
vt 0.498642 0.498642
vt 0.001358 0.498642
vt 0.001358 0.001358
vt 0.498642 0.001358
vt 0.001358 0.501358
vt 0.498642 0.501358
vt 0.498642 0.998642
vt 0.001358 0.998642
vt 0.232526 0.383868
vt 0.004945 0.383868
vt 0.004945 0.004945
vt 0.232526 0.004945
vt 0.444262 0.621339
vt 0.444262 0.393758
vt 0.447676 0.393758
vt 0.447676 0.621339
vt 0.469998 0.383868
vt 0.242417 0.383868
vt 0.242417 0.004945
vt 0.469998 0.004945
vt 0.457566 0.621339
vt 0.457566 0.393758
vt 0.460979 0.393758
vt 0.460979 0.621339
vt 0.483302 0.383868
vt 0.479888 0.383868
vt 0.479888 0.004945
vt 0.483302 0.004945
vt 0.496605 0.383868
vt 0.493192 0.383868
vt 0.493192 0.004945
vt 0.496605 0.004945
vt 0.643044 0.751971
vt 0.506496 0.751971
vt 0.506496 0.390117
vt 0.643044 0.390117
vt 0.470870 0.530307
vt 0.470870 0.393758
vt 0.472918 0.393758
vt 0.472918 0.530307
vt 0.141494 0.755612
vt 0.004945 0.755612
vt 0.004945 0.393758
vt 0.141494 0.393758
vt 0.482808 0.530307
vt 0.482808 0.393758
vt 0.484856 0.393758
vt 0.484856 0.530307
vt 0.652934 0.390117
vt 0.654983 0.390117
vt 0.654983 0.751971
vt 0.652934 0.751971
vt 0.666921 0.751971
vt 0.664873 0.751971
vt 0.664873 0.390117
vt 0.666921 0.390117
vt 0.287933 0.755612
vt 0.151384 0.755612
vt 0.151384 0.393758
vt 0.287933 0.393758
vt 0.470870 0.676746
vt 0.470870 0.540197
vt 0.472918 0.540197
vt 0.472918 0.676746
vt 0.434372 0.755612
vt 0.297823 0.755612
vt 0.297823 0.393758
vt 0.434372 0.393758
vt 0.482808 0.676746
vt 0.482808 0.540197
vt 0.484856 0.540197
vt 0.484856 0.676746
vt 0.676811 0.390117
vt 0.678860 0.390117
vt 0.678860 0.751971
vt 0.676811 0.751971
vt 0.690798 0.751971
vt 0.688750 0.751971
vt 0.688750 0.390117
vt 0.690798 0.390117
vt 0.623486 0.380227
vt 0.623486 0.004945
vt 0.626046 0.004945
vt 0.626046 0.380227
vt 0.627920 0.004945
vt 0.627920 0.380227
vt 0.734345 0.380227
vt 0.734345 0.004945
vt 0.735881 0.004945
vt 0.735881 0.380227
vt 0.737417 0.004945
vt 0.737417 0.380227
vt 0.637810 0.380227
vt 0.637810 0.004945
vt 0.639685 0.004945
vt 0.639685 0.380227
vt 0.642245 0.004945
vt 0.642245 0.380227
vt 0.644805 0.004945
vt 0.644805 0.380227
vt 0.646679 0.004945
vt 0.646679 0.380227
vt 0.747307 0.380227
vt 0.747307 0.004945
vt 0.748843 0.004945
vt 0.748843 0.380227
vt 0.750379 0.004945
vt 0.750379 0.380227
vt 0.877325 0.365910
vt 0.876512 0.363448
vt 0.876512 0.360855
vt 0.877325 0.358826
vt 0.878732 0.357904
vt 0.880358 0.358338
vt 0.881766 0.360010
vt 0.882579 0.362472
vt 0.882579 0.365066
vt 0.881766 0.367095
vt 0.880358 0.368016
vt 0.878732 0.367582
vt 0.619051 0.380227
vt 0.619051 0.004945
vt 0.620925 0.004945
vt 0.620925 0.380227
vt 0.450123 0.633162
vt 0.448715 0.632241
vt 0.448877 0.631229
vt 0.450567 0.632335
vt 0.447089 0.642352
vt 0.448715 0.641918
vt 0.448877 0.642843
vt 0.446927 0.643363
vt 0.444868 0.636809
vt 0.444868 0.639402
vt 0.444262 0.639823
vt 0.444262 0.636711
vt 0.447089 0.632674
vt 0.446927 0.631750
vt 0.450122 0.640246
vt 0.450567 0.640836
vt 0.450935 0.637784
vt 0.450935 0.635191
vt 0.451542 0.634770
vt 0.451542 0.637881
vt 0.445681 0.641431
vt 0.445237 0.642258
vt 0.445681 0.634346
vt 0.445237 0.633756
vt 0.470870 0.693288
vt 0.470870 0.690176
vt 0.471845 0.687741
vt 0.473534 0.686636
vt 0.475485 0.687156
vt 0.477174 0.689162
vt 0.478150 0.692117
vt 0.478150 0.695229
vt 0.477174 0.697664
vt 0.475485 0.698769
vt 0.473534 0.698249
vt 0.471845 0.696243
vt 0.783052 0.369511
vt 0.783052 0.357904
vt 0.786124 0.357904
vt 0.786124 0.369511
vt 0.780803 0.369511
vt 0.780803 0.357904
vt 0.493477 0.785283
vt 0.493477 0.773677
vt 0.495320 0.773677
vt 0.495320 0.785283
vt 0.491633 0.785283
vt 0.491633 0.773677
vt 0.809730 0.369511
vt 0.809730 0.357904
vt 0.811979 0.357904
vt 0.811979 0.369511
vt 0.806657 0.369511
vt 0.806657 0.357904
vt 0.803585 0.369511
vt 0.803585 0.357904
vt 0.801336 0.369511
vt 0.801336 0.357904
vt 0.493477 0.806780
vt 0.493477 0.795174
vt 0.495320 0.795174
vt 0.495320 0.806780
vt 0.491633 0.806780
vt 0.491633 0.795174
vt 0.789196 0.369511
vt 0.789196 0.357904
vt 0.791446 0.357904
vt 0.791446 0.369511
vt 0.510930 0.380227
vt 0.508370 0.380227
vt 0.508370 0.004945
vt 0.510930 0.004945
vt 0.506496 0.380227
vt 0.506496 0.004945
vt 0.711492 0.380227
vt 0.709956 0.380227
vt 0.709956 0.004945
vt 0.711492 0.004945
vt 0.708420 0.380227
vt 0.708420 0.004945
vt 0.534124 0.380227
vt 0.532250 0.380227
vt 0.532250 0.004945
vt 0.534124 0.004945
vt 0.529689 0.380227
vt 0.529689 0.004945
vt 0.527129 0.380227
vt 0.527129 0.004945
vt 0.525255 0.380227
vt 0.525255 0.004945
vt 0.724454 0.380227
vt 0.722918 0.380227
vt 0.722918 0.004945
vt 0.724454 0.004945
vt 0.721382 0.380227
vt 0.721382 0.004945
vt 0.721899 0.895824
vt 0.720491 0.897496
vt 0.718866 0.897929
vt 0.717458 0.897008
vt 0.716645 0.894979
vt 0.716645 0.892386
vt 0.717458 0.889923
vt 0.718866 0.888251
vt 0.720491 0.887818
vt 0.721899 0.888739
vt 0.722712 0.890768
vt 0.722712 0.893361
vt 0.515365 0.380227
vt 0.513490 0.380227
vt 0.513490 0.004945
vt 0.515365 0.004945
vt 0.475322 0.719348
vt 0.475485 0.720273
vt 0.473534 0.720793
vt 0.473697 0.719782
vt 0.475322 0.709671
vt 0.475485 0.708660
vt 0.477174 0.709765
vt 0.476730 0.710592
vt 0.471476 0.714239
vt 0.470870 0.714141
vt 0.471845 0.711186
vt 0.472289 0.711776
vt 0.471845 0.719688
vt 0.472289 0.718861
vt 0.478150 0.712200
vt 0.477543 0.712621
vt 0.477543 0.715214
vt 0.478150 0.715312
vt 0.477174 0.718267
vt 0.476730 0.717677
vt 0.473534 0.709180
vt 0.473697 0.710104
vt 0.470870 0.717253
vt 0.471476 0.716832
vt 0.488040 0.715312
vt 0.488040 0.712200
vt 0.489015 0.709765
vt 0.490705 0.708660
vt 0.492655 0.709180
vt 0.494345 0.711186
vt 0.495320 0.714141
vt 0.495320 0.717253
vt 0.494345 0.719688
vt 0.492655 0.720793
vt 0.490705 0.720273
vt 0.489015 0.718267
vt 0.452656 0.730931
vt 0.449583 0.730931
vt 0.449583 0.719324
vt 0.452656 0.719324
vt 0.454905 0.730931
vt 0.454905 0.719324
vt 0.493477 0.742290
vt 0.491633 0.742290
vt 0.491633 0.730683
vt 0.493477 0.730683
vt 0.495320 0.742290
vt 0.495320 0.730683
vt 0.473119 0.742290
vt 0.470870 0.742290
vt 0.470870 0.730683
vt 0.473119 0.730683
vt 0.476191 0.742290
vt 0.476191 0.730683
vt 0.479263 0.742290
vt 0.479263 0.730683
vt 0.481512 0.742290
vt 0.481512 0.730683
vt 0.493477 0.763787
vt 0.491633 0.763787
vt 0.491633 0.752180
vt 0.493477 0.752180
vt 0.495320 0.763787
vt 0.495320 0.752180
vt 0.446511 0.730931
vt 0.444262 0.730931
vt 0.444262 0.719324
vt 0.446511 0.719324
vt 0.585967 0.380227
vt 0.583407 0.380227
vt 0.583407 0.004945
vt 0.585967 0.004945
vt 0.581533 0.380227
vt 0.581533 0.004945
vt 0.659642 0.380227
vt 0.658106 0.380227
vt 0.658106 0.004945
vt 0.659642 0.004945
vt 0.656570 0.380227
vt 0.656570 0.004945
vt 0.609161 0.380227
vt 0.607287 0.380227
vt 0.607287 0.004945
vt 0.609161 0.004945
vt 0.604726 0.380227
vt 0.604726 0.004945
vt 0.602166 0.380227
vt 0.602166 0.004945
vt 0.600292 0.380227
vt 0.600292 0.004945
vt 0.672604 0.380227
vt 0.671068 0.380227
vt 0.671068 0.004945
vt 0.672604 0.004945
vt 0.669532 0.380227
vt 0.669532 0.004945
vt 0.701501 0.889923
vt 0.702909 0.888251
vt 0.704534 0.887818
vt 0.705942 0.888739
vt 0.706755 0.890768
vt 0.706755 0.893361
vt 0.705942 0.895824
vt 0.704534 0.897496
vt 0.702909 0.897929
vt 0.701501 0.897008
vt 0.700688 0.894979
vt 0.700688 0.892386
vt 0.590402 0.380227
vt 0.588527 0.380227
vt 0.588527 0.004945
vt 0.590402 0.004945
vt 0.447089 0.654698
vt 0.446927 0.653773
vt 0.448877 0.653253
vt 0.448715 0.654264
vt 0.447089 0.664376
vt 0.446927 0.665387
vt 0.445237 0.664281
vt 0.445681 0.663454
vt 0.450935 0.659808
vt 0.451542 0.659905
vt 0.450567 0.662860
vt 0.450122 0.662270
vt 0.450567 0.654359
vt 0.450123 0.655185
vt 0.444262 0.661847
vt 0.444868 0.661425
vt 0.444869 0.658832
vt 0.444262 0.658735
vt 0.445237 0.655780
vt 0.445681 0.656370
vt 0.448877 0.664867
vt 0.448715 0.663942
vt 0.451542 0.656793
vt 0.450935 0.657214
vt 0.444262 0.680758
vt 0.445237 0.677803
vt 0.446927 0.675797
vt 0.448877 0.675277
vt 0.450567 0.676382
vt 0.451542 0.678817
vt 0.451542 0.681929
vt 0.450567 0.684884
vt 0.448877 0.686890
vt 0.446927 0.687410
vt 0.445237 0.686305
vt 0.444262 0.683870
vt 0.830263 0.369511
vt 0.827190 0.369511
vt 0.827190 0.357904
vt 0.830263 0.357904
vt 0.832512 0.369511
vt 0.832512 0.357904
vt 0.493477 0.828277
vt 0.491633 0.828277
vt 0.491633 0.816670
vt 0.493477 0.816670
vt 0.495320 0.828277
vt 0.495320 0.816670
vt 0.844651 0.369511
vt 0.842402 0.369511
vt 0.842402 0.357904
vt 0.844651 0.357904
vt 0.847723 0.369511
vt 0.847723 0.357904
vt 0.850796 0.369511
vt 0.850796 0.357904
vt 0.853045 0.369511
vt 0.853045 0.357904
vt 0.493477 0.849774
vt 0.491633 0.849774
vt 0.491633 0.838167
vt 0.493477 0.838167
vt 0.495320 0.849774
vt 0.495320 0.838167
vt 0.824118 0.369511
vt 0.821869 0.369511
vt 0.821869 0.357904
vt 0.824118 0.357904
vt 0.548449 0.380227
vt 0.548449 0.004945
vt 0.551009 0.004945
vt 0.551009 0.380227
vt 0.552883 0.004945
vt 0.552883 0.380227
vt 0.682495 0.380227
vt 0.682495 0.004945
vt 0.684031 0.004945
vt 0.684031 0.380227
vt 0.685567 0.004945
vt 0.685567 0.380227
vt 0.562773 0.380227
vt 0.562773 0.004945
vt 0.564648 0.004945
vt 0.564648 0.380227
vt 0.567208 0.004945
vt 0.567208 0.380227
vt 0.569768 0.004945
vt 0.569768 0.380227
vt 0.571642 0.004945
vt 0.571642 0.380227
vt 0.695457 0.380227
vt 0.695457 0.004945
vt 0.696993 0.004945
vt 0.696993 0.380227
vt 0.698529 0.004945
vt 0.698529 0.380227
vt 0.737856 0.889923
vt 0.738669 0.892386
vt 0.738669 0.894979
vt 0.737856 0.897008
vt 0.736448 0.897929
vt 0.734823 0.897496
vt 0.733415 0.895824
vt 0.732602 0.893361
vt 0.732602 0.890768
vt 0.733415 0.888739
vt 0.734823 0.887818
vt 0.736448 0.888251
vt 0.544014 0.380227
vt 0.544014 0.004945
vt 0.545888 0.004945
vt 0.545888 0.380227
vt 0.489459 0.696837
vt 0.490867 0.697758
vt 0.490705 0.698769
vt 0.489015 0.697664
vt 0.492493 0.687647
vt 0.490867 0.688080
vt 0.490705 0.687156
vt 0.492655 0.686636
vt 0.494713 0.693190
vt 0.494713 0.690597
vt 0.495320 0.690176
vt 0.495320 0.693288
vt 0.492493 0.697325
vt 0.492655 0.698249
vt 0.489459 0.689752
vt 0.489015 0.689162
vt 0.488647 0.692215
vt 0.488647 0.694808
vt 0.488040 0.695229
vt 0.488040 0.692117
vt 0.493901 0.688568
vt 0.494345 0.687741
vt 0.493901 0.695653
vt 0.494345 0.696243
vt 0.451542 0.702782
vt 0.451542 0.705894
vt 0.450567 0.708329
vt 0.448877 0.709434
vt 0.446927 0.708914
vt 0.445237 0.706908
vt 0.444262 0.703953
vt 0.444262 0.700841
vt 0.445237 0.698406
vt 0.446927 0.697301
vt 0.448877 0.697821
vt 0.450567 0.699827
vt 0.446511 0.752428
vt 0.446511 0.740821
vt 0.449583 0.740821
vt 0.449583 0.752428
vt 0.444262 0.752428
vt 0.444262 0.740821
vt 0.864778 0.369511
vt 0.864778 0.357904
vt 0.866622 0.357904
vt 0.866622 0.369511
vt 0.862935 0.369511
vt 0.862935 0.357904
vt 0.768663 0.369511
vt 0.768663 0.357904
vt 0.770913 0.357904
vt 0.770913 0.369511
vt 0.765591 0.369511
vt 0.765591 0.357904
vt 0.762519 0.369511
vt 0.762519 0.357904
vt 0.760270 0.369511
vt 0.760270 0.357904
vt 0.493477 0.871271
vt 0.493477 0.859664
vt 0.495320 0.859664
vt 0.495320 0.871271
vt 0.491633 0.871271
vt 0.491633 0.859664
vt 0.452656 0.752428
vt 0.452656 0.740821
vt 0.454905 0.740821
vt 0.454905 0.752428
vt 0.109054 0.765502
vt 0.203273 0.765502
vt 0.203273 0.953257
vt 0.109054 0.953257
vt 0.791721 0.629077
vt 0.700688 0.629077
vt 0.700688 0.390117
vt 0.791721 0.390117
vt 0.892643 0.678794
vt 0.892643 0.587762
vt 0.995055 0.587762
vt 0.995055 0.678794
vt 0.791721 0.877928
vt 0.700688 0.877928
vt 0.700688 0.638967
vt 0.791721 0.638967
vt 0.862681 0.004945
vt 0.862681 0.243905
vt 0.760270 0.243905
vt 0.760270 0.004945
vt 0.974983 0.004945
vt 0.974983 0.243905
vt 0.872571 0.243905
vt 0.872571 0.004945
vt 0.882753 0.877928
vt 0.882753 0.638967
vt 0.892643 0.769827
vt 0.995055 0.769827
vt 0.882753 0.629077
vt 0.882753 0.390117
vt 0.600714 0.949616
vt 0.506496 0.949616
vt 0.506496 0.761861
vt 0.600714 0.761861
vt 0.892643 0.870749
vt 0.892643 0.779717
vt 0.896740 0.786999
vt 0.896740 0.863467
vt 0.995055 0.779717
vt 0.990958 0.786999
vt 0.995055 0.870749
vt 0.990958 0.863467
vt 0.892643 0.961782
vt 0.896740 0.878032
vt 0.896740 0.954499
vt 0.990958 0.878032
vt 0.995055 0.961782
vt 0.990958 0.954499
vt 0.836737 0.348014
vt 0.760270 0.348014
vt 0.760270 0.253796
vt 0.836737 0.253796
vt 0.687072 0.949616
vt 0.610604 0.949616
vt 0.610604 0.761861
vt 0.687072 0.761861
vt 0.213163 0.765502
vt 0.307381 0.765502
vt 0.307381 0.953257
vt 0.213163 0.953257
vt 0.403629 0.765502
vt 0.480096 0.765502
vt 0.480096 0.953257
vt 0.403629 0.953257
vt 0.969111 0.577871
vt 0.892643 0.577871
vt 0.892643 0.390117
vt 0.969111 0.390117
vt 0.099164 0.953257
vt 0.004945 0.953257
vt 0.004945 0.765502
vt 0.099164 0.765502
vt 0.317271 0.765502
vt 0.393739 0.765502
vt 0.393739 0.953257
vt 0.317271 0.953257
vt 0.923094 0.348014
vt 0.846627 0.348014
vt 0.846627 0.253796
vt 0.923094 0.253796
s 0
usemtl wood
f 1/1/1 3/2/1 8/3/1 7/4/1
f 4/5/2 2/6/2 5/7/2 6/8/2
f 2/9/3 1/10/3 7/11/3 5/12/3
f 3/13/4 4/14/4 6/15/4 8/16/4
f 8/17/5 6/18/5 5/19/5 7/20/5
f 4/21/6 3/22/6 1/23/6 2/24/6
usemtl black_plastic
f 9/25/4 10/26/4 12/27/4 11/28/4
f 11/29/1 12/30/1 16/31/1 15/32/1
f 15/33/3 16/34/3 14/35/3 13/36/3
f 13/37/2 14/38/2 10/39/2 9/40/2
f 11/41/6 15/42/6 13/43/6 9/44/6
f 16/45/5 12/46/5 10/47/5 14/48/5
f 17/49/2 18/50/2 20/51/2 19/52/2
f 19/53/4 20/54/4 24/55/4 23/56/4
f 23/57/1 24/58/1 22/59/1 21/60/1
f 21/61/3 22/62/3 18/63/3 17/64/3
f 19/65/6 23/66/6 21/67/6 17/68/6
f 24/69/5 20/70/5 18/71/5 22/72/5
f 25/73/2 26/74/2 28/75/2 27/76/2
f 27/77/4 28/78/4 32/79/4 31/80/4
f 31/81/1 32/82/1 30/83/1 29/84/1
f 29/85/3 30/86/3 26/87/3 25/88/3
f 27/89/6 31/90/6 29/91/6 25/92/6
f 32/93/5 28/94/5 26/95/5 30/96/5
s 1
f 45/97/1 33/98/1 34/99/7 46/100/7
f 46/100/7 34/99/7 35/101/8 47/102/8
f 47/103/8 35/104/8 36/105/3 48/106/3
f 48/106/3 36/105/3 37/107/9 49/108/9
f 49/109/9 37/110/9 38/111/10 50/112/10
f 50/112/10 38/111/10 39/113/2 51/114/2
f 51/114/2 39/113/2 40/115/11 52/116/11
f 52/116/11 40/115/11 41/117/12 53/118/12
f 53/119/12 41/120/12 42/121/4 54/122/4
f 54/122/4 42/121/4 43/123/13 55/124/13
f 34/125/5 33/126/5 44/127/5 43/128/5 42/129/5 41/130/5 40/131/5 39/132/5 38/133/5 37/134/5 36/135/5 35/136/5
f 55/137/13 43/138/13 44/139/14 56/140/14
f 56/140/14 44/139/14 33/98/1 45/97/1
f 47/141/5 48/142/5 72/143/5 71/144/5
f 54/145/5 55/146/5 79/147/5 78/148/5
f 51/149/5 52/150/5 76/151/5 75/152/5
f 48/142/5 49/153/5 73/154/5 72/143/5
f 55/146/5 56/155/5 80/156/5 79/147/5
f 45/157/5 46/158/5 70/159/5 69/160/5
f 52/150/5 53/161/5 77/162/5 76/151/5
f 49/153/5 50/163/5 74/164/5 73/154/5
f 56/155/5 45/157/5 69/160/5 80/156/5
f 46/158/5 47/141/5 71/144/5 70/159/5
f 53/161/5 54/145/5 78/148/5 77/162/5
f 50/163/5 51/149/5 75/152/5 74/164/5
f 57/165/6 58/166/6 59/167/6 60/168/6 61/169/6 62/170/6 63/171/6 64/172/6 65/173/6 66/174/6 67/175/6 68/176/6
f 68/177/14 80/178/14 69/179/1 57/180/1
f 67/181/13 79/182/13 80/178/14 68/177/14
f 66/183/4 78/184/4 79/185/13 67/186/13
f 65/187/12 77/188/12 78/184/4 66/183/4
f 64/189/11 76/190/11 77/191/12 65/192/12
f 63/193/2 75/194/2 76/190/11 64/189/11
f 62/195/10 74/196/10 75/194/2 63/193/2
f 61/197/9 73/198/9 74/196/10 62/195/10
f 60/199/3 72/200/3 73/201/9 61/202/9
f 59/203/8 71/204/8 72/200/3 60/199/3
f 58/205/7 70/206/7 71/207/8 59/208/8
f 57/180/1 69/179/1 70/206/7 58/205/7
f 93/209/1 94/210/14 82/211/14 81/212/1
f 94/210/14 95/213/13 83/214/13 82/211/14
f 95/215/13 96/216/4 84/217/4 83/218/13
f 96/216/4 97/219/12 85/220/12 84/217/4
f 97/221/12 98/222/15 86/223/15 85/224/12
f 98/222/15 99/225/2 87/226/2 86/223/15
f 99/225/2 100/227/10 88/228/10 87/226/2
f 100/227/10 101/229/9 89/230/9 88/228/10
f 101/231/9 102/232/3 90/233/3 89/234/9
f 102/232/3 103/235/8 91/236/8 90/233/3
f 82/237/5 83/238/5 84/239/5 85/240/5 86/241/5 87/242/5 88/243/5 89/244/5 90/245/5 91/246/5 92/247/5 81/248/5
f 103/249/8 104/250/7 92/251/7 91/252/8
f 104/250/7 93/209/1 81/212/1 92/251/7
f 95/253/5 119/254/5 120/255/5 96/256/5
f 102/257/5 126/258/5 127/259/5 103/260/5
f 99/261/5 123/262/5 124/263/5 100/264/5
f 96/256/5 120/255/5 121/265/5 97/266/5
f 103/260/5 127/259/5 128/267/5 104/268/5
f 93/269/5 117/270/5 118/271/5 94/272/5
f 100/264/5 124/263/5 125/273/5 101/274/5
f 97/266/5 121/265/5 122/275/5 98/276/5
f 104/268/5 128/267/5 117/270/5 93/269/5
f 94/272/5 118/271/5 119/254/5 95/253/5
f 101/274/5 125/273/5 126/258/5 102/257/5
f 98/276/5 122/275/5 123/262/5 99/261/5
f 105/277/6 116/278/6 115/279/6 114/280/6 113/281/6 112/282/6 111/283/6 110/284/6 109/285/6 108/286/6 107/287/6 106/288/6
f 116/289/7 105/290/1 117/291/1 128/292/7
f 115/293/8 116/289/7 128/292/7 127/294/8
f 114/295/3 115/296/8 127/297/8 126/298/3
f 113/299/9 114/295/3 126/298/3 125/300/9
f 112/301/10 113/302/9 125/303/9 124/304/10
f 111/305/2 112/301/10 124/304/10 123/306/2
f 110/307/11 111/305/2 123/306/2 122/308/11
f 109/309/12 110/307/11 122/308/11 121/310/12
f 108/311/4 109/312/12 121/313/12 120/314/4
f 107/315/13 108/311/4 120/314/4 119/316/13
f 106/317/14 107/318/13 119/319/13 118/320/14
f 105/290/1 106/317/14 118/320/14 117/291/1
f 141/321/2 142/322/10 130/323/10 129/324/2
f 142/322/10 143/325/9 131/326/9 130/323/10
f 143/327/9 144/328/3 132/329/3 131/330/9
f 144/328/3 145/331/8 133/332/8 132/329/3
f 145/333/8 146/334/7 134/335/7 133/336/8
f 146/334/7 147/337/1 135/338/1 134/335/7
f 147/337/1 148/339/14 136/340/14 135/338/1
f 148/339/14 149/341/13 137/342/13 136/340/14
f 149/343/13 150/344/4 138/345/4 137/346/13
f 150/344/4 151/347/12 139/348/12 138/345/4
f 130/349/5 131/350/5 132/351/5 133/352/5 134/353/5 135/354/5 136/355/5 137/356/5 138/357/5 139/358/5 140/359/5 129/360/5
f 151/361/12 152/362/11 140/363/11 139/364/12
f 152/362/11 141/321/2 129/324/2 140/363/11
f 143/365/5 167/366/5 168/367/5 144/368/5
f 150/369/5 174/370/5 175/371/5 151/372/5
f 147/373/5 171/374/5 172/375/5 148/376/5
f 144/368/5 168/367/5 169/377/5 145/378/5
f 151/372/5 175/371/5 176/379/5 152/380/5
f 141/381/5 165/382/5 166/383/5 142/384/5
f 148/376/5 172/375/5 173/385/5 149/386/5
f 145/378/5 169/377/5 170/387/5 146/388/5
f 152/380/5 176/379/5 165/382/5 141/381/5
f 142/384/5 166/383/5 167/366/5 143/365/5
f 149/386/5 173/385/5 174/370/5 150/369/5
f 146/388/5 170/387/5 171/374/5 147/373/5
f 153/389/6 164/390/6 163/391/6 162/392/6 161/393/6 160/394/6 159/395/6 158/396/6 157/397/6 156/398/6 155/399/6 154/400/6
f 164/401/15 153/402/2 165/403/2 176/404/15
f 163/405/12 164/401/15 176/404/15 175/406/12
f 162/407/4 163/408/12 175/409/12 174/410/4
f 161/411/13 162/407/4 174/410/4 173/412/13
f 160/413/16 161/414/13 173/415/13 172/416/16
f 159/417/1 160/413/16 172/416/16 171/418/1
f 158/419/17 159/417/1 171/418/1 170/420/17
f 157/421/8 158/419/17 170/420/17 169/422/8
f 156/423/3 157/424/8 169/425/8 168/426/3
f 155/427/9 156/423/3 168/426/3 167/428/9
f 154/429/18 155/430/9 167/431/9 166/432/18
f 153/402/2 154/429/18 166/432/18 165/403/2
f 189/433/2 177/434/2 178/435/11 190/436/11
f 190/436/11 178/435/11 179/437/12 191/438/12
f 191/439/12 179/440/12 180/441/4 192/442/4
f 192/442/4 180/441/4 181/443/13 193/444/13
f 193/445/13 181/446/13 182/447/14 194/448/14
f 194/448/14 182/447/14 183/449/1 195/450/1
f 195/450/1 183/449/1 184/451/7 196/452/7
f 196/452/7 184/451/7 185/453/8 197/454/8
f 197/455/8 185/456/8 186/457/3 198/458/3
f 198/458/3 186/457/3 187/459/9 199/460/9
f 178/461/5 177/462/5 188/463/5 187/464/5 186/465/5 185/466/5 184/467/5 183/468/5 182/469/5 181/470/5 180/471/5 179/472/5
f 199/473/9 187/474/9 188/475/10 200/476/10
f 200/476/10 188/475/10 177/434/2 189/433/2
f 191/477/5 192/478/5 216/479/5 215/480/5
f 198/481/5 199/482/5 223/483/5 222/484/5
f 195/485/5 196/486/5 220/487/5 219/488/5
f 192/478/5 193/489/5 217/490/5 216/479/5
f 199/482/5 200/491/5 224/492/5 223/483/5
f 189/493/5 190/494/5 214/495/5 213/496/5
f 196/486/5 197/497/5 221/498/5 220/487/5
f 193/489/5 194/499/5 218/500/5 217/490/5
f 200/491/5 189/493/5 213/496/5 224/492/5
f 190/494/5 191/477/5 215/480/5 214/495/5
f 197/497/5 198/481/5 222/484/5 221/498/5
f 194/499/5 195/485/5 219/488/5 218/500/5
f 201/501/6 202/502/6 203/503/6 204/504/6 205/505/6 206/506/6 207/507/6 208/508/6 209/509/6 210/510/6 211/511/6 212/512/6
f 212/513/18 224/514/18 213/515/2 201/516/2
f 211/517/9 223/518/9 224/514/18 212/513/18
f 210/519/3 222/520/3 223/521/9 211/522/9
f 209/523/8 221/524/8 222/520/3 210/519/3
f 208/525/7 220/526/7 221/527/8 209/528/8
f 207/529/1 219/530/1 220/526/7 208/525/7
f 206/531/14 218/532/14 219/530/1 207/529/1
f 205/533/13 217/534/13 218/532/14 206/531/14
f 204/535/4 216/536/4 217/537/13 205/538/13
f 203/539/12 215/540/12 216/536/4 204/535/4
f 202/541/15 214/542/15 215/543/12 203/544/12
f 201/516/2 213/515/2 214/542/15 202/541/15
s 0
f 242/545/6 243/546/6 248/547/6 246/548/6
f 234/549/1 228/550/1 232/551/1 235/552/1
f 235/553/3 232/554/3 230/555/3 236/556/3
f 236/557/2 230/558/2 226/559/2 233/560/2
f 227/561/6 231/562/6 229/563/6 225/564/6
f 232/565/5 228/566/5 226/567/5 230/568/5
f 229/569/2 236/557/2 233/560/2 225/570/2
f 231/571/3 235/553/3 236/556/3 229/572/3
f 227/573/1 234/549/1 235/552/1 231/574/1
f 240/575/5 237/576/5 249/577/5 251/578/5
f 233/579/4 226/580/4 238/581/4 237/582/4
f 226/580/4 228/583/4 239/584/4 238/581/4
f 228/583/4 234/585/4 240/586/4 239/584/4
f 234/585/4 233/579/4 237/582/4 240/586/4
f 225/587/4 233/579/4 242/588/4 241/589/4
f 233/579/4 234/585/4 243/590/4 242/588/4
f 234/585/4 227/591/4 244/592/4 243/590/4
f 227/591/4 225/587/4 241/589/4 244/592/4
f 245/593/4 246/594/4 248/595/4 247/596/4
f 241/597/1 242/598/1 246/599/1 245/600/1
f 238/601/6 239/602/6 252/603/6 250/604/6
f 243/605/2 244/606/2 247/607/2 248/608/2
f 237/609/1 238/610/1 250/611/1 249/612/1
f 244/613/5 241/614/5 245/615/5 247/616/5
f 239/617/2 240/618/2 251/619/2 252/620/2
f 249/621/4 250/622/4 252/623/4 251/624/4
o latch_2
v 0.050000 0.467000 -0.371250
v 0.038000 0.633000 -0.378750
v 0.050000 0.467000 -0.828750
v 0.038000 0.633000 -0.821250
v -0.500000 0.467000 -0.371250
v -0.488000 0.633000 -0.378750
v -0.500000 0.467000 -0.828750
v -0.488000 0.633000 -0.821250
v 0.050000 0.633000 -0.371250
v 0.050000 0.633000 -0.828750
v -0.500000 0.633000 -0.371250
v -0.500000 0.633000 -0.828750
v 0.038000 0.483000 -0.378750
v 0.038000 0.483000 -0.821250
v -0.488000 0.483000 -0.378750
v -0.488000 0.483000 -0.821250
v -0.520265 0.543000 -0.558000
v -0.520265 0.557000 -0.558000
v -0.506265 0.543000 -0.558000
v -0.506265 0.557000 -0.558000
v -0.519757 0.543000 -0.553491
v -0.519757 0.557000 -0.553491
v -0.506108 0.543000 -0.556606
v -0.506108 0.557000 -0.556606
v -0.518258 0.543000 -0.549207
v -0.518258 0.557000 -0.549207
v -0.505645 0.543000 -0.555282
v -0.505645 0.557000 -0.555282
v -0.515844 0.543000 -0.545365
v -0.515844 0.557000 -0.545365
v -0.504898 0.543000 -0.554094
v -0.504898 0.557000 -0.554094
v -0.512635 0.543000 -0.542156
v -0.512635 0.557000 -0.542156
v -0.503906 0.543000 -0.553102
v -0.503906 0.557000 -0.553102
v -0.508793 0.543000 -0.539742
v -0.508793 0.557000 -0.539742
v -0.502718 0.543000 -0.552355
v -0.502718 0.557000 -0.552355
v -0.504509 0.543000 -0.538243
v -0.504509 0.557000 -0.538243
v -0.501394 0.543000 -0.551892
v -0.501394 0.557000 -0.551892
v -0.500000 0.543000 -0.537735
v -0.500000 0.557000 -0.537735
v -0.500000 0.543000 -0.551735
v -0.500000 0.557000 -0.551735
v -0.520265 0.543000 -0.642000
v -0.520265 0.557000 -0.642000
v -0.506265 0.543000 -0.642000
v -0.506265 0.557000 -0.642000
v -0.519757 0.543000 -0.646509
v -0.519757 0.557000 -0.646509
v -0.506108 0.543000 -0.643394
v -0.506108 0.557000 -0.643394
v -0.518258 0.543000 -0.650793
v -0.518258 0.557000 -0.650793
v -0.505645 0.543000 -0.644718
v -0.505645 0.557000 -0.644718
v -0.515844 0.543000 -0.654635
v -0.515844 0.557000 -0.654635
v -0.504898 0.543000 -0.645906
v -0.504898 0.557000 -0.645906
v -0.512635 0.543000 -0.657844
v -0.512635 0.557000 -0.657844
v -0.503906 0.543000 -0.646898
v -0.503906 0.557000 -0.646898
v -0.508793 0.543000 -0.660258
v -0.508793 0.557000 -0.660258
v -0.502718 0.543000 -0.647645
v -0.502718 0.557000 -0.647645
v -0.504509 0.543000 -0.661757
v -0.504509 0.557000 -0.661757
v -0.501394 0.543000 -0.648108
v -0.501394 0.557000 -0.648108
v -0.500000 0.543000 -0.662265
v -0.500000 0.557000 -0.662265
v -0.500000 0.543000 -0.648265
v -0.500000 0.557000 -0.648265
vn -0.0000 -0.0000 1.0000
vn 1.0000 -0.0000 -0.0000
vn -1.0000 -0.0000 -0.0000
vn -0.0000 -0.0000 -1.0000
vn -0.0000 -1.0000 -0.0000
vn -0.0000 1.0000 -0.0000
vn -0.9984 -0.0000 -0.0562
vn -0.9984 -0.0000 0.0562
vn 0.9984 -0.0000 -0.0562
vn 0.9984 -0.0000 0.0562
vn 0.9745 -0.0000 -0.2242
vn 0.8995 -0.0000 -0.4369
vn -0.9745 -0.0000 0.2242
vn -0.8995 -0.0000 0.4369
vn -0.7788 -0.0000 0.6273
vn 0.7788 -0.0000 -0.6273
vn 0.6188 -0.0000 -0.7855
vn -0.6188 -0.0000 0.7855
vn -0.4286 -0.0000 0.9035
vn 0.4286 -0.0000 -0.9035
vn -0.2187 -0.0000 0.9758
vn 0.2187 -0.0000 -0.9758
vn 0.1120 -0.0000 -0.9937
vn -0.1120 -0.0000 0.9937
vn 0.9745 -0.0000 0.2242
vn 0.8995 -0.0000 0.4369
vn -0.9745 -0.0000 -0.2242
vn -0.8995 -0.0000 -0.4369
vn -0.7788 -0.0000 -0.6273
vn 0.7788 -0.0000 0.6273
vn 0.6188 -0.0000 0.7855
vn -0.6188 -0.0000 -0.7855
vn -0.4286 -0.0000 -0.9035
vn 0.4286 -0.0000 0.9035
vn -0.2187 -0.0000 -0.9758
vn 0.2187 -0.0000 0.9758
vn 0.1120 -0.0000 0.9937
vn -0.1120 -0.0000 -0.9937
vt 0.901650 0.277910
vt 0.735535 0.277910
vt 0.735535 0.002720
vt 0.901650 0.002720
vt 0.730095 0.002720
vt 0.730095 0.368973
vt 0.563980 0.368973
vt 0.563980 0.002720
vt 0.168835 0.740666
vt 0.002720 0.740666
vt 0.002720 0.374413
vt 0.168835 0.374413
vt 0.753984 0.374413
vt 0.920099 0.374413
vt 0.920099 0.649603
vt 0.753984 0.649603
vt 0.002720 0.368973
vt 0.002720 0.002720
vt 0.277910 0.002720
vt 0.277910 0.368973
vt 0.442896 0.728658
vt 0.442896 0.374413
vt 0.593000 0.374413
vt 0.593000 0.728658
vt 0.552536 0.362969
vt 0.552536 0.008724
vt 0.558540 0.002720
vt 0.558540 0.368973
vt 0.289354 0.008724
vt 0.289354 0.362969
vt 0.283350 0.368973
vt 0.283350 0.002720
vt 0.437457 0.374413
vt 0.437457 0.728658
vt 0.174275 0.728658
vt 0.174275 0.374413
vt 0.753984 0.918225
vt 0.753984 0.655043
vt 0.904088 0.655043
vt 0.904088 0.918225
vt 0.598440 0.728658
vt 0.598440 0.374413
vt 0.748544 0.374413
vt 0.748544 0.728658
vt 0.174275 0.997280
vt 0.174275 0.734098
vt 0.324379 0.734098
vt 0.324379 0.997280
vt 0.351867 0.147916
vt 0.351867 0.819971
vt 0.211855 0.819971
vt 0.211855 0.147916
vt 0.071843 0.163972
vt 0.001837 0.163972
vt 0.004378 0.127894
vt 0.072628 0.152818
vt 0.495553 0.041027
vt 0.495553 0.713083
vt 0.355541 0.713083
vt 0.355541 0.041027
vt 0.208181 0.163972
vt 0.208181 0.836028
vt 0.138176 0.836028
vt 0.138176 0.163972
vt 0.495553 0.029873
vt 0.355541 0.029873
vt 0.355541 0.019278
vt 0.495553 0.019278
vt 0.351867 0.856050
vt 0.211855 0.856050
vt 0.137390 0.152818
vt 0.205640 0.127894
vt 0.198146 0.093624
vt 0.135073 0.142223
vt 0.131340 0.132719
vt 0.186073 0.062882
vt 0.351867 0.890319
vt 0.211855 0.890319
vt 0.011872 0.093624
vt 0.074946 0.142223
vt 0.078678 0.132719
vt 0.023945 0.062882
vt 0.039991 0.037210
vt 0.083639 0.124782
vt 0.351867 0.921061
vt 0.211855 0.921061
vt 0.355541 0.009774
vt 0.495553 0.009774
vt 0.170028 0.037210
vt 0.126380 0.124782
vt 0.120439 0.118810
vt 0.150814 0.017893
vt 0.355541 0.001837
vt 0.495553 0.001837
vt 0.351867 0.946734
vt 0.211855 0.946734
vt 0.113818 0.115103
vt 0.129395 0.005902
vt 0.351867 0.966050
vt 0.211855 0.966050
vt 0.059205 0.017893
vt 0.089579 0.118810
vt 0.543511 0.572905
vt 0.543511 0.432894
vt 0.550378 0.432894
vt 0.550378 0.572905
vt 0.096201 0.115103
vt 0.080623 0.005902
vt 0.103172 0.001837
vt 0.103172 0.113846
vt 0.539837 0.289208
vt 0.539837 0.429220
vt 0.520761 0.429220
vt 0.520761 0.289208
vt 0.557532 0.432894
vt 0.557532 0.572905
vt 0.499227 0.141849
vt 0.499227 0.001837
vt 0.611236 0.001837
vt 0.611236 0.141849
vt 0.564615 0.432894
vt 0.564615 0.572905
vt 0.106846 0.113846
vt 0.106846 0.001837
vt 0.499227 0.429220
vt 0.499227 0.289208
vt 0.071843 0.836028
vt 0.072628 0.847182
vt 0.004378 0.872106
vt 0.001837 0.836028
vt 0.495553 0.724237
vt 0.495553 0.734832
vt 0.355541 0.734832
vt 0.355541 0.724237
vt 0.211855 0.111837
vt 0.351867 0.111837
vt 0.205640 0.872106
vt 0.137390 0.847182
vt 0.198146 0.906376
vt 0.186073 0.937118
vt 0.131340 0.867281
vt 0.135073 0.857777
vt 0.211855 0.077568
vt 0.351867 0.077568
vt 0.074946 0.857777
vt 0.011872 0.906376
vt 0.078678 0.867281
vt 0.083639 0.875218
vt 0.039991 0.962790
vt 0.023945 0.937118
vt 0.211855 0.046826
vt 0.351867 0.046826
vt 0.495553 0.744336
vt 0.355541 0.744336
vt 0.170028 0.962790
vt 0.150814 0.982107
vt 0.120439 0.881190
vt 0.126380 0.875218
vt 0.495553 0.752273
vt 0.355541 0.752273
vt 0.211855 0.021153
vt 0.351867 0.021153
vt 0.129395 0.994098
vt 0.113818 0.884897
vt 0.211855 0.001837
vt 0.351867 0.001837
vt 0.089579 0.881190
vt 0.059205 0.982107
vt 0.564615 0.429220
vt 0.557749 0.429220
vt 0.557749 0.289208
vt 0.564615 0.289208
vt 0.096201 0.884897
vt 0.103172 0.886154
vt 0.103172 0.998163
vt 0.080623 0.994098
vt 0.499227 0.432894
vt 0.518303 0.432894
vt 0.518303 0.572905
vt 0.499227 0.572905
vt 0.550595 0.429220
vt 0.550595 0.289208
vt 0.611236 0.285534
vt 0.499227 0.285534
vt 0.499227 0.145523
vt 0.611236 0.145523
vt 0.543511 0.429220
vt 0.543511 0.289208
vt 0.106846 0.998163
vt 0.106846 0.886154
vt 0.539837 0.432894
vt 0.539837 0.572905
s 0
usemtl wood
f 253/625/19 261/626/19 263/627/19 257/628/19
f 253/629/20 255/630/20 262/631/20 261/632/20
f 257/633/21 263/634/21 264/635/21 259/636/21
f 262/637/22 255/638/22 259/639/22 264/640/22
f 255/641/23 253/642/23 257/643/23 259/644/23
f 260/645/20 258/646/20 267/647/20 268/648/20
f 256/649/24 254/650/24 261/651/24 262/652/24
f 258/653/24 260/654/24 264/655/24 263/656/24
f 254/650/24 258/653/24 263/656/24 261/651/24
f 260/654/24 256/649/24 262/652/24 264/655/24
f 265/657/24 266/658/24 268/659/24 267/660/24
f 258/661/22 254/662/22 265/663/22 267/664/22
f 254/665/21 256/666/21 266/667/21 265/668/21
f 256/669/19 260/670/19 268/671/19 266/672/19
s 1
usemtl black_plastic
f 301/673/25 269/674/26 270/675/26 302/676/25
f 272/677/24 270/678/24 274/679/24 276/680/24
f 271/681/27 303/682/28 304/683/28 272/684/27
f 269/685/23 301/686/23 303/687/23 271/688/23
f 275/689/29 276/690/29 280/691/30 279/692/30
f 271/681/27 272/684/27 276/690/29 275/689/29
f 270/675/26 269/674/26 273/693/31 274/694/31
f 269/685/23 271/688/23 275/695/23 273/696/23
f 277/697/23 279/698/23 283/699/23 281/700/23
f 273/696/23 275/695/23 279/698/23 277/697/23
f 274/694/31 273/693/31 277/701/32 278/702/32
f 276/680/24 274/679/24 278/703/24 280/704/24
f 284/705/24 282/706/24 286/707/24 288/708/24
f 278/702/32 277/701/32 281/709/33 282/710/33
f 280/704/24 278/703/24 282/706/24 284/705/24
f 279/692/30 280/691/30 284/711/34 283/712/34
f 285/713/23 287/714/23 291/715/23 289/716/23
f 283/712/34 284/711/34 288/717/35 287/718/35
f 281/700/23 283/699/23 287/714/23 285/713/23
f 282/710/33 281/709/33 285/719/36 286/720/36
f 289/716/23 291/715/23 295/721/23 293/722/23
f 286/720/36 285/719/36 289/723/37 290/724/37
f 288/708/24 286/707/24 290/725/24 292/726/24
f 287/727/35 288/728/35 292/729/38 291/730/38
f 296/731/24 294/732/24 298/733/24 300/734/24
f 290/735/37 289/736/37 293/737/39 294/738/39
f 292/726/24 290/725/24 294/732/24 296/731/24
f 291/730/38 292/729/38 296/739/40 295/740/40
f 299/741/20 300/742/20 298/743/20 297/744/20
f 295/740/40 296/739/40 300/745/41 299/746/41
f 293/722/23 295/721/23 299/747/23 297/748/23
f 294/738/39 293/737/39 297/749/42 298/750/42
f 304/751/24 308/752/24 306/753/24 302/754/24
f 272/677/24 304/751/24 302/754/24 270/678/24
f 307/755/43 311/756/44 312/757/44 308/758/43
f 303/682/28 307/755/43 308/758/43 304/683/28
f 302/676/25 306/759/45 305/760/45 301/673/25
f 301/686/23 305/761/23 307/762/23 303/687/23
f 309/763/23 313/764/23 315/765/23 311/766/23
f 305/761/23 309/763/23 311/766/23 307/762/23
f 306/759/45 310/767/46 309/768/46 305/760/45
f 308/752/24 312/769/24 310/770/24 306/753/24
f 316/771/24 320/772/24 318/773/24 314/774/24
f 310/767/46 314/775/47 313/776/47 309/768/46
f 312/769/24 316/771/24 314/774/24 310/770/24
f 311/756/44 315/777/48 316/778/48 312/757/44
f 317/779/23 321/780/23 323/781/23 319/782/23
f 315/777/48 319/783/49 320/784/49 316/778/48
f 313/764/23 317/779/23 319/782/23 315/765/23
f 314/775/47 318/785/50 317/786/50 313/776/47
f 321/780/23 325/787/23 327/788/23 323/781/23
f 318/785/50 322/789/51 321/790/51 317/786/50
f 320/772/24 324/791/24 322/792/24 318/773/24
f 319/793/49 323/794/52 324/795/52 320/796/49
f 328/797/24 332/798/24 330/799/24 326/800/24
f 322/801/51 326/802/53 325/803/53 321/804/51
f 324/791/24 328/797/24 326/800/24 322/792/24
f 323/794/52 327/805/54 328/806/54 324/795/52
f 331/807/20 329/808/20 330/809/20 332/810/20
f 327/805/54 331/811/55 332/812/55 328/806/54
f 325/787/23 329/813/23 331/814/23 327/788/23
f 326/802/53 330/815/56 329/816/56 325/803/53
o latch_1
v 0.050000 0.667000 -0.371250
v 0.038000 0.833000 -0.378750
v 0.050000 0.667000 -0.828750
v 0.038000 0.833000 -0.821250
v -0.500000 0.667000 -0.371250
v -0.488000 0.833000 -0.378750
v -0.500000 0.667000 -0.828750
v -0.488000 0.833000 -0.821250
v 0.050000 0.833000 -0.371250
v 0.050000 0.833000 -0.828750
v -0.500000 0.833000 -0.371250
v -0.500000 0.833000 -0.828750
v 0.038000 0.683000 -0.378750
v 0.038000 0.683000 -0.821250
v -0.488000 0.683000 -0.378750
v -0.488000 0.683000 -0.821250
v -0.520265 0.743000 -0.558000
v -0.520265 0.757000 -0.558000
v -0.506265 0.743000 -0.558000
v -0.506265 0.757000 -0.558000
v -0.519757 0.743000 -0.553491
v -0.519757 0.757000 -0.553491
v -0.506108 0.743000 -0.556606
v -0.506108 0.757000 -0.556606
v -0.518258 0.743000 -0.549207
v -0.518258 0.757000 -0.549207
v -0.505645 0.743000 -0.555282
v -0.505645 0.757000 -0.555282
v -0.515844 0.743000 -0.545365
v -0.515844 0.757000 -0.545365
v -0.504898 0.743000 -0.554094
v -0.504898 0.757000 -0.554094
v -0.512635 0.743000 -0.542156
v -0.512635 0.757000 -0.542156
v -0.503906 0.743000 -0.553102
v -0.503906 0.757000 -0.553102
v -0.508793 0.743000 -0.539742
v -0.508793 0.757000 -0.539742
v -0.502718 0.743000 -0.552355
v -0.502718 0.757000 -0.552355
v -0.504509 0.743000 -0.538243
v -0.504509 0.757000 -0.538243
v -0.501394 0.743000 -0.551892
v -0.501394 0.757000 -0.551892
v -0.500000 0.743000 -0.537735
v -0.500000 0.757000 -0.537735
v -0.500000 0.743000 -0.551735
v -0.500000 0.757000 -0.551735
v -0.520265 0.743000 -0.642000
v -0.520265 0.757000 -0.642000
v -0.506265 0.743000 -0.642000
v -0.506265 0.757000 -0.642000
v -0.519757 0.743000 -0.646509
v -0.519757 0.757000 -0.646509
v -0.506108 0.743000 -0.643394
v -0.506108 0.757000 -0.643394
v -0.518258 0.743000 -0.650793
v -0.518258 0.757000 -0.650793
v -0.505645 0.743000 -0.644718
v -0.505645 0.757000 -0.644718
v -0.515844 0.743000 -0.654635
v -0.515844 0.757000 -0.654635
v -0.504898 0.743000 -0.645906
v -0.504898 0.757000 -0.645906
v -0.512635 0.743000 -0.657844
v -0.512635 0.757000 -0.657844
v -0.503906 0.743000 -0.646898
v -0.503906 0.757000 -0.646898
v -0.508793 0.743000 -0.660258
v -0.508793 0.757000 -0.660258
v -0.502718 0.743000 -0.647645
v -0.502718 0.757000 -0.647645
v -0.504509 0.743000 -0.661757
v -0.504509 0.757000 -0.661757
v -0.501394 0.743000 -0.648108
v -0.501394 0.757000 -0.648108
v -0.500000 0.743000 -0.662265
v -0.500000 0.757000 -0.662265
v -0.500000 0.743000 -0.648265
v -0.500000 0.757000 -0.648265
vn -0.0000 -0.0000 1.0000
vn 1.0000 -0.0000 -0.0000
vn -1.0000 -0.0000 -0.0000
vn -0.0000 -0.0000 -1.0000
vn -0.0000 -1.0000 -0.0000
vn -0.0000 1.0000 -0.0000
vn -0.9984 -0.0000 -0.0562
vn -0.9984 -0.0000 0.0562
vn 0.9984 -0.0000 -0.0562
vn 0.9984 -0.0000 0.0562
vn 0.9745 -0.0000 -0.2242
vn 0.8995 -0.0000 -0.4369
vn -0.9745 -0.0000 0.2242
vn -0.8995 -0.0000 0.4369
vn -0.7788 -0.0000 0.6273
vn 0.7788 -0.0000 -0.6273
vn 0.6188 -0.0000 -0.7855
vn -0.6188 -0.0000 0.7855
vn -0.4286 -0.0000 0.9035
vn 0.4286 -0.0000 -0.9035
vn -0.2187 -0.0000 0.9758
vn 0.2187 -0.0000 -0.9758
vn 0.1120 -0.0000 -0.9937
vn -0.1120 -0.0000 0.9937
vn 0.9745 -0.0000 0.2242
vn 0.8995 -0.0000 0.4369
vn -0.9745 -0.0000 -0.2242
vn -0.8995 -0.0000 -0.4369
vn -0.7788 -0.0000 -0.6273
vn 0.7788 -0.0000 0.6273
vn 0.6188 -0.0000 0.7855
vn -0.6188 -0.0000 -0.7855
vn -0.4286 -0.0000 -0.9035
vn 0.4286 -0.0000 0.9035
vn -0.2187 -0.0000 -0.9758
vn 0.2187 -0.0000 0.9758
vn 0.1120 -0.0000 0.9937
vn -0.1120 -0.0000 -0.9937
vt 0.901650 0.277910
vt 0.735535 0.277910
vt 0.735535 0.002720
vt 0.901650 0.002720
vt 0.730095 0.002720
vt 0.730095 0.368973
vt 0.563980 0.368973
vt 0.563980 0.002720
vt 0.168835 0.740666
vt 0.002720 0.740666
vt 0.002720 0.374413
vt 0.168835 0.374413
vt 0.753984 0.374413
vt 0.920099 0.374413
vt 0.920099 0.649603
vt 0.753984 0.649603
vt 0.002720 0.368973
vt 0.002720 0.002720
vt 0.277910 0.002720
vt 0.277910 0.368973
vt 0.442896 0.728658
vt 0.442896 0.374413
vt 0.593000 0.374413
vt 0.593000 0.728658
vt 0.552536 0.362969
vt 0.552536 0.008724
vt 0.558540 0.002720
vt 0.558540 0.368973
vt 0.289354 0.008724
vt 0.289354 0.362969
vt 0.283350 0.368973
vt 0.283350 0.002720
vt 0.437457 0.374413
vt 0.437457 0.728658
vt 0.174275 0.728658
vt 0.174275 0.374413
vt 0.753984 0.918225
vt 0.753984 0.655043
vt 0.904088 0.655043
vt 0.904088 0.918225
vt 0.598440 0.728658
vt 0.598440 0.374413
vt 0.748544 0.374413
vt 0.748544 0.728658
vt 0.174275 0.997280
vt 0.174275 0.734098
vt 0.324379 0.734098
vt 0.324379 0.997280
vt 0.351867 0.147916
vt 0.351867 0.819971
vt 0.211855 0.819971
vt 0.211855 0.147916
vt 0.071843 0.163972
vt 0.001837 0.163972
vt 0.004378 0.127894
vt 0.072628 0.152818
vt 0.495553 0.041027
vt 0.495553 0.713083
vt 0.355541 0.713083
vt 0.355541 0.041027
vt 0.208181 0.163972
vt 0.208181 0.836028
vt 0.138176 0.836028
vt 0.138176 0.163972
vt 0.495553 0.029873
vt 0.355541 0.029873
vt 0.355541 0.019278
vt 0.495553 0.019278
vt 0.351867 0.856050
vt 0.211855 0.856050
vt 0.137390 0.152818
vt 0.205640 0.127894
vt 0.198146 0.093624
vt 0.135073 0.142223
vt 0.131340 0.132719
vt 0.186073 0.062882
vt 0.351867 0.890319
vt 0.211855 0.890319
vt 0.011872 0.093624
vt 0.074946 0.142223
vt 0.078678 0.132719
vt 0.023945 0.062882
vt 0.039991 0.037210
vt 0.083639 0.124782
vt 0.351867 0.921061
vt 0.211855 0.921061
vt 0.355541 0.009774
vt 0.495553 0.009774
vt 0.170028 0.037210
vt 0.126380 0.124782
vt 0.120439 0.118810
vt 0.150814 0.017893
vt 0.355541 0.001837
vt 0.495553 0.001837
vt 0.351867 0.946734
vt 0.211855 0.946734
vt 0.113818 0.115103
vt 0.129395 0.005902
vt 0.351867 0.966050
vt 0.211855 0.966050
vt 0.059205 0.017893
vt 0.089579 0.118810
vt 0.543511 0.572905
vt 0.543511 0.432894
vt 0.550378 0.432894
vt 0.550378 0.572905
vt 0.096201 0.115103
vt 0.080623 0.005902
vt 0.103172 0.001837
vt 0.103172 0.113846
vt 0.539837 0.289208
vt 0.539837 0.429220
vt 0.520761 0.429220
vt 0.520761 0.289208
vt 0.557532 0.432894
vt 0.557532 0.572905
vt 0.499227 0.141849
vt 0.499227 0.001837
vt 0.611236 0.001837
vt 0.611236 0.141849
vt 0.564615 0.432894
vt 0.564615 0.572905
vt 0.106846 0.113846
vt 0.106846 0.001837
vt 0.499227 0.429220
vt 0.499227 0.289208
vt 0.071843 0.836028
vt 0.072628 0.847182
vt 0.004378 0.872106
vt 0.001837 0.836028
vt 0.495553 0.724237
vt 0.495553 0.734832
vt 0.355541 0.734832
vt 0.355541 0.724237
vt 0.211855 0.111837
vt 0.351867 0.111837
vt 0.205640 0.872106
vt 0.137390 0.847182
vt 0.198146 0.906376
vt 0.186073 0.937118
vt 0.131340 0.867281
vt 0.135073 0.857777
vt 0.211855 0.077568
vt 0.351867 0.077568
vt 0.074946 0.857777
vt 0.011872 0.906376
vt 0.078678 0.867281
vt 0.083639 0.875218
vt 0.039991 0.962790
vt 0.023945 0.937118
vt 0.211855 0.046826
vt 0.351867 0.046826
vt 0.495553 0.744336
vt 0.355541 0.744336
vt 0.170028 0.962790
vt 0.150814 0.982107
vt 0.120439 0.881190
vt 0.126380 0.875218
vt 0.495553 0.752273
vt 0.355541 0.752273
vt 0.211855 0.021153
vt 0.351867 0.021153
vt 0.129395 0.994098
vt 0.113818 0.884897
vt 0.211855 0.001837
vt 0.351867 0.001837
vt 0.089579 0.881190
vt 0.059205 0.982107
vt 0.564615 0.429220
vt 0.557749 0.429220
vt 0.557749 0.289208
vt 0.564615 0.289208
vt 0.096201 0.884897
vt 0.103172 0.886154
vt 0.103172 0.998163
vt 0.080623 0.994098
vt 0.499227 0.432894
vt 0.518303 0.432894
vt 0.518303 0.572905
vt 0.499227 0.572905
vt 0.550595 0.429220
vt 0.550595 0.289208
vt 0.611236 0.285534
vt 0.499227 0.285534
vt 0.499227 0.145523
vt 0.611236 0.145523
vt 0.543511 0.429220
vt 0.543511 0.289208
vt 0.106846 0.998163
vt 0.106846 0.886154
vt 0.539837 0.432894
vt 0.539837 0.572905
s 1
usemtl wood
f 333/817/57 341/818/57 343/819/57 337/820/57
f 333/821/58 335/822/58 342/823/58 341/824/58
f 337/825/59 343/826/59 344/827/59 339/828/59
f 342/829/60 335/830/60 339/831/60 344/832/60
f 335/833/61 333/834/61 337/835/61 339/836/61
f 340/837/58 338/838/58 347/839/58 348/840/58
f 336/841/62 334/842/62 341/843/62 342/844/62
f 338/845/62 340/846/62 344/847/62 343/848/62
f 334/842/62 338/845/62 343/848/62 341/843/62
f 340/846/62 336/841/62 342/844/62 344/847/62
f 345/849/62 346/850/62 348/851/62 347/852/62
f 338/853/60 334/854/60 345/855/60 347/856/60
f 334/857/59 336/858/59 346/859/59 345/860/59
f 336/861/57 340/862/57 348/863/57 346/864/57
usemtl black_plastic
f 381/865/63 349/866/64 350/867/64 382/868/63
f 352/869/62 350/870/62 354/871/62 356/872/62
f 351/873/65 383/874/66 384/875/66 352/876/65
f 349/877/61 381/878/61 383/879/61 351/880/61
f 355/881/67 356/882/67 360/883/68 359/884/68
f 351/873/65 352/876/65 356/882/67 355/881/67
f 350/867/64 349/866/64 353/885/69 354/886/69
f 349/877/61 351/880/61 355/887/61 353/888/61
f 357/889/61 359/890/61 363/891/61 361/892/61
f 353/888/61 355/887/61 359/890/61 357/889/61
f 354/886/69 353/885/69 357/893/70 358/894/70
f 356/872/62 354/871/62 358/895/62 360/896/62
f 364/897/62 362/898/62 366/899/62 368/900/62
f 358/894/70 357/893/70 361/901/71 362/902/71
f 360/896/62 358/895/62 362/898/62 364/897/62
f 359/884/68 360/883/68 364/903/72 363/904/72
f 365/905/61 367/906/61 371/907/61 369/908/61
f 363/904/72 364/903/72 368/909/73 367/910/73
f 361/892/61 363/891/61 367/906/61 365/905/61
f 362/902/71 361/901/71 365/911/74 366/912/74
f 369/908/61 371/907/61 375/913/61 373/914/61
f 366/912/74 365/911/74 369/915/75 370/916/75
f 368/900/62 366/899/62 370/917/62 372/918/62
f 367/919/73 368/920/73 372/921/76 371/922/76
f 376/923/62 374/924/62 378/925/62 380/926/62
f 370/927/75 369/928/75 373/929/77 374/930/77
f 372/918/62 370/917/62 374/924/62 376/923/62
f 371/922/76 372/921/76 376/931/78 375/932/78
f 379/933/58 380/934/58 378/935/58 377/936/58
f 375/932/78 376/931/78 380/937/79 379/938/79
f 373/914/61 375/913/61 379/939/61 377/940/61
f 374/930/77 373/929/77 377/941/80 378/942/80
f 384/943/62 388/944/62 386/945/62 382/946/62
f 352/869/62 384/943/62 382/946/62 350/870/62
f 387/947/81 391/948/82 392/949/82 388/950/81
f 383/874/66 387/947/81 388/950/81 384/875/66
f 382/868/63 386/951/83 385/952/83 381/865/63
f 381/878/61 385/953/61 387/954/61 383/879/61
f 389/955/61 393/956/61 395/957/61 391/958/61
f 385/953/61 389/955/61 391/958/61 387/954/61
f 386/951/83 390/959/84 389/960/84 385/952/83
f 388/944/62 392/961/62 390/962/62 386/945/62
f 396/963/62 400/964/62 398/965/62 394/966/62
f 390/959/84 394/967/85 393/968/85 389/960/84
f 392/961/62 396/963/62 394/966/62 390/962/62
f 391/948/82 395/969/86 396/970/86 392/949/82
f 397/971/61 401/972/61 403/973/61 399/974/61
f 395/969/86 399/975/87 400/976/87 396/970/86
f 393/956/61 397/971/61 399/974/61 395/957/61
f 394/967/85 398/977/88 397/978/88 393/968/85
f 401/972/61 405/979/61 407/980/61 403/973/61
f 398/977/88 402/981/89 401/982/89 397/978/88
f 400/964/62 404/983/62 402/984/62 398/965/62
f 399/985/87 403/986/90 404/987/90 400/988/87
f 408/989/62 412/990/62 410/991/62 406/992/62
f 402/993/89 406/994/91 405/995/91 401/996/89
f 404/983/62 408/989/62 406/992/62 402/984/62
f 403/986/90 407/997/92 408/998/92 404/987/90
f 411/999/58 409/1000/58 410/1001/58 412/1002/58
f 407/997/92 411/1003/93 412/1004/93 408/998/92
f 405/979/61 409/1005/61 411/1006/61 407/980/61
f 406/994/91 410/1007/94 409/1008/94 405/995/91
